<svg xmlns="http://www.w3.org/2000/svg" width="160" height="37" viewBox="0 0 160 37" fill="none"><path fill-rule="evenodd" clip-rule="evenodd" d="M5.12518 2.43826H154.875C156.168 2.43826 157.226 3.48355 157.226 4.76213V32.2384C157.226 33.5164 156.169 34.5623 154.875 34.5623H5.12518C3.83264 34.5623 2.7749 33.517 2.7749 32.2384V4.76213C2.7749 3.48355 3.83264 2.43826 5.12518 2.43826ZM142.965 11.567C142.965 9.40818 143.425 7.75119 144.346 6.59551C145.266 5.43984 146.594 4.86228 148.328 4.86228C150.063 4.86228 151.39 5.43984 152.311 6.59551C153.231 7.75119 153.692 9.40818 153.692 11.567V25.4335C153.692 27.5924 153.231 29.2493 152.311 30.405C151.39 31.5607 150.063 32.1383 148.328 32.1383C146.594 32.1383 145.266 31.5607 144.346 30.405C143.425 29.2493 142.965 27.5924 142.965 25.4335V11.567ZM146.497 25.7004C146.497 26.6654 146.664 27.3448 146.995 27.738C147.327 28.1318 147.772 28.3287 148.328 28.3287C148.885 28.3287 149.329 28.1318 149.661 27.738C149.993 27.3443 150.159 26.6654 150.159 25.7004V11.3002C150.159 10.3351 149.994 9.6557 149.661 9.26194C149.329 8.86818 148.885 8.67187 148.328 8.67187C147.772 8.67187 147.327 8.86875 146.995 9.26194C146.664 9.6557 146.497 10.3351 146.497 11.3002V25.7004ZM141.102 21.8908V25.4335C141.102 27.5924 140.657 29.2493 139.769 30.405C138.88 31.5607 137.569 32.1383 135.835 32.1383C134.1 32.1383 132.789 31.5607 131.9 30.405C131.012 29.2493 130.567 27.5924 130.567 25.4335V11.567C130.567 9.40818 131.012 7.75119 131.9 6.59551C132.789 5.43984 134.1 4.86228 135.835 4.86228C137.569 4.86228 138.881 5.43984 139.769 6.59551C140.657 7.75119 141.102 9.40818 141.102 11.567V14.1572H137.762V11.3002C137.762 10.3351 137.596 9.6557 137.264 9.26194C136.932 8.86818 136.487 8.67187 135.93 8.67187C135.374 8.67187 134.93 8.86875 134.598 9.26194C134.266 9.6557 134.1 10.3351 134.1 11.3002V25.7004C134.1 26.6654 134.266 27.3386 134.598 27.7192C134.93 28.1005 135.374 28.2905 135.93 28.2905C136.487 28.2905 136.932 28.0999 137.264 27.7192C137.595 27.3386 137.762 26.6654 137.762 25.7004V21.8908H141.102ZM128.705 21.8908V25.4335C128.705 27.5924 128.261 29.2493 127.372 30.405C126.484 31.5607 125.172 32.1383 123.438 32.1383C121.704 32.1383 120.392 31.5607 119.503 30.405C118.615 29.2493 118.17 27.5924 118.17 25.4335V11.567C118.17 9.40818 118.615 7.75119 119.503 6.59551C120.392 5.43984 121.703 4.86228 123.438 4.86228C125.172 4.86228 126.484 5.43984 127.372 6.59551C128.261 7.75119 128.705 9.40818 128.705 11.567V14.1572H125.365V11.3002C125.365 10.3351 125.199 9.6557 124.867 9.26194C124.535 8.86818 124.091 8.67187 123.534 8.67187C122.977 8.67187 122.534 8.86875 122.201 9.26194C121.87 9.6557 121.703 10.3351 121.703 11.3002V25.7004C121.703 26.6654 121.869 27.3386 122.201 27.7192C122.533 28.1005 122.977 28.2905 123.534 28.2905C124.091 28.2905 124.535 28.0999 124.867 27.7192C125.199 27.3386 125.365 26.6654 125.365 25.7004V21.8908H128.705ZM108.761 23.3765H112.165L110.463 9.89071L108.761 23.3765ZM116.822 31.8333H113.257L112.647 26.9955H108.311L107.701 31.8333H104.458L108.054 5.16671H113.225L116.822 31.8333ZM95.8817 8.97629V16.0236H97.2623C97.9258 16.0236 98.4455 15.8205 98.8201 15.4142C99.1948 15.0079 99.3824 14.2716 99.3824 13.2047V11.719C99.3824 10.7539 99.2379 10.0552 98.949 9.62384C98.6601 9.19195 98.2049 8.97629 97.584 8.97629H95.8817ZM95.8817 19.8338V28.0242H97.9051C98.5048 28.0242 98.9594 27.8336 99.2696 27.453C99.5803 27.0723 99.7357 26.386 99.7357 25.3959V23.0721C99.7357 21.8276 99.559 20.9769 99.2057 20.52C98.8523 20.0631 98.2688 19.8343 97.4556 19.8343H95.8817V19.8338ZM97.6801 5.16671C99.5216 5.16671 100.854 5.67484 101.679 6.69054C102.503 7.70624 102.915 9.2426 102.915 11.3002V12.2527C102.915 13.6241 102.733 14.7541 102.369 15.6429C102.005 16.5317 101.427 17.1924 100.635 17.6237C101.599 18.0556 102.278 18.76 102.674 19.7382C103.071 20.7157 103.269 21.9158 103.269 23.3384V25.5097C103.269 27.5668 102.819 29.135 101.92 30.2144C101.02 31.2938 99.6822 31.8333 97.9051 31.8333H92.3488V5.16671H97.6801ZM79.3416 11.567C79.3416 9.40818 79.802 7.75119 80.7228 6.59551C81.6436 5.43984 82.9712 4.86228 84.7057 4.86228C86.4397 4.86228 87.7673 5.43984 88.6881 6.59551C89.6089 7.75119 90.0687 9.40818 90.0687 11.567V25.4335C90.0687 27.5924 89.6089 29.2493 88.6881 30.405C87.7673 31.5607 86.4397 32.1383 84.7057 32.1383C82.9712 32.1383 81.6436 31.5607 80.7228 30.405C79.802 29.2493 79.3416 27.5924 79.3416 25.4335V11.567ZM82.8745 25.7004C82.8745 26.6654 83.0409 27.3448 83.3723 27.738C83.7044 28.1318 84.1487 28.3287 84.7057 28.3287C85.2622 28.3287 85.7065 28.1318 86.0386 27.738C86.3701 27.3443 86.5364 26.6654 86.5364 25.7004V11.3002C86.5364 10.3351 86.3706 9.6557 86.0386 9.26194C85.7065 8.86818 85.2622 8.67187 84.7057 8.67187C84.1487 8.67187 83.7044 8.86875 83.3723 9.26194C83.0409 9.6557 82.8745 10.3351 82.8745 11.3002V25.7004ZM67.1695 5.16671H78.0894V8.97629H74.3959V31.8333H70.863V8.97629H67.1695V5.16671ZM53.5201 23.3765H56.9247L55.2224 9.89071L53.5201 23.3765ZM61.581 31.8333H58.0158L57.4058 26.9955H53.0701L52.4601 31.8333H49.2161L52.8134 5.16671H57.9842L61.581 31.8333ZM39.5813 12.519V31.8333H36.4017V5.16671H40.8341L44.4631 21.1283V5.16671H47.6105V31.8333H43.9809L39.5813 12.519ZM23.4268 11.567C23.4268 9.40818 23.8872 7.75119 24.808 6.59551C25.7282 5.43984 27.0558 4.86228 28.7903 4.86228C30.5243 4.86228 31.8519 5.43984 32.7727 6.59551C33.6935 7.75119 34.1533 9.40818 34.1533 11.567V25.4335C34.1533 27.5924 33.6935 29.2493 32.7727 30.405C31.8519 31.5607 30.5243 32.1383 28.7903 32.1383C27.0558 32.1383 25.7282 31.5607 24.808 30.405C23.8872 29.2493 23.4268 27.5924 23.4268 25.4335V11.567ZM26.9597 25.7004C26.9597 26.6654 27.1255 27.3448 27.4575 27.738C27.7896 28.1318 28.2338 28.3287 28.7903 28.3287C29.3468 28.3287 29.7911 28.1318 30.1232 27.738C30.4546 27.3443 30.621 26.6654 30.621 25.7004V11.3002C30.621 10.3351 30.4552 9.6557 30.1232 9.26194C29.7911 8.86818 29.3468 8.67187 28.7903 8.67187C28.2338 8.67187 27.7896 8.86875 27.4575 9.26194C27.1255 9.6557 26.9597 10.3351 26.9597 11.3002V25.7004ZM13.8237 24.1003L16.2326 5.16728H21.1467V31.8338H17.806V12.7102L15.3654 31.8338H12.0253L9.39184 12.9765V31.8338H6.30896V5.16728H11.223L13.8237 24.1003ZM15.3061 36.9368C10.8012 36.9579 6.73827 36.9795 3.20709 37C1.7183 37.0074 0.5 35.7959 0.5 34.3233V2.67667C0.5 1.20462 1.71773 0 3.20709 0C21.431 0 39.6549 0 57.8789 0C75.7972 0 93.7156 0 111.634 0C126.687 0 141.74 0 156.793 0C158.282 0 159.5 1.20462 159.5 2.67667V34.3227C159.5 35.7948 158.282 37.004 156.793 36.9994C156.295 36.9977 150.696 36.9795 144.602 36.9613C66.0295 36.7297 29.9971 36.868 15.3061 36.9368Z" fill="#07080A"></path></svg>