<svg xmlns="http://www.w3.org/2000/svg" width="113" height="108" viewBox="0 0 113 108" fill="none"><path fill-rule="evenodd" clip-rule="evenodd" d="M70.9047 84.3071L70.3057 82.2858L71.779 81.1726L69.9642 81.168L69.2861 79.1694L68.6589 81.1606L66.8038 81.1745C68.228 82.29 66.8038 81.1745 68.228 82.29L67.6629 84.2136C68.3164 83.8586 68.7427 83.4545 69.2963 83.1536C69.8415 83.5299 70.3756 83.9072 70.9047 84.3071ZM64.2183 84.3071L63.6194 82.2858L65.0927 81.1726L63.2778 81.168L62.5997 79.1694L61.9726 81.1606L60.1175 81.1745C61.5417 82.29 60.1175 81.1745 61.5417 82.29L60.9761 84.2136C61.6296 83.8586 62.0559 83.4545 62.6095 83.1536C63.1552 83.5299 63.6893 83.9072 64.2183 84.3071ZM44.3527 84.3071L43.7538 82.2858L45.2271 81.1726L43.4122 81.168L42.7337 79.1694L42.1065 81.1606L40.2514 81.1745C41.6756 82.29 40.2514 81.1745 41.6756 82.29L41.11 84.2136C41.7636 83.8586 42.1898 83.4545 42.7434 83.1536C43.2896 83.5299 43.8237 83.9072 44.3527 84.3071ZM51.0224 84.3071L50.4235 82.2858L51.8968 81.1726L50.0819 81.168L49.4038 79.1694L48.7767 81.1606L46.9211 81.1745C48.3453 82.2895 46.9211 81.1745 48.3453 82.2895L47.7797 84.2131C48.4332 83.8581 48.8595 83.454 49.4131 83.1527C49.9593 83.5299 50.4934 83.9067 51.0224 84.3071ZM87.4257 78.4825L86.7606 79.5041L88.1478 82.289L85.0295 82.1613L84.3292 83.2365L88.6935 83.3772L90.9337 84.8361L91.5488 83.8914L89.309 82.4325L87.4257 78.4825ZM81.416 87.4767L82.8824 86.0011L86.6796 89.7738L87.4738 88.974L83.6766 85.2013L85.1429 83.7253L84.395 82.9824L80.6676 86.7338L81.416 87.4767ZM83.3725 92.5602L84.2681 91.8756L80.3779 86.7852L79.4822 87.4697L83.3725 92.5602ZM79.1129 95.453L82.4894 93.2817L81.9196 92.3954L79.491 93.9571L76.5954 89.4549L75.6475 90.0645L79.1129 95.453ZM73.1814 92.9874L75.0403 94.6087L73.3606 95.4511L73.1814 92.9874ZM72.5691 98.8619L73.5851 98.3523L73.4481 96.5856L75.8979 95.3576L77.2314 96.5245L78.3048 95.9867L72.9958 91.4507L72.1109 91.8941L72.5691 98.8619ZM69.4041 93.1924L68.3632 93.6007L69.6494 96.88C70.104 98.0389 69.9276 98.8448 69.0232 99.1993C67.9906 99.6043 67.2361 99.0355 66.7987 97.9209L65.5388 94.7083L64.4896 95.1197L65.836 98.5527C66.521 100.299 67.9235 100.763 69.4083 100.181C70.6626 99.6885 71.4893 98.5078 70.7742 96.6851L69.4041 93.1924ZM59.7689 98.7846C59.6088 97.4655 60.4067 96.4361 61.6259 96.2875C62.827 96.1417 63.8758 96.9466 64.036 98.2662C64.1022 98.8119 64.0073 99.3224 63.7809 99.7376L63.1362 99.1419L62.4877 99.8857L63.101 100.448C62.8344 100.61 62.5248 100.721 62.1698 100.764C60.9779 100.909 59.9235 100.058 59.7689 98.7846ZM58.5859 98.9285C58.827 100.912 60.4044 102.041 62.2966 101.811C62.9154 101.736 63.463 101.531 63.9128 101.209L64.2132 101.477L65.5143 101.319L64.6215 100.504C65.0977 99.8644 65.3292 99.0331 65.2186 98.1232C64.9779 96.1399 63.3912 95.0124 61.4986 95.2419C59.5426 95.4789 58.3619 97.0813 58.5859 98.9285ZM49.2557 101.434L50.3781 101.537L50.8007 96.9526L52.5776 99.9468L52.7419 99.9621L55.0201 97.3141L54.5952 101.926L55.7088 102.029L56.2962 95.6488L55.2372 95.5511L52.8817 98.3393L50.9748 95.1586L49.8431 95.0545L49.2557 101.434ZM49.445 95.222L48.3782 94.8874L47.3233 98.2481C46.9503 99.4363 46.3078 99.9533 45.3807 99.6622C44.3227 99.3298 44.0917 98.4139 44.4504 97.2711L45.484 93.9783L44.4083 93.6409L43.3039 97.1595C42.742 98.9494 43.5441 100.19 45.0655 100.668C46.3513 101.072 47.7353 100.67 48.3222 98.8017L49.445 95.222ZM39.7613 98.6203L40.8059 99.0443L43.2164 93.1086L42.1718 92.6842L39.7613 98.6203ZM32.3251 94.7333L33.3063 95.2878L35.5725 91.2799L35.9645 94.7393L36.108 94.8207L39.2716 93.3401L36.992 97.372L37.9654 97.9223L41.1183 92.3454L40.1926 91.8224L36.9008 93.3988L36.4667 89.716L35.478 89.1559L32.3251 94.7333ZM28.1117 91.553L31.1453 93.8478L31.7812 93.0068L29.6466 91.3924L30.6472 90.0696L32.4894 91.4628L33.1254 90.6222L31.2832 89.229L32.2399 87.9645L34.301 89.5239L34.937 88.6833L31.9766 86.444L28.1117 91.553ZM28.8653 84.9171C29.5165 85.5619 29.4087 86.0613 29.0541 86.4195C28.5899 86.8884 27.947 86.7167 27.485 86.2584L26.9639 85.7428L28.3052 84.3881C28.5269 84.5945 28.7158 84.769 28.8653 84.9171ZM24.5321 88.1978L26.2219 86.4917L26.782 87.0462L26.3492 89.9974L27.3193 90.9582L27.7378 87.6831C28.2446 87.927 29.1328 88.033 29.9072 87.2513C30.6875 86.463 30.8898 85.4383 29.6461 84.2066C29.5156 84.078 28.5001 83.0972 28.246 82.8458L23.7313 87.4045L24.5321 88.1978ZM25.5207 81.2092C26.0067 81.8067 26.0109 82.3344 25.492 82.757C24.9375 83.2083 24.3589 83.0055 23.9364 82.4867C23.7744 82.2876 23.6151 82.0627 23.4689 81.8391L24.9972 80.5955C25.1958 80.8241 25.3758 81.0319 25.5207 81.2092ZM20.8385 83.9794L22.6371 82.5158C22.7894 82.7463 23.0208 83.031 23.1421 83.18C24.1081 84.3672 25.3911 84.3751 26.2367 83.6868C27.0541 83.0217 27.4601 81.9229 26.2687 80.4589C25.9854 80.1104 25.3291 79.3328 25.1032 79.0555L20.1271 83.105L20.8385 83.9794ZM79.8016 78.6723C80.2242 77.8123 79.928 77.0843 78.9129 76.4872H35.0929C33.6789 76.3382 32.8634 76.9931 32.6468 78.452C33.5623 80.0183 35.6729 82.0576 38.9776 84.5695C44.0811 88.2445 49.7811 90.0802 56.0786 90.0765C62.3211 89.9279 67.7513 88.3829 72.3691 85.4415C75.6818 83.3156 78.1594 81.0597 79.8016 78.6723ZM16.4396 76.4876H29.0222C29.2152 76.5409 29.3753 76.6964 29.504 76.9547C31.161 79.5795 33.0217 81.7947 35.0851 83.6003C38.4662 86.6435 42.4523 88.9041 47.0433 90.382C51.8176 91.8039 56.4966 92.1464 61.0802 91.409C65.4421 90.6875 69.3884 89.2424 72.919 87.0745C75.879 85.2008 78.2418 83.2754 80.0076 81.2985C82.4801 78.0914 83.7164 76.4876 83.7164 76.4876H96.3495C97.3821 76.5497 98.0958 76.9463 98.4893 77.6786C98.9692 78.6538 98.9373 79.6239 98.3934 80.5894C96.4439 84.4482 93.6983 88.2487 90.1575 91.9909C87.8802 94.6837 83.628 97.8043 77.3999 101.352C72.4335 103.764 67.3338 105.264 62.1008 105.852C57.0853 106.62 51.0396 106.214 43.9644 104.635C37.9862 103.049 32.5908 100.376 27.778 96.6171C23.5948 93.4507 20.0947 89.7395 17.2782 85.4836C14.8548 81.9988 13.7342 79.7387 13.9161 78.7038C14.1429 77.3379 14.9844 76.5992 16.4396 76.4876ZM3.27467 51.738H109.305C110.221 51.738 110.969 52.4865 110.969 53.402V73.0774C110.969 73.9929 110.221 74.7413 109.305 74.7413H3.27467C2.35915 74.7413 1.61072 73.9929 1.61072 73.0774V53.402C1.61072 52.4869 2.35915 51.738 3.27467 51.738ZM100.872 58.2754C100.872 56.7294 101.198 55.5427 101.85 54.7151C102.502 53.8875 103.442 53.4742 104.67 53.4742C105.898 53.4742 106.838 53.888 107.49 54.7151C108.142 55.5427 108.467 56.7294 108.467 58.2754V68.2049C108.467 69.7508 108.142 70.9376 107.49 71.7647C106.838 72.5923 105.898 73.0061 104.67 73.0061C103.442 73.0061 102.502 72.5923 101.85 71.7647C101.198 70.9371 100.872 69.7504 100.872 68.2049V58.2754ZM103.373 68.3961C103.373 69.0871 103.491 69.5736 103.726 69.8554C103.961 70.1373 104.275 70.2785 104.67 70.2785C105.064 70.2785 105.378 70.1378 105.613 69.8554C105.848 69.5736 105.966 69.0871 105.966 68.3961V58.0842C105.966 57.3932 105.848 56.9067 105.613 56.6248C105.378 56.343 105.064 56.2023 104.67 56.2023C104.276 56.2023 103.961 56.343 103.726 56.6248C103.491 56.9067 103.373 57.3932 103.373 58.0842V68.3961ZM99.5529 65.668V68.2049C99.5529 69.7508 99.2386 70.9376 98.6091 71.7647C97.9801 72.5923 97.0516 73.0061 95.8237 73.0061C94.5957 73.0061 93.6673 72.5923 93.0378 71.7647C92.4088 70.9371 92.094 69.7504 92.094 68.2049V58.2754C92.094 56.7294 92.4088 55.5427 93.0378 54.7151C93.6673 53.8875 94.5953 53.4742 95.8237 53.4742C97.0516 53.4742 97.9801 53.888 98.6091 54.7151C99.2386 55.5427 99.5529 56.7294 99.5529 58.2754V60.13H97.1882V58.0842C97.1882 57.3932 97.0706 56.9067 96.8359 56.6248C96.6008 56.343 96.2865 56.2023 95.8922 56.2023C95.4978 56.2023 95.1836 56.343 94.9484 56.6248C94.7138 56.9067 94.5957 57.3932 94.5957 58.0842V68.3961C94.5957 69.0871 94.7133 69.5689 94.9484 69.842C95.1836 70.1146 95.4978 70.2512 95.8922 70.2512C96.2865 70.2512 96.6013 70.1146 96.8359 69.842C97.0706 69.5694 97.1882 69.0876 97.1882 68.3961V65.668H99.5529ZM90.7754 65.668V68.2049C90.7754 69.7508 90.4606 70.9376 89.8316 71.7647C89.2026 72.5923 88.2741 73.0061 87.0462 73.0061C85.8182 73.0061 84.8897 72.5923 84.2603 71.7647C83.6312 70.9371 83.3165 69.7504 83.3165 68.2049V58.2754C83.3165 56.7294 83.6312 55.5427 84.2603 54.7151C84.8897 53.8875 85.8182 53.4742 87.0462 53.4742C88.2741 53.4742 89.2026 53.888 89.8316 54.7151C90.4611 55.5427 90.7754 56.7294 90.7754 58.2754V60.13H88.4102V58.0842C88.4102 57.3932 88.2926 56.9067 88.058 56.6248C87.8228 56.343 87.5086 56.2023 87.1142 56.2023C86.7199 56.2023 86.4056 56.343 86.1704 56.6248C85.9358 56.9067 85.8182 57.3932 85.8182 58.0842V68.3961C85.8182 69.0871 85.9358 69.5689 86.1704 69.842C86.4056 70.1146 86.7199 70.2512 87.1142 70.2512C87.5086 70.2512 87.8228 70.1146 88.058 69.842C88.2926 69.5694 88.4102 69.0876 88.4102 68.3961V65.668H90.7754ZM76.6538 66.7317H79.0643L77.859 57.0747L76.6538 66.7317ZM82.3616 72.7881H79.8377L79.4054 69.3236H76.3353L75.903 72.7881H73.6063L76.153 53.6922H79.8141L82.3616 72.7881ZM67.5351 56.4203V61.4667H68.5127C68.9825 61.4667 69.3504 61.3214 69.6156 61.0303C69.8809 60.7391 70.0137 60.2119 70.0137 59.4482V58.3846C70.0137 57.6936 69.9114 57.1932 69.7068 56.884C69.5022 56.5749 69.1801 56.4203 68.7404 56.4203H67.5351ZM67.5351 64.1948V70.06H68.9677C69.3921 70.06 69.7142 69.924 69.9341 69.6509C70.1539 69.3782 70.2641 68.8872 70.2641 68.1776V66.5137C70.2641 65.6227 70.1391 65.0136 69.8887 64.6859C69.6383 64.3586 69.2255 64.1948 68.6492 64.1948H67.5351ZM68.808 53.6922C70.1118 53.6922 71.0556 54.056 71.6392 54.7836C72.2229 55.5112 72.5149 56.6114 72.5149 58.0842V58.7665C72.5149 59.7482 72.3863 60.5577 72.1285 61.1941C71.8707 61.8305 71.4615 62.3036 70.9005 62.6128C71.5828 62.9219 72.0637 63.4264 72.3442 64.1267C72.6246 64.827 72.7649 65.6861 72.7649 66.7048V68.2595C72.7649 69.7328 72.4464 70.8557 71.8096 71.6286C71.1727 72.4016 70.2252 72.7881 68.9672 72.7881H65.033V53.6922H68.808ZM55.8236 58.2754C55.8236 56.7294 56.1494 55.5427 56.8016 54.7151C57.4533 53.8875 58.3933 53.4742 59.6218 53.4742C60.8497 53.4742 61.7897 53.888 62.4414 54.7151C63.0931 55.5427 63.419 56.7294 63.419 58.2754V68.2049C63.419 69.7508 63.0931 70.9376 62.4414 71.7647C61.7893 72.5923 60.8497 73.0061 59.6218 73.0061C58.3938 73.0061 57.4538 72.5923 56.8016 71.7647C56.1499 70.9371 55.8236 69.7504 55.8236 68.2049V58.2754ZM58.3248 68.3961C58.3248 69.0871 58.4424 69.5736 58.6775 69.8554C58.9127 70.1373 59.2269 70.2785 59.6213 70.2785C60.0152 70.2785 60.3299 70.1378 60.565 69.8554C60.7997 69.5736 60.9173 69.0871 60.9173 68.3961V58.0842C60.9173 57.3932 60.7997 56.9067 60.565 56.6248C60.3299 56.343 60.0156 56.2023 59.6213 56.2023C59.2269 56.2023 58.9122 56.343 58.6775 56.6248C58.4429 56.9067 58.3248 57.3932 58.3248 58.0842V68.3961ZM47.2048 53.6922H54.9368V56.4203H52.3217V72.7881H49.8204V56.4203H47.2053V53.6922H47.2048ZM37.5405 66.7317H39.951L38.7458 57.0747L37.5405 66.7317ZM43.2484 72.7881H40.7244L40.2921 69.3236H37.222L36.7902 72.7881H34.4931L37.0402 53.6922H40.7013L43.2484 72.7881ZM27.6711 58.9571V72.7881H25.4198V53.6922H28.5579L31.1282 65.1223V53.6922H33.3568V72.7881H30.787L27.6711 58.9571ZM16.2331 58.2754C16.2331 56.7294 16.5594 55.5427 17.2111 54.7151C17.8628 53.8875 18.8029 53.4742 20.0308 53.4742C21.2588 53.4742 22.1988 53.888 22.8505 54.7151C23.5022 55.5427 23.8281 56.7294 23.8281 58.2754V68.2049C23.8281 69.7508 23.5022 70.9376 22.8505 71.7647C22.1988 72.5923 21.2588 73.0061 20.0308 73.0061C18.8029 73.0061 17.8628 72.5923 17.2111 71.7647C16.5594 70.9371 16.2331 69.7504 16.2331 68.2049V58.2754ZM18.7344 68.3961C18.7344 69.0871 18.8519 69.5736 19.0871 69.8554C19.3222 70.1373 19.6365 70.2785 20.0308 70.2785C20.4247 70.2785 20.7395 70.1378 20.9746 69.8554C21.2092 69.5736 21.3268 69.0871 21.3268 68.3961V58.0842C21.3268 57.3932 21.2092 56.9067 20.9746 56.6248C20.7395 56.343 20.4252 56.2023 20.0308 56.2023C19.6369 56.2023 19.3222 56.343 19.0871 56.6248C18.8519 56.9067 18.7344 57.3932 18.7344 58.0842V68.3961ZM9.43384 67.2501L11.1394 53.6922H14.6187V72.7881H12.2535V59.0937L10.5252 72.7881H8.16007L6.29524 59.2844V72.7881H4.11244V53.6922H7.59169L9.43384 67.2501ZM48.6263 28.2215C48.4083 27.7281 48.4939 28.0836 48.7813 27.9345L48.3722 27.7471C48.4823 28.5538 48.3985 28.0243 48.6263 28.2215ZM48.7818 27.9345C48.4939 28.0836 48.4087 27.7281 48.6267 28.2215C48.8396 28.7834 50.0185 30.0086 51.0821 29.96C52.3684 29.9007 53.0937 28.901 52.7267 27.5041C51.3515 27.1606 50.3434 27.8526 49.5709 28.3178L48.7818 27.9345ZM47.8829 30.3441C48.0435 31.3268 48.5142 30.745 49.4386 31.1458C49.963 31.1365 50.8341 31.1148 51.3154 31.3064C51.8134 31.5045 51.3895 31.2999 51.6029 31.5068C50.7896 32.0294 50.3638 31.4351 49.8783 32.1835C50.0555 32.7144 49.944 32.657 50.7438 32.7236C53.3122 32.9366 52.7095 31.7378 52.8502 31.2495C53.3348 31.0477 54.3341 30.4895 53.75 30.0021C53.6301 29.9364 51.1534 30.1502 50.7438 30.3201C50.1189 30.5788 50.442 30.8778 49.3298 30.583C48.5952 30.3881 48.7901 30.2284 47.8829 30.3441ZM58.0365 84.987L57.2788 82.4307L59.1422 81.0231L56.8465 81.0171L55.9888 78.4895L55.1955 81.0079L52.8489 81.0255C54.6498 82.4362 52.8488 81.0255 54.6498 82.4362L53.9347 84.8694C54.7613 84.4205 55.3001 83.9095 56.0004 83.5285C56.6914 84.0044 57.3667 84.4811 58.0365 84.987ZM10.4831 76.4423L1.91667 76.4876C0.862755 76.4932 0 75.6254 0 74.571V51.9093C0 50.8549 0.862292 49.9926 1.91667 49.9926H40.6268C41.6858 47.6515 42.4731 45.3308 42.356 42.3329C42.2176 38.7995 40.5194 37.5401 40.3347 34.6038L40.1579 32.1326C39.4636 26.8218 41.7844 26.6904 41.6515 24.4011C41.4567 21.039 42.2588 22.6816 42.3491 20.8469C42.3903 20.0137 42.0723 19.6657 42.1898 18.6951C42.2778 17.9693 42.5296 17.3403 42.7115 16.7446C43.5682 15.9976 44.0163 13.5866 45.0354 14.858L44.5041 17.9869L59.6528 18.004C59.5398 17.0251 59.6028 17.182 58.927 16.7326C56.9492 15.4186 57.4838 14.2985 56.4137 13.1538C54.8127 11.4413 53.1094 11.5746 50.5943 10.8368L50.8901 8.93539C49.869 9.6954 50.3809 10.7785 48.9465 11.5611L47.763 8.53595C49.0414 7.70236 50.1277 7.02844 51.9833 6.70167C52.9345 6.53412 53.6889 6.49616 54.6456 6.49431C59.967 6.48182 63.8763 8.77479 66.3488 13.8745C67.8267 16.9233 68.1896 23.6661 68.9209 27.5846C69.3884 30.0905 69.9378 31.8095 69.8605 34.5519C69.7003 40.2445 70.9306 40.5083 72.8982 43.7099C74.365 46.0968 77.9553 48.5194 78.6875 49.9917H110.663C111.717 49.9917 112.579 50.8545 112.579 51.9084V74.5701C112.579 75.624 111.717 76.49 110.663 76.4867L102.031 76.4594C97.6621 88.2598 89.2378 97.2794 76.7579 103.518C70.7991 106.324 64.1623 107.817 56.847 107.998C50.9044 108.056 45.1447 107.065 39.5678 105.024C26.6112 99.9417 16.9163 90.4139 10.4831 76.4423ZM61.3325 50.1611C61.7763 47.1114 63.2061 41.5076 60.8756 40.0006C58.9761 38.7731 57.4348 39.9788 55.5028 39.7794C53.9393 39.6178 53.4316 38.3371 51.2279 37.8766C51.3511 41.0568 53.6848 41.5738 52.3476 47.3178C52.1124 48.3278 51.6501 49.2488 51.502 50.1667L61.3325 50.1611ZM47.0507 32.533L46.6031 32.0516L45.7395 29.0833C45.2877 27.5073 44.5508 26.1354 44.3833 24.365L59.6791 24.4104C58.9789 28.0451 57.6977 26.3187 58.0564 29.1532C58.4207 32.0303 53.2941 35.4966 50.7517 35.4262C49.527 35.3924 49.146 34.6607 48.6508 34.115C48.3453 33.778 47.384 32.7945 47.0507 32.533Z" fill="white"></path><path d="M41.0106 34.0611C41.3826 33.4592 41.1962 32.6696 40.5943 32.2977C39.9923 31.9257 39.2028 32.1121 38.8309 32.7141C38.4589 33.316 38.6453 34.1055 39.2472 34.4775C39.8492 34.8494 40.6387 34.663 41.0106 34.0611Z" fill="white"></path><path fill-rule="evenodd" clip-rule="evenodd" d="M35.3302 28.5306C35.968 28.8324 36.48 29.3568 36.7651 30.0039C36.7628 29.9724 36.7618 29.9409 36.7618 29.909C36.7618 29.1995 37.3154 28.619 38.0143 28.5765C37.9861 28.4843 37.9708 28.3867 37.9708 28.2853C37.9708 27.7373 38.4151 27.293 38.9632 27.293C39.5112 27.293 39.9555 27.7373 39.9555 28.2853C39.9555 28.7338 39.6584 29.1124 39.2501 29.2356C39.3658 29.4332 39.4325 29.6637 39.4325 29.9095C39.4325 30.6468 38.8345 31.2448 38.0972 31.2448C37.6135 31.2448 37.19 30.9879 36.9558 30.6028C36.9942 30.7926 37.0145 30.9893 37.0145 31.1906C37.0145 32.8148 35.6977 34.1316 34.0736 34.1316C32.4494 34.1316 31.1326 32.8148 31.1326 31.1906C31.1326 30.8416 31.1937 30.507 31.3053 30.1964C31.2659 30.1974 31.2266 30.1983 31.1868 30.1983C28.9345 30.1983 27.1091 28.3723 27.1091 26.1206C27.1091 24.1317 28.5333 22.4756 30.4171 22.1155C30.0051 21.5175 29.7158 20.8279 29.5862 20.0841C31.2669 19.4694 32.5105 17.948 32.7253 16.1123L32.5851 16.091C32.1625 17.6249 31.0021 18.8529 29.5103 19.3703C29.0341 19.518 28.5277 19.5976 28.0024 19.5976C25.1924 19.5976 22.9142 17.3194 22.9142 14.509C22.9142 14.0938 22.9642 13.6907 23.0582 13.3047C22.8467 13.3375 22.63 13.3542 22.4093 13.3542C20.0774 13.3542 18.1871 11.4639 18.1871 9.13206C18.1871 7.42368 19.2017 5.95273 20.6611 5.28808C20.4389 4.81134 20.3144 4.27999 20.3144 3.71901C20.3144 1.66534 21.9793 0 24.0334 0C25.8691 0 27.3942 1.33024 27.6973 3.07935C26.1561 3.95368 25.116 5.6093 25.116 7.50792C25.116 9.95594 26.8448 11.9994 29.1475 12.4859L29.2289 12.2943C27.2155 11.6162 25.7659 9.7134 25.7659 7.47181C25.7659 4.66184 28.044 2.38369 30.854 2.38369C32.8762 2.38369 34.6225 3.56349 35.4432 5.27188C36.3369 4.84328 37.3385 4.60306 38.3962 4.60306C40.5618 4.60306 42.4919 5.60976 43.7449 7.18068L42.8974 8.22765L42.9988 8.35956L44.1758 7.78563C44.5377 7.66482 44.9251 7.5991 45.3278 7.5991C47.3357 7.5991 48.9631 9.22694 48.9631 11.2343C48.9631 13.2422 47.3352 14.8696 45.3278 14.8696C45.0015 14.8696 44.6854 14.8261 44.3845 14.7455C43.425 16.4808 41.7333 17.7545 39.7259 18.1503C39.7949 18.4863 39.831 18.8344 39.831 19.1908C39.831 21.9767 37.6232 24.2469 34.8614 24.3474C34.9914 24.6168 35.0933 24.9023 35.1618 25.2004C35.4209 24.9329 35.7838 24.7663 36.186 24.7663C36.9734 24.7663 37.6116 25.4045 37.6116 26.1918C37.6116 26.9792 36.9734 27.6174 36.186 27.6174C35.769 27.6174 35.3941 27.4383 35.1335 27.1532C35.1178 27.2134 35.1007 27.2726 35.0826 27.3318C34.7049 28.3024 34.018 29.1439 33.1058 29.7026L33.165 29.8317C34.1773 29.6146 34.8706 29.1448 35.3302 28.5306Z" fill="white"></path><path fill-rule="evenodd" clip-rule="evenodd" d="M42.6081 26.95C43.6361 26.95 44.491 27.691 44.6678 28.6681C45.6468 28.7986 46.4433 29.5063 46.7039 30.4376C46.8557 30.3432 47.0353 30.2881 47.2274 30.2881C47.7754 30.2881 48.2198 30.7324 48.2198 31.2805C48.2198 31.8285 47.7754 32.2728 47.2274 32.2728C46.9909 32.2728 46.7733 32.19 46.603 32.0516C46.2313 32.9342 45.3584 33.554 44.3406 33.554C42.9854 33.554 41.8866 32.4552 41.8866 31.0999C41.8866 31.0694 41.8875 31.0393 41.8884 31.0088C41.0872 30.7153 40.5151 29.9456 40.5151 29.0426C40.5151 27.8868 41.4524 26.95 42.6081 26.95Z" fill="white"></path></svg>