<?xml version="1.0" standalone="no"?>
<!DOCTYPE svg PUBLIC "-//W3C//DTD SVG 20010904//EN"
 "http://www.w3.org/TR/2001/REC-SVG-20010904/DTD/svg10.dtd">
<svg version="1.0" xmlns="http://www.w3.org/2000/svg"
 width="700.000000pt" height="700.000000pt" viewBox="0 0 700.000000 700.000000"
 preserveAspectRatio="xMidYMid meet">
<metadata>
Created by potrace 1.14, written by Peter Selinger 2001-2017
</metadata>
<g transform="translate(0.000000,700.000000) scale(0.100000,-0.100000)"
fill="#000000" stroke="none">
<path d="M3275 6990 c-2 -3 5 -7 16 -7 10 -1 19 2 19 6 0 9 -29 10 -35 1z"/>
<path d="M3423 6993 c43 -2 110 -2 150 0 40 1 5 3 -78 3 -82 0 -115 -2 -72 -3z"/>
<path d="M3655 6990 c3 -5 8 -10 11 -10 2 0 4 5 4 10 0 6 -5 10 -11 10 -5 0
-7 -4 -4 -10z"/>
<path d="M3155 6980 c-3 -5 -1 -10 4 -10 6 0 11 5 11 10 0 6 -2 10 -4 10 -3 0
-8 -4 -11 -10z"/>
<path d="M3198 6983 c12 -2 32 -2 45 0 12 2 2 4 -23 4 -25 0 -35 -2 -22 -4z"/>
<path d="M3733 6983 c15 -2 37 -2 50 0 12 2 0 4 -28 4 -27 0 -38 -2 -22 -4z"/>
<path d="M3810 6979 c0 -5 5 -7 10 -4 6 3 10 8 10 11 0 2 -4 4 -10 4 -5 0 -10
-5 -10 -11z"/>
<path d="M3849 6977 c5 -5 21 -7 37 -5 27 3 26 4 -8 9 -22 3 -34 1 -29 -4z"/>
<path d="M3066 6972 c-2 -4 13 -6 35 -4 21 2 39 6 39 8 0 7 -69 4 -74 -4z"/>
<path d="M2970 6960 c-21 -7 -21 -8 -5 -9 11 0 27 4 35 9 18 11 5 11 -30 0z"/>
<path d="M3028 6963 c7 -3 16 -2 19 1 4 3 -2 6 -13 5 -11 0 -14 -3 -6 -6z"/>
<path d="M3953 6963 c9 -2 23 -2 30 0 6 3 -1 5 -18 5 -16 0 -22 -2 -12 -5z"/>
<path d="M4008 6958 c6 -6 18 -8 28 -6 14 3 12 5 -9 10 -19 3 -25 2 -19 -4z"/>
<path d="M2910 6953 c-37 -7 -46 -20 -10 -15 17 2 33 8 36 13 3 5 4 8 2 8 -2
-1 -14 -4 -28 -6z"/>
<path d="M4070 6949 c0 -5 11 -9 25 -9 14 0 25 2 25 4 0 2 -11 6 -25 8 -14 3
-25 1 -25 -3z"/>
<path d="M2805 6930 c-27 -7 -28 -8 -5 -8 14 0 34 3 45 8 25 11 2 11 -40 0z"/>
<path d="M4130 6936 c0 -2 13 -6 29 -8 17 -2 28 -1 25 4 -5 8 -54 12 -54 4z"/>
<path d="M4215 6921 c11 -5 40 -11 65 -15 30 -4 36 -3 20 3 -37 12 -109 22
-85 12z"/>
<path d="M2710 6910 c-20 -6 -21 -8 -5 -8 11 0 29 3 40 8 25 11 -1 11 -35 0z"/>
<path d="M2577 6878 c-43 -11 -76 -22 -74 -25 5 -4 169 36 176 43 8 8 -24 2
-102 -18z"/>
<path d="M4330 6896 c0 -2 7 -7 16 -10 8 -3 12 -2 9 4 -6 10 -25 14 -25 6z"/>
<path d="M4375 6885 c22 -11 209 -64 213 -60 2 2 -34 15 -80 29 -80 24 -154
41 -133 31z"/>
<path d="M2410 6828 c-30 -11 -57 -22 -60 -25 -8 -8 48 8 98 28 63 25 31 22
-38 -3z"/>
<path d="M4615 6810 c27 -12 43 -12 25 0 -8 5 -22 9 -30 9 -10 0 -8 -3 5 -9z"/>
<path d="M2290 6785 c-33 -19 -21 -19 21 0 19 8 27 14 19 14 -8 0 -26 -6 -40
-14z"/>
<path d="M4689 6785 c18 -8 36 -15 40 -15 13 1 -45 29 -59 29 -8 0 0 -6 19
-14z"/>
<path d="M4839 6725 c58 -25 106 -43 108 -41 5 4 -188 86 -202 86 -5 -1 37
-21 94 -45z"/>
<path d="M2175 6741 c-22 -11 -35 -19 -30 -19 14 -1 93 36 80 37 -5 0 -28 -8
-50 -18z"/>
<path d="M2080 6700 c-19 -11 -30 -19 -25 -19 6 0 26 8 45 19 19 11 31 19 25
19 -5 0 -26 -8 -45 -19z"/>
<path d="M1998 6664 c-39 -21 -35 -28 5 -8 37 19 44 24 31 24 -5 -1 -21 -8
-36 -16z"/>
<path d="M4960 6676 c0 -5 109 -56 119 -56 8 1 -44 29 -86 46 -18 8 -33 12
-33 10z"/>
<path d="M1918 6624 c-39 -21 -35 -28 5 -8 37 19 44 24 31 24 -5 -1 -21 -8
-36 -16z"/>
<path d="M5110 6601 c14 -11 29 -21 33 -21 5 0 52 -25 105 -56 54 -31 100 -59
105 -61 4 -2 7 -2 7 0 0 6 -117 75 -205 121 -38 21 -59 28 -45 17z"/>
<path d="M1835 6579 c-22 -12 -44 -26 -50 -31 -5 -6 14 2 43 17 28 15 52 29
52 31 0 6 -3 5 -45 -17z"/>
<path d="M1679 6489 c-146 -88 -428 -293 -429 -311 0 -4 35 21 78 55 95 77
240 178 351 246 46 28 87 53 89 56 14 14 -13 0 -89 -46z"/>
<path d="M5370 6456 c0 -2 7 -9 15 -16 9 -7 15 -8 15 -2 0 5 -7 12 -15 16 -8
3 -15 4 -15 2z"/>
<path d="M5415 6423 c6 -5 48 -36 95 -68 47 -32 118 -85 159 -118 40 -33 70
-54 67 -48 -10 16 -127 108 -221 172 -84 59 -117 79 -100 62z"/>
<path d="M1742 6200 c-96 -22 -157 -110 -150 -215 l5 -60 -43 -38 c-98 -86
-104 -237 -14 -327 46 -46 97 -70 151 -70 l39 0 0 -62 c0 -156 136 -284 287
-272 65 5 139 42 178 87 38 45 48 37 13 -9 -31 -40 -68 -72 -100 -86 -29 -14
-30 -34 -2 -90 14 -27 13 -27 -33 -51 -54 -26 -108 -96 -119 -153 -22 -116 65
-242 177 -260 36 -6 37 -7 37 -55 0 -86 74 -159 161 -159 70 0 140 62 156 138
5 26 10 32 23 26 51 -22 106 12 104 67 0 17 6 38 14 46 33 33 9 93 -38 93 -32
0 -57 -22 -58 -52 0 -10 -6 -18 -14 -18 -8 0 -23 -11 -34 -25 l-20 -25 -32 30
-33 31 -26 -25 c-14 -14 -39 -30 -55 -36 l-30 -11 35 35 c18 19 41 49 51 66 9
18 19 27 23 21 10 -17 71 -13 94 7 11 9 24 31 27 48 11 58 -64 112 -117 83
-18 -9 -20 -8 -17 8 2 11 15 20 38 24 117 19 210 134 214 262 l2 58 57 24 c32
13 65 29 74 36 14 12 15 11 10 -6 -17 -55 -23 -103 -16 -135 9 -43 2 -97 -17
-124 -9 -13 -14 -46 -14 -89 0 -58 -6 -82 -35 -147 -41 -92 -54 -150 -49 -229
3 -57 3 -58 -29 -72 -69 -31 -66 -115 5 -133 31 -8 37 -14 43 -45 4 -19 24
-82 46 -139 49 -128 54 -154 52 -273 -1 -103 -18 -186 -59 -291 l-27 -68
-1054 -2 -1055 -3 -29 -33 -29 -32 0 -630 c0 -454 3 -636 12 -654 25 -55 39
-58 303 -57 l243 2 29 -64 c27 -56 82 -159 153 -282 32 -56 135 -209 188 -280
339 -447 804 -782 1302 -939 93 -30 318 -81 393 -90 26 -3 66 -8 90 -11 91
-12 147 -15 282 -15 135 0 177 2 295 16 83 9 101 12 145 19 22 3 53 8 68 11
71 11 305 76 393 109 128 48 292 128 425 208 502 303 861 707 1075 1211 l43
101 244 1 c267 2 283 5 306 62 8 19 11 209 9 659 l-3 633 -28 27 -27 28 -869
3 -868 2 -140 139 c-183 183 -301 353 -328 471 -4 19 -9 98 -10 175 -4 154 -6
176 -40 350 -13 66 -26 143 -30 170 -3 28 -8 65 -11 83 -2 17 -6 47 -8 65 -22
165 -20 151 -40 262 -29 157 -70 250 -158 363 -119 153 -283 230 -501 236
-153 4 -273 -24 -358 -85 -27 -19 -32 -19 -47 -6 -43 36 -146 48 -192 22 -35
-20 -46 -18 -27 3 24 27 21 37 -20 76 -88 83 -241 119 -348 83 l-46 -16 -57
58 c-70 71 -134 96 -222 88 -139 -12 -237 -115 -248 -258 -4 -57 -1 -75 21
-123 28 -60 74 -110 122 -132 17 -7 23 -13 15 -14 -18 0 -76 34 -108 64 -13
11 -36 44 -50 71 -59 115 -20 262 89 338 19 14 20 19 10 50 -31 92 -139 150
-239 127z m1472 -528 l-6 -48 59 -13 c182 -41 246 -81 289 -181 16 -37 42 -71
81 -106 35 -32 54 -56 51 -66 -5 -12 -65 -14 -404 -13 -220 0 -399 2 -398 5 0
3 4 30 8 60 12 91 14 96 47 98 77 6 151 65 171 136 6 23 21 51 33 62 12 12 28
37 35 55 13 34 29 59 36 59 2 0 1 -22 -2 -48z m459 -771 c14 -1 16 -6 11 -28
-9 -38 -32 -83 -60 -116 -20 -24 -24 -39 -23 -90 2 -78 1 -81 -41 -143 -84
-123 -279 -228 -375 -202 -17 4 -60 39 -103 82 l-72 73 30 7 c24 4 32 12 37
36 l6 30 76 -6 c89 -7 121 -19 76 -29 -60 -14 -66 -17 -63 -33 2 -13 16 -18
58 -20 62 -3 90 11 93 47 1 12 14 32 29 43 32 22 37 48 11 49 -61 3 -118 -4
-168 -23 -26 -9 -43 -9 -67 -1 -18 6 -53 11 -78 12 -31 1 -49 7 -57 18 -7 10
-21 27 -32 38 -30 32 -92 240 -77 256 3 3 697 3 789 0z m-347 -752 c32 -17 73
-38 89 -47 34 -18 76 -20 187 -8 95 10 137 -2 178 -52 28 -34 45 -96 43 -158
-1 -47 -14 -187 -17 -193 -2 -3 -7 -26 -10 -51 -4 -25 -8 -54 -10 -65 -3 -11
-5 -26 -5 -32 -1 -10 -60 -13 -262 -13 l-261 0 5 23 c2 12 16 64 30 116 37
131 33 254 -10 361 -39 95 -49 150 -30 150 8 0 41 -14 73 -31z m3071 -731 l27
-28 1 -542 c0 -299 -3 -556 -8 -571 -20 -61 202 -57 -2906 -57 -2060 0 -2847
3 -2864 11 -52 24 -52 20 -51 610 l0 549 23 24 c13 14 33 26 45 28 11 2 1300
3 2863 3 l2843 0 27 -27z m-4263 -1393 c85 -119 249 -288 363 -372 195 -144
460 -265 663 -303 30 -6 66 -12 80 -15 114 -22 396 -26 505 -6 56 9 72 13 135
26 14 3 36 7 49 10 13 2 71 21 130 41 238 81 462 219 649 398 30 28 101 112
158 187 l104 135 358 0 c324 -1 360 -3 385 -19 71 -47 80 -126 25 -227 -165
-305 -408 -598 -659 -793 -48 -37 -227 -155 -327 -216 -261 -157 -572 -262
-907 -305 -22 -3 -60 -8 -85 -12 -139 -21 -463 -8 -665 27 -33 6 -71 12 -85
14 -14 2 -45 8 -70 14 -25 5 -60 13 -79 16 -57 10 -265 83 -371 130 -114 50
-261 131 -333 181 -26 19 -49 34 -52 34 -13 0 -212 160 -299 240 -58 53 -172
171 -213 220 -145 173 -318 448 -338 537 -13 64 29 135 91 152 16 4 184 7 373
7 l344 -1 71 -100z m2612 76 c36 -35 31 -70 -20 -138 -102 -136 -297 -289
-492 -387 -140 -70 -328 -129 -484 -151 -25 -3 -58 -9 -75 -12 -16 -3 -90 -6
-163 -7 -316 -6 -603 78 -868 253 -150 99 -341 272 -380 345 -20 36 -4 80 37
105 26 16 116 17 1224 17 l1196 -1 25 -24z"/>
<path d="M3194 4716 c-37 -21 -43 -22 -68 -9 -37 19 -43 10 -17 -23 58 -74
135 -95 186 -51 24 20 30 43 26 90 -2 26 -76 23 -127 -7z"/>
<path d="M1534 3349 c-78 -16 -128 -71 -149 -164 -16 -74 -13 -677 4 -730 29
-87 85 -133 170 -140 90 -8 161 33 199 114 25 53 31 694 8 776 -17 55 -53 107
-88 126 -29 16 -109 26 -144 18z m70 -149 c17 -6 28 -21 35 -47 5 -21 8 -173
8 -338 -2 -270 -4 -304 -20 -328 -20 -31 -61 -36 -93 -13 -18 14 -19 31 -22
350 l-3 336 25 25 c28 28 34 29 70 15z"/>
<path d="M3658 3349 c-91 -14 -140 -63 -163 -163 -16 -75 -13 -678 4 -731 31
-94 101 -145 195 -141 93 4 148 45 179 137 23 66 24 681 2 756 -32 106 -111
158 -217 142z m63 -152 c33 -26 36 -52 35 -373 -1 -302 -2 -323 -20 -343 -22
-24 -63 -27 -92 -7 -17 13 -19 31 -24 213 -3 109 -3 263 0 341 5 136 6 145 29
163 27 22 49 24 72 6z"/>
<path d="M5125 3352 c-54 -9 -102 -34 -124 -67 -49 -72 -50 -86 -48 -465 2
-342 3 -357 24 -402 33 -70 88 -103 172 -103 88 1 130 26 167 101 23 47 28 71
32 169 4 107 3 115 -14 116 -11 0 -39 1 -64 2 l-45 2 -5 -108 c-4 -93 -8 -111
-24 -123 -27 -19 -59 -18 -87 5 l-24 19 -1 314 c0 172 3 328 8 346 6 21 18 36
34 42 36 14 42 13 69 -15 22 -22 25 -32 25 -105 l0 -80 66 0 67 0 -5 98 c-8
128 -38 200 -100 233 -24 13 -98 26 -123 21z"/>
<path d="M6058 3349 c-90 -14 -143 -68 -163 -164 -6 -32 -10 -185 -9 -377 1
-314 1 -325 24 -376 27 -62 65 -97 122 -112 93 -26 189 15 229 97 24 47 24 52
27 400 2 331 1 356 -18 405 -37 96 -113 142 -212 127z m64 -148 c4 0 14 -13
21 -28 11 -22 14 -93 13 -349 -1 -302 -2 -323 -20 -343 -35 -39 -98 -21 -111
32 -3 12 -5 165 -3 340 3 314 3 319 25 337 19 15 38 18 75 11z"/>
<path d="M763 3342 l-33 -3 0 -508 0 -508 53 3 c28 1 55 2 58 3 3 1 6 149 5
330 -1 314 4 380 19 247 4 -34 9 -68 10 -77 2 -9 6 -40 10 -70 3 -30 15 -114
26 -187 10 -74 22 -157 25 -185 4 -29 8 -54 11 -57 3 -3 31 -5 63 -6 67 -1 63
-5 75 106 3 30 8 66 10 80 2 14 7 48 10 75 3 28 8 66 10 85 25 198 35 279 37
302 1 15 4 25 7 22 2 -2 5 -154 5 -336 l1 -332 63 -2 62 -2 0 509 0 509 -22 1
c-52 2 -160 0 -163 -3 -2 -2 -13 -79 -24 -173 -24 -201 -31 -250 -36 -290 -3
-16 -7 -57 -11 -90 -4 -33 -8 -67 -10 -75 -1 -8 -3 -26 -3 -39 -1 -24 -15 -21
-16 2 -1 15 -16 136 -20 158 -2 9 -6 40 -10 70 -3 30 -10 79 -15 109 -5 30
-12 80 -15 110 -3 30 -8 62 -10 70 -2 8 -6 42 -10 75 -3 33 -9 63 -13 67 -8 8
-102 14 -149 10z"/>
<path d="M5521 3330 c-95 -60 -103 -99 -104 -479 0 -168 3 -328 7 -356 19
-125 91 -187 208 -180 97 6 156 63 175 170 7 40 10 190 4 215 0 3 -27 5 -58 4
l-58 -1 -5 -101 c-4 -80 -9 -104 -24 -121 -24 -27 -68 -27 -92 0 -18 20 -19
41 -19 355 0 362 -1 355 56 369 17 4 33 0 50 -14 21 -17 24 -28 28 -105 l3
-86 63 0 62 0 -3 96 c-4 114 -31 186 -85 225 -49 34 -159 39 -208 9z"/>
<path d="M1868 3333 c-4 -7 -3 -969 1 -999 0 -6 25 -10 59 -10 l57 0 0 358 c0
197 0 358 1 358 3 0 68 -278 78 -330 3 -14 23 -106 45 -205 23 -99 41 -181 41
-182 0 -1 30 -1 68 0 l67 2 3 508 2 507 -60 0 -60 0 -1 -292 c-1 -186 -4 -282
-10 -263 -10 33 -88 376 -95 415 -3 14 -10 50 -17 80 l-12 55 -82 3 c-45 1
-83 -1 -85 -5z"/>
<path d="M2479 3313 c0 -16 -2 -37 -4 -48 -3 -11 -7 -38 -9 -60 -5 -36 -18
-133 -31 -226 -3 -20 -8 -56 -10 -80 -2 -24 -7 -62 -10 -84 -4 -22 -8 -51 -10
-65 -5 -28 -14 -97 -20 -150 -2 -19 -11 -86 -20 -149 -8 -63 -15 -117 -15
-121 0 -3 27 -6 59 -6 l59 -1 7 46 c3 25 9 62 11 81 8 61 7 60 94 60 76 0 80
-1 81 -22 0 -13 3 -34 5 -48 5 -26 11 -74 13 -100 1 -12 16 -15 67 -16 l66 -1
-6 61 c-3 34 -8 70 -10 81 -2 11 -7 46 -11 79 -3 32 -8 68 -10 80 -2 11 -6 41
-9 66 -3 25 -10 79 -16 120 -10 72 -14 107 -26 195 -3 22 -7 51 -9 65 -2 14
-9 66 -15 115 -7 50 -13 99 -15 110 -2 11 -4 26 -4 33 -1 9 -28 12 -101 12
l-100 0 -1 -27z m106 -238 c4 -33 8 -71 11 -85 2 -14 6 -50 9 -80 3 -30 8 -66
10 -80 4 -25 11 -72 19 -142 5 -41 7 -40 -59 -40 -65 0 -66 0 -61 30 3 15 8
52 11 82 5 50 10 94 20 160 2 14 7 50 10 80 3 30 8 64 10 75 2 11 4 31 4 44 2
41 9 19 16 -44z"/>
<path d="M3025 3276 c0 -35 4 -68 8 -72 4 -5 33 -9 65 -10 31 -1 59 -2 62 -3
3 0 5 -196 5 -435 l0 -434 65 2 65 1 2 400 c2 220 3 416 3 436 l0 35 68 -1 69
-1 1 73 0 73 -207 0 -206 0 0 -64z"/>
<path d="M3975 2835 c0 -441 2 -506 15 -509 8 -2 69 -3 135 -2 139 3 183 17
220 75 32 48 43 104 43 214 0 121 -17 183 -60 222 l-34 31 27 26 c36 36 52
103 52 213 -1 120 -26 179 -93 213 -39 19 -59 22 -175 22 l-130 0 0 -505z
m243 341 c13 -12 18 -39 20 -105 4 -80 2 -90 -20 -114 -21 -23 -50 -32 -95
-28 -10 1 -13 35 -13 135 l0 134 46 -3 c26 -1 53 -9 62 -19z m11 -420 c20 -21
23 -35 23 -103 1 -127 -1 -142 -22 -163 -15 -15 -33 -20 -70 -20 l-50 0 0 155
0 155 48 0 c38 0 53 -5 71 -24z"/>
<path d="M4569 3333 c0 -5 -2 -17 -4 -28 -3 -11 -7 -38 -9 -60 -9 -69 -47
-349 -51 -375 -10 -68 -16 -109 -21 -155 -3 -27 -7 -59 -9 -70 -1 -11 -6 -42
-9 -70 -4 -27 -13 -93 -20 -145 -7 -52 -12 -98 -10 -101 3 -5 90 -5 115 0 4 0
10 34 14 74 5 39 9 75 10 80 2 4 3 12 4 17 0 6 35 10 81 10 46 0 81 -4 81 -10
1 -5 2 -13 3 -17 1 -5 6 -40 10 -80 4 -39 13 -73 19 -75 7 -2 37 -4 67 -4 47
1 55 4 53 20 -9 110 -14 160 -17 165 -2 3 -6 30 -10 59 -3 28 -8 67 -11 85 -5
36 -25 185 -31 232 -2 17 -6 50 -10 75 -3 25 -7 59 -10 75 -2 17 -6 46 -9 65
-6 41 -13 93 -21 170 -3 30 -8 58 -11 63 -2 4 -47 7 -99 7 -52 0 -94 -3 -95
-7z m121 -413 c32 -264 33 -270 24 -271 -12 -1 -86 -1 -102 0 -11 1 -12 16 -8
69 4 37 8 78 11 92 6 37 13 88 20 150 3 30 8 64 10 75 2 11 4 38 5 60 3 74 18
8 40 -175z"/>
<path d="M5152 1998 c-19 -19 -15 -42 18 -106 17 -33 30 -63 30 -67 0 -4 -36
-5 -80 -3 -79 3 -81 3 -92 -24 -7 -14 -15 -25 -18 -23 -4 2 -50 -40 -104 -94
-97 -97 -98 -99 -80 -118 19 -20 19 -20 59 18 l40 38 101 -100 101 -100 24 20
24 20 -103 103 -102 104 35 34 c22 21 33 40 30 51 -5 15 5 16 97 12 79 -3 110
-8 133 -23 83 -53 86 -54 107 -32 20 20 20 20 -42 62 -58 39 -65 48 -108 141
-25 54 -49 99 -52 99 -3 0 -11 -5 -18 -12z"/>
<path d="M1714 1882 c-129 -105 -131 -107 -115 -129 9 -12 19 -23 22 -23 3 0
24 16 47 36 l43 36 45 -42 c43 -40 49 -42 92 -37 35 4 53 12 74 36 45 51 33
106 -40 188 l-37 42 -131 -107z m160 -15 c16 -22 18 -31 8 -51 -17 -37 -57
-44 -88 -15 -32 30 -30 42 7 74 36 30 45 29 73 -8z"/>
<path d="M1897 1670 c-64 -65 -117 -122 -117 -125 0 -9 27 -35 36 -35 5 0 28
19 52 43 41 40 44 41 57 23 8 -10 13 -22 11 -25 -2 -3 -7 -33 -11 -66 -3 -32
-8 -62 -11 -66 -2 -4 9 -19 24 -34 l27 -27 12 83 c6 46 12 85 12 86 1 1 14 0
30 -3 33 -7 80 16 100 48 34 54 19 98 -61 175 l-43 43 -118 -120z m150 8 c38
-36 21 -102 -24 -93 -10 2 -21 4 -24 4 -3 1 -15 11 -28 22 l-23 21 33 34 c18
19 35 34 38 34 3 0 15 -10 28 -22z"/>
<path d="M2120 1474 c-47 -63 -91 -123 -98 -133 -11 -16 -5 -24 64 -76 59 -44
81 -56 93 -48 28 18 22 31 -33 73 l-56 42 21 29 c11 16 24 31 28 34 5 2 30
-11 55 -31 45 -34 48 -35 61 -17 21 26 20 29 -30 64 l-45 32 20 31 c10 17 23
32 28 34 4 1 30 -14 56 -35 37 -29 51 -35 64 -27 9 6 17 15 19 21 4 11 -137
123 -153 122 -5 0 -47 -52 -94 -115z"/>
<path d="M4770 1560 l-24 -18 103 -135 c103 -135 103 -136 127 -120 13 8 24
16 24 18 0 1 -46 63 -103 138 l-103 135 -24 -18z"/>
<path d="M2362 1383 c-80 -138 -122 -215 -122 -224 0 -7 32 -29 43 -29 5 0 24
32 84 140 36 63 43 69 44 35 1 -17 2 -34 4 -40 1 -5 3 -28 4 -50 2 -54 13 -70
37 -56 32 18 144 69 144 66 0 -2 -27 -49 -59 -106 -54 -93 -58 -104 -43 -116
33 -25 34 -24 138 162 15 28 36 64 46 80 23 38 23 40 -7 53 -22 10 -36 7 -107
-29 -60 -30 -83 -37 -89 -28 -4 7 -10 47 -14 89 -8 85 -10 92 -42 109 -20 10
-25 7 -61 -56z"/>
<path d="M4572 1422 c-12 -8 -22 -19 -22 -24 0 -9 152 -251 171 -272 7 -8 149
75 170 101 8 8 7 18 -3 32 -14 20 -16 19 -74 -19 -32 -22 -62 -40 -65 -40 -6
0 -51 68 -124 186 -29 49 -32 50 -53 36z"/>
<path d="M4372 1314 c-16 -11 -21 -22 -18 -42 4 -22 12 -142 20 -294 2 -35 10
-42 35 -28 17 9 21 20 21 61 l0 50 62 28 62 29 37 -29 c33 -26 40 -28 63 -18
24 11 35 29 19 29 -5 0 -21 13 -38 28 -16 15 -73 63 -125 107 -52 44 -96 83
-98 88 -5 11 -15 9 -40 -9z m102 -123 c16 -17 28 -32 25 -33 -37 -23 -71 -39
-75 -35 -3 3 -7 30 -10 62 -5 52 -4 56 13 47 10 -6 31 -24 47 -41z"/>
<path d="M2731 1198 c-13 -35 -32 -81 -42 -103 -27 -61 -60 -147 -57 -150 2
-2 15 -6 29 -10 26 -6 28 -3 88 147 56 141 60 154 44 166 -29 21 -37 14 -62
-50z"/>
<path d="M4183 1228 c-13 -6 -23 -15 -23 -20 0 -5 15 -49 34 -97 51 -131 50
-169 -4 -191 -66 -27 -98 3 -151 143 -31 84 -34 88 -58 82 -14 -4 -28 -8 -30
-10 -5 -6 77 -208 95 -234 49 -70 179 -61 229 16 28 42 21 100 -25 217 -23 58
-43 106 -44 105 0 0 -11 -5 -23 -11z"/>
<path d="M2846 1118 c-16 -51 -31 -116 -34 -143 -4 -44 -1 -55 23 -83 57 -68
152 -79 207 -25 21 21 40 63 67 144 l38 114 -26 11 c-14 6 -29 9 -32 5 -3 -3
-16 -42 -29 -86 -41 -139 -59 -165 -116 -165 -32 0 -74 42 -74 73 0 13 14 70
31 126 17 56 30 104 28 106 -2 2 -15 6 -29 10 -24 5 -26 2 -54 -87z"/>
<path d="M3169 1134 c0 -5 -2 -18 -4 -29 -2 -11 -7 -49 -10 -85 -12 -141 -17
-195 -21 -202 -5 -8 15 -21 38 -25 24 -4 25 1 32 97 12 151 13 152 61 66 20
-36 41 -69 47 -73 6 -3 20 5 31 18 10 13 37 44 59 68 l40 45 -6 -75 c-4 -41
-9 -95 -12 -121 -5 -48 -5 -48 25 -48 17 0 31 3 32 8 0 4 2 27 4 52 10 112 15
164 21 220 l6 60 -30 0 c-23 0 -39 -11 -73 -51 -24 -29 -50 -60 -57 -70 -7
-11 -17 -19 -21 -19 -5 0 -29 36 -55 80 -25 44 -53 80 -60 80 -8 0 -21 3 -30
6 -9 3 -16 2 -17 -2z"/>
<path d="M3747 1115 c-80 -28 -118 -88 -112 -178 4 -69 34 -115 92 -142 46
-22 119 -23 161 -1 17 9 33 12 36 8 3 -5 21 -6 41 -4 l36 4 -21 23 c-18 19
-20 27 -11 44 19 34 21 112 5 150 -19 46 -41 69 -86 92 -43 22 -88 24 -141 4z
m139 -79 c32 -32 40 -58 35 -106 -5 -38 -11 -43 -30 -26 -18 16 -20 16 -35 -5
-14 -20 -14 -23 2 -35 16 -12 15 -13 -8 -22 -35 -13 -75 -7 -110 18 -59 42
-57 154 3 191 51 31 103 25 143 -15z"/>
<path d="M3473 1950 c-11 -37 -24 -60 -33 -61 -8 -1 -37 -2 -64 -2 l-49 -1 26
-22 c14 -12 36 -29 48 -38 l23 -16 -18 -56 c-10 -31 -15 -58 -12 -61 2 -3 26
10 51 27 l47 32 51 -35 c28 -20 52 -35 54 -34 1 2 -6 31 -16 65 l-19 62 44 32
c24 17 44 34 44 38 0 4 -25 7 -55 6 l-55 -2 -21 63 c-11 35 -22 63 -25 63 -2
0 -12 -27 -21 -60z"/>
<path d="M3130 1940 c-18 -59 -21 -62 -72 -62 l-43 0 36 -31 37 -32 -15 -44
c-8 -23 -13 -45 -11 -47 2 -2 21 8 42 22 l37 26 38 -26 c20 -14 40 -26 43 -26
4 0 0 21 -9 47 l-16 46 38 34 37 33 -41 -2 c-49 -2 -52 0 -72 60 l-16 47 -13
-45z"/>
<path d="M3829 1930 c-13 -52 -15 -53 -79 -52 l-35 2 37 -33 c40 -34 40 -42
12 -112 -7 -17 -2 -16 39 8 l47 28 35 -27 c20 -15 38 -25 40 -22 2 2 -2 25
-10 51 -14 46 -13 47 12 67 14 11 30 20 35 20 5 0 6 5 3 11 -4 5 -17 9 -28 8
-49 -3 -55 1 -72 51 -9 28 -18 50 -20 50 -2 0 -9 -22 -16 -50z"/>
<path d="M4190 1940 c-18 -60 -23 -64 -72 -62 l-43 2 36 -33 c36 -32 36 -32
22 -71 -19 -55 -14 -60 30 -31 l37 26 37 -26 c21 -14 40 -25 44 -25 3 0 -1 21
-9 47 l-15 46 31 28 c18 16 32 31 32 34 0 3 -16 5 -35 3 -42 -3 -46 1 -66 60
l-16 47 -13 -45z"/>
<path d="M2769 1926 c-12 -49 -15 -50 -84 -47 l-30 2 38 -33 38 -33 -15 -47
c-8 -27 -12 -48 -10 -48 3 0 22 12 44 26 l39 26 36 -27 c19 -15 37 -26 39 -24
2 2 -2 24 -8 49 -11 44 -11 45 24 77 l35 32 -30 -1 c-58 -1 -63 2 -75 40 -19
57 -28 59 -41 8z"/>
<path d="M5751 6174 c0 -5 27 -31 60 -59 94 -78 315 -309 412 -430 103 -128
239 -330 316 -467 30 -54 57 -96 58 -94 7 6 -106 197 -195 331 -146 219 -316
417 -529 615 -109 102 -123 114 -122 104z"/>
<path d="M1170 6113 c-84 -77 -273 -270 -347 -358 -99 -116 -253 -332 -323
-450 -42 -72 -6 -23 92 125 143 215 250 344 459 553 104 103 187 187 186 187
-2 0 -31 -26 -67 -57z"/>
<path d="M422 5166 c-29 -51 -52 -97 -52 -102 0 -5 25 36 55 90 30 55 54 101
52 103 -2 1 -27 -39 -55 -91z"/>
<path d="M6627 5055 c15 -30 29 -53 31 -51 4 5 -46 106 -53 106 -3 0 7 -25 22
-55z"/>
<path d="M340 5009 c-12 -23 -20 -43 -18 -45 3 -2 14 17 26 41 27 56 20 60 -8
4z"/>
<path d="M6667 4973 c3 -10 9 -22 13 -28 3 -5 19 -41 34 -78 16 -37 30 -66 32
-64 6 5 -73 187 -81 187 -2 0 -2 -8 2 -17z"/>
<path d="M297 4915 c-24 -50 -20 -58 4 -12 11 22 19 41 17 43 -3 2 -12 -12
-21 -31z"/>
<path d="M236 4768 c-20 -51 -36 -97 -36 -103 1 -5 19 35 41 89 21 54 38 101
36 103 -2 2 -20 -38 -41 -89z"/>
<path d="M6751 4786 c-1 -14 41 -127 46 -123 2 3 -7 33 -21 68 -14 35 -25 60
-25 55z"/>
<path d="M176 4599 c-9 -29 -14 -54 -12 -56 2 -3 11 19 20 48 8 29 13 55 11
57 -2 2 -11 -20 -19 -49z"/>
<path d="M6801 4645 c1 -19 18 -51 18 -35 0 8 -4 22 -9 30 -5 8 -9 11 -9 5z"/>
<path d="M6821 4585 c1 -19 18 -51 18 -35 0 8 -4 22 -9 30 -5 8 -9 11 -9 5z"/>
<path d="M130 4450 c-12 -45 -20 -84 -17 -86 2 -2 14 33 26 77 12 45 20 84 17
86 -2 2 -13 -33 -26 -77z"/>
<path d="M6841 4525 c0 -5 6 -30 13 -55 8 -25 15 -36 15 -25 -1 21 -27 98 -28
80z"/>
<path d="M6871 4415 c1 -19 18 -51 18 -35 0 8 -4 22 -9 30 -5 8 -9 11 -9 5z"/>
<path d="M6893 4322 c7 -22 15 -44 19 -48 10 -9 -12 69 -22 80 -5 5 -3 -10 3
-32z"/>
<path d="M92 4306 c-6 -26 -12 -54 -11 -64 0 -9 7 7 15 37 8 30 13 59 12 63
-2 5 -9 -11 -16 -36z"/>
<path d="M6917 4225 c3 -22 7 -42 9 -44 8 -9 2 45 -6 64 -7 14 -8 8 -3 -20z"/>
<path d="M71 4204 c0 -11 3 -14 6 -6 3 7 2 16 -1 19 -3 4 -6 -2 -5 -13z"/>
<path d="M64 4165 c-3 -8 -4 -20 -2 -27 3 -7 7 -1 10 15 6 29 1 36 -8 12z"/>
<path d="M6937 4125 c3 -27 7 -52 9 -54 7 -8 2 54 -6 79 -6 17 -7 9 -3 -25z"/>
<path d="M46 4073 c-4 -27 -9 -57 -12 -68 -4 -16 -3 -17 4 -5 11 16 27 120 19
120 -3 0 -8 -21 -11 -47z"/>
<path d="M6957 3990 c3 -25 7 -47 9 -49 8 -9 2 55 -6 74 -6 13 -7 5 -3 -25z"/>
<path d="M31 3964 c0 -11 3 -14 6 -6 3 7 2 16 -1 19 -3 4 -6 -2 -5 -13z"/>
<path d="M25 3928 c-7 -24 -10 -98 -4 -98 4 0 9 25 11 55 3 54 1 67 -7 43z"/>
<path d="M6968 3880 c2 -16 6 -30 8 -30 2 0 4 14 4 30 0 17 -4 30 -8 30 -5 0
-7 -13 -4 -30z"/>
<path d="M6978 3785 c2 -30 7 -55 10 -55 9 0 2 92 -6 102 -4 4 -5 -17 -4 -47z"/>
<path d="M12 3775 c0 -16 2 -22 5 -12 2 9 2 23 0 30 -3 6 -5 -1 -5 -18z"/>
<path d="M3 3715 c0 -8 4 -12 9 -9 10 7 10 24 0 24 -5 0 -9 -7 -9 -15z"/>
<path d="M4 3530 c0 -91 2 -128 3 -82 2 45 2 119 0 165 -1 45 -3 8 -3 -83z"/>
<path d="M6994 3480 c0 -85 2 -120 3 -77 2 42 2 112 0 155 -1 42 -3 7 -3 -78z"/>
<path d="M0 3320 c0 -5 5 -10 11 -10 5 0 7 5 4 10 -3 6 -8 10 -11 10 -2 0 -4
-4 -4 -10z"/>
<path d="M6989 3318 c-5 -9 -5 -48 -1 -43 6 6 11 45 5 45 -2 0 -4 -1 -4 -2z"/>
<path d="M10 3237 c4 -41 5 -41 8 -8 2 18 0 37 -5 42 -5 5 -6 -11 -3 -34z"/>
<path d="M6982 3230 c0 -19 2 -27 5 -17 2 9 2 25 0 35 -3 9 -5 1 -5 -18z"/>
<path d="M13 3175 c0 -8 4 -12 9 -9 5 3 6 10 3 15 -9 13 -12 11 -12 -6z"/>
<path d="M6976 3173 c-6 -14 -5 -15 5 -6 7 7 10 15 7 18 -3 3 -9 -2 -12 -12z"/>
<path d="M18 3115 c6 -49 18 -52 14 -4 -2 21 -7 39 -11 39 -4 0 -5 -16 -3 -35z"/>
<path d="M6970 3125 c0 -14 2 -25 4 -25 2 0 6 11 8 25 3 14 1 25 -3 25 -5 0
-9 -11 -9 -25z"/>
<path d="M6962 3040 c0 -19 2 -27 5 -17 2 9 2 25 0 35 -3 9 -5 1 -5 -18z"/>
<path d="M30 3000 c0 -5 5 -10 11 -10 5 0 7 5 4 10 -3 6 -8 10 -11 10 -2 0 -4
-4 -4 -10z"/>
<path d="M6952 2960 c0 -14 2 -19 5 -12 2 6 2 18 0 25 -3 6 -5 1 -5 -13z"/>
<path d="M56 2880 c2 -24 8 -48 14 -54 6 -6 6 3 0 25 -5 19 -11 43 -13 54 -3
11 -3 0 -1 -25z"/>
<path d="M6935 2883 c-3 -27 -8 -59 -11 -73 -4 -22 -3 -22 5 -5 10 23 25 125
18 125 -3 0 -8 -21 -12 -47z"/>
<path d="M72 2795 c0 -11 3 -29 8 -40 11 -25 11 1 0 35 -6 20 -8 21 -8 5z"/>
<path d="M6912 2755 c0 -16 2 -22 5 -12 2 9 2 23 0 30 -3 6 -5 -1 -5 -18z"/>
<path d="M87 2709 c4 -13 8 -18 11 -10 2 7 -1 18 -6 23 -8 8 -9 4 -5 -13z"/>
<path d="M6895 2690 c-4 -17 -5 -34 -2 -36 2 -3 7 10 11 27 8 42 0 50 -9 9z"/>
<path d="M101 2664 c0 -11 3 -14 6 -6 3 7 2 16 -1 19 -3 4 -6 -2 -5 -13z"/>
<path d="M111 2630 c-1 -19 41 -162 46 -157 2 3 -8 42 -21 88 -14 46 -25 77
-25 69z"/>
<path d="M6881 2624 c0 -11 3 -14 6 -6 3 7 2 16 -1 19 -3 4 -6 -2 -5 -13z"/>
<path d="M6856 2539 c-9 -29 -16 -57 -15 -63 0 -6 9 16 20 49 10 32 16 61 14
63 -2 2 -11 -20 -19 -49z"/>
<path d="M161 2455 c1 -19 18 -51 18 -35 0 8 -4 22 -9 30 -5 8 -9 11 -9 5z"/>
<path d="M6822 2427 c-17 -47 -14 -59 4 -18 8 19 13 39 12 43 -2 5 -9 -6 -16
-25z"/>
<path d="M181 2390 c0 -17 38 -110 38 -95 1 6 -8 33 -19 60 -10 28 -19 43 -19
35z"/>
<path d="M6776 2294 c-9 -26 -14 -49 -12 -51 2 -2 11 17 20 43 9 26 14 49 12
51 -2 2 -11 -17 -20 -43z"/>
<path d="M220 2275 c0 -5 5 -17 10 -25 5 -8 10 -10 10 -5 0 6 -5 17 -10 25 -5
8 -10 11 -10 5z"/>
<path d="M240 2225 c0 -5 5 -17 10 -25 5 -8 10 -10 10 -5 0 6 -5 17 -10 25 -5
8 -10 11 -10 5z"/>
<path d="M6737 2191 c-24 -54 -20 -65 4 -13 11 24 19 46 17 48 -3 2 -12 -14
-21 -35z"/>
<path d="M263 2170 c12 -38 41 -106 49 -115 11 -12 -28 92 -43 115 -9 13 -10
13 -6 0z"/>
<path d="M6677 2054 c-20 -41 -37 -78 -37 -82 1 -4 19 28 41 72 22 43 39 80
37 82 -2 2 -21 -30 -41 -72z"/>
<path d="M320 2037 c0 -15 100 -207 171 -326 34 -58 169 -261 174 -261 2 0
-29 51 -71 113 -41 61 -78 119 -81 127 -3 8 -14 26 -24 41 -10 14 -52 90 -93
170 -42 79 -76 141 -76 136z"/>
<path d="M6586 1867 c-177 -332 -390 -614 -672 -887 -246 -238 -548 -452 -849
-601 -47 -23 -83 -44 -81 -47 5 -5 137 63 266 137 165 94 378 245 528 373 72
62 262 248 328 324 32 37 64 72 69 78 72 78 227 293 317 441 67 111 151 265
146 270 -2 2 -25 -38 -52 -88z"/>
<path d="M688 1415 c12 -16 35 -46 52 -65 28 -31 29 -31 12 -5 -12 17 -35 46
-52 65 -28 31 -29 31 -12 5z"/>
<path d="M817 1253 c217 -259 520 -525 806 -707 104 -66 59 -30 -72 58 -70 48
-177 126 -236 173 -132 106 -389 355 -470 457 -33 41 -64 75 -68 75 -5 1 13
-25 40 -56z"/>
<path d="M1735 478 c65 -41 249 -138 261 -138 5 0 -41 26 -101 58 -61 32 -129
71 -152 85 -24 15 -46 27 -50 27 -5 0 15 -15 42 -32z"/>
<path d="M2025 327 c23 -16 105 -49 105 -43 0 5 -109 56 -118 56 -4 0 2 -6 13
-13z"/>
<path d="M4900 300 c-19 -11 -30 -19 -25 -19 6 0 26 8 45 19 19 11 31 19 25
19 -5 0 -26 -8 -45 -19z"/>
<path d="M2141 276 c8 -9 163 -66 166 -62 2 2 -32 18 -77 35 -79 30 -98 36
-89 27z"/>
<path d="M4775 249 c-22 -10 -33 -18 -25 -18 8 0 31 8 50 19 45 25 27 24 -25
-1z"/>
<path d="M4685 215 c-16 -8 -23 -14 -15 -14 8 0 26 6 40 14 32 18 15 18 -25 0z"/>
<path d="M2320 206 c0 -7 102 -37 108 -32 2 3 -15 10 -38 16 -23 6 -48 14 -56
17 -8 3 -14 3 -14 -1z"/>
<path d="M4585 179 c-27 -10 -37 -17 -21 -14 31 7 97 33 81 33 -5 0 -32 -8
-60 -19z"/>
<path d="M2470 155 c19 -7 42 -13 50 -13 8 0 -1 6 -20 13 -19 7 -42 13 -50 13
-8 0 1 -6 20 -13z"/>
<path d="M4485 150 c-13 -5 -14 -9 -5 -9 8 0 24 4 35 9 13 5 14 9 5 9 -8 0
-24 -4 -35 -9z"/>
<path d="M2548 133 c7 -3 16 -2 19 1 4 3 -2 6 -13 5 -11 0 -14 -3 -6 -6z"/>
<path d="M4415 130 c-13 -5 -14 -9 -5 -9 8 0 24 4 35 9 13 5 14 9 5 9 -8 0
-24 -4 -35 -9z"/>
<path d="M2580 128 c3 -3 21 -10 40 -17 19 -6 30 -7 25 -2 -6 5 -23 13 -40 17
-16 4 -28 5 -25 2z"/>
<path d="M4335 110 c-25 -11 1 -11 35 0 20 6 21 8 5 8 -11 0 -29 -3 -40 -8z"/>
<path d="M2675 100 c11 -5 27 -9 35 -9 9 0 8 4 -5 9 -11 5 -27 9 -35 9 -9 0
-8 -4 5 -9z"/>
<path d="M4225 85 c-27 -7 -41 -13 -30 -14 11 0 43 6 70 13 63 18 28 18 -40 1z"/>
<path d="M2750 80 c14 -4 36 -8 50 -8 22 0 22 1 -5 8 -16 4 -39 8 -50 8 -16 0
-15 -2 5 -8z"/>
<path d="M2838 63 c6 -2 18 -2 25 0 6 3 1 5 -13 5 -14 0 -19 -2 -12 -5z"/>
<path d="M4126 61 c-3 -4 6 -6 19 -3 14 2 25 6 25 8 0 8 -39 4 -44 -5z"/>
<path d="M2880 56 c0 -2 15 -6 34 -8 19 -2 32 0 30 4 -5 8 -64 12 -64 4z"/>
<path d="M4073 53 c9 -2 23 -2 30 0 6 3 -1 5 -18 5 -16 0 -22 -2 -12 -5z"/>
<path d="M2980 40 c25 -8 87 -13 79 -6 -2 2 -26 6 -54 9 -34 4 -42 3 -25 -3z"/>
<path d="M4018 43 c6 -2 18 -2 25 0 6 3 1 5 -13 5 -14 0 -19 -2 -12 -5z"/>
<path d="M3930 32 c0 -5 14 -7 30 -4 17 2 30 6 30 8 0 2 -13 4 -30 4 -16 0
-30 -4 -30 -8z"/>
<path d="M3070 27 c8 -7 120 -15 116 -8 -2 3 -30 7 -62 9 -32 2 -57 1 -54 -1z"/>
<path d="M3868 23 c12 -2 30 -2 40 0 9 3 -1 5 -23 4 -22 0 -30 -2 -17 -4z"/>
<path d="M3213 13 c9 -2 25 -2 35 0 9 3 1 5 -18 5 -19 0 -27 -2 -17 -5z"/>
<path d="M3733 13 c15 -2 39 -2 55 0 15 2 2 4 -28 4 -30 0 -43 -2 -27 -4z"/>
<path d="M3413 3 c48 -2 126 -2 175 0 48 1 8 3 -88 3 -96 0 -136 -2 -87 -3z"/>
</g>
</svg>
