<?xml version="1.0" encoding="utf-8"?>
<!-- Generator: Adobe Illustrator 28.1.0, SVG Export Plug-In . SVG Version: 6.00 Build 0)  -->
<svg version="1.1" xmlns="http://www.w3.org/2000/svg" xmlns:xlink="http://www.w3.org/1999/xlink" x="0px" y="0px"
	 viewBox="0 0 1162.2 595.28" style="enable-background:new 0 0 1162.2 595.28;" xml:space="preserve">
<style type="text/css">
	.st0{fill:#FF0000;}
	.st1{fill:#FFFFFF;}
</style>
<g id="Layer_1">
	<path d="M18.94,100.53c1.07-0.21,2.13-0.59,3.2-0.59c23.91,0,47.84-0.51,71.73,0.2c39.9,1.19,64.93,22.55,72.71,62
		c4.45,22.57,4.34,45.43,0.17,68.07c-3.67,19.92-13.29,35.79-32.95,43.93c-0.48,0.2-0.84,0.67-1.46,1.18c0.65,0.47,1.14,1,1.74,1.22
		c21.77,7.97,33.62,24.4,38.38,46.25c5.93,27.24,6.43,54.82,1.02,82.11c-7.76,39.14-34.11,61.18-74.07,62.32
		c-26.81,0.77-53.65,0.32-80.47,0.41C18.94,345.27,18.94,222.9,18.94,100.53z M69.71,416.04c7.25,0,13.97,0.03,20.69-0.01
		c20.94-0.11,32.89-9.88,34.67-30.66c1.35-15.73,0.71-31.66,0.38-47.5c-0.11-4.99-1.65-10.08-3.31-14.87
		c-3.26-9.41-9.84-16.34-19.65-18c-10.64-1.79-21.59-1.76-32.78-2.54C69.71,340.96,69.71,378.08,69.71,416.04z M69.7,152.16
		c0,32.94,0,65.87,0,100.25c9.75-0.87,19.17-1.11,28.37-2.71c7.57-1.32,13.58-6.43,15.97-13.67c7.63-23.13,7.92-46.57-0.09-69.66
		c-2.79-8.06-9.66-13.16-18.18-14.02C87.33,151.49,78.74,152.16,69.7,152.16z"/>
	<path d="M1141,309.84c-1.04,5.89-1.91,11.82-3.15,17.67c-9.39,44.41-45.59,69.51-90.63,62.91c-35.9-5.26-59.55-28.75-66.11-66.14
		c-1.38-7.87-2.24-15.94-2.29-23.93c-0.23-38.34-0.13-76.68-0.09-115.02c0.01-13.42,1.92-26.58,6.48-39.24
		c10.14-28.17,29.64-45.78,59.48-50.15c30.12-4.41,57.19,1.79,77.19,26.9c11.02,13.84,15.89,30.2,18.05,47.5
		c0.24,1.95,0.71,3.87,1.07,5.8C1141,220.71,1141,265.27,1141,309.84z M1029.03,243.09c-0.01,0-0.02,0-0.02,0
		c0,18.07-0.44,36.15,0.19,54.19c0.29,8.43,1.61,17.14,4.31,25.1c4.03,11.87,14,17.49,27.02,17.29c12.4-0.19,22.04-6.42,26-18.08
		c2.19-6.47,3.8-13.48,3.86-20.27c0.35-39.05,0.36-78.1-0.02-117.15c-0.06-6.77-1.71-13.8-4.01-20.22
		c-4.29-11.98-13.62-17.71-26.73-17.82c-12.32-0.1-22.18,5.85-26.28,17.64c-2.53,7.27-3.9,15.24-4.13,22.95
		C1028.64,205.49,1029.03,224.3,1029.03,243.09z"/>
	<path d="M212.55,99.91c9.35,0,18.09-0.01,26.84,0c16.07,0.01,32.14-0.25,48.2,0.11c45.3,1.01,72.63,24.93,78.87,69.86
		c3.32,23.93,3.14,48.12,0.02,72.1c-2.95,22.68-11.93,42.37-31.09,56.39c-1.33,0.98-1.75,4.53-1.22,6.52
		c7.51,28.02,15.27,55.97,22.95,83.94c6.76,24.63,13.49,49.26,20.23,73.89c0.33,1.21,0.59,2.43,1.03,4.23
		c-1.86,0.2-3.38,0.51-4.91,0.51c-14.42,0.04-28.85-0.08-43.27,0.11c-3.59,0.05-4.98-1.13-5.87-4.65
		c-12.24-48.27-24.72-96.48-36.93-144.76c-1.17-4.62-2.78-6.78-7.93-6.25c-5.38,0.56-10.87,0.12-16.96,0.12
		c0,51.87,0,103.26,0,155.05c-16.96,0-33.25,0-49.94,0C212.55,344.78,212.55,222.74,212.55,99.91z M262.71,260.37
		c8.88,0,17.11,0.46,25.28-0.1c14.36-0.99,24.08-8.72,27.22-22.84c4.6-20.71,4.33-41.71,0.15-62.48
		c-1.96-9.74-7.61-17.37-17.38-21.03c-11.48-4.3-23.32-1.96-35.26-2.58C262.71,188.11,262.71,223.99,262.71,260.37z"/>
	<path d="M956.37,99.92c-6.97,14.91-13.43,28.76-19.91,42.61c-15.39,32.89-30.87,65.75-46.06,98.74c-1.22,2.65-1.53,6.46-0.67,9.24
		c21.71,69.68,43.64,139.28,65.52,208.91c0.75,2.37,1.38,4.78,2.33,8.09c-5.27,0-9.76,0-14.25,0c-11.32,0-22.65-0.17-33.96,0.09
		c-3.99,0.09-5.65-1.23-6.81-5.07c-15.06-49.58-30.31-99.11-45.51-148.65c-0.57-1.86-1.2-3.7-2.24-6.88
		c-7.53,16.34-14.54,31.33-21.29,46.44c-0.83,1.86-0.44,4.32-0.44,6.5c-0.02,33.42-0.01,66.83-0.01,100.25c0,2.15,0,4.31,0,6.89
		c-16.86,0-33.18,0-49.91,0c0-122.15,0-244.21,0-366.71c16.46,0,32.94,0,49.86,0c0,50.71,0,101.05,0,151.39
		c0.39,0.15,0.77,0.3,1.16,0.45c0.84-1.62,1.74-3.21,2.5-4.86c21.47-47.17,42.99-94.32,64.25-141.59c2.07-4.6,4.5-6.05,9.41-5.94
		C925.26,100.13,940.21,99.92,956.37,99.92z"/>
	<path d="M516.3,100.28c16.78,0,33.12,0,49.99,0c0.1,2.13,0.27,4.07,0.27,6c0.02,92.4,0.19,184.8-0.19,277.19
		c-0.05,12.28-1.42,24.96-4.67,36.76c-9.29,33.65-34.48,51.92-70.71,52.51c-28.88,0.47-53.22-8.5-68.32-35.02
		c-6.9-12.11-9.99-25.42-11.15-39.19c-0.47-5.63-0.55-11.31-0.56-16.96c-0.03-91.49-0.02-182.97-0.02-274.46c0-2.16,0-4.31,0-6.81
		c16.38,0,32.16,0,48.41,0c0,2.54,0,4.69,0,6.85c0,91.67-0.07,183.34,0.15,275c0.02,7.36,1.11,14.99,3.28,22.01
		c3.38,10.96,12.59,16.24,25.25,16.13c12.37-0.1,21.46-5.38,24.74-16.12c2.2-7.21,3.36-15.02,3.38-22.57
		c0.22-91.48,0.15-182.97,0.15-274.45C516.3,104.98,516.3,102.81,516.3,100.28z"/>
	<path d="M601.69,365.65c16.34-1.8,31.91-3.52,48.35-5.34c0,7.15-0.24,13.85,0.07,20.52c0.33,7.07,0.41,14.3,1.96,21.15
		c2.9,12.79,12.27,19.26,26.25,19.38c13.83,0.11,23.82-6.33,26.46-19.12c5.24-25.42,3.73-50.09-13.94-70.96
		c-9.76-11.53-20.43-22.36-31.18-33c-18.37-18.18-36.63-36.54-47.06-60.62c-14.54-33.55-15.87-68.21-3.17-102.45
		c9.11-24.58,29.12-36.65,54.55-39.79c15.01-1.85,29.92-0.96,44.21,4.69c25.22,9.96,37.27,29.99,41.47,55.51
		c1.44,8.77,1.42,17.81,1.73,26.73c0.05,1.48-1.44,4.22-2.47,4.35c-15,1.86-30.05,3.37-45.81,5.04c0-3.82,0.17-7.07-0.04-10.29
		c-0.35-5.45-0.36-11.01-1.55-16.29c-2.85-12.69-11.68-19.29-24.44-19.04c-12.82,0.25-21.42,7.12-23.87,19.83
		c-4.79,24.89,1.8,46.79,18.86,65.27c11.87,12.87,24.56,24.98,36.8,37.52c12.53,12.84,24.14,26.41,33,42.14
		c8.56,15.19,14.21,31.41,14.59,48.85c0.37,17.29,0.93,34.82-1.36,51.88c-4.79,35.62-28.79,57.13-64.53,60.58
		c-13.05,1.26-25.9,0.54-38.51-3.07c-23.06-6.6-37.9-21.71-45.49-44.24C600.12,405.73,601.82,385.97,601.69,365.65z"/>
	<path class="st0" d="M1081.57,427.47c0,13.55,0,26.25,0,39.8c-6.25,0-12.21,0-18.16,0c-7.11-0.01-14.21-0.13-21.32,0.02
		c-3.34,0.07-4.48-1.27-4.45-4.52c0.12-10.38-0.06-20.77,0.18-31.15c0.03-1.4,1.83-3.94,2.85-3.96
		C1054.12,427.38,1067.56,427.47,1081.57,427.47z"/>
	<path class="st1" d="M69.71,416.04c0-37.96,0-75.08,0-113.57c11.19,0.79,22.14,0.75,32.78,2.54c9.81,1.65,16.39,8.58,19.65,18
		c1.66,4.78,3.2,9.88,3.31,14.87c0.33,15.83,0.97,31.76-0.38,47.5c-1.78,20.78-13.73,30.54-34.67,30.66
		C83.68,416.07,76.96,416.04,69.71,416.04z"/>
</g>
<g id="Layer_2">
</g>
</svg>
