<?xml version="1.0" encoding="utf-8"?>
<!-- Generator: Adobe Illustrator 28.1.0, SVG Export Plug-In . SVG Version: 6.00 Build 0)  -->
<svg version="1.1" id="Layer_1" xmlns="http://www.w3.org/2000/svg" xmlns:xlink="http://www.w3.org/1999/xlink" x="0px" y="0px"
	 viewBox="0 0 595.28 595.28" style="enable-background:new 0 0 595.28 595.28;" xml:space="preserve">
<path d="M388.79,234.13c29.91,11.33,59.82,15.27,90.58,13.64c8.4-0.44,16.76-1.56,25.16-1.95c2.14-0.1,5,0.86,6.3,2.38
	c0.84,0.99,0.08,4.33-1.02,5.85c-20.82,28.56-45.53,52.14-80.92,61.45c-20.98,5.51-39.67-0.41-55.94-13.59
	c-10.62-8.6-19.9-18.83-30.02-28.07c-5.8-5.29-12.09-10.05-19.44-16.11c0,3.04-0.17,3.77,0.02,3.89
	c22.21,13.4,29.27,34.39,29.66,58.81c0.73,45.7-16.97,84.92-42.75,121.23c-4.09,5.76-7.38,4.57-10.12-2.71
	c-4.48-11.93-8.42-24.12-13.86-35.61c-8.77-18.51-23.02-32.23-42.15-43.37c-4.25,10.94-8.61,21.43-12.39,32.12
	c-2.79,7.92-4.56,16.19-7.35,24.11c-0.87,2.47-3.58,4.29-5.45,6.41c-1.52-2.06-3.61-3.91-4.47-6.22
	c-4.21-11.32-8.23-22.72-12.06-34.17c-3.05-9.12-6.59-18.21-8.34-27.6c-1.74-9.34-1.52-19.05-2.19-29.04
	c-39.86,8.97-67.33-13.73-94.05-37.99c-1.44-1.31-0.96-4.75-1.37-7.19c2.54,0.09,5.49-0.62,7.57,0.4
	c19.91,9.82,40.56,15.04,62.32,8.01c12.38-4,23.87-10.76,36.22-14.91c11.36-3.82,23.2-7,35.06-8.3c11.83-1.3,13.26,1.78,9.01,12.96
	c-0.43,1.13-0.84,2.26-1.26,3.39c11.81,4.58,21.57,1.77,28.09-7.82c4.54-6.67,9.16-13.28,13.75-19.91c1.2,1.18,2.39,2.36,3.59,3.54
	c-0.32-0.42-0.56-1.1-0.96-1.21c-14.37-3.98-15.75-6.41-10.36-20.2c10.3-26.32,32.58-39.11,56.79-49.49
	c5.13-2.2,10.56-3.8,15.97-5.21c24.62-6.41,41.27-22.07,52.58-44.31c1.33-2.62,4.37-4.39,6.61-6.55c1.86,2.67,4.58,5.09,5.44,8.05
	c9.43,32.57,2.89,61.56-20.09,86.68C394.5,228.15,391.98,230.75,388.79,234.13z M276.14,287.1c27.24,36.55,46.43,75.42,42.8,122.53
	c12.06-19.51,20.18-40.12,23.37-62.44c2.61-18.28,3.81-36.74-3.14-54.39c-5.85-14.88-16.92-24.85-32.9-27.22
	c-14.77-2.18-22.31,8.48-29.03,19.41C276.92,285.51,276.66,286.08,276.14,287.1z M307.85,428.03
	c16.51-53.37-5.26-96.74-35.29-138.24c-3.72,1.04-6.61,1.85-9.98,2.8c12.95,23.51-1.07,41.09-13.94,59.57
	C279.73,369.38,296.63,396.23,307.85,428.03z M324.35,246.56c10.22,8.74,19.78,16.62,29.01,24.89c8.33,7.47,15.38,16.79,24.65,22.7
	c9.94,6.33,21.46,12.24,32.9,13.73c24.37,3.19,65.04-20.97,76.56-42.56c-10.47,4.49-20.97,10.18-32.17,13.46
	c-11.16,3.27-22.99,5.42-34.59,5.72c-18.1,0.46-32.43-9.45-45.8-20.58C360.23,251.71,343.26,246.48,324.35,246.56z M313.92,240.68
	c27.8-1.22,51.39,7.5,72.56,25.33c7.5,6.32,17.87,10.63,27.6,12.65c28.29,5.87,51.33-8.84,74.79-21.27c-5.32-0.84-10.46-1-15.6-0.82
	c-26.08,0.94-51.63-2.09-76.52-10.06c-14.23-4.55-28.25-9.8-42.64-13.74C339.82,228.88,325.96,230.3,313.92,240.68z M293.14,248.13
	c3.24-4.14,5.44-7.89,8.5-10.72c12.3-11.36,26.89-16.14,43.7-15.37c4.86,0.22,10.51-1.2,14.65-3.74
	c21.07-12.9,33.98-32.47,42.92-54.99c0.66-1.67,0.82-3.54,1.21-5.32c-14.43,19.55-34.99,27.52-56.63,34.92
	c-13.9,4.75-27.02,12.55-39.49,20.54c-11.25,7.21-18.24,18.45-21.69,32.18C288.86,246.56,291.1,247.38,293.14,248.13z
	 M220.69,383.77c0.61-0.16,1.23-0.32,1.84-0.48c10.53-18.47,21.56-36.69,31.29-55.57c3.21-6.24,4.14-14.24,4.06-21.41
	c-0.07-6.59-3.59-12.95-11.34-14c-8.05-1.09-10.14,5.77-11.21,11.23C230.1,330.2,225.51,357,220.69,383.77z M229.6,297.55
	c-10.95,4.83-20.17,12.97-25.83,25.58c-6.42,14.3,1.1,52.25,13.01,65.62C220.97,359.01,225.29,328.21,229.6,297.55z M358.94,224.52
	c5.71,1.77,9.19,3.47,12.79,3.79c3.56,0.31,8.3,0.51,10.7-1.46c13.04-10.69,22.8-24.07,26.8-40.61c2.19-9.06,2.31-18.63,3.36-27.97
	c-0.87-0.14-1.74-0.27-2.61-0.41C400.39,184.94,385.53,208.1,358.94,224.52z M139.96,307.27c16.73,11.54,34.91,13.62,54.05,8.53
	c2.37-0.63,4.23-3.23,6.31-4.94c8.99-7.41,17.92-14.89,26.99-22.21c2.15-1.73,4.72-2.94,7.1-4.39c-0.35-0.76-0.7-1.52-1.05-2.28
	C204.48,298.85,174.62,311.88,139.96,307.27z M143.89,301.72c33.37,4.23,62.08-7.76,88.72-26.52
	C201.35,278.1,176.66,302.92,143.89,301.72z"/>
<path d="M241.78,14.78c35.18,0.03,63.28,27.74,63.32,62.41c0.04,34.91-28.63,63.09-64.04,62.95c-34.98-0.14-63.18-28.12-63.23-62.74
	C177.78,42.22,205.83,14.75,241.78,14.78z M241.65,27.92c-27.71-0.1-50.45,22.32-50.31,49.62c0.14,26.89,22.62,49.09,49.85,49.23
	c27.57,0.14,50.51-22.52,50.32-49.71C291.33,50.08,268.94,28.02,241.65,27.92z"/>
<path d="M108.66,181.03c0.07-17.26,14.25-31.27,31.69-31.33c17.75-0.05,32.26,14.53,31.92,32.09
	c-0.33,17.12-14.97,31.17-32.22,30.92C122.64,212.47,108.59,198.28,108.66,181.03z M163.07,180.98
	c-0.12-12.35-10.34-22.27-22.85-22.16c-12.57,0.11-22.46,10.11-22.35,22.58c0.11,12.4,10.29,22.33,22.78,22.21
	C153.07,203.49,163.19,193.28,163.07,180.98z"/>
<path d="M235.61,237.23c-12.48,0.15-22.8-9.82-22.94-22.18c-0.15-12.43,9.83-22.51,22.41-22.64c12.51-0.13,22.88,9.81,23.06,22.11
	C258.31,226.66,247.98,237.07,235.61,237.23z M235.51,229.05c7.9-0.1,14.11-6.37,14.12-14.26c0.01-7.8-6.28-14.26-14.05-14.43
	c-8.03-0.17-14.88,6.76-14.66,14.82C221.13,222.92,227.68,229.15,235.51,229.05z"/>
<g>
	<polygon points="73.35,506.14 70.21,506.14 70.21,582.09 73.35,582.09 76.17,582.09 111,582.09 111,576.45 76.17,576.45 
		76.17,543.25 108.83,543.25 108.83,537.61 76.17,537.61 76.17,511.78 111,511.78 111,506.14 76.17,506.14 	"/>
	<polygon points="160.27,506.14 154.3,506.14 154.3,582.09 191.63,582.09 191.63,576.45 160.27,576.45 	"/>
	<polygon points="231.55,506.14 228.41,506.14 228.41,582.09 234.38,582.09 234.38,543.79 263.78,543.79 263.78,538.15 
		234.38,538.15 234.38,511.78 264.87,511.78 264.87,506.14 234.38,506.14 	"/>
	<path d="M341.74,544.66c-2.35-1.66-5.01-2.91-7.97-3.74c-0.72-0.2-1.45-0.38-2.18-0.53c1.13-0.27,2.23-0.59,3.26-0.99
		c3.25-1.26,5.8-3.15,7.65-5.64c1.84-2.5,2.77-5.59,2.77-9.28c0-4.05-0.9-7.43-2.71-10.15c-1.81-2.71-4.36-4.76-7.65-6.13
		c-3.29-1.37-7.21-2.06-11.77-2.06h-16.49v75.95h17.58c4.92,0,9.28-0.79,13.08-2.39c3.8-1.59,6.78-4.01,8.95-7.27
		c2.17-3.26,3.26-7.38,3.26-12.37c0-3.47-0.71-6.49-2.12-9.06C345.97,548.44,344.09,546.32,341.74,544.66z M323.13,511.46
		c4.92,0,8.84,1.18,11.77,3.53c2.93,2.35,4.4,5.63,4.4,9.82c0,2.97-0.73,5.41-2.17,7.32c-1.45,1.92-3.4,3.35-5.86,4.29
		c-2.46,0.94-5.17,1.41-8.14,1.41h-10.53v-26.37H323.13z M341.04,569.13c-1.59,2.5-3.83,4.39-6.73,5.7
		c-2.89,1.3-6.26,1.95-10.09,1.95h-11.61v-33.64h11.61c2.61,0,5.05,0.36,7.32,1.09c2.28,0.72,4.32,1.79,6.13,3.2
		c1.81,1.41,3.22,3.15,4.23,5.21c1.01,2.06,1.52,4.43,1.52,7.11C343.43,563.5,342.63,566.63,341.04,569.13z"/>
	<path d="M380.86,582.09h6.73L398,556.6h32.7l10.48,25.5h6.73l-33.53-78.88L380.86,582.09z M428.42,550.95h-27.99l13.95-33.96
		L428.42,550.95z"/>
	<path d="M522.24,582.09h7.38l-23.09-32.26c2.93-0.39,5.67-1.09,8.17-2.19c3.87-1.7,6.93-4.21,9.17-7.54
		c2.24-3.33,3.37-7.3,3.37-11.94c0-4.7-1.12-8.68-3.37-11.94c-2.24-3.26-5.3-5.75-9.17-7.49c-3.87-1.74-8.27-2.6-13.18-2.6h-11.39
		h-2.82h-3.15v75.95h5.97v-31.9h9.96L522.24,582.09z M490.12,511.46h11.39c3.83,0,7.23,0.65,10.2,1.95c2.97,1.3,5.3,3.18,7,5.64
		c1.7,2.46,2.55,5.5,2.55,9.11c0,3.62-0.83,6.67-2.5,9.17c-1.66,2.5-4,4.38-7,5.64c-3,1.27-6.42,1.9-10.25,1.9h-11.39V511.46z"/>
</g>
</svg>
