<svg version="1.2" xmlns="http://www.w3.org/2000/svg" viewBox="0 0 500 500" width="500" height="500">
	<title>iflave-main</title>
	<style>
		.s0 { fill: #000000 } 
	</style>
	<path id="Layer" fill-rule="evenodd" class="s0" d="m243.8 139q1.9 0.1 3.8 0.3c10.3 0.9 19.9 5 27.6 11.8 4.8 4.1 8.8 9.1 11.6 14.7 2.9 5.6 4.6 11.7 5.1 18 1.2 13.4-2.7 25.3-11.1 35.8-5 6.1-11.4 10.9-18.7 13.8-1 0.4-1.1 0.5-0.4 1.3q16.3 21.6 32.6 43.2c0.3 0.4 0.6 0.8 0.9 1.2-0.4 0-0.7 0.2-1 0.2q-16.4 0-32.7 0c-0.3 0-0.7-0.1-1-0.3q-0.5-0.2-0.8-0.7-10.2-13.4-20.5-26.9-5-6.7-10-13.3-0.3-0.5-0.8-0.7c-0.3-0.1-0.7-0.2-1-0.2-7.5 0-14.9 0-22.4 0-1.2 0-1.3 0.1-1.3 1.4v38.9c0 1.7 0 1.7-1.8 1.7h-24.7c-1.4 0-1.5 0-1.5-1.4v-67.1c0-1.3 0.1-1.4 1.5-1.4h28.4c0.4 0 0.8 0 1.5-0.1-0.3-0.5-0.5-0.8-0.7-1.1q-10.9-14.5-21.9-28.9-4-5.4-8.1-10.7c-0.5-0.6-0.7-1.4-0.7-2.2q0-13.7 0-27.3zm-33.3 28.1c0.3 0.5 0.4 0.8 0.6 1q2.8 3.8 5.7 7.4c8 10.7 16 21.3 24 32 0.4 0.7 1.1 1.2 1.9 1.5 0.8 0.3 1.6 0.4 2.5 0.2 2.8-0.3 5.5-1.1 7.9-2.5 2.4-1.4 4.6-3.2 6.3-5.4 1.8-2.2 3.1-4.7 3.9-7.4 0.7-2.6 1-5.5 0.6-8.2-0.6-5.3-3.2-10.2-7.2-13.6-3.7-3.3-8.4-5.2-13.4-5.2-10.5-0.1-21 0-31.6 0-0.3 0.1-0.7 0.1-1.2 0.2z"/>
	<path id="Layer" class="s0" d="m155.6 139q0 12.9 0 25.8 0 0.5 0 1.1c0 0.9-0.2 1-1.1 1h-67.6q-0.7 0.1-1.4 0.2 0.3 0.7 0.6 1.3 7.9 11.9 15.8 23.8 0.6 0.9 1.1 1.8c0.2 0.4 0.5 0.7 0.9 0.9q0.6 0.3 1.2 0.2 0.5 0 0.9 0h42.9c1 0 1.1 0.1 1.1 1.1q0 12.9 0 25.8c0 1-0.1 1.2-1.1 1.2q-0.5 0-1 0h-66.5c-1.7 0-1.7 0-1.7 1.6q0 12.6 0 25.2c0 1.4 0.1 1.5 1.5 1.5q28.8 0 57.6 0 0.8-0.1 1.6 0.3 0.7 0.4 1.1 1.1c5.6 8.4 11.3 16.8 16.9 25.3 0.1 0.3 0.3 0.5 0.5 0.9-0.5 0-1 0.1-1.4 0.1h-104c-1.5 0-1.6 0-1.6-1.5v-81.1c0-1.4 0.1-1.5 1.6-1.5h15.4c0.4 0 0.7 0 1.2-0.1q-0.2-0.4-0.4-0.8-3.5-5.5-7.1-10.9c-3.4-5.1-6.8-10.3-10.1-15.4-0.4-0.7-0.6-1.4-0.6-2q0-13.5 0-26.9z"/>
	<path id="Layer" fill-rule="evenodd" class="s0" d="m387.9 139l6.8 15.8q8.9 20.9 17.9 41.9l25.3 59.2 9.4 22.2c0.5 1.1 0.5 1.2-0.8 1.2q-14 0-28 0c-0.8-0.1-1.6-0.2-2.4-0.6q-15-5.6-29.9-11.3-20.8-7.9-41.7-15.8c-0.7-0.3-1.1-0.1-1.3 0.6q-5.6 12.9-11.1 25.8c-0.6 1.2-0.6 1.3-1.9 1.3h-27.8c-1.2 0-1.2-0.2-0.8-1.2q12.8-29.8 25.5-59.6 12.4-29 24.8-58 4.4-10.2 8.8-20.4 0.2-0.6 0.3-1.1h26.9zm-13.2 40.1h-0.3q-0.3 0.5-0.5 1.1-1.3 2.9-2.5 5.8-7.7 18.1-15.4 36.1c-0.5 1.2-0.5 1.2 0.7 1.7l17.7 7 26 10.2q0.4 0.1 0.8 0.2l0.2-0.2z"/>
	<path id="Layer" class="s0" d="m448.6 338.3q-0.1 1.2-0.3 2.3c-0.8 6.3-4.5 10.5-9.9 13.5-3.9 1.9-8.2 3.2-12.6 3.5-5.5 0.8-11.2 0.6-16.6-0.5-5.9-1.2-11.3-4.4-15.1-9-2.4-2.9-3.4-6.3-3.8-10q-0.1-1.3-0.2-2.6c0-0.6 0.3-0.9 1-0.9h7.2c0.7 0 1 0.3 1 0.9q0.1 2 0.6 3.8c1.4 4.8 4.8 7.7 9.3 9.4 4.8 1.7 10 2.2 15.1 1.4 3.3-0.3 6.5-1.2 9.5-2.6 1.6-0.7 2.9-1.8 3.8-3.3 1-1.5 1.4-3.2 1.3-4.9 0-1.2-0.1-2.4-0.3-3.6-0.3-1.1-0.8-2.2-1.6-3.1-0.7-1-1.7-1.7-2.8-2.2-3-1.4-6.2-2.5-9.5-3.1-5.8-1.3-11.5-2.4-17.2-3.7-3.7-0.7-7.2-2.3-10.2-4.6-1.3-1.1-2.4-2.5-3.2-4-0.8-1.5-1.3-3.1-1.5-4.8-0.3-2.7-0.1-5.4 0.7-8 0.7-2.6 2-5 3.7-7 2.9-3.4 6.8-5.8 11.2-6.8 2.7-0.8 5.5-1.1 8.3-1.1 4.2-0.2 8.3 0.1 12.4 0.9 4.7 0.9 9 3.2 12.4 6.5 1.8 1.8 3 4.1 3.7 6.5q0.8 2.9 1.3 5.9c0.2 1.2 0 1.4-1.3 1.4h-6.8c-0.5 0-0.9-0.1-1-0.8-0.5-5.8-3.8-9.5-9.1-11.4-6.2-2.3-13.1-2.2-19.2 0.3-5.7 2.3-7.3 6.3-6.7 11.8 0.2 1.1 0.6 2.2 1.3 3.1 0.6 0.9 1.5 1.6 2.6 2.1 2.3 1.1 4.7 1.8 7.2 2.2 6.5 1.4 13 2.7 19.5 4.1 4.2 0.8 8.1 2.8 11.2 5.8 2.7 2.8 4.3 6.4 4.4 10.2 0 0.4 0.1 0.8 0.2 1.2z"/>
	<path id="Layer" fill-rule="evenodd" class="s0" d="m168.3 287.3c5-0.2 9.9 0.6 14.5 2.2 7.4 2.6 13.5 7.9 17.1 14.9 2.7 5 4.2 10.6 4.3 16.3 0.4 9.1-1.8 17.4-7.3 24.7q-1.2 1.5-2.6 2.9c-0.6 0.7-0.6 0.7 0.2 1.3 2.8 2 5.6 4 8.4 6 0.7 0.5 0.7 0.6 0.1 1.3q-1.8 1.9-3.6 3.9-0.1 0.1-0.3 0.2-0.1 0.1-0.3 0.1-0.2 0.1-0.4 0-0.2-0.1-0.4-0.2c-3.1-2.3-6.3-4.5-9.4-6.7-0.3-0.3-0.7-0.4-1-0.4q-0.6-0.1-1.1 0.3c-3.8 2-8.1 3.2-12.4 3.6-5.8 0.8-11.8 0.4-17.5-1.2-4.4-1.2-8.5-3.3-12-6.3-3.4-2.9-6.2-6.6-8.1-10.8-2.2-4.5-3.4-9.4-3.7-14.4-0.5-7 1-14 4.2-20.3 4.7-9.1 12.3-14.5 22.2-16.6q4.6-1 9.1-0.8zm11.1 60.5c-0.3-0.3-0.6-0.5-0.8-0.7-2-1.4-4-2.8-6-4.2-0.5-0.4-0.6-0.7-0.2-1.2q1.9-2 3.8-4.2c0.5-0.5 0.8-0.5 1.4-0.1 2.5 1.9 5.1 3.7 7.7 5.5q0.2 0.2 0.4 0.3 0.2 0.1 0.5 0.1 0.2-0.1 0.4-0.2 0.3-0.1 0.4-0.3c2.3-2.5 4.2-5.4 5.3-8.6 1.5-4.3 2.2-8.8 1.9-13.3-0.1-4.6-1.3-9.1-3.4-13.1-2.4-4.7-6.4-8.4-11.2-10.5-4.7-2-9.9-2.6-14.9-1.9-9.6 1.2-16.3 6.5-19.8 15.5-2.3 6-2.8 12.6-1.4 18.9 0.9 4.9 3.3 9.6 6.8 13.2 2.9 2.9 6.5 5.1 10.5 6.1 3 0.8 6.2 1.1 9.4 0.9 2.8-0.1 5.6-0.6 8.2-1.6q0.5-0.3 1-0.6z"/>
	<path id="Layer" fill-rule="evenodd" class="s0" d="m319.3 322.6c0-0.4 0-32.4 0-32.8q0-0.1 0.1-0.3c0-0.1 0.1-0.1 0.1-0.2q0.1-0.1 0.3-0.2 0.1 0 0.3 0 0.4 0 0.8 0 14.6 0 29.2 0c4.8-0.1 9.5 1 13.8 3.1 5.2 2.6 9.5 6.8 12.1 12 2.6 5.1 4 10.7 4 16.4 0.2 5.5-0.7 10.9-2.5 16.1-4.2 11.3-12.3 17.8-24.3 19.2q-1.8 0.2-3.6 0.2h-29.3c-0.6 0-0.9-0.3-0.9-0.9q0-0.5 0-1v-31.6zm9.7 0q0 12.3 0 24.6c0 1.3 0.1 1.4 1.4 1.4 5.9 0 11.8 0 17.7 0 1.9 0 3.9-0.3 5.8-0.7 3.5-0.6 6.7-2.5 9.2-5.1 2.5-2.7 4.4-6.1 5.3-9.7 1.1-4 1.6-8.2 1.4-12.4 0-4.3-0.9-8.6-2.6-12.5-1.8-4.2-5.2-7.6-9.4-9.5-3.1-1.4-6.5-2.1-9.9-2.1-5.8 0-11.6 0-17.4 0q-0.4-0.1-0.9 0c-0.2 0.2-0.5 0.4-0.6 0.7q-0.1 0.5-0.1 1z"/>
	<path id="Layer" class="s0" d="m216.6 312.5v-22c0-1.4 0.1-1.5 1.4-1.5q3.4 0 6.8 0c1.6 0 1.6 0 1.6 1.6q0 20.4 0 40.8 0.1 3.2 0.7 6.4c0.5 2.3 1.4 4.4 2.9 6.1 1.4 1.8 3.2 3.2 5.4 4.1 3.1 1.4 6.5 2.2 9.9 2.2 3.4 0 6.8-0.7 9.9-2.1 5.3-2.2 8.2-6.6 9-12.2q0.4-2.3 0.4-4.7 0-20.1 0-40.2 0-0.5 0-0.9c0-0.9 0.2-1.1 1.1-1.1q3.8 0 7.5 0c1 0 1.2 0.2 1.2 1.3v15.9c0 8.9 0 17.8 0 26.6 0 3.6-0.7 7.2-2.2 10.5-2 4.4-5.3 8.1-9.5 10.4-4.6 2.6-9.8 4-15.1 4.2-4.6 0.3-9.1-0.1-13.5-1.3-6.3-1.8-11.5-5.2-14.7-11.2-1.6-2.8-2.5-5.9-2.7-9.1-0.1-4.2-0.1-8.4-0.2-12.6 0.1-3.7 0.1-7.4 0.1-11.2z"/>
	<path id="Layer" class="s0" d="m51 322.6v-31.8q0-0.5 0-1 0-0.2 0-0.3c0.1-0.1 0.1-0.2 0.2-0.2q0.1-0.1 0.3-0.2 0.1-0.1 0.3-0.1h8.3c0.4 0 0.7 0.3 0.7 0.8 0 0.5 0 0.7 0 1.1v56c0 1.2 0.1 1.3 1.3 1.3h34.2q0.5 0 0.9 0c0.7 0 1 0.3 1 1q0 3 0 6 0 1-1 0.9-0.4 0-0.8 0h-44.1c-1.2 0-1.3-0.1-1.3-1.3z"/>
	<path id="Layer" class="s0" d="m109.6 322.6v-31.6q0-0.5 0-0.9c0-0.7 0.3-1 1-1h7.8c0.7 0 1 0.3 1 1q0 0.4 0 0.8v63.5c0 1.8 0 1.8-1.8 1.8h-6.7c-1.2 0-1.3-0.1-1.3-1.3z"/>
	<path id="Layer" class="s0" d="m301.6 322.6v31.6q0 0.5 0 0.9c0.1 0.7-0.2 1.1-1 1.1q-3.9 0-7.7 0c-0.8 0-1.1-0.4-1.1-1.1q0-0.4 0-0.7v-63.6c0-1.8 0-1.8 1.8-1.8q3.3 0 6.7 0c1.2 0 1.3 0.2 1.3 1.4z"/>
</svg>