<?xml version="1.0" encoding="utf-8"?>
<!-- Generator: Adobe Illustrator 28.1.0, SVG Export Plug-In . SVG Version: 6.00 Build 0)  -->
<svg version="1.1" xmlns="http://www.w3.org/2000/svg" xmlns:xlink="http://www.w3.org/1999/xlink" x="0px" y="0px"
	 viewBox="0 0 1162.2 595.28" style="enable-background:new 0 0 1162.2 595.28;" xml:space="preserve">
<g id="Layer_1">
	<path d="M394.33,195.79c26.01,0,51.36,0,78.63,0c-2.91-3.95-4.85-6.64-6.84-9.28c-22.81-30.22-45.71-60.37-68.3-90.75
		c-2.31-3.1-3.78-7.58-3.85-11.46c-0.37-20.88-0.18-41.76-0.18-63.73c3.63,0,6.51,0,9.39,0c54.58,0,109.16,0.52,163.73-0.19
		c34.51-0.45,62.59,12.94,85.76,37.06c59.26,61.66,38.99,163.12-39.18,198.22c-1.3,0.58-2.54,1.31-4.58,2.36
		c28.57,37.84,56.83,75.26,86.13,114.08c-7.02,0-12.38,0-17.75,0c-21.18,0-42.37-0.13-63.55,0.1c-4.92,0.05-8.09-1.32-11.16-5.41
		c-23.89-31.9-48.02-63.62-72.23-95.28c-1.64-2.14-4.44-4.77-6.74-4.82c-19.39-0.38-38.79-0.22-59.24-0.22c0,35.39,0,70.09,0,105.21
		c-23.88,0-46.71,0-70.07,0C394.33,313.3,394.33,255.11,394.33,195.79z M482.83,90.57c0.24,0.63,0.36,1.41,0.78,1.97
		c25,33.2,49.96,66.43,75.19,99.44c1.57,2.06,5.38,3.5,8.1,3.43c25.23-0.63,47.17-22.94,49.07-49.47
		c1.86-25.78-17.18-52.83-42.65-54.82C543.47,88.78,513.29,90.57,482.83,90.57z"/>
	<path d="M82.39,20.96c87.49,0,173.85,0,260.7,0c0,22.68,0,44.98,0,68.07c-58.35,0-116.51,0-175.87,0c1.41,2.74,2.1,4.47,3.1,5.99
		c13.16,19.95,26.49,39.8,39.46,59.87c2.65,4.1,5.56,5.44,10.32,5.42c33.14-0.2,66.28-0.1,99.42-0.1c2.95,0,5.9,0,9.4,0
		c0,23.71,0,46.76,0,70.63c-58.34,0-116.76,0-175.69,0c0,23.82,0,46.84,0,70.84c3.05,0,5.94,0,8.84,0c45.6,0,91.2,0.09,136.8-0.12
		c5.13-0.02,8.07,1.64,10.81,5.87c12.44,19.23,25.22,38.25,37.85,57.35c1.33,2.01,2.52,4.1,4.22,6.87c-90.02,0-179.09,0-268.78,0
		c0-70,0-140.1,0-211.36c14.58,0,29.31,0,45.65,0c-5.98-9.21-10.92-16.87-15.91-24.5c-9.13-13.96-18.33-27.88-27.39-41.88
		c-1.3-2.01-2.8-4.41-2.83-6.65C82.31,65.36,82.39,43.47,82.39,20.96z"/>
	<path d="M709.13,372.1c6.81-15.92,13.04-30.52,19.29-45.11c42.78-99.97,85.59-199.92,128.21-299.95c2.07-4.86,4.41-6.71,9.78-6.61
		c18.68,0.35,37.38,0.23,56.07,0.07c4.15-0.04,6.58,0.83,8.42,5.16c48.17,113.36,96.51,226.64,144.83,339.94
		c0.76,1.79,1.49,3.59,2.69,6.5c-10.23,0-19.65-0.73-28.92,0.13c-32.81,3.05-63.18-4.5-93.42-17.04
		c-44.1-18.29-89.16-34.27-133.82-51.22c-1.82-0.69-3.72-1.16-6.2-1.93c-6.88,15.98-13.58,31.71-20.44,47.38
		c-3.27,7.46-5,17.48-10.77,21.41c-5.51,3.75-15.38,1.2-23.33,1.23C744.6,372.15,727.69,372.1,709.13,372.1z M846.38,231.12
		c38.23,15.02,75.99,29.86,115.46,45.36c-22.93-53.2-45.03-104.48-67.76-157.22C877.81,157.42,862.23,193.94,846.38,231.12z"/>
	<path d="M439.94,547.7c8.12,5.85,15.97,11.5,24.69,17.79c-3.3,3.52-5.87,7.33-9.41,9.62c-2.01,1.3-6.22,1.12-8.41-0.16
		c-6.21-3.61-12.08-7.91-17.73-12.37c-3.59-2.83-6.43-2.77-10.65-0.99c-29.78,12.53-59.72,12.75-88.77-1.83
		c-33.32-16.73-46.76-54.8-43.39-87.64c3.34-32.58,17.52-58.93,48.86-72.23c28.59-12.14,57.91-11.64,86.12,1.9
		c36.06,17.31,47.67,57.78,44.59,87.65C463.2,515.07,457.36,527.01,439.94,547.7z M420.3,533.55c17.59-18,22.04-39.29,19.55-62.58
		c-6.21-58.03-60.56-68.33-93.63-52.31c-23.58,11.42-32.65,32.26-34.55,57.14c-2.63,34.42,14.56,62.75,44.18,71.43
		c15.48,4.54,31.08,4.23,47.33-2.67c-6.83-4.92-12.65-9.1-19.05-13.71c4.3-4.82,8.38-9.39,12.51-14.02
		C404.69,522.52,412.19,527.82,420.3,533.55z"/>
	<path d="M755.53,565.89c0-56.71,0-112.43,0-168.46c0.9-0.31,1.78-0.87,2.66-0.87c26.39,0.05,52.82-0.79,79.15,0.48
		c35.86,1.73,60.93,23.9,68.27,59.04c5.31,25.39,2.79,50.12-9.76,73.16c-11.54,21.19-29.75,33.86-53.71,35.38
		c-25.55,1.63-51.24,0.95-76.87,1.27C762.32,565.92,759.37,565.89,755.53,565.89z M780.54,546.04c18.36,0,35.81,0.75,53.16-0.19
		c22.38-1.21,36.77-13.97,43.86-34.79c6.35-18.64,6.6-37.79,1.53-56.71c-5.17-19.28-17.06-34-37.29-36.34
		c-20.03-2.32-40.54-0.51-61.26-0.51C780.54,459.77,780.54,502.53,780.54,546.04z"/>
	<path d="M933.45,511.36c7.85,0,14.97,0,22.32,0c0.4,1.95,0.87,3.62,1.06,5.31c1.64,14.69,10.08,24.22,23.4,29.26
		c20.5,7.75,41.09,6.51,61.21-1.62c10.53-4.25,14.77-11.93,14.62-23.64c-0.14-11.21-5.85-18.79-16.12-21.69
		c-17.93-5.05-36.16-9.01-54.27-13.4c-4.59-1.11-9.26-1.93-13.81-3.19c-33.35-9.18-43.84-44.26-21.05-70.53
		c8.83-10.18,20.24-16.01,33.44-18.17c21.52-3.52,42.85-3.08,62.85,6.58c18.55,8.96,26.85,23.15,27.56,44.92c-7.3,0-14.6,0-22.78,0
		c-1.11-14.1-8.55-24.47-22.08-29.41c-17.23-6.28-34.75-6.32-51.66,1.25c-7.54,3.38-12.52,9.4-14.09,18.1
		c-2.32,12.89,1.39,21.35,13.92,25.05c14.51,4.28,29.54,6.78,44.27,10.33c10.61,2.56,21.4,4.78,31.61,8.51
		c33.79,12.36,33.77,59.8,8.21,76.94c-13.8,9.25-29.09,12.84-45.07,14.01c-20.88,1.53-41.37,0.07-59.66-11.95
		C940.77,547.16,932.49,532.08,933.45,511.36z"/>
	<path d="M496.9,396.79c8.53,0,16.17,0,24.52,0c0.14,2.94,0.36,5.57,0.37,8.2c0.02,32.4,0.1,64.81-0.02,97.21
		c-0.06,18.04,4.1,34.13,22.01,42.29c19.35,8.81,38.99,8.22,57.07-3.44c13.16-8.49,16.66-22.46,16.74-37.24
		c0.17-32.65,0.05-65.31,0.06-97.96c0-2.72,0-5.44,0-8.79c8.22,0,16,0,24.93,0c0,3,0,5.88,0,8.77c0,30.66-0.8,61.35,0.18,91.97
		c1.55,48.26-27.45,69.12-66,72.3c-15.09,1.24-29.97-0.1-44.02-6.01c-21.74-9.14-34.8-25.88-35.5-49.25
		C496.05,475.76,496.9,436.62,496.9,396.79z"/>
	<path d="M198.7,545.3c0,7.43,0,13.57,0,20.15c-39.33,0-78.28,0-117.74,0c0-56.24,0-112.14,0-168.53c7.8,0,15.41,0,23.96,0
		c0,49.31,0,98.45,0,148.38C136.58,545.3,167.32,545.3,198.7,545.3z"/>
	<path d="M227.98,396.91c7.9,0,15.75,0,24.13,0c0,56.17,0,112.06,0,168.46c-7.99,0-15.81,0-24.13,0
		C227.98,509.26,227.98,453.33,227.98,396.91z"/>
	<path d="M686.58,396.92c8.36,0,15.96,0,23.76,0c0,56.38,0,112.26,0,168.56c-8.06,0-15.64,0-23.76,0
		C686.58,509.25,686.58,453.38,686.58,396.92z"/>
</g>
<g id="Layer_2">
</g>
</svg>
