<?xml version="1.0" encoding="utf-8"?>
<!-- Generator: Adobe Illustrator 28.1.0, SVG Export Plug-In . SVG Version: 6.00 Build 0)  -->
<svg version="1.1" id="Layer_1" xmlns="http://www.w3.org/2000/svg" xmlns:xlink="http://www.w3.org/1999/xlink" x="0px" y="0px"
	 viewBox="0 0 595.28 595.28" style="enable-background:new 0 0 595.28 595.28;" xml:space="preserve">
<style type="text/css">
	.st0{fill:#FFFFFF;}
</style>
<path d="M296.39,548.11c-1.29-0.58-1.57-1.77-2.11-2.72c-39.5-69.26-79.02-138.51-118.38-207.85c-2.16-3.81-4.4-5.15-8.79-5.1
	c-20.97,0.27-41.94,0.08-62.91,0.18c-2.47,0.01-3.32-0.48-3.29-3.15c0.15-12.95,0.08-25.9,0.05-38.85
	c-0.01-1.73,0.07-3.05,2.39-2.79c1.53,0.17,1.77-0.56,0.95-1.83c-2.77-4.32-3.36-9.13-3.35-14.16c0.07-20.25-0.02-40.5,0.08-60.75
	c0.02-3.2-0.67-5.95-2.26-8.74c-27.03-47.27-53.99-94.59-80.96-141.9c-2.39-4.2-4.77-8.4-7.21-12.57c-0.9-1.54-0.68-2.26,1.22-2.14
	c0.72,0.04,1.44,0,2.16,0c188.94,0,377.87,0,566.81,0.02c1.27,0,3.08-0.67,3.7,0.48c0.61,1.14-0.86,2.37-1.51,3.49
	c-29.93,52.13-59.87,104.25-89.86,156.34c-1.38,2.41-2.03,4.81-2.03,7.58c0.06,31.76,0.05,63.52,0.03,95.29
	c-0.01,12.94-5.79,20.12-18.39,22.72c-2.9,0.6-5.91,0.83-8.88,0.84c-13.36,0.09-26.73,0.11-40.09-0.02c-2.5-0.02-3.83,0.8-5.06,2.94
	c-30.39,53.05-60.85,106.05-91.31,159.07c-9.88,17.2-19.77,34.38-29.67,51.57C297.32,546.78,296.84,547.43,296.39,548.11z"/>
<path class="st0" d="M483.6,242.51c0,22.41,0.01,44.82,0,67.23c0,8.94-4.42,13.92-13.34,14.97c-2.34,0.27-4.71,0.41-7.07,0.41
	c-20.87,0.03-41.74-0.04-62.6,0.08c-2.81,0.02-3.66-0.73-3.59-3.58c0.2-7.81,0.17-15.63,0.01-23.43c-0.05-2.53,0.83-3.07,3.16-3.05
	c13.88,0.09,27.76-0.03,41.63,0.11c2.72,0.03,3.19-0.96,3.18-3.38c-0.01-2.39-0.4-3.45-3.16-3.4c-8.63,0.18-17.27,0.06-25.9,0.07
	c-2.89,0-5.74-0.32-8.52-1.1c-6.94-1.93-10.29-6.23-10.3-13.45c-0.04-22.41-0.02-44.82-0.02-67.23c0-6.68,0.26-13.38-0.05-20.04
	c-0.6-12.84,7.34-16.06,15.98-16.79c2.04-0.17,4.11-0.11,6.16-0.11c20.35-0.01,40.71,0.05,61.06-0.07c2.67-0.02,3.45,0.6,3.44,3.37
	C483.54,196.25,483.59,219.38,483.6,242.51z"/>
<path class="st0" d="M195.02,242.07c0,22.51,0,45.03,0,67.54c0,8.8-4.02,13.58-12.69,14.98c-2.02,0.33-4.09,0.52-6.13,0.52
	c-21.38,0.04-42.77-0.03-64.15,0.09c-2.99,0.02-3.86-0.83-3.78-3.8c0.2-7.7,0.15-15.42,0.02-23.13c-0.04-2.42,0.7-3.17,3.15-3.15
	c13.77,0.1,27.55,0.07,41.33,0.02c1.1,0,2.82,0.7,3.17-0.9c0.36-1.65,0.26-3.5-0.12-5.16c-0.21-0.94-1.63-0.53-2.51-0.53
	c-8.74-0.03-17.48-0.02-26.22-0.01c-3,0-5.95-0.38-8.82-1.21c-6.25-1.79-9.89-6.39-9.9-12.9c-0.05-30.12-0.06-60.24-0.01-90.36
	c0.01-6.84,3.83-11.43,10.68-13.29c3-0.81,6.08-0.97,9.17-0.97c21.18,0.01,42.36,0.06,63.53-0.07c2.89-0.02,3.34,1.02,3.33,3.56
	C194.99,196.22,195.03,219.14,195.02,242.07z"/>
<path class="st0" d="M291.31,235.17c0,16.65-0.06,33.3,0.06,49.95c0.02,2.69-0.69,3.49-3.44,3.48c-21.68-0.11-43.37-0.04-65.05-0.1
	c-2.24-0.01-4.52-0.28-6.72-0.75c-7.86-1.7-11.58-6.3-11.6-14.36c-0.04-14.39-0.02-28.78-0.01-43.16
	c0.01-9.78,4.63-14.87,14.35-15.73c9.23-0.81,18.48-0.24,27.72-0.36c5.78-0.08,5.78-0.02,5.78-5.94c0-2.06-0.06-4.11,0.02-6.17
	c0.06-1.57-0.54-2.31-2.15-2.17c-0.61,0.05-1.23,0-1.85,0c-5.69,0.01-4.98-0.25-4.89,4.67c0.04,2-0.62,2.68-2.65,2.66
	c-11.3-0.08-22.61-0.07-33.91,0c-1.92,0.01-2.48-0.68-2.46-2.52c0.08-6.88-0.08-13.77,0.08-20.66c0.16-7.01,3.9-11.47,10.71-13.26
	c3.11-0.82,6.28-0.96,9.48-0.96c15.42,0.01,30.83,0,46.25,0.01c2.57,0,5.13,0.05,7.67,0.55c8.67,1.72,12.58,6.33,12.6,15.16
	C291.34,202.08,291.31,218.62,291.31,235.17z"/>
<path class="st0" d="M300.84,229.14c0-18.71,0.05-37.42-0.06-56.13c-0.01-2.57,0.7-3.3,3.27-3.26c10.59,0.14,21.18,0.17,31.76-0.01
	c2.93-0.05,4.01,0.64,3.79,3.7c-0.25,3.47-0.09,3.38,2.92,1.8c9.72-5.1,20.09-6.33,30.82-4.74c3.62,0.54,6.71,2.5,9.54,4.8
	c3.47,2.81,4.73,6.61,4.73,10.91c0.02,33.2-0.01,66.41,0.05,99.61c0,2.2-0.75,2.78-2.86,2.76c-11-0.09-22-0.12-33,0.02
	c-2.61,0.03-3.27-0.82-3.27-3.33c0.08-27.24,0-54.48,0.11-81.72c0.01-2.99-0.8-3.88-3.77-3.74c-6.26,0.3-5.32-0.68-5.33,5.51
	c-0.04,26.62-0.06,53.25,0.04,79.87c0.01,2.77-0.8,3.45-3.48,3.41c-10.69-0.15-21.38-0.14-32.07,0c-2.62,0.03-3.26-0.8-3.25-3.32
	C300.88,266.56,300.84,247.85,300.84,229.14z"/>
<path class="st0" d="M296.29,100.09c55.3,0,110.59,0,165.89,0c4.37,0,4.38,0.01,2.13,3.92c-6.46,11.22-12.98,22.4-19.34,33.68
	c-1.08,1.91-2.3,2.47-4.38,2.47c-96.41-0.04-192.82-0.04-289.23,0.01c-2.24,0-3.49-0.69-4.59-2.66
	c-6.36-11.39-12.86-22.7-19.3-34.05c-1.89-3.33-1.86-3.36,2.01-3.36C185.08,100.09,240.68,100.09,296.29,100.09z"/>
<path class="st0" d="M131.73,123.41c-4.99,0-9.88-0.03-14.77,0.02c-1.5,0.01-1.82-1.13-2.36-2.07
	c-7.45-13.02-14.89-26.05-22.32-39.09c-1.88-3.3-1.85-3.32,2.02-3.32c67.74,0,135.49,0,203.23,0.01c66.51,0,133.02,0,199.53,0
	c0.41,0,0.82-0.01,1.23,0c3.23,0.04,3.27,0.13,1.6,3.05c-0.97,1.69-1.97,3.37-2.94,5.06c-6.5,11.32-13.03,22.62-19.44,33.98
	c-0.98,1.74-2.03,2.52-4.08,2.43c-3.8-0.17-7.61-0.09-11.41-0.03c-1.87,0.03-1.97-0.47-1.25-2.14c1.56-3.61,3.83-5.67,8-4.86
	c2.22,0.43,3.52-0.6,4.62-2.58c4.5-8.08,9.19-16.05,13.79-24.07c2.21-3.86,2.2-3.87-2.12-3.87c-29.71,0-59.42,0-89.13,0
	c-96.12,0-192.24,0-288.35,0c-0.93,0-1.85,0.05-2.78-0.01c-1.58-0.09-2.13,0.31-1.22,1.89c5.17,9,10.33,18,15.42,27.04
	c0.97,1.73,2.41,1.6,3.96,1.6C129.13,116.47,129.67,116.89,131.73,123.41z"/>
<path class="st0" d="M296.09,320.22c21.58,0,43.16,0,64.73,0c3.3,0,3.34,0.05,1.71,2.88c-21.68,37.76-43.38,75.52-65.08,113.27
	c-1.67,2.9-1.76,2.88-3.36,0.07c-21.51-37.74-43.03-75.48-64.54-113.23c-1.7-2.98-1.69-3,1.8-3
	C252.93,320.22,274.51,320.22,296.09,320.22z"/>
<path class="st0" d="M222.04,341.18c24.63,43.23,49,86.01,73.67,129.31c24.83-43.25,49.36-85.98,74.24-129.31
	c-3.87,0-7.19-0.07-10.51,0.02c-2.11,0.06-2.37-0.39-1.48-2.42c1.56-3.57,3.8-5.04,7.8-4.68c4.28,0.39,8.63,0.07,12.94,0.09
	c3.37,0.01,3.46,0.18,1.74,3.17c-10.5,18.26-21.01,36.52-31.51,54.78c-16.79,29.22-33.58,58.45-50.36,87.67
	c-0.41,0.71-0.8,1.43-1.23,2.14c-1.66,2.77-1.69,2.79-3.35-0.13c-15.42-27.05-30.83-54.1-46.25-81.15
	c-12.01-21.07-24.04-42.12-36.05-63.19c-1.86-3.27-1.84-3.29,2.01-3.3c5.14-0.01,10.28-0.02,15.42,0.02
	c1.88,0.01,5.72,4.29,5.52,6.1c-0.14,1.31-1.24,0.84-1.93,0.85C229.35,341.21,225.98,341.18,222.04,341.18z"/>
<path d="M435.85,229c0-8.62,0.08-17.25-0.05-25.87c-0.04-2.49,0.57-3.43,3.22-3.33c6.92,0.27,5.84-0.87,5.86,5.88
	c0.06,16.32-0.06,32.64,0.09,48.96c0.03,3.04-0.65,4.15-3.89,3.96c-6.08-0.36-5.17,0.75-5.21-5.27
	C435.81,245.22,435.85,237.11,435.85,229z"/>
<path d="M156.11,229.36c0,8.62-0.08,17.24,0.05,25.86c0.04,2.44-0.47,3.47-3.17,3.36c-6.71-0.27-5.75,0.76-5.77-5.69
	c-0.05-16.42,0.05-32.84-0.08-49.25c-0.02-2.88,0.64-4,3.72-3.84c6.1,0.32,5.2-0.72,5.24,5.25
	C156.15,213.15,156.11,221.25,156.11,229.36z"/>
<path d="M252.4,251.32c0,0.51,0,1.02,0,1.53c0,5.72-0.01,5.6-5.66,5.73c-2.55,0.06-3.46-0.72-3.28-3.28
	c0.2-2.85,0.11-5.73,0.02-8.59c-0.06-1.74,0.38-2.54,2.36-2.6C252.4,243.9,252.4,243.82,252.4,251.32z"/>
<path d="M445.02,123.43c-1.93,3.26-3.5,5.89-5.04,8.53c-0.47,0.81-1.17,1.08-2.06,1.08c-1.03-0.01-2.06,0.02-3.08,0.02
	c-92,0-184-0.05-275.99,0.12c-4.75,0.01-7.82-1.1-9.52-5.53c-0.5-1.31-2.26-2.58-1.62-3.75c0.65-1.18,2.62-0.46,4-0.46
	c96.52-0.03,193.04-0.02,289.56-0.02C442.28,123.43,443.29,123.43,445.02,123.43z"/>
<path d="M137.83,107.24c1.77,0,2.89,0,4,0c102.87,0,205.74,0,308.6,0c3.77,0,3.52-0.1,2,3.3c-2.03,4.55-4.9,6.08-10.14,6.07
	c-97.94-0.21-195.87-0.19-293.81-0.05c-4.16,0.01-6.79-0.97-8.22-4.92C139.79,110.32,138.91,109.15,137.83,107.24z"/>
<path d="M343.81,341.33c-16.05,27.95-31.92,55.59-48.04,83.66c-16.01-28.11-31.74-55.72-47.65-83.66
	C280.19,341.33,311.77,341.33,343.81,341.33z"/>
<path d="M296.14,327.53c17.46,0,34.92,0.03,52.37-0.04c2.49-0.01,2.95,0.33,1.83,2.81c-1.39,3.07-3.24,4-6.61,3.98
	c-31.94-0.14-63.88-0.08-95.82-0.09c-4.01,0-5.82-1.47-6.95-5.34c-0.32-1.1,0.1-1.27,0.94-1.31c0.72-0.03,1.44-0.01,2.16-0.01
	C261.43,327.53,278.78,327.53,296.14,327.53z"/>
</svg>
