<?xml version="1.0" encoding="utf-8"?>
<!-- Generator: Adobe Illustrator 28.1.0, SVG Export Plug-In . SVG Version: 6.00 Build 0)  -->
<svg version="1.1" id="Layer_1" xmlns="http://www.w3.org/2000/svg" xmlns:xlink="http://www.w3.org/1999/xlink" x="0px" y="0px"
	 viewBox="0 0 914.81 595.28" style="enable-background:new 0 0 914.81 595.28;" xml:space="preserve">
<style type="text/css">
	.st0{fill:#FFFFFF;}
</style>
<g>
	<path d="M618.79,183.61c0.59,1.39,1.9,2.93,1.65,4.15c-1.95,9.4-4.06,18.77-6.43,28.07c-0.7,2.76-3.1,5.19-3.45,7.93
		c-0.7,5.51-0.54,11.13-0.26,16.8c1.39-3.35,5.75-4.94,4.75-9.72c-0.27-1.3,2.24-4.29,3.89-4.66c2.82-0.63,5.96,0.2,10.14,0.49
		c-2.52,4.62-4.6,8.9-7.25,12.8c-0.44,0.65-3.34-0.38-5.77-0.72c-0.41,0.6-1.4,2.05-2.38,3.48c5.08,4.4,6.58,9.29,4.63,14.85
		c-1.52,4.32-5.32,6.05-9.38,3.98c-2.23-1.13-3.55-0.5-4.88,1.3c-3.27,4.41-3.22,15.44,0.56,19.24c0.87,0.88,3.69,0.95,4.84,0.21
		c3.68-2.4,7.05-5.28,10.42-8.12c1.51-1.27,3.01-2.72,4.02-4.39c3.85-6.39,7.66-12.76,14.25-16.82c3.57-2.2,5.12-5.25,3.84-9.46
		c-0.22-0.72-0.04-1.56-0.25-2.29c-1.3-4.39-0.34-7.8,4.24-9.6c-1.24-1.97-2.34-3.71-4.02-6.38c2.16,0.33,3.17,0.48,4.27,0.64
		c1.49-7.31-5.34-3.55-8.28-6.06c2.81-2.71,6.16-4.05,9.42-5.47c1.16-0.51,2.45-0.86,3.71-0.95c2.05-0.16,5.21-0.87,5.95,0.11
		c1.61,2.16,4.38,4.65,2.01,8.19c-0.58,0.88-0.3,2.44-0.18,3.66c0.52,5.12-1.58,8.21-6.59,9.54c-2.11,0.56-3.29,1.32-1.36,3.66
		c0.84,1.02,1.08,2.75,1.12,4.17c0.14,4.43,0.05,8.87,0.05,13.31c0.48-0.25,1.51-0.78,3.65-1.89c-0.61,4.23-0.67,7.77-1.7,11
		c-1.31,4.1,1.02,6.86,3.11,9.3c2.78,3.24,5.38-0.38,7.77-1.48c2.83-1.3,2.78-4.18,1.75-6.71c-1.99-4.89-0.02-11.03,4.12-14.32
		c3.69-2.93,8.66-4.7,10.15-9.96c0.14-0.49,0.89-0.8,1.36-1.19c0.4,0.08,0.8,0.17,1.2,0.25c-0.33,2.6-0.46,5.24-1.05,7.78
		c-0.49,2.1-1.67,4.03-2.23,6.13c-0.25,0.92,0.01,2.75,0.51,2.94c0.95,0.36,2.58,0.24,3.31-0.39c2.01-1.76,3.7-3.89,4.74-6.13
		c0.29-1.34,0.58-2.68,0.87-4.02c1.14,0.32,2.28,0.64,3.86,1.09c4.82-3.2,7.01-8.52,8.39-14.4c2.54-10.81,5.18-21.6,7.78-32.39
		c-0.4-0.17-0.81-0.35-1.21-0.52c-0.52,0.96-0.89,2.04-1.59,2.84c-0.57,0.64-1.53,0.94-2.31,1.39c-0.25-0.86-0.85-1.81-0.68-2.58
		c0.36-1.59,0.8-3.4,1.84-4.53c0.83-0.91,2.6-0.95,3.95-1.37c0.33,0.3,0.67,0.61,1,0.91c0.7-5.68,2.09-11.37,1.96-17.03
		c-0.3-13.07,3.08-25.45,6.25-37.84c2-7.8,5.05-15.24,4.34-23.59c-0.3-3.62,0.71-7.37,1.28-11.04c0.9-5.75-1.38-11.81,1.72-17.35
		c0.5-0.89,0.59-2.03,1.19-2.81c0.46-0.6,1.79-1.31,2.09-1.1c0.68,0.5,1.39,1.58,1.32,2.35c-0.16,1.76-0.85,3.47-1.19,5.23
		c-1.2,6.2-1.48,12.3-0.4,18.67c0.8,4.68-0.19,9.67-0.4,14.53c-0.07,1.68-0.2,3.36-0.31,5.03c0.32,0.04,0.63,0.09,0.95,0.13
		c2.44-8.88,4.89-17.76,7.33-26.63c0.57,0.1,1.13,0.2,1.7,0.3c0.07,1.24,0.43,2.55,0.15,3.7c-1.94,7.9-4.25,15.61-4.59,23.96
		c-0.2,5.08-3.4,10.11-5.57,15.03c-4.68,10.63-8.2,21.45-7.97,33.29c0.11,5.72-0.43,11.27-3.34,16.7
		c-1.56,2.91-0.98,7.31-0.47,10.91c0.81,5.67,1.84,11.43,3.85,16.74c0.97,2.55,4.13,4.32,3.62,7.74c-0.22,1.49-0.45,3.03-1.01,4.41
		c-0.96,2.37-2.18,4.64-3.69,7.78c5.03-2.27,5.79-1.87,7.08,2.41c0.31,1.02,0.73,2.46,1.5,2.79c2.18,0.94,4.56,1.41,7.24,2.17
		c0.04-0.19,0.14-1.16,0.48-2.03c0.41-1.05,1.04-2.02,1.57-3.02c0.57,1.03,1.24,2.02,1.69,3.1c0.37,0.9,0.48,1.9,0.76,3.1
		c3.08-1.12,4.85-2.89,4.83-5.95c-0.04-5.65,2.42-10.09,6.41-13.85c0.44-0.42,1.16-1.14,1.04-1.46c-1.45-3.85,1.82-4.79,3.86-6.52
		c4.09-3.48,8.29-6.86,12.15-10.57c1.14-1.1,1.13-3.31,2.01-4.8c0.6-1.02,1.81-1.67,2.75-2.48c0.25,1.12,1.02,2.45,0.66,3.33
		c-1.75,4.37-1.72,8.34,1.4,12.16c0.64,0.78,0.54,2.16,0.81,3.45c4.78,1.56,11.92-3.02,14.28,5.66c3.9-0.76,7.63-1.78,11.43-2.08
		c1.49-0.12,3.11,1.37,4.91,2.25c0.63-1.15,1.27-2.32,2.06-3.75c1.08,0.69,1.99,1.28,2.45,1.57c2.52-0.49,4.63-0.91,6.74-1.31
		c0.61-0.12,1.25-0.35,1.85-0.27c4.21,0.53,6.04-0.92,6.45-5.21c0.43-4.51,0.68-4.48,4.76-2.85c3.54,1.42,7.27,2.52,11.01,3.22
		c2.94,0.55,4.73,1.74,5.17,4.72c1.75,11.66,7.55,20.52,17.92,26.37c1.22,0.69,2.22,2.16,2.82,3.5c2.5,5.54,6.46,9.77,11.09,13.56
		c1.24,1.01,2.79,3.04,2.53,4.24c-0.93,4.34,1.78,7.22,3.28,10.64c1.3,2.98,2.21,6.14,3.29,9.22c0.59,1.68,1.38,3.33,1.68,5.06
		c0.16,0.91-0.53,1.98-0.83,2.97c-0.85-0.54-2.16-0.9-2.48-1.66c-1.99-4.83-3.62-9.8-5.67-14.6c-0.88-2.06-2.43-3.85-3.79-5.67
		c-0.52-0.7-1.47-1.06-2.06-1.72c-3.8-4.24-7.83-6.72-13.44-2.82c-0.92,0.64-3.23,0.59-4-0.12c-3.02-2.79-6.02-3.43-9.59-0.7
		c-0.22-0.32-0.44-0.64-0.66-0.96c1.53-2.12,3.07-4.24,4.61-6.36c-3.85-1.36-9.71,1.48-12.01,6.34c-1.24,2.63-1.71,4.25-5.04,2.09
		c-1.5-0.97-4.19,0-6.32-0.15c-1.98-0.14-3.93-0.62-6.19-1c0,1.6,0,2.81,0,4.3c-3.69-0.1-6.08,1.08-5.59,5.47
		c3.89,0,7.73-0.57,11.29,0.18c2.84,0.6,5.34,2.81,7.98,4.33c3.76,2.17,5.03,1.36,6.52-2.52c0.73-1.91,2.96-4,4.86-4.43
		c1.26-0.29,3.63,1.93,4.66,3.55c1.5,2.37-0.09,4.26-2.06,5.87c-0.95,0.77-2.19,2.2-2.01,3.07c0.2,0.97,1.83,1.68,2.88,2.44
		c1.02,0.73,2.29,1.2,3.13,2.09c3.58,3.78,6.5,8.44,12.73,9.23c-1.02,0.37-2.05,0.74-3.47,1.26c0.49,1.1,0.97,2.17,1.39,3.12
		c2.97-0.97,5.65-1.85,7.23-2.36c2.01,4.27,3.39,7.42,5,10.45c0.29,0.54,1.58,0.83,2.36,0.76c3.28-0.29,6.55-0.76,9.82-1.18
		c1.43-0.19,2.86-0.43,4.28-0.65c0.17,0.33,0.34,0.65,0.5,0.98c-0.6,0.61-1.1,1.43-1.83,1.79c-2.18,1.08-4.59,1.75-6.62,3.04
		c-1.04,0.66-2.31,3.03-2,3.4c2.32,2.79-0.04,3.81-1.73,4.61c-4.04,1.9-8.16,3.69-12.38,5.1c-2.91,0.97-5.58,0.01-7.3-2.79
		c-0.59-0.97-1.19-1.93-1.64-2.67c-3.72,1.34-7.16,2.57-11.28,4.06c1.88,1.52,3.35,2.46,4.46,3.72c0.55,0.63,0.43,1.84,0.62,2.79
		c-0.8,0.14-1.59,0.37-2.4,0.41c-1.43,0.07-2.86,0.02-4.6,0.02c-0.43-0.71-1.06-1.74-2.12-3.48c-0.33,2.16-0.54,3.55-0.76,5.05
		c0.99,0.47,2.14,0.78,2.98,1.47c2.69,2.21,5.22,1.83,8.14,0.32c1.38-0.72,3.67-1,4.89-0.32c1,0.56,1.79,3.17,1.33,4.32
		c-1.32,3.29,0.97,4.78,2.4,6.93c2.89,4.34,4.21,9.12,2.89,14.84c3.69,1.94,5.04,4.74,1.82,8.69c-0.53,0.65-0.06,2.2,0.12,3.31
		c0.32,1.98,1.05,3.94,1.05,5.9c0,1.19-1.05,2.37-1.62,3.56c-1.35-0.87-2.8-1.63-4.01-2.66c-0.4-0.34-0.21-1.39-0.34-2.59
		c-2.73,3.3-5.12,6.27-7.61,9.16c-0.8,0.93-1.73,1.9-2.81,2.39c-5.06,2.28-9.07,5.71-11.4,10.73c-1.88,4.06-3.27,8.34-4.97,12.48
		c-0.47,1.15-1.28,2.17-1.11,3.21c0,3.33,0.54,6.77-0.17,9.94c-0.59,2.64-0.81,4.59,1.24,6.51c0.39,0.37,0.43,1.12,0.88,2.39
		c-6.73-0.42-8.52-8.92-15.98-8.39c1.14,1.62,1.98,2.6,2.59,3.72c0.57,1.05,1.48,2.43,1.17,3.29c-0.29,0.82-2.01,1.7-3,1.6
		c-2.79-0.27-3.9,1.22-4.84,3.41c-1.02,2.39,0.37,3.49,2.01,4.73c0.64,0.49,0.82,1.58,1.21,2.4c-0.93,0.11-1.86,0.37-2.77,0.3
		c-0.94-0.07-1.85-0.47-3.29-0.87c0.07,1.5,0.34,2.52,0.1,3.41c-0.25,0.95-0.92,2.48-1.51,2.53c-4.19,0.37-4.57,2.5-3.16,5.82
		c0.2,0.48-0.11,1.17-0.22,2.09c-1.52-0.34-2.79-0.63-4.4-0.99c0.92,2.59,1.42,5.03,2.64,7.02c0.71,1.15,2.54,2.05,3.97,2.24
		c7.06,0.93,9.18,2.74,11.06,9.63c0.38,1.37,1.45,2.6,2.35,3.78c1.32,1.73,1.37,3.63-0.95,3.62c-4.82-0.01-3.31,2.48-2.41,4.91
		c0.38,1.03,0.85,2.02,1.42,3.35c4.99-3.48,9.96-4.15,14.57-0.71c2.11,1.58,4,4.09,4.87,6.57c1.49,4.23-1.15,8.34-5.52,9.86
		c-6.96,2.41-14.51-0.23-18.46-6.56c-6.08,1.15-11.42,0.07-14.67-6.17c-4.23,2.82-8.26,4.22-12.74,1.23
		c-0.57-0.38-2.01,0.66-3.08,0.9c-3.41,0.79-6.87,1.39-10.25,2.32c-1.58,0.44-3.49,1.1-4.37,2.31c-2.5,3.42-5.75,5.06-9.81,5.24
		c-11.14,0.5-22.27,1.02-33.42,1.31c-2.91,0.08-5.86-0.54-8.76-1.05c-2.65-0.47-4.81-1.53-5.28-4.74c-0.15-1.04-1.46-1.9-2.4-3.04
		c0.3-0.81,1.38-2.27,1.01-2.93c-1.95-3.54-4.26-6.88-6.59-10.5c-0.75,0.67-1.14,1.2-1.67,1.47c-0.75,0.38-1.6,0.56-2.41,0.83
		c0.12-0.76,0.03-1.65,0.4-2.26c2.67-4.45,1.59-7.62-3.09-9.89c-1.23-0.6-2.07-2.15-2.91-3.38c-1.06-1.56-1.86-3.3-2.91-4.87
		c-1.72-2.54-3.76-4.89-5.31-7.52c-1.59-2.7-3.41-3.01-5.59-1.09c-1.82,1.6-3.26,3.63-5.11,5.19c-1.03,0.87-2.55,1.16-3.85,1.72
		c-0.57-1.44-1.65-2.91-1.56-4.3c0.11-1.66,1.06-3.35,1.95-4.85c1.89-3.19,4.46-6.08,5.81-9.46c0.83-2.09-0.09-4.87-0.22-7.34
		c-0.46-0.05-0.92-0.1-1.38-0.16c-0.59,0.55-1.23,1.06-1.76,1.66c-2.36,2.67-4.05,5.61-7.91,7.18c-2.25,0.92-3.92,5.32-4.26,8.34
		c-0.46,4.07,0.66,8.31,1.02,12.48c0.12,1.39,0.02,2.81,0.02,4.21c-0.43,0.16-0.86,0.32-1.29,0.47c-1.43-2.2-2.86-4.4-4.47-6.86
		c-0.49,1.24-0.79,2.47-1.45,3.47c-0.41,0.63-1.36,0.91-2.07,1.34c-0.33-0.74-0.98-1.5-0.93-2.2c0.53-6.83,0.51-7.52-1.29-12.58
		c-0.24-0.68-0.68-1.3-1.32-2.5c-2.82,3.08-1.84,6.47-1.96,9.5c-0.07,1.75,0.87,3.52,0.88,5.28c0.01,1.18-0.82,2.37-1.28,3.56
		c-0.64-1.06-1.7-2.06-1.86-3.19c-0.77-5.57-1.28-11.18-1.95-16.76c-0.14-1.2-0.56-2.37-0.85-3.55c-0.43,0.04-0.86,0.07-1.29,0.11
		c0.14,2.68,0.29,5.36,0.43,7.92c-0.54,0.19-0.8,0.38-1.01,0.33c-5.46-1.05-6.23-0.52-6.48,5.34c-0.12,2.93,0.43,5.88,0.32,8.81
		c-0.04,1.15-1.06,2.26-1.64,3.39c-0.66-0.98-1.81-1.92-1.91-2.95c-0.54-5.86-0.72-11.76-1.26-17.62c-0.26-2.84-1.03-5.63-2.5-8.59
		c-0.99,2.01-1.95,4.04-2.97,6.04c-0.46,0.89-0.99,2.38-1.61,2.45c-3.83,0.43-3.11,3.13-3.26,5.63c-0.48,7.5-0.88,15.02-1.83,22.46
		c-0.35,2.76-0.82,6.38-5.09,6.57c-2.41,0.11-3.87-0.84-4.35-3.32c-0.78-4.02-2.08-8-2.33-12.04c-0.13-2.07,0.98-5.24,2.54-6.11
		c1.63-0.91,4.46,0.36,7.3,0.74c-0.03,0.16,0.3-0.61,0.25-1.35c-0.11-1.53-0.71-3.07-0.59-4.56c0.38-4.84,0.53-9.43-6.51-10.89
		c0.09-0.2-0.02,0.61-0.49,0.94c-0.64,0.45-1.54,0.54-2.33,0.78c-0.26-0.9-0.91-1.89-0.72-2.68c1.06-4.43,2.33-8.81,3.62-13.55
		c-0.6-0.25-1.37-0.84-2.13-0.82c-5.16,0.08-7.33-1.63-8.12-6.63c-0.69-4.34-0.57-3.96-4.74-2.67c-7.02,2.17-9.49,8.42-12.87,13.74
		c-1.88,2.96-2.54,6.67-3.96,9.94c-0.45,1.03-1.58,1.75-2.4,2.61c-0.69-1.11-1.4-2.22-2.06-3.35c-0.12-0.2-0.09-0.51-0.05-0.76
		c0.69-3.68-1.5-4.6-4.54-4.94c-4.39-0.49-10.25,3.68-11.52,7.98c-4.02,13.59-8.14,27.16-12.33,40.7c-0.39,1.25-1.47,2.28-2.23,3.41
		c-0.36-0.14-0.73-0.28-1.09-0.42c0-1.15-0.23-2.36,0.04-3.45c2.11-8.54,4.36-17.04,6.43-25.58c0.23-0.94-0.11-2.35-0.73-3.11
		c-1.82-2.23-2.07-4.1,1.56-6.15c-2.94-2.37-5.45-4.3-7.85-6.37c-0.83-0.72-1.42-1.77-2-2.74c-1.05-1.75-1.91-3.63-3.04-5.33
		c-3.92-5.93-4.22-5.96-11.01-1.81c0.53,0.81,1.13,1.57,1.54,2.43c0.31,0.67,0.78,1.76,0.49,2.14c-2.01,2.6-2.8,6.14-4.79,8.32
		c-2.24,2.45-3.09,4.05-1.47,6.86c0.28,0.48,0.19,1.17,0.33,2.15c-1.62-0.13-2.94-0.24-5.32-0.43c0.64,2.61,1,4.87,1.76,6.98
		c1.55,4.28,3.38,8.45,4.9,12.73c0.18,0.51-0.74,1.98-1.32,2.09c-4.59,0.89-8.51-3.28-7.83-7.92c0.21-1.41,0.22-3.2-0.47-4.34
		c-2.58-4.23-5.57-8.2-8.23-12.39c-0.68-1.08-0.72-2.57-0.52-3.93c-1.33-2.38-2.37-5-4.09-7.05c-1.47-1.75-3.64-2.99-5.66-4.19
		c-4.13-2.45-8.4-4.66-12.52-7.12c-0.46-0.27-0.36-1.55-0.43-2.37c-0.07-0.79-0.01-1.6-0.86-2.53c-0.3,0.36-0.65,0.7-0.89,1.1
		c-2.46,4.13-6.65,4.19-9.35,0.16c-1.19-1.78-2.48-3.5-3.84-5.42c-1.08,0.78-1.87,1.34-2.68,1.93c-0.42-0.32-0.73-0.51-0.99-0.77
		c-0.71-0.72-1.54-2.16-2.06-2.05c-1.21,0.25-2.87,0.98-3.3,1.97c-2.27,5.22-5.95,9.14-10.27,12.66c-0.78,0.64-1.27,2.04-1.3,3.11
		c-0.07,2.29,0.32,4.6,0.39,6.9c0.27,8.57-5.41,16.13-13.7,18.34c-10.53,2.8-19.04-4.94-17.8-15.91c0.37-3.26,0.2-6.68-0.36-9.91
		c-0.45-2.62-2.55-2.29-3.97-0.7c-2.83,3.18-5.49,6.51-8.08,9.89c-1.78,2.32-4.75,2.45-6.21,0.22c-0.68-1.03-1.85-1.74-2.8-2.59
		c-1.04,1.33-2.72,2.53-3,4c-1.08,5.66-1.8,11.4-2.48,17.12c-0.62,5.19-1.53,5.72-6.32,3.49c-0.89-0.41-2.17-0.49-3.07-0.16
		c-0.48,0.17-0.97,1.97-0.67,2.29c0.67,0.7,1.83,0.91,2.79,1.33c0.98,0.44,1.94,0.9,2.91,1.35c-0.52,0.77-1.17,1.49-1.55,2.33
		c-1.39,3.01-2.79,6.03-4.02,9.11c-3.59,9.01-11.28,12.31-19.88,13.51c-10.55,1.47-20.98-0.51-31.24-3.02
		c-1.25-0.31-2.33-1.38-3.43-2.18c-0.81-0.59-1.5-1.89-2.26-1.91c-5.02-0.11-4.95-2.89-3.75-6.49c0.12-0.36-0.25-0.88-0.7-2.29
		c-1.1,1.76-1.54,3.17-2.5,3.8c-1.26,0.83-3.55,1.91-4.32,1.37c-2.74-1.94-5.17-4.4-7.35-6.98c-0.4-0.47,0.58-3.01,1.52-3.54
		c3.85-2.17,3.97-2.18,1.16-5.54c-0.56-0.67-1.01-1.42-1.88-2.68c-0.72,2.03-1.21,3.68-1.89,5.24c-1.28,2.91-3.12,3.01-5.2,0.59
		c-1.2-1.4-2.71-2.58-4.19-3.7c-4.81-3.64-4.8-8.33,0.09-11.88c0.41-0.3,0.84-0.55,1.24-0.81c-0.04-0.33,0.01-0.68-0.12-0.78
		c-0.71-0.51-1.46-0.95-1.78-0.28c-1.98,1.16-3.98,3.24-5.94,3.19c-1.48-0.03-2.9-2.76-4.01-3.93c-0.43,1.13-1.42,3.21-1.96,5.4
		c-0.29,1.19,0.19,2.57,0.37,3.86c0.35,2.53,0.91,5.06,0.97,7.6c0.01,0.55-1.65,1.31-2.65,1.6c-0.28,0.08-1.48-1.35-1.35-1.86
		c1.29-5.29-3.33-8.38-4.17-12.12c-1.61,1.44-3.33,2.86-4.88,4.43c-0.88,0.88-1.37,2.15-2.26,3.01c-1.27,1.23-2.8,2.19-4.1,3.4
		c-1.17,1.09-2.12,2.41-3.26,3.54c-0.58,0.58-1.41,1.36-2.05,1.3c-0.54-0.05-1.46-1.28-1.37-1.85c0.55-3.47-1.69-4.04-4.25-4.59
		c-2.17-0.46-5.32-0.55-6.21-1.95c-2.18-3.47-4.43-7.42-3.24-11.87c0.75-2.8,1.59-5.89,3.37-8.04c3.98-4.83,2.77-10.46,3.25-15.83
		c0.06-0.68-1.26-1.69-2.14-2.21c-1.21-0.72-2.61-1.12-3.92-2.63c-9,3.47-18,6.94-27,10.4c-2.26,0.87-3.9,5.03-2.32,6.73
		c0.6,0.64,3.06,0.61,3.74-0.06c2.58-2.56,4.37-1.68,6.46,0.56c0.96,1.03,2.36,1.86,3.71,2.29c4.09,1.29,6.02,3.56,5.24,7.66
		c-0.71,3.75-1.75,7.54-3.32,11c-2.4,5.27-8.46,5.69-12.23,1.06c-1.11-1.37-1.94-3.04-2.62-4.68c-1.14-2.78-3.21-3.71-5.92-3.71
		c1.95,3.71,3.88,7.27,5.7,10.89c0.63,1.25,0.89,2.69,1.52,3.94c1.26,2.47,3.27,4,5.87,2.22c2.74-1.87,4.66-1.19,6.08,1.27
		c1.62,2.8,0.32,5.49-2.24,6.37c-4.06,1.38-5.19,3.34-3.92,7.43c0.81,2.62-0.62,4.99-3.26,5.8c-6.75,2.08-13.59,3.95-20.76,2.5
		c-4.73-0.96-7.66-3.46-7.73-6.35c-0.1-3.95,4.31-8.99,8.44-9.9c1.36-0.3,2.74-0.97,3.8-1.85c0.26-0.22-0.44-2.48-1.15-2.79
		c-1.16-0.51-2.8-0.55-4.03-0.15c-6.34,2.05-12.13,2.07-17.69-2.51c-1.84-1.52-4.95-1.57-7.52-2.1c-1.23-0.25-2.67,0.26-3.81-0.15
		c-1.31-0.46-2.39-1.55-3.57-2.36c0.93-0.9,1.71-2.12,2.82-2.65c4.09-1.94,4.51-2.94,2.78-7.01c-0.53-1.25-1.2-2.92-0.79-4.01
		c1.65-4.34-0.22-8.29-0.72-12.41c-0.19-1.57,0.82-3.28,1.28-4.93c-0.15-0.2-0.31-0.57-0.46-0.57
		c-10.53,0.49-17.56-6.97-25.75-11.58c-18.54-10.43-36.75-21.46-55.24-31.98c-3.73-2.12-8.1-3.17-12.25-4.45
		c-2.52-0.78-3.94-1.7-2.61-4.58c0.88-1.92,0.3-3.33-1.33-4.99c-13.82-14.1-28.1-27.82-40.95-42.77
		c-8.96-10.42-16.01-22.51-23.62-34.05c-1.16-1.76-1.46-4.79-0.89-6.88c3.55-13.11,7.46-26.13,11.26-39.18
		c0.36-1.23,0.71-2.47,1.2-3.65c1.07-2.57,0.26-3.84-2.49-4.17c-2.1-0.25-3.69-0.92-2.93-3.71c4.28-15.84,3.26-31.59,0.13-47.58
		c-4.76-24.32-6.16-48.89-1.54-73.46c2.45-13.02,6.46-25.59,11.82-37.74c1.48-3.35,2.83-4.06,6.27-2.44
		c15.24,7.2,29.2,16.06,39.94,29.35c0.3,0.38,0.78,0.61,1.5,1.15c3.67-3.65,7.44-7.14,13.33-5.4c5.24,1.55,8.05,4.87,8.66,11.26
		c1.24-0.33,2.44-0.57,3.57-0.97c13.41-4.76,26.79-9.61,40.24-14.26c2.54-0.88,2.37-2.53,2.42-4.49
		c0.26-11.02,0.14-22.08,0.98-33.06c0.8-10.43,4.09-20.32,8.87-29.68c1.29-2.54,2.94-3.06,5.26-1.83
		c9.39,4.95,18.8,9.87,28.11,14.98c12.43,6.82,21.1,17.85,29.55,28.61c11.86,15.09,22.23,31.34,33.59,46.83
		c2.82,3.84,6.88,6.81,10.56,9.95c4.19,3.58,8.98,6.53,12.81,10.45c4.14,4.24,10.12,7.6,9.59,14.98c-0.04,0.58,0.64,1.43,1.21,1.8
		c2.87,1.88,5.81,3.65,9.61,5.06c-0.55-1.95-0.92-3.96-1.68-5.82c-1.54-3.76-3.08-7.54-5.06-11.07c-0.77-1.38-2.58-2.65-4.15-3.03
		c-2.83-0.69-4.64-2.43-4.53-4.93c0.09-2.15,1.22-4.71,2.74-6.22c1.71-1.7,5.13,1.19,6.23,5.01c0.7,2.44,1.28,4.97,2.42,7.2
		c0.52,1.01,2.24,1.88,3.47,1.97c4.39,0.29,6.82,3.95,4.4,7.76c-1.61,2.53-1.52,4.33,0.06,6.55c0.66,0.93,0.87,2.21,1.6,3.05
		c1.22,1.4,2.74,3.69,4.06,3.64c4.18-0.16,5.93-2.26,5.96-5.98c0.03-4.29,0.73-8.17,4.89-10.55c0.62-0.35,1.4-1.14,1.41-1.74
		c0.09-6.81,6.05-10.17,8.9-15.33c1.51-2.74,3.34-5.17-0.58-7.76c-1.17-0.77-1.79-3.52-1.44-5.1c0.28-1.3,2.26-2.9,3.66-3.08
		c1.09-0.15,2.82,1.44,3.58,2.67c0.64,1.05,0.38,2.71,0.38,4.09c0.01,2.21,0.99,2.78,2.93,1.87c2.49-1.17,5.97-4,7.23-3.22
		c2.94,1.82,5.05,5.21,7.03,8.26c2.29,3.53,3.95,7.45,6.14,11.06c0.78,1.29,2.44,2.02,3.42,3.23c1.72,2.13,4.04,4.22,4.65,6.69
		c1.13,4.63,2.08,9.64,1.43,14.25c-0.42,3.02-3.54,5.85-5.89,8.35c-1.84,1.96-3.72,3.47-1.66,6.87c3.81-2.25,7.53-4.3,11.1-6.59
		c4.58-2.95,9.02-0.4,13.5,0.11c0.82,0.09,1.58,0.71,2.37,1.09c0.35-0.2,0.7-0.4,1.06-0.6c-1.33-2.79-2.17-6-4.11-8.27
		c-2.75-3.2-3.97-6.1-1.87-10.03c1.1-2.07,1.7-4.2-0.26-6.39c-1.5-1.68-0.88-3.14,1.12-4.34c2.39-1.42,4.44-3.18,2.61-6.51
		c-0.32-0.58,0.21-1.63,0.35-2.47c0.76,0.23,1.67,0.27,2.25,0.72c2.04,1.6,3.69,1.9,5.54-0.43c1.48-1.87,3.45-2.96,6.11-1.74
		c0.78,0.36,2.01-0.27,3.04-0.45c-0.35-0.96-0.41-2.33-1.09-2.81c-3.05-2.15-2.44-5.1-2.09-8.02c0.06-0.47,0.48-1.29,0.69-1.27
		c4.73,0.32,8.08-5.51,13.33-2.93c4.83,2.38,9.44,5.09,10.37,10.92c0.54,3.38,2.76,6.83,0.33,10.38c-0.22,0.33,0.13,1.56,0.44,1.65
		c4.57,1.41,5.8,5.88,8.48,9.02c0.39,0.46,0.92,0.81,1.75,1.53c4.18-5.46,3.31-11.52,2.84-17.81c4.44,1.66,3.53,5.74,4.8,8.67
		c1.6-4.27,0.92-8.35-0.75-12.18c-2.19-5.03-0.12-9.26,2.12-13.41c0.58-1.07,2.44-1.89,3.79-2.01c3.16-0.29,6.37-0.09,8.24-0.09
		c2.82-1.49,4.7-2.48,6.57-3.48c0.33-0.18,0.69-0.39,0.9-0.69c3.88-5.52,9.07-4.64,14.73-3.61c6.63,1.21,10.45,6.09,14.68,10.28
		c1.65,1.64,1.57,5.07,2.15,7.71c0.37,1.71,0.5,3.47,0.73,5.2c-0.77,3.05-1.73,6.06-2.24,9.15c-0.23,1.38-0.04,3.54,0.83,4.23
		c1.99,1.56,4.5,2.48,6.88,3.48c0.13,0.05,1.29-1.47,1.36-2.32c0.21-2.29,0.03-4.61,0.12-6.92c0.1-2.42-0.22-4.11-3.27-4.53
		c-1.36-0.19-2.5-1.98-3.74-3.05c0.9-6.86,1.96-7.5,8.25-5.39c0.9,0.3,2.33,0.03,3.08-0.54c0.58-0.45,0.76-1.85,0.59-2.72
		c-0.22-1.08-0.95-2.08-1.52-3.07c-2.23-3.93-2-7.94,0.71-11.48c2.14-2.8,5.14-3.32,8.07-1.41c4.69,3.05,6.12,6.75,4.89,12.14
		c-0.27,1.19-0.16,2.49-0.16,3.73c0,2.69,0.39,5.44-0.04,8.06c-0.36,2.21-0.81,3.64,2.12,4.13c0.8,0.13,1.98,1.99,1.86,2.92
		c-0.4,3.13,0.98,5.11,2.95,6.69c3.07-2.57,5.97-4.98,8.85-7.4c0.19-0.16,0.54-0.4,0.51-0.54c-0.73-3.53,1.23-5.42,4.7-6.34
		c-3.24-2.24-5.84-4.04-8.89-6.15c-0.26,0.07-1.37,0.4-2.49,0.72c-0.18-1.19-0.15-2.46-0.6-3.53c-0.56-1.33-1.25-3.04-2.38-3.61
		c-2.02-1.03-2.6-2.08-2.65-4.41c-0.07-2.81-1.28-5.58-1.97-8.37c-0.63-2.56-1.28-5.12-1.78-7.7c-0.1-0.51,0.5-1.13,0.72-1.72
		c0.95-2.48,2.08-4.9,2.79-7.45c1.87-6.77,6.38-11.64,11.92-15.27c2.67-1.76,6.8-1.16,9.79-2.61c3.24-1.57,5.4,1.23,8.18,0.95
		c0.56-0.06,1.26,0.67,1.79,1.15c1.62,1.49,3.19,3.03,4.77,4.55c0.31-0.23,0.61-0.47,0.92-0.7c0.14,1.1,0.29,2.2,0.47,3.54
		c5.65-0.24,5.12,4.34,6.16,8.15c0.88,0.14,1.94,0.3,3.57,0.56c-0.41,1.45-0.5,2.88-1.18,3.93c-1.1,1.69-0.68,2.94-0.29,4.82
		c0.72,3.55,0.11,7.37,0.03,11.08c0,0.21-0.39,0.42-0.4,0.63c-0.27,5.57-3.86,9.48-6.86,13.66c-0.86,1.2-2.17,2.08-3.11,3.24
		c-0.9,1.09-2.52,2.81-2.2,3.46c0.93,1.88,2.05,4.45,5.17,3.15c0.34-0.14,0.74-0.11,0.37-0.06c3.06,3.19,5.79,6.01,8.49,8.87
		c0.33,0.35,0.72,0.95,0.63,1.31c-1.14,4.5,2.48,7.6,3.26,11.46c0.52,2.58-0.03,5.39-0.21,8.1c-0.12,1.87-0.26,3.77-0.68,5.59
		c-1.37,5.97-1.38,12.48-6.86,16.83c-1.27,1.01-2.41,2.37-3.16,3.81c-1.21,2.31-2.59,3.71-5.43,2.95c-0.59-0.16-1.48,0.35-2.07,0.77
		c-3.66,2.65-3.77,2.69-7.33,1.67c-3.64,3.53-6.96,6.7-10.21,9.94c-2.44,2.45-1.97,4.76,0.53,7.07c1.39,1.28,1.99,3.44,2.92,5.21
		c0.34,0.66,0.43,1.53,0.93,2c2.77,2.62,5.64,5.14,8.86,8.05c1.94-4.46,3.62-3.49,6.02-0.46c2.6,3.29,8.18,1.89,9.54-2.04
		c0.38-1.09,0.42-2.39,1.07-3.26c0.64-0.87,1.85-1.31,2.81-1.94c0.25,1.12,0.89,2.33,0.67,3.35c-0.37,1.71-1.34,3.28-1.92,4.96
		c-0.16,0.47,0.15,1.11,1.13,1.87c0.41-1.06,0.85-2.12,1.22-3.19c1.72-5,5.64-6.32,9.82-3.14c1.87,1.42,3.38,2.93,6.03,1.28
		c1.02-0.64,2.97-0.62,4.11-0.08c4.24,1.98,5.69-1.02,7.34-3.75c1.7-2.81,3.61-5.55,4.91-8.54c1.12-2.59,1.43-5.53,2.26-8.26
		c1.57-5.12,3.25-10.21,4.9-15.3c1.44-4.47,2.92-8.92,4.27-13.41c0.18-0.61-0.43-1.41-0.42-2.12c0.01-1.47-0.4-3.68,0.38-4.29
		c5.22-4.09,4.61-10.51,6.76-15.8c0.24-0.59,0.43-1.21,0.65-1.81C618.84,183.57,618.79,183.61,618.79,183.61z M199.4,232.92
		c5.31,4.73,10.21,3.1,15.37,0.86c5.03-2.19,6.42-1.06,6.72,4.39c0.53,9.81-3.42,17.88-10.47,24.22c-3.48,3.12-3.42,5.73-2.03,9.66
		c2.16,6.07,3.63,12.39,5.48,18.89c-1.12,0-1.66,0.15-2.05-0.02c-10.44-4.59-20.88-9.22-31.31-13.84c-4.36-1.93-7.13-5.49-9.02-9.62
		c-5.36-11.65-10.65-23.33-15.69-35.12c-5.21-12.18-11.29-23.86-18.94-34.69c-0.62-0.88-1.4-1.65-2.1-2.47
		c-0.36,0.11-0.72,0.23-1.09,0.34c0.45,3.58,0.77,7.19,1.38,10.75c3.83,22.45,11.05,43.97,18.25,65.49
		c1.72,5.14,2.9,10.14,0.72,15.35c-4.44,10.64-8.93,21.26-13.44,31.87c-0.27,0.63-0.9,1.1-1.94,2.33c-0.36-0.81-0.57-1.29-0.78-1.76
		c-1.64-3.62-3.4-7.18-4.88-10.86c-2.86-7.11-8.37-14.09-18.14-14.03c-6.86,0.04-12.74-3.74-16.77-9.53
		c-3.19-4.58-2.64-6.39,2.44-8.39c4.68-1.84,9.89-2.86,9.7-10.09c0.44-0.04,0.88-0.07,1.32-0.11c9.09,5.95,18.18,11.91,28.44,18.63
		c-0.24-5.45,0.41-10.32-0.83-14.65c-2.65-9.22-6.18-18.19-9.62-27.16c-0.6-1.56-2.36-3.17-3.96-3.76
		c-6.25-2.3-12.62-4.28-19.01-6.17c-0.79-0.23-2.52,0.54-2.85,1.28c-2.31,5.09-3.77,10.23-1.49,15.93c0.8,2.01,0.94,5.18-0.12,6.88
		c-3.92,6.28-8.22,12.36-12.85,18.13c-3.72,4.65-4.65,8.06-2.11,13.37c3.38,7.05,6.9,14.04,10.15,21.16
		c0.92,2.01,1.09,4.35,1.61,6.54c-2.14-1.19-4.7-1.98-6.36-3.66c-4.77-4.81-9.11-10.05-13.78-14.97c-1.74-1.83-3.7-4.13-5.94-4.69
		c-13.31-3.31-26.52,2.54-30.18,17.69c4.23,1.65,8.51,3.31,13.78,5.36c-7.44,4.22-13.82,7.83-20.38,11.55
		c14.81,18.03,29.18,35.52,44.18,53.79c0.94-3.88,1.57-6.49,2.32-9.59c16.03,11.75,29.86,25.82,49.02,31.15
		c0.3-0.34,0.59-0.68,0.89-1.02c-6.63-8.69-13.26-17.38-19.89-26.07c0.26-0.26,0.52-0.52,0.78-0.78
		c9.97,2.61,19.73,6.48,27.12,13.53c13.42,12.8,25.97,26.52,38.57,40.15c6.96,7.54,13.49,15.26,23.06,19.9
		c12.45,6.03,30.1,3.48,40.26-5.89c9.77-9.01,12.54-20.64,13.12-33c0.7-14.86,0.65-29.75,0.93-44.62
		c0.25-13.02,1.39-25.88,6.9-37.93c1.82-3.98,3.85-7.86,5.78-11.78c0.5,0.13,1,0.25,1.5,0.38c0.74,10.9,1.49,21.79,2.29,33.52
		c1.45-1.12,2.1-1.4,2.39-1.89c9.9-16.43,11.81-35.18,15.21-54.31c2.29,2.01,4.01,3.52,6.09,5.35c0.43-1.47,0.89-2.4,0.96-3.36
		c0.35-4.73,0.85-9.46,0.82-14.19c-0.07-8.97-0.19-17.95-0.81-26.9c-0.5-7.27-1.8-14.48-2.63-21.73c-0.3-2.58-1.44-3.17-3.89-2.61
		c-4.5,1.02-9.05,1.82-13.59,2.61c-1.13,0.2-2.32,0.03-4.14,0.03c2.2-3.74,4.12-6.75,5.72-9.92c0.42-0.83,0.26-2.84-0.28-3.15
		c-5.18-2.91-10.73-6.05-16.68-3.35c-5.27,2.39-9.96,6.05-14.9,9.15c-3.37,2.12-4.13,5.11-3.59,8.95c0.65,4.68,1.18,9.45,0.99,14.15
		c-0.19,4.44-1.39,8.83-2.15,13.24c-0.46,0-0.93,0-1.39,0c-0.4-0.84-0.9-1.65-1.19-2.52c-2.92-8.89-5.85-17.77-8.67-26.69
		c-1.22-3.86-3.71-6.14-7.69-6.51c-4.07-0.38-8.17-0.52-12.26-0.68c-7.73-0.31-11.76-3.27-14.5-10.38c-0.6-1.56-1.81-3.1-3.14-4.14
		c-2.72-2.12-5.77-3.81-8.57-5.84c-2.1-1.53-3.7-1.37-5.09,0.84c-2.65,4.24-5.21,8.54-8,12.68c-2.69,4-3.05,8.01-1,12.36
		c4.63,9.85,9.11,19.77,13.87,29.56c0.92,1.89,2.85,3.28,5.07,5.74C193.57,254.57,196.38,244.14,199.4,232.92z M344.97,275.55
		c-0.69-1.34-1.79-2.61-2-4.03c-0.61-4.03-2.39-5.79-6.11-4.54c-2.38,0.8-3.85,0.47-5.83-0.84c-2.68-1.77-7.54-1.18-7.9,0.71
		c-1.13,5.96-2.28,12.06,0.35,17.88c2.07,4.58,2.1,7.95-0.97,8.54c-2.53,0.49-2.73,1.87-2.89,3.64c-0.6,6.43-1.04,12.88-1.74,19.29
		c-1.63,15.04-3.45,30.06-5,45.1c-0.23,2.27,0.53,4.63,0.91,7.55c-0.17,0.18-1.66,1.02-1.86,2.11c-0.91,4.84-1.44,9.76-2.13,14.65
		c-0.38,2.68,0.55,4.11,3.43,4.31c4.22,0.3,8.44,0.72,12.63,1.32c2.97,0.42,4.26-0.66,4.54-3.59c0.65-6.77,1.38-13.53,2.23-20.27
		c0.49-3.87,1.31-7.7-3.2-10.52c3.99,0.22,4.52-2.26,4.81-4.96c0.32-2.93,0.82-5.86,0.96-8.8c0.14-2.88,1.4-3.72,4.19-3.39
		c8.24,0.97,16.5,1.86,24.77,2.59c5.97,0.53,11.99,0.57,17.94,1.27c1.26,0.15,2.63,2.01,3.33,3.4c0.5,0.99,0,2.51-0.15,3.78
		c-1.62,13.75-3.28,27.5-4.88,41.25c-0.27,2.3-0.64,5.16,2.53,5.54c5.83,0.71,11.72,0.96,17.59,1.29c0.78,0.04,2.25-0.47,2.3-0.88
		c0.54-3.96,0.97-7.95,1.16-11.94c0.07-1.57-0.57-3.17-0.89-4.75c0.32-0.05,0.63-0.1,0.95-0.15c0.5,0.43,1.01,0.86,1.73,1.48
		c-1.63-10.97-1.63-10.97,2.36-16.04c-3.71-1.75-4.26-3.49-0.86-6.64c2.75-2.55,2.03-7.05,0.38-9.2c-0.2-4.07-0.45-6.87-0.46-9.66
		c0-2.86-0.71-6.04,2.78-7.82c-2.1-3.2-2.22-5.88,2.36-7.25c-0.14-0.33-0.28-0.66-0.41-1c-1.5-0.23-3-0.45-4.8-0.72
		c-0.05-0.3-0.48-1.13-0.26-1.71c0.84-2.23,2.33-4.3,2.77-6.59c0.92-4.75,1.4-9.59,1.92-14.4c0.81-7.58,1.25-15.21,2.37-22.74
		c0.44-2.98-0.17-4.06-2.97-4.31c-4.93-0.44-9.85-1.08-14.79-1.3c-0.91-0.04-2.28,1.31-2.74,2.34c-0.61,1.34-0.71,3-0.74,4.52
		c-0.09,4.43-0.03,8.86-0.03,13.93c-1.52,1.4-4.49,19.93-3.65,25.66c1.18-0.96,3.23-3.23,3.73-2.93c1.91,1.15,3.32,3.13,4.92,4.81
		c-0.29,0.31-0.58,0.62-0.87,0.93c-1.25-0.42-2.5-0.84-4.05-1.36c-0.79,3.42-3.21,3.6-6.01,3.26c-13.49-1.6-26.98-3.12-40.47-4.71
		c-2.06-0.24-4.09-0.75-6.58-1.21c1.13-3.08,2.07-5.62,3.1-8.42c-0.54,0.17-1.77,0.55-3.54,1.1c-0.17-3.08-0.6-6.06-0.41-9.01
		c0.15-2.39,1.69-4.81,1.44-7.09c-0.34-3.2-1.88-6.25-2.67-9.42c-0.45-1.81-0.41-3.74-0.59-5.62c0.38-0.04,0.76-0.09,1.14-0.13
		c0.87,0.96,1.73,1.92,2.69,2.99C342.36,280.17,343.68,277.83,344.97,275.55z M705.34,421.14c-0.49-1.4-1.01-2.79-1.47-4.2
		c-0.5-1.56-0.85-3.18-1.47-4.69c-0.26-0.63-0.95-1.31-1.58-1.51c-1.85-0.59-2.95-1.39-2.31-3.6c0.14-0.5-0.47-1.65-0.96-1.82
		c-3.15-1.06-2.53-3.49-2.58-4.64c1.79-0.4,3.07-0.69,4.35-0.98c-0.89-2.31-1.78-4.62-2.67-6.92c-0.44,0.18-0.88,0.37-1.32,0.55
		c0.36,0.87,0.8,1.72,1.02,2.63c0.1,0.39-0.14,1.15-0.44,1.3c-0.49,0.24-1.39,0.4-1.72,0.12c-1.51-1.28-3.28-2.5-4.23-4.16
		c-3.76-6.55-7.35-13.21-10.76-19.95c-1.01-2-1.21-4.41-1.83-6.86c-3.82,0.01-2.62-3.7-3.58-5.56
		c15.27-17.32,30.29-34.35,46.04-52.2c-2.91-0.74-4.55-1.35-6.24-1.55c-4.96-0.58-9.94-1.27-14.93-1.35
		c-1.86-0.03-4.22,1.06-5.52,2.42c-3.8,3.97-7.22,8.31-10.69,12.58c-1.16,1.43-2.03,3.1-3.19,4.89c-0.1-0.07-0.65-0.45-1.08-0.74
		c-5.39,6.35-10.78,12.65-16.1,19.01c-0.85,1.02-2.24,2.67-1.92,3.4c2.46,5.61-1.8,2.62-3.39,2.85c-3.06,3.37-6.06,6.68-9.25,10.2
		c-0.72-1.18-0.99-1.42-0.96-1.6c1.84-10.34,1.37-20.89,3.01-31.26c1.27-7.97,1.86-16.05,2.47-24.1c0.07-0.93-1.53-2.7-2.57-2.87
		c-4.41-0.75-8.9-1.05-13.36-1.52c-3.06-0.32-3.93,1.07-4.43,4.11c-0.62,3.8,2.88,8.5-2.74,11.19c2.76,2.13,4.76,4.06,1.23,6.61
		c-0.24,0.18-0.48,0.78-0.37,0.96c2.08,3.29-0.22,4.66-3.11,5.88c1.42,0.96,2.42,1.63,2.53,1.71c-0.58,3.67-2.32,7.27-1.24,9.51
		c1.78,3.68,1.96,6.38-0.99,9.41c1.39,0.68,2.46,1.2,3.53,1.72c-0.06,0.4-0.13,0.79-0.19,1.19c-1.58-0.12-3.15-0.25-5.7-0.45
		c0.62,1.64,1.1,2.92,1.62,4.18c0.03,0.06,0.45-0.04,0.6-0.06c-0.17-0.65-0.34-1.29-0.65-2.49c1.79,0.69,3.01,1.16,4.81,1.84
		c-1.05,1.37-1.59,2.83-2.53,3.17c-4.35,1.54-4.94,5.14-4.42,8.7c0.36,2.46,2.17,4.7,3.34,7.05c-0.23-0.03-0.46-0.06-0.69-0.09
		c0,5.31,0,10.63,0,16.03c-1.33,0.12-2.39,0.22-4.03,0.37c1.49,0.9,2.7,1.3,3.34,2.13c0.56,0.72,1,2.28,0.6,2.88
		c-2.08,3.14-5.66,5.83-1.6,10.02c0.37,0.38-0.47,1.84-0.62,2.82c-0.53,3.6-1.36,7.2-1.4,10.81c-0.04,3.03,1.13,5.69,5.11,5.63
		c2.16-0.03,4.34,0.35,6.48,0.73c3.32,0.59,4.68-0.84,4.99-4.06c0.62-6.38,1.28-12.77,2.28-19.1c0.34-2.13,1.44-4.31,2.73-6.07
		c2.1-2.87,4.69-5.39,6.99-8.12c2.62-3.1,5.16-6.27,8.45-10.27c4.32,7.44,8.17,13.94,11.87,20.52c5.58,9.93,11.12,19.88,16.54,29.9
		c1.38,2.55,3.28,3.69,6.07,3.93c4.85,0.42,9.68,1.28,14.54,1.42c2.53,0.07,5.09-1,7.79-1.59c-1.5-2.3-2.61-3.55-3.21-5.01
		C711.16,420.2,711.22,420.18,705.34,421.14z M514.04,307.95c1.04-2.52,2.42-4.46,2.56-6.48c0.28-4.02-0.48-8.12-0.14-12.13
		c0.23-2.7-0.78-3.47-2.99-3.74c-4.32-0.54-8.66-1.01-12.97-1.61c-2.58-0.36-3.93,0.58-4.04,3.23c-0.56,13.69-4.47,26.98-4.72,40.76
		c-0.16,8.94-1.68,17.85-2.41,26.79c-0.15,1.85,0.5,3.77,0.75,5.44c-0.67,1.5-1.87,3.02-1.97,4.62c-0.35,5.71-2.94,10.27-6.65,14.31
		c-0.67,0.73-1.88,0.96-2.84,1.42c-0.23-1.02-0.52-2.03-0.66-3.06c-0.17-1.25-0.21-2.51-0.3-3.77c-0.58-0.02-1.15-0.04-1.73-0.06
		c-0.4,2.36-0.55,4.79-1.27,7.05c-0.48,1.49-1.48,3.28-2.77,3.96c-4.31,2.26-9.04,1.5-13.53,0.68c-13.8-2.52-21.05-11.46-20.7-23.69
		c0.28-9.58,1.88-19.12,2.87-28.69c1.78-17.08,3.53-34.17,5.36-51.24c0.27-2.47-0.57-3.59-3.03-3.77c-3.07-0.23-6.13-0.61-9.19-0.94
		c-7.72-0.83-7.71-0.83-8.06,6.76c-0.04,0.89-0.18,1.78-0.23,2.68c-0.58,9.27-1.19,18.54-1.69,27.82c-0.12,2.17-3.71,7.35-6.03,7.8
		c0.92,0.6,1.61,1.1,2.35,1.53c2.27,1.3,4.71,2.48,1.03,5.08c-0.47,0.33-0.36,1.57-0.43,2.39c-0.09,1.1-0.05,2.2-0.12,3.3
		c-0.08,1.37-0.43,2.76-0.27,4.09c0.8,6.3,0.97,12.55-1.16,18.65c-0.4,1.15-1.53,2.1-1.76,3.26c-1.35,6.83,0.42,13.69,2.7,19.66
		c2.16,5.64,7.02,10.66,11.69,14.83c9.22,8.24,20.61,11.65,32.87,11.64c16.73-0.02,36.47-9.32,42.23-32.45
		c0.51-2.06,1.26-4.07,1.89-6.1c-0.76-0.18-1.57-0.38-2.29-0.55c0.82-1.44,2-2.62,2.13-3.9c1.09-11.09,1.99-22.2,2.96-33.3
		c0.13-1.52-0.1-3.29,0.6-4.51c3.03-5.37,1.56-11.39,2.72-17.01C514.92,308.35,513.85,307.79,514.04,307.95z M575.48,400.78
		c0.14-2.69-1.51-3.14-4.05-3.22c-5.27-0.17-10.96,0.19-15.67-1.7c-7.57-3.04-14.09-8.23-19.18-14.86
		c-1.66-2.17-3.58-2.32-5.68-0.82c-3.03,2.16-6.07,4.3-8.97,6.61c-3.89,3.1-3.93,3.93-0.99,7.83c0.62,0.82,1.25,1.63,1.95,2.38
		c14.41,15.57,32.33,22.07,53.28,20.26c3.15-0.27,6.3-1.84,9.2-3.31c2.58-1.31,4.59-3.48,8.06-2.44c1.15,0.34,3.1-1,4.3-2.03
		c1.82-1.57,3.46-3.41,4.89-5.35c2.51-3.4,5.33-6.75,4.32-11.54c-0.1-0.47,0.3-1.24,0.71-1.6c2.67-2.43,4.13-4.82,0.74-6.79
		c0.75-2.49,2.12-4.64,1.81-6.51c-0.61-3.71-1.52-7.64-3.41-10.82c-5.76-9.63-15.9-13.33-25.6-17.28
		c-8.39-3.42-17.25-5.72-25.55-9.33c-11.27-4.9-12.22-16.14-6.49-22.66c1.24-1.41,1.94-3.33,3.26-4.64
		c1.41-1.39,3.24-2.35,4.98-3.34c0.07-0.04,1.04,1.5,1.59,2.3c0.03-0.35,0.06-0.7,0.1-1.05c5.92,0.51,11.83,1.01,17.75,1.52
		c1.59,0.14,3.18,0.31,4.77,0.47c1.11,0.38,2.09,1.65,3.28,2.69c4.88,4.26,9.95,8.31,14.68,12.73c1.89,1.77,3.33,2.08,5.3,0.53
		c2.72-2.14,5.46-4.26,8.21-6.37c5-3.83,5.01-3.83,1.21-8.6c-1.98-2.49-6.53-3.14-9.24-1.44c-0.88,0.55-1.96,0.79-2.94,1.17
		c-0.17-1.31-0.05-1.71,0.2-1.95c4.86-4.54,4.66-6.38-0.85-9.81c-10.09-6.27-20.85-10.34-32.86-10.79
		c-13.89-0.52-26.2,2.98-35.54,13.9c-2.16,2.52-4.6,5.24-3.61,7.57c-1.07,1.81-1.99,2.81-2.31,3.99
		c-2.66,9.71-3.27,19.23,3.22,27.88c6.25,8.33,15.42,11.92,24.76,15.38c9.34,3.47,18.75,6.89,27.69,11.23
		c9.02,4.38,9.83,15.23,2.18,21.85c-1.8,1.56-4.01,2.65-6.04,3.96c0.34,0.11,0.68,0.21,1.02,0.32c-0.85,3.77-1.71,7.53-2.79,12.3
		c-1.74-1.57-3.68-2.56-3.64-3.45C573.58,404.23,574.76,402.51,575.48,400.78z M762.54,437.41c1.79,0.09,3.54-0.28,4.86,0.31
		c6.39,2.87,7.64,2.13,8.31-4.98c0.92-9.69,1.94-19.37,3.02-29.04c0.28-2.54,0.97-5.03,1.42-7.27c4.81-3.24,6.63-8.73,9.54-13.3
		c2.96-4.64,6.51-9.36,3.18-15.75c0.51-0.13,1.02-0.27,1.53-0.4c0.82,1.39,1.64,2.78,2.49,4.22c5.45-8.94,10.51-17.12,15.46-25.37
		c4.99-8.32,9.87-16.7,15.12-25.61c-1.89-0.48-3.17-0.93-4.49-1.11c-3.94-0.53-7.99-0.58-11.82-1.5c-4.25-1.03-6.41,0.88-8.38,4.13
		c-9.52,15.65-19.12,31.25-28.73,46.85c-0.48,0.78-1.25,1.37-2.35,2.55c-0.59-1.99-0.97-3.25-1.36-4.59
		c-1.04,0.2-2.07,0.39-3.58,0.68c0.95-2.55,1.73-4.66,2.52-6.77c-3.68,1.63-6.24,2.69-8.69-1.23c-1.02-1.62-3.27-2.46-4.88-3.6
		c-0.2-2-0.41-4.12-0.62-6.23c0.43-0.14,0.86-0.29,1.29-0.43c0.61,1.47,1.21,2.93,1.63,3.95c2.26,0.72,4.26,1.35,6.73,2.13
		c-0.12-1.17-0.04-2.29-0.37-3.27c-4.17-12.53-8.29-25.08-12.73-37.51c-0.53-1.48-2.73-2.98-4.39-3.32
		c-4.75-0.98-9.62-1.4-14.45-1.98c-2.46-0.3-4.26,0.21-3.27,3.33c1.8,5.62,3.59,11.23,5.49,16.82c0.24,0.71,1,1.54,1.7,1.75
		c5.22,1.64,5.46,2.98,3.09,7.66c-0.87,1.71,0.56,4.59,0.94,6.93c1.28-0.75,2.56-1.51,4.24-2.5c1.7,1.33,1.61,3.35-0.4,4.57
		c-3.44,2.08-2.87,4.74-1.81,7.6c0.91,2.43,3.84,4.44,1.34,7.47c2.78,5.59,1.82,12.75,7.26,17.21c-3.89,3.17-3.8,3.5,1.24,5.72
		c0.55,0.24,1.13,0.79,1.35,1.33c1.67,4.24,3.35,8.47,4.78,12.79c0.25,0.76-0.64,1.91-1.21,3.41c-1.14-1.44-1.79-2.26-2.44-3.08
		c-0.31,0.13-0.61,0.25-0.92,0.38c0.78,3.12,1.57,6.23,2.59,10.27c1.21-2.82,2.02-4.7,3.24-7.53c1.69,3.54,2.89,6.06,4.04,8.46
		c-2.62,0.59-4.4,0.99-7,1.58c1.6,0.93,2.19,1.28,2.78,1.62c-1.28,1.73-3.12,3.12-3.38,4.77c-0.8,5.05-1.06,10.19-1.34,15.31
		c-0.04,0.8,0.7,2.05,1.41,2.37c0.6,0.27,1.73-0.41,2.52-0.84c1.42-0.78,2.77-1.7,4.15-2.56c0.23,0.34,0.47,0.69,0.7,1.03
		C763.37,435.83,762.86,436.79,762.54,437.41z M231.73,147.58c0.33-0.27,0.66-0.54,0.99-0.81c-1.15-2.27-2.21-4.59-3.46-6.8
		c-8.54-15.09-19.57-28.21-32.39-39.78c-8.6-7.76-17.92-14.53-29.01-18.46c-4.68-1.66-4.9-1.42-6.58,3.11
		c-5.43,14.64-5.98,29.83-5.33,45.14c0.16,3.76,1.15,7.52,2.01,11.21c0.37,1.58,1.97,3.01,1.95,4.49c-0.02,1.27-1.56,2.51-2.58,3.99
		c15.09,5.01,29.99,9.96,44.88,14.91c-2.42-5.05-5.13-9.54-8.47-13.52c-2.77-3.3-3.29-5.67,0.92-7.85c0.15-0.08,0.14-0.47,0.48-1.72
		c-0.43-0.25-1.41-0.67-2.2-1.32c-5.73-4.7-11.38-9.51-17.15-14.17c-8.12-6.56-11.78-23.08-7.11-32.26
		c1.23-2.42,2.58-1.29,4.02-0.39c13.01,8.18,24.12,18.63,34.83,29.52C215.62,131.11,223.67,139.35,231.73,147.58z M63.4,215.98
		c0.35,0.07,0.7,0.13,1.05,0.2c7.71-13.23,15.42-26.46,23.72-40.7c-4.99,1.29-6.09-0.73-6.93-4.21c-0.79-3.26-2.61-6.44-4.59-9.22
		c-8.26-11.6-18.24-21.53-30.47-28.88c-10.85-6.52-9.94-6.02-14.21,4.88c-8.51,21.72-8.49,44.35-5.82,67.09
		c0.63,5.38,2.14,10.66,3.24,15.98c0.39-0.03,0.77-0.06,1.16-0.09c0.18-1.21,0.45-2.41,0.53-3.62c0.79-12.77,1.21-25.58,2.4-38.32
		c1.1-11.84,3.02-23.61,4.55-35.41c0.27-2.09,1.02-3.26,3.23-1.96c8.99,5.34,16.06,12.17,16.3,23.44
		c0.11,5.21-0.69,10.45-1.14,15.67c-0.44,5.03-0.96,10.05-1.5,15.73c5.14-2.03,6.16,0.55,6.47,4.05c0.1,1.14,0.29,2.28,0.44,3.42
		C62.35,208.02,62.88,212,63.4,215.98z M788.65,253.01c-2.52-0.27-4.41-0.27-6.2-0.71c-3.47-0.86-6.84-2.14-10.33-2.88
		c-1.07-0.23-3.04,0.42-3.43,1.23c-0.53,1.1-0.38,3.03,0.29,4.08c0.92,1.44,2.54,2.5,3.99,3.54c4.24,3.02,4.27,2.98,0.72,7.2
		c1.43,1.36,2.7,3.14,4.41,4.07c3.66,1.98,3.97,4.84,2.5,8.08c-1.23,2.7-0.34,3.97,2.1,5.05c5.15,2.28,10.31,3.06,16.03,0.57
		c-1.11-1.25-2.17-2.45-2.89-3.26c-1.73,0.22-2.97,0.38-4.22,0.53c0.54-1.11,1.07-2.23,1.65-3.41c-0.69-0.94-1.51-2.07-2.33-3.19
		c0.29-0.37,0.57-0.75,0.86-1.12c1.98,1,3.97,2,6.52,3.28c-0.46-1.57-1.07-2.63-1.02-3.67c0.14-2.86-0.51-6.89,1.07-8.33
		c3.92-3.55,3.89-6.43,0.64-9.9c-0.75-0.8-2-1.79-2.87-1.66c-1.16,0.17-2.54,1.15-3.11,2.17c-0.38,0.68,0.44,2.08,0.81,3.12
		c0.33,0.94,0.79,1.84,1.56,3.61C790.5,259.61,787.94,257.41,788.65,253.01z M780.86,487.91c-2.14-2.01-3.83-3.62-5.54-5.2
		c-1.79-1.66-3.59-3.61-6.31-1.92c-2.04,1.27-4.91,2.4-5.65,4.28c-1.15,2.92-2.02,7.09-0.73,9.52c1.31,2.45,5.39,3.42,8.24,5.03
		c0.48-0.51,0.72-0.79,0.98-1.05c2.87-2.95,4.77-6.66,10.43-5.73c5.45,0.89,7.01-2.45,4.3-7.79c-0.73-1.44-2.19-2.52-3.32-3.76
		c-0.54,1.52-1.07,3.05-1.62,4.57C781.48,486.32,781.3,486.76,780.86,487.91z M540.37,453.08c4.27,6.14,7.15,13.02,13.4,17.26
		c3.26-3.28,5.58-6.33,2.54-10.69c-0.49-0.71-0.16-1.99-0.22-3.01c-0.29-4.58-2.35-8.14-6.15-11.15
		C547.67,449.35,545.8,453.23,540.37,453.08z M717.76,495.42c-0.63-1.74-2.31-3.99-1.75-5.24c2.21-4.96-1.08-8.62-2.18-13.01
		c-1.45,1.15-2.64,2.33-3.08,3.75c-0.55,1.77-0.25,3.79-0.72,5.6C708.58,492.15,712.63,496.56,717.76,495.42z M212.6,243.33
		c-1.28,2.93-2.41,5.52-3.67,8.42c-1.68-1.24-2.96-2.18-4.8-3.53c-1.01,2.01-3.01,4.44-2.48,5.27c0.98,1.54,3.33,2.62,5.29,3.05
		c3.67,0.79,5.99-1.48,7.6-4.53C216.24,248.78,214.9,246.18,212.6,243.33z M494.7,450.35c0.27,0.36,0.55,0.72,0.82,1.08
		c1.69-1.27,3.69-2.31,4.96-3.91c0.72-0.9,0.8-3.05,0.21-4.1c-1.64-2.96-6.95-4.31-10.05-2.69c-0.9,0.47-1.79,1.84-1.82,2.83
		c-0.04,1.2,0.55,2.77,1.43,3.51c0.53,0.45,2.13-0.36,3.24-0.63c0.78-0.19,1.54-0.43,2.31-0.65c0.02,0.92,0.18,1.87,0,2.75
		C495.67,449.19,495.09,449.75,494.7,450.35z M412.47,181.66c-0.27,0.14-0.55,0.28-0.82,0.43c-0.55,3.84-1.31,7.67-1.53,11.52
		c-0.09,1.54,0.71,4.25,1.65,4.52c2.59,0.74,4.68-3.49,7.9-1.42c0.05,0.03,0.87-1.07,1.26-1.69c0.1-0.15-0.08-0.48,0.07,0.23
		c-2.46-2.39-4.78-3.94-6.09-6.1C413.57,186.96,413.24,184.18,412.47,181.66z M517.94,460.82c2.7-2.52,2.47-4.25-0.55-5.77
		c-1.07-0.54-2.06-1.41-2.82-2.35c-2.78-3.38-6.92-2.75-8.61,1.4c-0.43,1.06-0.86,2.14-1.07,3.26c-0.11,0.61,0.07,1.73,0.43,1.88
		c0.55,0.23,1.75,0.08,2.02-0.34c3.03-4.66,5.76-2.48,8.53,0.24C516.41,459.68,517.05,460.11,517.94,460.82z M124.57,283.98
		c-1.86-1.35-3.55-2.59-5.56-4.05c-0.32,2.38-0.57,4.17-0.86,6.33c-3.16-1.32-5.82-2.43-9.15-3.83c1.16,4.62,2.91,7.63,6.8,8.14
		C120.5,291.19,122.24,287.32,124.57,283.98z M660.48,454.68c0.41,2.7,0.17,5.17,1.2,6.87c1.23,2.01,1.87,3.31,0.06,5.21
		c-0.38,0.39,0.23,1.73,0.39,2.63c0.81-0.42,1.88-0.64,2.38-1.3C667.54,464.17,665.92,457.73,660.48,454.68z M671.35,461.86
		c2.45-3.38,4.44-5.96,6.24-8.68c0.59-0.9,0.71-2.11,1.04-3.18c-1.28,0.05-3.29-0.39-3.71,0.24c-1.83,2.71-3.27,5.7-4.65,8.69
		C670.03,459.44,670.79,460.42,671.35,461.86z M825.1,427.84c-0.13,0.2-0.26,0.4-0.4,0.6c0.68,2.02,1.99,4.06,1.9,6.04
		c-0.18,4.26,2.81,5.4,5.23,7.25c0.38-0.35,0.77-0.7,1.15-1.05c-1.38-1.38-2.76-2.76-4.92-4.92c2.35,0.14,3.65,0.21,6.09,0.36
		C830.6,432.86,827.85,430.35,825.1,427.84z M348.54,217.57c-0.99-0.74-1.5-1.4-2.11-1.52c-2.72-0.5-6.79,4.31-5.69,6.82
		c0.29,0.65,2.12,1.4,2.29,1.22C344.91,222.09,346.6,219.92,348.54,217.57z M313.48,482.54c-1.54-0.54-4.42-2.31-5.16-1.66
		c-2.52,2.23-0.78,5.03-0.73,6.35C309.35,485.83,311.11,484.42,313.48,482.54z M449.87,177.68c-0.02-0.37-0.05-0.74-0.07-1.11
		c-3.14-0.3-1.77-6.47-7.53-4.28c1.78,2.52,3.34,4.8,5.07,6.96C447.42,179.34,448.99,178.23,449.87,177.68z M845.71,263.96
		c1.39,1.06,2.5,2.39,2.99,2.19c1.33-0.55,2.39-1.74,3.55-2.68c-1.08-1.32-2.15-2.65-3.23-3.97
		C848.05,260.8,847.09,262.1,845.71,263.96z M773.9,287.3c1.05-0.98,2.57-1.75,2.62-2.6c0.13-2.17-0.33-4.38-0.75-6.54
		c-0.05-0.25-1.39-0.47-2.01-0.3c-0.45,0.12-1.06,0.96-1.01,1.42C773,281.75,773.44,284.21,773.9,287.3z M789.12,480.21
		c-0.33,0.14-0.65,0.28-0.98,0.42c0.71,1.78,1.25,3.67,2.27,5.26c0.22,0.35,2.15-0.4,3.29-0.64c-0.31-0.86-0.4-1.96-0.99-2.54
		C791.67,481.71,790.33,481.03,789.12,480.21z M723.8,490.31c-2.65,3.62-2.35,7.25,1.45,9.81
		C724.73,496.56,724.29,493.62,723.8,490.31z M277.42,462.02c-0.56,0.41-1.12,0.83-1.69,1.24c0.99,1.64,1.98,3.28,2.97,4.92
		c0.62-0.65,1.88-1.66,1.76-1.89C279.61,464.78,278.46,463.43,277.42,462.02z M763.51,259.69c1.37,1.92,2.74,3.85,4.11,5.77
		c0.31-0.22,0.61-0.44,0.92-0.67C767.1,262.88,768.76,258.89,763.51,259.69z M707.05,478.64c-2.44-0.58-4.49-1.07-6.54-1.56
		c-0.12,0.16-0.25,0.32-0.37,0.48c1.88,1.44,3.75,2.89,6.19,4.77C706.7,480.45,706.9,479.44,707.05,478.64z M761.82,240.54
		c-0.31-0.33-0.62-0.65-0.93-0.98c-1.39,0.71-2.77,1.41-4.72,2.4c1.52,1.25,2.4,1.98,3.61,2.97
		C760.62,243.14,761.22,241.84,761.82,240.54z M721.7,487.01c0.41-0.02,0.82-0.05,1.23-0.07c1.18-2.76-0.4-5.04-2.41-7.25
		C720.92,482.13,721.31,484.57,721.7,487.01z M618.67,494.12c-3.39,2.08-3.42,2.59-0.75,7.35
		C618.19,498.89,618.4,496.84,618.67,494.12z M848.71,252.85c-0.41-0.18-0.82-0.36-1.23-0.54c-0.27,0.66-0.92,1.47-0.73,1.95
		c0.41,1.03,1.25,1.89,1.92,2.82c0.54-0.4,1.61-0.97,1.54-1.18C849.87,254.83,849.24,253.85,848.71,252.85z"/>
	<path d="M614.51,104.4c-0.38,7.82-3.87,11.29-11.74,12.32c-3.32,0.44-6.28,0.69-9.04-1.45c-0.29-0.22-0.79-0.47-1.06-0.37
		c-6.45,2.38-4.13-2.51-4.3-5.22c-0.56-8.82,1.97-13.46,8.69-16.14c5.58-2.22,12.5-0.57,15.88,4.34
		C614.13,99.6,614.03,102.2,614.51,104.4z"/>
	<path d="M595.99,121.36c1.67,1.12,3.02,1.79,4.06,2.78c1.42,1.35,2.51,3.05,3.92,4.42c3.83,3.7,8.05,7.04,11.49,11.05
		c1.5,1.75,2.76,5.64,1.83,7.04c-1.21,1.84-4.82,3.18-7.17,2.89c-2.7-0.34-6.85-0.05-6.66-5.65c0.09-2.57-3.33-5.37-5.38-7.88
		c-1.91-2.34-4.33-4.27-6.1-6.7c-0.73-1-0.92-3.15-0.32-4.18C592.53,123.66,594.33,122.74,595.99,121.36z"/>
	<path d="M97.61,107.43c-0.56-2.44-0.95-4.17-1.35-5.91c1.74,0.45,3.86,0.4,5.15,1.42c7.3,5.76,11.08,11.16,5.57,19.79
		c-1.28,2-1.19,4.84-1.95,7.22c-0.39,1.22-1.27,2.28-1.93,3.42c-0.86-0.79-1.95-1.44-2.52-2.39c-2.1-3.5-4.83-6.9-5.77-10.73
		c-0.8-3.24,0.4-7.03,1.01-10.53C95.99,108.74,97.19,107.94,97.61,107.43z"/>
	<path d="M313.75,157.28c-2.47-2.66-5.69-4.88-7.07-7.92c-1.88-4.15-2.13-9.09,1.27-12.86c1.31-1.45,4.14-2.74,5.85-2.33
		c3.37,0.81,6.86,2.53,7.94,6.39c1.11,3.95,0.99,7.93-2.02,11.17C317.95,153.64,315.89,155.31,313.75,157.28z"/>
	<path d="M348.33,144.33c-0.15,4.52-4.7,8.09-8.61,7.26c-1.57-0.33-2.98-3.85-3.49-6.13c-0.52-2.34-0.19-4.65-2.58-6.36
		c-0.84-0.6-0.9-2.58-0.93-3.93c-0.01-0.67,0.74-1.55,1.38-1.96c0.27-0.17,1.17,0.64,1.77,1.02c1.16,0.72,2.35,2.11,3.48,2.05
		C345.07,135.98,348.24,138.66,348.33,144.33z"/>
	<path d="M65.08,112.18c-0.07,3.84-3.9,7.42-7.87,7.37c-4.32-0.06-7.75-3.41-7.63-7.44c0.12-4.12,3.85-7.4,8.26-7.28
		C61.86,104.94,65.15,108.28,65.08,112.18z"/>
	<path d="M235.22,503.66c0.09-4.84,2.69-8.64,5.91-8.65c4.07-0.02,8.76,5.46,7.37,10.28c-0.8,2.79-4.38,5.64-7.34,6.72
		C238.28,513.06,235.14,508.11,235.22,503.66z"/>
	<path d="M85.24,472.38c-0.03,4.36-3.55,9.02-6.77,8.97c-3.24-0.05-6.84-5.07-6.84-9.54c0-3.6,3.97-7.57,7.44-7.44
		C82.4,464.5,85.26,468.22,85.24,472.38z"/>
	<path d="M380.77,148.02c-0.01,4.11-1.92,6.42-5.37,6.5c-4.16,0.09-7.65-3.48-7.57-7.97c0.04-2.29,0.34-4.58,0.7-6.85
		c0.33-2.12,1.6-3.12,3.83-2.58C376.4,138.1,380.78,143.76,380.77,148.02z"/>
	<path d="M761.74,101.77c-2.6-2.57-3.75-5.11-0.82-7.48c1.83-1.48,4.19-1.73,5.77,0.46c2.33,3.22-0.28,5.09-2.56,7.15
		c0.46,0.49,0.83,0.96,1.26,1.35c2.49,2.24,4.35,5.4,2.26,8.04c-1.73,2.2-5.29,2.98-8.11,4.23c-0.28,0.13-1.54-0.86-1.5-1.25
		C758.45,109.89,755,104.49,761.74,101.77z"/>
	<path d="M45.44,414.84c-1.01-0.91-3.14-1.96-3.59-3.5c-0.38-1.29,0.79-4.07,1.98-4.6c3.79-1.69,7.86-2.82,11.92-3.75
		c0.98-0.22,2.86,0.93,3.36,1.93c0.47,0.94,0.03,2.75-0.64,3.77C55.67,412.98,50.93,413.58,45.44,414.84z"/>
	<path d="M738.35,103.76c-0.29-0.64-0.85-1.29-0.84-1.92c0.35-12.58,1.35-25.08,5.68-37.04c0.4-1.12,1.83-1.87,2.78-2.79
		c0.19,1.22,0.84,2.59,0.51,3.65c-3.26,10.3-5.3,20.77-5.3,31.63c0,2.15-1.11,4.31-1.71,6.46
		C739.09,103.75,738.72,103.75,738.35,103.76z"/>
	<path d="M588.89,178.13c-0.09,4.22-2.19,7.07-5.35,7.25c-2.73,0.16-5.34-2.54-5.84-6.01c-0.66-4.58,1.17-8.53,4.26-9.2
		C585.26,169.45,588.98,173.73,588.89,178.13z"/>
	<path d="M784.09,183.93c7.99-11.55,14.37-24.11,22.86-35.28C807.61,153.85,789.06,182.46,784.09,183.93z"/>
	<path d="M592.9,163.29c3.8,0.08,6.35,3.02,6.28,6.29c-0.06,3.06-2.88,5.99-5.57,5.79c-2.15-0.16-5.22-4.61-4.96-7.49
		C588.93,164.89,590.64,163.27,592.9,163.29z"/>
	<path d="M221.06,83.36c-1.43-0.68-2.93-1.25-4.27-2.07c-5.68-3.48-11.35-6.98-16.93-10.64c-0.98-0.64-1.45-2.05-2.15-3.11
		c1.23,0.09,2.69-0.22,3.64,0.34c5.86,3.43,11.65,7,17.36,10.68c1.35,0.87,2.31,2.32,3.45,3.5
		C221.8,82.49,221.43,82.93,221.06,83.36z"/>
	<path d="M798.82,89.22c-0.68,2.15-1.33,4.2-2.11,6.65c-2.51-2.57-3.53-9.58-1.68-10.73c2.43-1.5,5.36-2.35,8.19-2.91
		c0.68-0.13,2.78,2.47,2.54,2.96c-0.84,1.66-2.27,3.16-3.81,4.25C801.27,89.94,799.8,89.32,798.82,89.22z"/>
	<path d="M576.9,232.26c0.08,2.91-1.89,5.34-4.4,5.24c-3.23-0.13-4.46-2.32-4.49-5.14c-0.04-2.71,0.83-5.22,4.04-5.57
		C574.44,226.53,576.82,229.4,576.9,232.26z"/>
	<path d="M645.8,506.69c0.38,1.65,0.76,3.29,1.13,4.94c0.53,2.35,1.02,4.71,1.58,7.05c0.6,2.51-1.45,5.56-3.91,5.38
		c-0.79-0.06-2.18-1.2-2.15-1.79c0.21-4.57,0.67-9.13,1.15-13.68c0.07-0.65,0.67-1.24,1.02-1.86
		C645.01,506.71,645.4,506.7,645.8,506.69z"/>
	<path d="M778.58,79.2c2.93,0.66,12.11,18.81,11.64,23.21C784.94,95.51,781.21,87.82,778.58,79.2z"/>
	<path d="M849.95,422.43c1.77,1.53,3.67,2.49,4.25,3.97c0.29,0.74-1.68,2.58-2.89,3.62c-0.7,0.61-1.89,0.82-2.88,0.88
		c-1.11,0.07-2.97,0.11-3.22-0.42c-0.56-1.22-0.93-3.22-0.29-4.14C845.99,424.84,847.91,423.95,849.95,422.43z"/>
	<path d="M566.96,228.68c-1.85,2.69-3.17,5.31-5.19,7.18c-0.74,0.68-3.13-0.41-4.8-0.7c0.69-2.48,1.13-4.41,1.77-6.27
		c0.48-1.41,1.23-2.72,1.85-4.08c0.9,1.06,1.8,2.12,3.03,3.56C564.18,228.42,565.36,228.53,566.96,228.68z"/>
	<path d="M628.96,62.11c0.43,0.84,1.16,1.65,1.23,2.52c0.39,4.45,0.67,8.91,0.83,13.37c0.02,0.69-0.8,1.42-1.23,2.13
		c-0.66-0.47-1.8-0.86-1.91-1.44c-1.04-5.46-1.09-10.93-0.41-16.38C627.97,62.25,628.47,62.18,628.96,62.11z"/>
	<path d="M703.95,165.25c1.43-6.02,1.77-12.39,5.84-18.52C711.56,151.69,707.62,163.87,703.95,165.25z"/>
	<path d="M775.77,86.09c-1.43,0.53-2.35,1.22-3.14,1.09c-1.83-0.29-3.81-0.64-5.33-1.6c-1.29-0.81-3.02-2.73-2.78-3.74
		c0.34-1.45,2.13-2.93,3.65-3.53c0.63-0.25,2.24,1.66,3.24,2.74c0.91,0.98,1.57,2.18,2.4,3.24
		C774.16,84.75,774.68,85.1,775.77,86.09z"/>
	<path d="M578.3,131.78c-2.53,1.87-4.24,4.03-5.35,3.75c-1.69-0.43-4.21-2.66-4.09-3.89c0.18-1.72,2.47-3.23,3.85-4.82
		C574.25,128.18,575.78,129.54,578.3,131.78z"/>
	<path d="M813.66,74.11c-0.49,0.35-1.91,1.68-2.15,1.5c-2.09-1.63-3.97-3.52-5.91-5.34c1.13-1.2,2.06-3.05,3.42-3.44
		C811.22,66.19,813.61,69.8,813.66,74.11z"/>
	<path d="M613.4,524.03c-1.36-4.13,1.11-12.68,4.25-15.39C619.94,512.29,617.57,521.29,613.4,524.03z"/>
	<path d="M623.86,86.63c0.79-1.1,1.38-1.93,1.98-2.76c0.78,0.68,1.81,1.22,2.29,2.07c1.29,2.31,2.52,4.69,3.39,7.18
		c0.36,1.02-0.27,2.38-0.46,3.58c-0.92-0.65-2.13-1.1-2.69-1.98C626.77,92.19,625.43,89.49,623.86,86.63z"/>
	<path d="M663.24,497.7c0.25-3-0.41-6.64,3.39-5.96c3.49,0.63,1.92,4.03,1.62,6.42c-0.09,0.74-0.2,1.76-0.69,2.12
		c-1.03,0.76-2.32,1.17-3.5,1.73c-0.34-1-0.79-1.98-0.99-3.01C662.96,498.41,663.24,497.75,663.24,497.7z"/>
	<path d="M897.02,457.12c-0.35,0.39-1.31,1.45-2.26,2.5c-1.73-1.86-3.56-3.65-5.04-5.69c-0.16-0.21,1.65-2.68,2.64-2.75
		C895.39,450.97,897.06,452.77,897.02,457.12z"/>
	<path d="M650.52,112.18c0,2.04,0.09,4.09-0.06,6.12c-0.04,0.6-0.78,1.15-1.2,1.73c-0.6-0.54-1.7-1.07-1.72-1.63
		c-0.13-4.33-0.1-8.66,0.03-12.99c0.02-0.53,0.92-1.02,1.42-1.54c0.52,0.6,1.42,1.17,1.48,1.81c0.19,2.15,0.07,4.33,0.07,6.5
		C650.53,112.18,650.52,112.18,650.52,112.18z"/>
	<path d="M421.85,140.61c0.94,1.55,2.73,3.2,2.58,4.63c-0.16,1.52-2.17,2.85-3.37,4.27c-1.19-1.49-3.04-2.86-3.35-4.52
		c-0.23-1.25,1.52-2.87,2.4-4.32C420.68,140.65,421.26,140.63,421.85,140.61z"/>
	<path d="M846,471.48c2.1,0.84,7.43,8.5,7.07,10.32c-0.13,0.65-1.61,1.63-2.19,1.47C848.76,482.67,845.33,474.31,846,471.48z"/>
	<path d="M633.35,508.99c-4-3.74-7.47-7.04-8.66-12.34C628.93,496.71,633.62,503.3,633.35,508.99z"/>
	<path d="M262.54,513.57c-1.5-1.59-3.17-2.83-2.99-3.24c0.93-2.07,2.34-3.92,3.58-5.85c1.17,1.5,3.13,2.94,3.26,4.52
		C266.48,510.23,264.28,511.63,262.54,513.57z"/>
	<path d="M76.03,460.47c-1.03-0.65-2.01-0.94-2.11-1.41c-0.15-0.75,0.02-2.05,0.52-2.36c2.33-1.46,4.8-2.72,7.3-3.88
		c0.44-0.2,1.45,0.32,1.86,0.79c0.26,0.29,0.11,1.42-0.23,1.68C80.99,457.09,78.5,458.75,76.03,460.47z"/>
	<path d="M586.04,108.41c-1.46,0.88-2.95,2.49-4.37,2.43c-1.21-0.05-2.36-2-3.53-3.11c1.29-1.14,2.45-2.95,3.9-3.2
		c1.15-0.2,2.64,1.49,3.97,2.34C586.02,107.38,586.03,107.9,586.04,108.41z"/>
	<path d="M230.25,521.25c-1.62-2.15-3.43-3.59-3.19-4.42c0.48-1.62,2.11-2.9,3.26-4.32c1.13,1.17,3.13,2.33,3.15,3.52
		C233.51,517.43,231.82,518.87,230.25,521.25z"/>
	<path d="M663.83,135.56c-1.26-2.08-2.87-3.71-2.53-4.37c0.71-1.41,2.36-3.07,3.74-3.18c1.09-0.09,2.36,1.98,3.55,3.09
		C667.25,132.34,665.93,133.58,663.83,135.56z"/>
	<path d="M865.75,356.94c-0.28-0.66-1.03-1.69-0.81-1.97c2.27-2.85,4.69-5.58,7.08-8.34c0.6,0.65,1.8,1.75,1.7,1.88
		c-2.05,2.73-4.23,5.35-6.43,7.96C867.08,356.72,866.58,356.71,865.75,356.94z"/>
	<path d="M651.16,510.97c2.6,1.96,4.29,10.02,2.65,11.96c-0.33,0.39-2.27,0.08-2.28-0.03C651.11,519.02,649.53,515.12,651.16,510.97
		z"/>
	<path d="M747.8,103.29c1.24,2.79-1.49,8.7-5.28,11.4C741.54,111.51,744.67,104.76,747.8,103.29z"/>
	<path d="M292.53,495.57c-1,3.11-1.84,5.86-2.8,8.57c-0.17,0.48-0.99,1.14-1.33,1.05c-0.62-0.16-1.32-0.72-1.62-1.3
		C284.82,500.1,287.28,496.28,292.53,495.57z"/>
	<path d="M657.11,152.67c-0.41-3.46,0.76-6.51,3.09-9.16c0.37-0.42,1.4-0.54,2.02-0.38c0.39,0.1,0.95,1.14,0.8,1.48
		c-1.31,2.99-2.76,5.93-4.16,8.88C658.27,153.22,657.69,152.94,657.11,152.67z"/>
	<path d="M610.15,200.96c-1.71,1.63-2.76,2.65-3.82,3.66c-1.03-1.35-2.62-2.61-2.88-4.09c-0.16-0.93,1.69-2.21,2.64-3.33
		C607.25,198.27,608.4,199.34,610.15,200.96z"/>
	<path d="M618.84,183.57c-0.88-0.95-2.57-1.95-2.5-2.83c0.19-2.55,1.08-5.05,1.69-7.57c0.71,0.83,2.05,1.7,2,2.49
		c-0.15,2.66-0.79,5.3-1.24,7.95C618.79,183.61,618.84,183.57,618.84,183.57z"/>
	<path d="M778.11,60.69c1.61,1.32,2.69,2.2,3.77,3.09c-1.16,0.97-2.37,2.76-3.47,2.69c-1.37-0.08-2.64-1.7-3.96-2.66
		C775.51,62.91,776.57,62.01,778.11,60.69z"/>
	<path d="M627.39,248.97c-0.69,3.57-2.72,6-5.21,8.07c-0.2,0.16-1.84-0.71-1.89-1.19C620.07,253.78,624.38,249.5,627.39,248.97z"/>
	<path d="M596.48,525.11c-1.23-1.95-2.54-3.24-2.28-3.77c0.75-1.53,2.12-2.76,3.25-4.11c0.7,1,2.12,2.13,1.96,2.96
		C599.13,521.64,597.88,522.9,596.48,525.11z"/>
	<path d="M863.44,479.31c1.66,2.45,3.37,4.87,4.91,7.4c0.22,0.35-0.32,1.4-0.78,1.83c-0.23,0.22-1.38-0.06-1.61-0.43
		c-1.57-2.44-3-4.97-4.48-7.47C862.13,480.2,862.79,479.75,863.44,479.31z"/>
	<path d="M291.27,516.39c-2.17-2.28-3.81-3.95-5.32-5.73c-0.1-0.12,0.86-1.12,1.32-1.71c1.83,1.52,3.71,2.99,5.42,4.63
		C292.86,513.74,292,514.99,291.27,516.39z"/>
	<path d="M277.72,134.7c-0.73-1.49-1.58-2.95-2.15-4.51c-0.35-0.94-0.25-2.05-0.35-3.08c1.09,0.31,2.52,0.3,3.22,1
		C281.18,130.86,280.8,132.78,277.72,134.7z"/>
	<path d="M683.35,234.23c1.29-2.73,2.57-5.46,4.18-8.87c2.18,4.17,0.44,8.17-3.06,9.48C684.09,234.64,683.72,234.43,683.35,234.23z"
		/>
	<path d="M785.25,214.16c4.08,0.94,6.38,3.92,5.66,8.37c-2.43-2.83-4.48-5.22-6.53-7.61C784.67,214.67,784.96,214.41,785.25,214.16z
		"/>
	<path d="M859.79,182.18c-1.1,1.37-1.92,2.41-2.75,3.45c-0.6-1.21-1.72-2.45-1.65-3.61c0.07-1.16,1.34-2.24,2.09-3.36
		C858.16,179.68,858.83,180.71,859.79,182.18z"/>
	<path d="M642.33,503.02c-1.03,1.28-1.73,2.14-2.43,3.01c-0.74-1.55-1.77-3.05-2.09-4.69c-0.16-0.85,0.94-1.95,1.47-2.93
		C640.24,499.85,641.19,501.28,642.33,503.02z"/>
	<path d="M64.2,523.64c1.96-2.24,3.4-3.97,4.97-5.58c0.35-0.36,1.26-0.54,1.68-0.34c0.38,0.18,0.68,1.04,0.61,1.55
		C71.13,521.86,67.96,524.05,64.2,523.64z"/>
	<path d="M859.87,168.87c-1.14,1.49-1.95,2.54-2.76,3.6c-0.62-1.08-1.79-2.21-1.72-3.24c0.09-1.25,1.24-2.42,1.93-3.63
		C858.06,166.56,858.8,167.5,859.87,168.87z"/>
	<path d="M26.97,519.35c2.83-0.16,4.83-0.27,6.84-0.39c-0.46,1.07-0.63,2.53-1.43,3.12C30.43,523.52,28.64,523.16,26.97,519.35z"/>
	<path d="M682.44,481.52c2.11-0.87,4.12-0.75,5.26,1.55c0.31,0.63-0.6,1.87-0.95,2.83c-1.67-1.02-3.34-2.04-5.01-3.06
		C681.98,482.39,682.21,481.95,682.44,481.52z"/>
	<path d="M635.34,510.56c0.91,0.44,1.77,0.59,2.13,1.09c1.13,1.6,2.07,3.33,3.09,5.02c-0.66,0.17-1.65,0.69-1.92,0.44
		C636.85,515.47,634.65,513.94,635.34,510.56z"/>
	<path d="M246.36,523.78c0.48-0.96,0.61-1.74,1.04-1.99c1.41-0.83,2.93-1.47,4.41-2.18c0.21,0.65,0.76,1.72,0.58,1.87
		c-1.26,1.02-2.65,1.89-4.07,2.68C248,524.33,247.39,523.99,246.36,523.78z"/>
	<path d="M649.1,206.91c0.85-2.3,1.7-4.59,2.75-7.41c2.33,3.65,1.45,6.49-1.75,7.97C649.77,207.28,649.43,207.1,649.1,206.91z"/>
	<path d="M892.79,401.62c1.33,1.4,2.67,2.8,4,4.19c-0.63,0.47-1.37,1.44-1.88,1.33c-2.39-0.5-3.61-2.02-3.37-4.41
		C891.97,402.36,892.38,401.99,892.79,401.62z"/>
	<path d="M903.97,434.68c-1.38-2.03-2.42-3.23-3.01-4.61c-0.16-0.38,1-1.32,1.55-2.01c0.95,1.2,2.04,2.32,2.78,3.64
		C905.51,432.1,904.73,433.04,903.97,434.68z"/>
	<path d="M610.38,506.51c-1.66,1.31-2.57,2.31-3.7,2.73c-0.32,0.12-1.92-1.56-1.79-2.15c0.22-0.98,1.24-2.12,2.18-2.47
		C607.67,504.41,608.75,505.52,610.38,506.51z"/>
	<path d="M115.06,484.66c-1.84,1.19-2.99,2.12-4.29,2.64c-0.31,0.12-1.16-1.13-1.77-1.76c1.14-0.88,2.22-1.9,3.47-2.56
		C112.8,482.81,113.7,483.75,115.06,484.66z"/>
	<path d="M854.97,467.09c-1.6,0.73-2.62,1.49-2.93,1.27c-1.15-0.82-2.07-1.97-3.07-3c0.63-0.46,1.52-1.44,1.83-1.28
		C852.05,464.71,853.12,465.69,854.97,467.09z"/>
	<path d="M535.72,511.93c-1.14,1.07-1.91,2.34-2.62,2.32c-0.74-0.03-2.08-1.38-2.01-2.02c0.11-0.96,1.22-1.81,1.9-2.71
		C533.76,510.2,534.53,510.88,535.72,511.93z"/>
	<path d="M687.92,499.48c0.46,1.56,0.96,3.12,1.29,4.7c0.02,0.11-1.15,0.47-1.77,0.72c-0.56-1.56-1.13-3.12-1.69-4.68
		C686.48,499.97,687.2,499.73,687.92,499.48z"/>
	<path d="M812.16,82.46c-1.22,1.07-2.12,2.27-2.5,2.12c-0.97-0.37-1.7-1.35-2.52-2.09c0.63-0.64,1.26-1.79,1.88-1.78
		C809.87,80.72,810.72,81.6,812.16,82.46z"/>
	<path d="M537,458.43c1.43,1.27,2.86,2.54,4.29,3.81c-0.41,0.48-0.81,0.95-1.22,1.43c-1.49-1.21-2.98-2.42-4.48-3.64
		C536.06,459.5,536.53,458.96,537,458.43z"/>
	<path d="M557.77,86.84c-1.26,0.94-2.28,2.07-2.63,1.89c-0.95-0.48-1.62-1.52-2.4-2.34c0.69-0.59,1.43-1.71,2.04-1.64
		C555.65,84.85,556.41,85.83,557.77,86.84z"/>
	<path d="M869.3,409.02c-1.16,0.99-1.86,2.02-2.69,2.15c-0.54,0.08-1.93-1.42-1.8-1.75c0.39-0.99,1.36-1.75,2.1-2.61
		C867.56,407.41,868.22,408.02,869.3,409.02z"/>
	<path d="M900.43,305.19c-0.95-1.24-1.88-1.98-2.04-2.86c-0.08-0.42,1.42-1.67,2-1.55c0.86,0.18,1.8,1.13,2.16,1.98
		C902.7,303.11,901.45,304.06,900.43,305.19z"/>
	<path d="M249.26,465.29c-1.49,1.03-2.3,1.91-3.25,2.09c-0.43,0.08-1.74-1.49-1.59-1.85c0.39-0.9,1.29-1.82,2.19-2.14
		C247.08,463.23,247.99,464.34,249.26,465.29z"/>
	<path d="M662.58,250.59c0.43,0.78,1.26,1.62,1.18,2.34c-0.1,0.92-0.95,1.76-1.47,2.63c-0.51-0.65-1.37-1.26-1.44-1.95
		c-0.09-0.94,0.42-1.95,0.68-2.92C661.88,250.66,662.23,250.62,662.58,250.59z"/>
	<path d="M282.17,149.34c-1.24,1.08-1.92,2.06-2.8,2.29c-0.44,0.11-1.83-1.25-1.73-1.75c0.17-0.88,1-1.92,1.83-2.29
		C279.89,147.4,280.89,148.48,282.17,149.34z"/>
	<path d="M666.78,158.28c-0.31,1.61-0.59,3.23-1,4.82c-0.03,0.11-1.06-0.04-1.62-0.06c0.15-1.68,0.3-3.35,0.44-5.03
		C665.33,158.09,666.06,158.18,666.78,158.28z"/>
	<path d="M796.75,98.74c0.68,1.68,1.39,2.57,1.24,3.28c-0.16,0.73-1.16,1.28-1.79,1.91c-0.52-0.73-1.46-1.46-1.45-2.18
		C794.75,101.01,795.67,100.27,796.75,98.74z"/>
	<path d="M494.55,489.49c0.6,1.43,1.35,2.34,1.16,2.96c-0.28,0.88-1.25,1.54-1.92,2.29c-0.64-0.61-1.78-1.21-1.78-1.83
		C491.99,492.2,492.99,491.48,494.55,489.49z"/>
	<path d="M317.29,115.68c1.16,1.49,2.04,2.21,2.3,3.11c0.13,0.46-0.84,1.24-1.31,1.87c-0.81-0.62-1.91-1.09-2.33-1.91
		C315.71,118.28,316.56,117.24,317.29,115.68z"/>
	<path d="M78.09,519.88c-1.45,1.01-2.46,1.8-3.58,2.38c-0.15,0.08-1.31-1.33-1.25-1.39c0.84-0.97,1.76-1.88,2.79-2.63
		C76.19,518.14,77.03,519.01,78.09,519.88z"/>
	<path d="M530.05,485.37c-0.87-0.93-1.41-1.5-1.94-2.07c0.79-0.69,1.51-1.54,2.43-1.97c0.25-0.12,1.66,1.2,1.55,1.52
		C531.8,483.67,530.97,484.31,530.05,485.37z"/>
	<path d="M615.13,266.48c-0.98,1.21-1.95,2.42-2.93,3.64c-0.51-0.39-1.02-0.78-1.53-1.17c0.9-1.25,1.81-2.51,2.71-3.76
		C613.96,265.61,614.54,266.04,615.13,266.48z"/>
	<path class="st0" d="M199.4,232.92c-3.02,11.22-5.83,21.65-8.98,33.33c-2.22-2.46-4.15-3.85-5.07-5.74
		c-4.76-9.79-9.24-19.71-13.87-29.56c-2.05-4.35-1.68-8.36,1-12.36c2.79-4.15,5.35-8.45,8-12.68c1.38-2.21,2.99-2.37,5.09-0.84
		c2.8,2.03,5.85,3.72,8.57,5.84c1.33,1.04,2.54,2.57,3.14,4.14c2.74,7.1,6.77,10.07,14.5,10.38c4.09,0.16,8.19,0.3,12.26,0.68
		c3.98,0.37,6.47,2.65,7.69,6.51c2.82,8.92,5.75,17.8,8.67,26.69c0.29,0.88,0.79,1.68,1.19,2.52c0.46,0,0.93,0,1.39,0
		c0.76-4.41,1.96-8.81,2.15-13.24c0.2-4.7-0.33-9.47-0.99-14.15c-0.54-3.84,0.23-6.84,3.59-8.95c4.94-3.1,9.63-6.77,14.9-9.15
		c5.95-2.7,11.5,0.44,16.68,3.35c0.55,0.31,0.7,2.31,0.28,3.15c-1.61,3.17-3.53,6.18-5.72,9.92c1.82,0,3.01,0.17,4.14-0.03
		c4.54-0.8,9.09-1.59,13.59-2.61c2.45-0.56,3.59,0.03,3.89,2.61c0.84,7.25,2.14,14.46,2.63,21.73c0.61,8.94,0.74,17.93,0.81,26.9
		c0.03,4.73-0.47,9.46-0.82,14.19c-0.07,0.96-0.52,1.89-0.96,3.36c-2.08-1.83-3.81-3.34-6.09-5.35c-3.4,19.13-5.3,37.88-15.21,54.31
		c-0.3,0.49-0.95,0.77-2.39,1.89c-0.8-11.73-1.55-22.62-2.29-33.52c-0.5-0.13-1-0.25-1.5-0.38c-1.93,3.92-3.97,7.8-5.78,11.78
		c-5.5,12.05-6.65,24.91-6.9,37.93c-0.28,14.87-0.24,29.76-0.93,44.62c-0.58,12.36-3.36,23.99-13.12,33
		c-10.16,9.36-27.81,11.92-40.26,5.89c-9.57-4.64-16.09-12.36-23.06-19.9c-12.59-13.63-25.15-27.35-38.57-40.15
		c-7.39-7.05-17.15-10.91-27.12-13.53c-0.26,0.26-0.52,0.52-0.78,0.78c6.63,8.69,13.26,17.38,19.89,26.07
		c-0.3,0.34-0.59,0.68-0.89,1.02c-19.16-5.33-32.99-19.4-49.02-31.15c-0.75,3.1-1.38,5.71-2.32,9.59
		c-15-18.27-29.38-35.76-44.18-53.79c6.56-3.72,12.94-7.33,20.38-11.55c-5.27-2.05-9.55-3.72-13.78-5.36
		c3.66-15.15,16.87-21,30.18-17.69c2.24,0.56,4.2,2.86,5.94,4.69c4.67,4.92,9,10.16,13.78,14.97c1.66,1.67,4.21,2.46,6.36,3.66
		c-0.51-2.19-0.69-4.54-1.61-6.54c-3.25-7.11-6.77-14.1-10.15-21.16c-2.55-5.31-1.62-8.73,2.11-13.37
		c4.63-5.78,8.93-11.86,12.85-18.13c1.06-1.7,0.92-4.87,0.12-6.88c-2.28-5.7-0.83-10.84,1.49-15.93c0.34-0.74,2.06-1.51,2.85-1.28
		c6.39,1.89,12.76,3.86,19.01,6.17c1.59,0.59,3.36,2.2,3.96,3.76c3.45,8.97,6.97,17.94,9.62,27.16c1.24,4.33,0.59,9.2,0.83,14.65
		c-10.26-6.72-19.35-12.67-28.44-18.63c-0.44,0.04-0.88,0.07-1.32,0.11c0.19,7.23-5.02,8.25-9.7,10.09c-5.08,2-5.63,3.81-2.44,8.39
		c4.03,5.79,9.92,9.57,16.77,9.53c9.76-0.06,15.28,6.92,18.14,14.03c1.48,3.68,3.25,7.24,4.88,10.86c0.21,0.47,0.42,0.95,0.78,1.76
		c1.05-1.23,1.68-1.7,1.94-2.33c4.51-10.61,9-21.23,13.44-31.87c2.18-5.21,1-10.21-0.72-15.35c-7.2-21.51-14.41-43.04-18.25-65.49
		c-0.61-3.56-0.93-7.17-1.38-10.75c0.36-0.11,0.72-0.23,1.09-0.34c0.7,0.82,1.48,1.59,2.1,2.47c7.65,10.83,13.72,22.51,18.94,34.69
		c5.04,11.79,10.33,23.47,15.69,35.12c1.9,4.12,4.66,7.68,9.02,9.62c10.43,4.62,20.86,9.24,31.31,13.84
		c0.4,0.17,0.94,0.02,2.05,0.02c-1.85-6.51-3.32-12.82-5.48-18.89c-1.4-3.93-1.45-6.53,2.03-9.66c7.05-6.33,11-14.4,10.47-24.22
		c-0.29-5.44-1.69-6.57-6.72-4.39C209.61,236.02,204.71,237.65,199.4,232.92z M246.27,317.03c-4.49,5.03-5.32,10.04-6.09,15.09
		c-1.41,9.22-2.54,18.5-4.41,27.63c-1.82,8.87-10.95,16.61-19.46,17.4c-4.95,0.46-7.36-0.85-9.73-5.54
		c7.48-5.18,10.52-12.54,9.37-21.57c-0.43-3.42-1.23-6.79-1.94-10.17c-1.01-4.79-4.16-7.64-8.75-8.71
		c-10-2.32-19.23-0.42-26.99,6.37c-8.22,7.19-11.45,12.41-3.38,22.97c0.31,0.41,0.53,0.88,0.83,1.3
		c5.33,7.68,11.54,13.86,21.96,12.93c0.44-0.04,0.91,0.28,1.3,0.41c0.84,6.84-0.58,9.32-6.24,11.58
		c-9.54,3.82-18.38,2.45-26.43-3.69c-5.39-4.11-10.46-8.63-15.78-12.83c-4.41-3.49-8.91-6.86-13.51-10.09
		c-0.75-0.53-2.22-0.04-3.36-0.02c0.35,1,0.42,2.27,1.1,2.95c2.51,2.55,5.53,4.66,7.81,7.38c13.96,16.71,27.77,33.55,41.64,50.33
		c7.8,9.45,17.55,15.73,29.79,17.5c5.32,0.77,11.07,1.25,15.69-2.1c10.88-7.89,18.1-18.44,18.46-32.15
		c0.29-11.1-0.64-22.27-1.56-33.36c-1.34-16.26-2.11-32.46,0.48-48.67C247.25,320.73,246.66,319.36,246.27,317.03z"/>
	<path class="st0" d="M344.97,275.55c-1.28,2.28-2.6,4.63-4.12,7.32c-0.96-1.07-1.83-2.03-2.69-2.99c-0.38,0.04-0.76,0.09-1.14,0.13
		c0.18,1.88,0.14,3.81,0.59,5.62c0.78,3.17,2.33,6.22,2.67,9.42c0.24,2.28-1.29,4.7-1.44,7.09c-0.19,2.94,0.24,5.93,0.41,9.01
		c1.77-0.55,3-0.93,3.54-1.1c-1.03,2.8-1.97,5.34-3.1,8.42c2.49,0.47,4.52,0.97,6.58,1.21c13.49,1.6,26.98,3.11,40.47,4.71
		c2.81,0.33,5.22,0.16,6.01-3.26c1.54,0.52,2.79,0.94,4.05,1.36c0.29-0.31,0.58-0.62,0.87-0.93c-1.6-1.67-3.01-3.65-4.92-4.81
		c-0.5-0.3-2.55,1.97-3.73,2.93c-0.83-5.73,2.13-24.26,3.65-25.66c0-5.08-0.06-9.51,0.03-13.93c0.03-1.53,0.13-3.18,0.74-4.52
		c0.47-1.02,1.83-2.38,2.74-2.34c4.94,0.22,9.86,0.86,14.79,1.3c2.81,0.25,3.42,1.33,2.97,4.31c-1.12,7.53-1.56,15.16-2.37,22.74
		c-0.52,4.82-1,9.66-1.92,14.4c-0.44,2.29-1.93,4.36-2.77,6.59c-0.22,0.58,0.2,1.4,0.26,1.71c1.8,0.27,3.3,0.5,4.8,0.72
		c0.14,0.33,0.28,0.66,0.41,1c-4.58,1.37-4.46,4.05-2.36,7.25c-3.5,1.78-2.79,4.96-2.78,7.82c0,2.8,0.25,5.59,0.46,9.66
		c1.64,2.15,2.37,6.65-0.38,9.2c-3.4,3.15-2.85,4.89,0.86,6.64c-3.99,5.06-3.99,5.06-2.36,16.04c-0.72-0.62-1.23-1.05-1.73-1.48
		c-0.32,0.05-0.63,0.1-0.95,0.15c0.32,1.58,0.96,3.18,0.89,4.75c-0.18,3.99-0.62,7.98-1.16,11.94c-0.06,0.41-1.52,0.93-2.3,0.88
		c-5.87-0.33-11.76-0.58-17.59-1.29c-3.17-0.39-2.8-3.25-2.53-5.54c1.59-13.75,3.26-27.5,4.88-41.25c0.15-1.27,0.65-2.79,0.15-3.78
		c-0.69-1.39-2.07-3.25-3.33-3.4c-5.95-0.69-11.97-0.74-17.94-1.27c-8.27-0.73-16.53-1.61-24.77-2.59
		c-2.79-0.33-4.05,0.51-4.19,3.39c-0.14,2.94-0.64,5.86-0.96,8.8c-0.3,2.7-0.83,5.17-4.81,4.96c4.5,2.82,3.69,6.65,3.2,10.52
		c-0.86,6.74-1.58,13.5-2.23,20.27c-0.28,2.93-1.57,4.02-4.54,3.59c-4.19-0.6-8.41-1.02-12.63-1.32c-2.88-0.21-3.81-1.64-3.43-4.31
		c0.69-4.89,1.22-9.8,2.13-14.65c0.2-1.09,1.7-1.94,1.86-2.11c-0.38-2.91-1.14-5.28-0.91-7.55c1.56-15.05,3.37-30.07,5-45.1
		c0.7-6.42,1.13-12.86,1.74-19.29c0.17-1.77,0.36-3.15,2.89-3.64c3.07-0.6,3.04-3.96,0.97-8.54c-2.63-5.82-1.48-11.92-0.35-17.88
		c0.36-1.89,5.23-2.48,7.9-0.71c1.99,1.31,3.45,1.64,5.83,0.84c3.72-1.25,5.49,0.51,6.11,4.54
		C343.18,272.93,344.27,274.21,344.97,275.55z M397.97,361.12c0.5-0.32,1.13-0.68,1.71-1.1c0.72-0.52,1.4-1.1,2.1-1.65
		c-0.85-0.6-1.84-1.82-2.52-1.67c-1.29,0.29-3.12,1.13-3.46,2.15c-1.73,5.22-1.58,5.25,4.08,6.04c0.91,0.13,1.79,0.43,2.69,0.66
		c0.22-0.43,0.44-0.86,0.66-1.29C401.58,363.28,399.94,362.3,397.97,361.12z M319.58,367.83c-0.5-0.01-0.99-0.03-1.49-0.04
		c-0.42,3.37-0.97,6.74-1.12,10.12c-0.02,0.55,1.75,1.19,2.7,1.78c0.41-1.09,1.12-2.17,1.16-3.28c0.06-1.57-0.37-3.15-0.61-4.73
		C320.01,370.4,319.79,369.11,319.58,367.83z M387.54,332.25c1.78-2.45,3.26-4.47,5.29-7.25
		C388.16,325.87,386.02,327.41,387.54,332.25z M364.33,332.31c-0.36,0.3-0.71,0.6-1.07,0.9c0.49,0.99,0.76,2.53,1.51,2.82
		c0.96,0.37,2.32-0.27,3.5-0.48c0.02-0.35,0.05-0.7,0.07-1.05C367.01,333.77,365.67,333.04,364.33,332.31z M336.84,298.06
		c-0.53-0.48-1.07-0.96-1.6-1.43c-0.93,0.97-1.93,1.89-2.7,2.98c-0.1,0.14,1.04,1.15,1.6,1.75
		C335.04,300.26,335.94,299.16,336.84,298.06z"/>
	<path class="st0" d="M705.34,421.14c5.88-0.96,5.82-0.94,8.28,4.97c0.61,1.46,1.72,2.72,3.21,5.01c-2.69,0.59-5.26,1.66-7.79,1.59
		c-4.85-0.14-9.68-1-14.54-1.42c-2.79-0.24-4.69-1.38-6.07-3.93c-5.42-10.02-10.96-19.97-16.54-29.9
		c-3.7-6.58-7.56-13.08-11.87-20.52c-3.29,4.01-5.83,7.18-8.45,10.27c-2.31,2.73-4.89,5.25-6.99,8.12
		c-1.29,1.76-2.39,3.94-2.73,6.07c-1,6.33-1.66,12.72-2.28,19.1c-0.31,3.22-1.66,4.65-4.99,4.06c-2.14-0.38-4.32-0.77-6.48-0.73
		c-3.98,0.06-5.15-2.6-5.11-5.63c0.04-3.61,0.87-7.21,1.4-10.81c0.15-0.98,0.98-2.44,0.62-2.82c-4.06-4.19-0.47-6.88,1.6-10.02
		c0.4-0.6-0.04-2.16-0.6-2.88c-0.64-0.83-1.85-1.23-3.34-2.13c1.63-0.15,2.69-0.25,4.03-0.37c0-5.41,0-10.72,0-16.03
		c0.23,0.03,0.46,0.06,0.69,0.09c-1.16-2.34-2.98-4.59-3.34-7.05c-0.52-3.56,0.06-7.16,4.42-8.7c0.94-0.33,1.48-1.8,2.53-3.17
		c-1.8-0.69-3.02-1.16-4.81-1.84c0.31,1.2,0.48,1.84,0.65,2.49c-0.16,0.02-0.58,0.12-0.6,0.06c-0.52-1.26-1-2.54-1.62-4.18
		c2.55,0.2,4.13,0.33,5.7,0.45c0.06-0.4,0.13-0.79,0.19-1.19c-1.07-0.52-2.13-1.04-3.53-1.72c2.96-3.03,2.77-5.72,0.99-9.41
		c-1.08-2.24,0.66-5.84,1.24-9.51c-0.12-0.08-1.11-0.75-2.53-1.71c2.88-1.22,5.19-2.6,3.11-5.88c-0.11-0.18,0.12-0.79,0.37-0.96
		c3.53-2.56,1.54-4.49-1.23-6.61c5.62-2.69,2.12-7.4,2.74-11.19c0.5-3.04,1.37-4.42,4.43-4.11c4.46,0.46,8.95,0.77,13.36,1.52
		c1.03,0.18,2.64,1.94,2.57,2.87c-0.61,8.05-1.21,16.14-2.47,24.1c-1.65,10.37-1.17,20.93-3.01,31.26c-0.03,0.18,0.24,0.42,0.96,1.6
		c3.19-3.52,6.19-6.83,9.25-10.2c1.59-0.23,5.85,2.76,3.39-2.85c-0.32-0.72,1.07-2.38,1.92-3.4c5.32-6.36,10.71-12.67,16.1-19.01
		c0.43,0.29,0.98,0.66,1.08,0.74c1.16-1.79,2.03-3.46,3.19-4.89c3.47-4.27,6.89-8.61,10.69-12.58c1.3-1.37,3.66-2.45,5.52-2.42
		c4.98,0.08,9.96,0.76,14.93,1.35c1.69,0.2,3.33,0.81,6.24,1.55c-15.74,17.85-30.76,34.88-46.04,52.2c0.95,1.86-0.25,5.57,3.58,5.56
		c0.63,2.45,0.82,4.86,1.83,6.86c3.41,6.74,7,13.4,10.76,19.95c0.95,1.66,2.72,2.88,4.23,4.16c0.33,0.28,1.23,0.13,1.72-0.12
		c0.3-0.15,0.54-0.9,0.44-1.3c-0.22-0.91-0.67-1.76-1.02-2.63c0.44-0.18,0.88-0.37,1.32-0.55c0.89,2.31,1.78,4.62,2.67,6.92
		c-1.28,0.29-2.55,0.58-4.35,0.98c0.05,1.16-0.57,3.58,2.58,4.64c0.5,0.17,1.11,1.32,0.96,1.82c-0.64,2.22,0.46,3.02,2.31,3.6
		c0.64,0.2,1.33,0.88,1.58,1.51c0.62,1.51,0.96,3.13,1.47,4.69C704.32,418.35,704.84,419.74,705.34,421.14z M640.31,343.98
		c-0.17,0.72-0.35,1.44-0.52,2.16c1.71,0.46,3.42,0.91,5.13,1.37c0.01-0.82,0.26-2.26,0-2.37
		C643.45,344.57,641.86,344.33,640.31,343.98z"/>
	<path class="st0" d="M514.04,307.95c-0.19-0.16,0.88,0.41,0.81,0.74c-1.17,5.62,0.3,11.64-2.72,17.01
		c-0.69,1.23-0.46,2.99-0.6,4.51c-0.97,11.1-1.87,22.21-2.96,33.3c-0.13,1.28-1.32,2.47-2.13,3.9c0.72,0.17,1.52,0.36,2.29,0.55
		c-0.64,2.03-1.38,4.04-1.89,6.1c-5.76,23.14-25.5,32.44-42.23,32.45c-12.26,0.01-23.66-3.4-32.87-11.64
		c-4.67-4.17-9.53-9.19-11.69-14.83c-2.28-5.97-4.05-12.83-2.7-19.66c0.23-1.16,1.36-2.11,1.76-3.26c2.13-6.1,1.96-12.35,1.16-18.65
		c-0.17-1.33,0.19-2.72,0.27-4.09c0.06-1.1,0.03-2.2,0.12-3.3c0.06-0.82-0.05-2.06,0.43-2.39c3.68-2.6,1.24-3.78-1.03-5.08
		c-0.74-0.42-1.43-0.93-2.35-1.53c2.32-0.45,5.92-5.63,6.03-7.8c0.5-9.28,1.11-18.54,1.69-27.82c0.06-0.89,0.19-1.78,0.23-2.68
		c0.35-7.6,0.35-7.59,8.06-6.76c3.06,0.33,6.12,0.71,9.19,0.94c2.46,0.18,3.29,1.3,3.03,3.77c-1.84,17.08-3.58,34.16-5.36,51.24
		c-1,9.56-2.6,19.1-2.87,28.69c-0.36,12.23,6.9,21.18,20.7,23.69c4.49,0.82,9.23,1.58,13.53-0.68c1.28-0.67,2.29-2.47,2.77-3.96
		c0.73-2.25,0.88-4.69,1.27-7.05c0.58,0.02,1.15,0.04,1.73,0.06c0.09,1.26,0.13,2.52,0.3,3.77c0.14,1.03,0.44,2.04,0.66,3.06
		c0.96-0.46,2.18-0.69,2.84-1.42c3.71-4.05,6.31-8.61,6.65-14.31c0.1-1.59,1.3-3.12,1.97-4.62c-0.25-1.67-0.91-3.59-0.75-5.44
		c0.73-8.94,2.24-17.85,2.41-26.79c0.25-13.78,4.16-27.06,4.72-40.76c0.11-2.65,1.46-3.59,4.04-3.23c4.32,0.6,8.65,1.07,12.97,1.61
		c2.2,0.27,3.21,1.05,2.99,3.74c-0.34,4.01,0.42,8.11,0.14,12.13C516.47,303.49,515.08,305.43,514.04,307.95z M506.24,292.76
		c0.6,3.6,2.39,4.74,7.1,4.67C512.48,293.58,510.04,292.2,506.24,292.76z M437.41,308.11c0.36-0.22,0.71-0.44,1.07-0.66
		c-0.51-1.16-0.72-2.85-1.6-3.33c-0.95-0.51-2.52,0.11-3.81,0.24c0.03,0.41,0.06,0.81,0.09,1.22
		C434.56,306.42,435.98,307.26,437.41,308.11z M482.18,397.91c0.02-0.62,0.04-1.25,0.06-1.87c-1.4-0.28-2.79-0.55-4.19-0.83
		c-0.01,0.9-0.03,1.8-0.04,2.7C479.4,397.91,480.79,397.91,482.18,397.91z M513.4,303.39c-0.57-0.38-1.13-0.76-1.7-1.15
		c-0.94,1.71-1.88,3.41-2.82,5.12c0.5,0.29,1.01,0.58,1.51,0.87C511.4,306.62,512.4,305,513.4,303.39z"/>
	<path class="st0" d="M575.48,400.78c-0.73,1.73-1.91,3.44-1.99,5.2c-0.04,0.9,1.9,1.88,3.64,3.45c1.08-4.77,1.93-8.53,2.79-12.3
		c-0.34-0.11-0.68-0.21-1.02-0.32c2.02-1.31,4.23-2.4,6.04-3.96c7.65-6.63,6.84-17.48-2.18-21.85c-8.94-4.34-18.35-7.77-27.69-11.23
		c-9.34-3.47-18.51-7.06-24.76-15.38c-6.49-8.64-5.88-18.17-3.22-27.88c0.32-1.17,1.24-2.18,2.31-3.99
		c-0.99-2.33,1.45-5.05,3.61-7.57c9.34-10.91,21.65-14.42,35.54-13.9c12.01,0.45,22.78,4.52,32.86,10.79
		c5.51,3.43,5.71,5.27,0.85,9.81c-0.26,0.24-0.37,0.64-0.2,1.95c0.99-0.38,2.06-0.62,2.94-1.17c2.71-1.7,7.27-1.05,9.24,1.44
		c3.8,4.78,3.79,4.77-1.21,8.6c-2.75,2.11-5.49,4.23-8.21,6.37c-1.96,1.55-3.4,1.23-5.3-0.53c-4.73-4.41-9.8-8.47-14.68-12.73
		c-1.19-1.04-2.17-2.31-3.28-2.69c-1.59-0.16-3.18-0.33-4.77-0.47c-5.92-0.51-11.83-1.02-17.75-1.52c-0.03,0.35-0.06,0.7-0.1,1.05
		c-0.55-0.8-1.53-2.34-1.59-2.3c-1.74,0.99-3.57,1.96-4.98,3.34c-1.32,1.31-2.02,3.23-3.26,4.64c-5.74,6.52-4.79,17.75,6.49,22.66
		c8.3,3.61,17.15,5.91,25.55,9.33c9.7,3.95,19.84,7.65,25.6,17.28c1.9,3.17,2.8,7.11,3.41,10.82c0.31,1.87-1.06,4.02-1.81,6.51
		c3.39,1.97,1.93,4.37-0.74,6.79c-0.41,0.37-0.81,1.13-0.71,1.6c1.02,4.79-1.81,8.14-4.32,11.54c-1.43,1.94-3.07,3.78-4.89,5.35
		c-1.19,1.03-3.15,2.37-4.3,2.03c-3.47-1.04-5.48,1.12-8.06,2.44c-2.89,1.47-6.05,3.04-9.2,3.31c-20.95,1.81-38.87-4.69-53.28-20.26
		c-0.7-0.75-1.33-1.56-1.95-2.38c-2.94-3.91-2.89-4.74,0.99-7.83c2.9-2.31,5.95-4.46,8.97-6.61c2.1-1.5,4.02-1.35,5.68,0.82
		c5.09,6.63,11.61,11.82,19.18,14.86c4.7,1.89,10.4,1.53,15.67,1.7C573.98,397.64,575.63,398.09,575.48,400.78z M546.15,395
		c0.21-0.42,0.43-0.85,0.64-1.27c-2.34-1.19-4.67-2.39-7.01-3.58c-0.23,0.46-0.46,0.91-0.69,1.37
		C541.21,393.13,542.46,396.52,546.15,395z M561.12,352.26c1.03-2.74,1.8-4.81,2.57-6.88c-0.44-0.15-0.88-0.3-1.32-0.44
		C560.04,346.55,558.66,348.46,561.12,352.26z M545.13,306.88c2.29-3.35,1.75-5.36-2.48-8C543.6,301.96,544.27,304.11,545.13,306.88
		z M547.16,343.78c-0.63,0.14-1.25,0.28-1.88,0.42c0.27,1.53,0.49,3.08,0.92,4.56c0.04,0.14,1.51-0.15,2.31-0.23
		C548.06,346.94,547.61,345.36,547.16,343.78z"/>
	<path class="st0" d="M762.54,437.41c0.32-0.62,0.83-1.58,1.33-2.55c-0.23-0.34-0.47-0.69-0.7-1.03c-1.38,0.86-2.73,1.78-4.15,2.56
		c-0.8,0.44-1.92,1.11-2.52,0.84c-0.71-0.32-1.46-1.57-1.41-2.37c0.28-5.12,0.55-10.26,1.34-15.31c0.26-1.65,2.1-3.05,3.38-4.77
		c-0.59-0.35-1.18-0.69-2.78-1.62c2.61-0.59,4.38-0.99,7-1.58c-1.15-2.41-2.35-4.93-4.04-8.46c-1.22,2.84-2.02,4.71-3.24,7.53
		c-1.02-4.04-1.8-7.15-2.59-10.27c0.31-0.13,0.61-0.25,0.92-0.38c0.65,0.82,1.3,1.64,2.44,3.08c0.57-1.5,1.46-2.65,1.21-3.41
		c-1.43-4.32-3.11-8.56-4.78-12.79c-0.21-0.54-0.8-1.09-1.35-1.33c-5.04-2.22-5.13-2.55-1.24-5.72c-5.44-4.46-4.47-11.62-7.26-17.21
		c2.5-3.03-0.43-5.04-1.34-7.47c-1.07-2.86-1.63-5.52,1.81-7.6c2.01-1.21,2.1-3.24,0.4-4.57c-1.68,0.99-2.96,1.74-4.24,2.5
		c-0.38-2.34-1.81-5.22-0.94-6.93c2.37-4.68,2.13-6.02-3.09-7.66c-0.69-0.22-1.45-1.04-1.7-1.75c-1.9-5.58-3.69-11.2-5.49-16.82
		c-1-3.12,0.81-3.62,3.27-3.33c4.83,0.58,9.7,1,14.45,1.98c1.66,0.34,3.86,1.84,4.39,3.32c4.44,12.43,8.57,24.98,12.73,37.51
		c0.33,0.98,0.25,2.1,0.37,3.27c-2.48-0.78-4.47-1.41-6.73-2.13c-0.42-1.02-1.03-2.49-1.63-3.95c-0.43,0.14-0.86,0.29-1.29,0.43
		c0.21,2.12,0.42,4.23,0.62,6.23c1.61,1.14,3.87,1.98,4.88,3.6c2.45,3.91,5.01,2.85,8.69,1.23c-0.79,2.11-1.57,4.22-2.52,6.77
		c1.51-0.29,2.53-0.48,3.58-0.68c0.4,1.33,0.77,2.6,1.36,4.59c1.1-1.18,1.87-1.77,2.35-2.55c9.6-15.6,19.21-31.2,28.73-46.85
		c1.98-3.25,4.14-5.16,8.38-4.13c3.84,0.93,7.88,0.98,11.82,1.5c1.32,0.18,2.6,0.63,4.49,1.11c-5.25,8.9-10.13,17.29-15.12,25.61
		c-4.95,8.25-10.01,16.43-15.46,25.37c-0.85-1.44-1.67-2.83-2.49-4.22c-0.51,0.13-1.02,0.27-1.53,0.4
		c3.33,6.39-0.22,11.11-3.18,15.75c-2.91,4.56-4.72,10.06-9.54,13.3c-0.45,2.24-1.14,4.73-1.42,7.27
		c-1.09,9.67-2.1,19.35-3.02,29.04c-0.67,7.11-1.93,7.85-8.31,4.98C766.08,437.13,764.33,437.5,762.54,437.41z M767.53,369.52
		c-0.73,0.05-1.47,0.1-2.21,0.14c0.15,1.91,0.3,3.81,0.45,5.72c0.66-0.13,1.88-0.24,1.88-0.4
		C767.72,373.17,767.6,371.34,767.53,369.52z M757.62,333.41c-1.13-1.79-1.8-3.55-2.29-3.5c-1.55,0.15-3.03,0.97-4.54,1.53
		c0.13,0.43,0.25,0.85,0.38,1.28C752.86,332.9,754.55,333.08,757.62,333.41z M734.04,323.18c1.05,2.59,1.73,4.25,2.81,6.91
		c0.78-2.71,1.19-4.13,1.73-6.04C737.28,323.8,736.18,323.59,734.04,323.18z M801.98,348.72c0.72,0.25,1.43,0.49,2.15,0.74
		c0.41-1.17,1.08-2.33,1.1-3.5c0.01-0.55-1.28-1.11-1.98-1.66C802.82,345.77,802.4,347.25,801.98,348.72z"/>
	<path class="st0" d="M231.73,147.58c-8.06-8.23-16.11-16.47-24.19-24.68c-10.71-10.9-21.81-21.34-34.83-29.52
		c-1.44-0.91-2.79-2.03-4.02,0.39c-4.67,9.18-1.02,25.7,7.11,32.26c5.77,4.66,11.41,9.47,17.15,14.17c0.79,0.65,1.77,1.06,2.2,1.32
		c-0.34,1.26-0.33,1.64-0.48,1.72c-4.21,2.19-3.69,4.55-0.92,7.85c3.33,3.97,6.05,8.46,8.47,13.52
		c-14.89-4.95-29.79-9.89-44.88-14.91c1.02-1.48,2.56-2.72,2.58-3.99c0.02-1.48-1.58-2.92-1.95-4.49c-0.86-3.7-1.85-7.45-2.01-11.21
		c-0.66-15.31-0.1-30.51,5.33-45.14c1.68-4.53,1.9-4.77,6.58-3.11c11.09,3.93,20.41,10.7,29.01,18.46
		c12.83,11.58,23.85,24.69,32.39,39.78c1.25,2.21,2.31,4.53,3.46,6.8C232.4,147.04,232.06,147.31,231.73,147.58z"/>
	<path class="st0" d="M63.4,215.98c-0.52-3.98-1.05-7.96-1.57-11.95c-0.15-1.14-0.34-2.28-0.44-3.42c-0.31-3.49-1.33-6.07-6.47-4.05
		c0.55-5.68,1.07-10.7,1.5-15.73c0.45-5.22,1.25-10.46,1.14-15.67c-0.24-11.27-7.31-18.11-16.3-23.44c-2.2-1.31-2.95-0.14-3.23,1.96
		c-1.53,11.8-3.45,23.57-4.55,35.41c-1.19,12.74-1.61,25.54-2.4,38.32c-0.07,1.21-0.35,2.42-0.53,3.62
		c-0.39,0.03-0.77,0.06-1.16,0.09c-1.1-5.32-2.61-10.6-3.24-15.98c-2.67-22.74-2.69-45.37,5.82-67.09
		c4.27-10.9,3.36-11.4,14.21-4.88c12.23,7.35,22.22,17.28,30.47,28.88c1.98,2.78,3.8,5.96,4.59,9.22c0.84,3.48,1.94,5.49,6.93,4.21
		c-8.3,14.24-16.01,27.47-23.72,40.7C64.11,216.11,63.76,216.05,63.4,215.98z"/>
	<path class="st0" d="M788.65,253.01c-0.71,4.4,1.86,6.6,6.77,8.41c-0.77-1.77-1.23-2.67-1.56-3.61c-0.37-1.04-1.19-2.44-0.81-3.12
		c0.57-1.03,1.95-2,3.11-2.17c0.87-0.13,2.12,0.86,2.87,1.66c3.25,3.48,3.28,6.35-0.64,9.9c-1.59,1.44-0.93,5.47-1.07,8.33
		c-0.05,1.03,0.56,2.1,1.02,3.67c-2.55-1.28-4.54-2.28-6.52-3.28c-0.29,0.37-0.57,0.75-0.86,1.12c0.82,1.12,1.64,2.25,2.33,3.19
		c-0.57,1.19-1.11,2.3-1.65,3.41c1.25-0.16,2.49-0.31,4.22-0.53c0.72,0.82,1.78,2.01,2.89,3.26c-5.72,2.49-10.88,1.71-16.03-0.57
		c-2.44-1.08-3.33-2.35-2.1-5.05c1.47-3.24,1.17-6.09-2.5-8.08c-1.72-0.93-2.98-2.71-4.41-4.07c3.54-4.21,3.52-4.18-0.72-7.2
		c-1.45-1.03-3.06-2.09-3.99-3.54c-0.67-1.05-0.82-2.98-0.29-4.08c0.39-0.81,2.36-1.46,3.43-1.23c3.49,0.74,6.86,2.02,10.33,2.88
		C784.23,252.74,786.13,252.74,788.65,253.01z"/>
	<path class="st0" d="M780.86,487.91c0.44-1.15,0.62-1.59,0.78-2.04c0.54-1.52,1.08-3.05,1.62-4.57c1.13,1.24,2.59,2.31,3.32,3.76
		c2.7,5.34,1.14,8.68-4.3,7.79c-5.66-0.93-7.56,2.78-10.43,5.73c-0.26,0.26-0.5,0.54-0.98,1.05c-2.85-1.61-6.93-2.58-8.24-5.03
		c-1.29-2.42-0.42-6.59,0.73-9.52c0.74-1.88,3.61-3.01,5.65-4.28c2.73-1.69,4.52,0.26,6.31,1.92
		C777.03,484.29,778.71,485.89,780.86,487.91z"/>
	<path class="st0" d="M717.76,495.42c-5.13,1.14-9.18-3.27-7.74-8.91c0.46-1.81,0.17-3.83,0.72-5.6c0.44-1.42,1.64-2.6,3.08-3.75
		c1.1,4.4,4.39,8.05,2.18,13.01C715.45,491.43,717.13,493.68,717.76,495.42z"/>
	<path class="st0" d="M212.6,243.33c2.31,2.85,3.64,5.44,1.94,8.68c-1.61,3.05-3.93,5.32-7.6,4.53c-1.96-0.42-4.32-1.5-5.29-3.05
		c-0.53-0.83,1.47-3.27,2.48-5.27c1.84,1.36,3.12,2.3,4.8,3.53C210.19,248.86,211.32,246.26,212.6,243.33z"/>
	<path class="st0" d="M124.57,283.98c-2.33,3.34-4.07,7.2-8.77,6.59c-3.89-0.51-5.65-3.52-6.8-8.14c3.34,1.4,5.99,2.51,9.15,3.83
		c0.29-2.16,0.54-3.95,0.86-6.33C121.01,281.39,122.71,282.63,124.57,283.98z"/>
	<path class="st0" d="M825.1,427.84c2.75,2.51,5.5,5.02,9.06,8.28c-2.44-0.14-3.74-0.22-6.09-0.36c2.16,2.16,3.54,3.54,4.92,4.92
		c-0.38,0.35-0.77,0.7-1.15,1.05c-2.42-1.84-5.41-2.98-5.23-7.25c0.08-1.98-1.23-4.02-1.9-6.04
		C824.84,428.24,824.97,428.04,825.1,427.84z"/>
	<path class="st0" d="M845.71,263.96c1.38-1.86,2.35-3.16,3.31-4.46c1.08,1.32,2.15,2.65,3.23,3.97c-1.17,0.94-2.23,2.12-3.55,2.68
		C848.21,266.35,847.1,265.02,845.71,263.96z"/>
	<path class="st0" d="M773.9,287.3c-0.47-3.09-0.9-5.55-1.15-8.03c-0.05-0.46,0.56-1.29,1.01-1.42c0.63-0.17,1.97,0.06,2.01,0.3
		c0.42,2.16,0.88,4.38,0.75,6.54C776.47,285.56,774.95,286.32,773.9,287.3z"/>
	<path class="st0" d="M789.12,480.21c1.21,0.82,2.55,1.5,3.58,2.5c0.59,0.58,0.68,1.67,0.99,2.54c-1.14,0.24-3.06,0.99-3.29,0.64
		c-1.02-1.59-1.56-3.48-2.27-5.26C788.47,480.49,788.79,480.35,789.12,480.21z"/>
	<path class="st0" d="M723.8,490.31c0.49,3.3,0.93,6.25,1.45,9.81C721.45,497.56,721.15,493.93,723.8,490.31z"/>
	<path class="st0" d="M763.51,259.69c5.25-0.8,3.6,3.19,5.03,5.1c-0.31,0.22-0.61,0.44-0.92,0.67
		C766.25,263.54,764.88,261.61,763.51,259.69z"/>
	<path class="st0" d="M707.05,478.64c-0.16,0.8-0.35,1.81-0.72,3.69c-2.44-1.88-4.32-3.32-6.19-4.77c0.12-0.16,0.25-0.32,0.37-0.48
		C702.56,477.57,704.61,478.06,707.05,478.64z"/>
	<path class="st0" d="M761.82,240.54c-0.6,1.3-1.2,2.6-2.03,4.4c-1.21-0.99-2.09-1.72-3.61-2.97c1.94-0.99,3.33-1.69,4.72-2.4
		C761.2,239.89,761.51,240.22,761.82,240.54z"/>
	<path class="st0" d="M721.7,487.01c-0.39-2.44-0.79-4.89-1.18-7.33c2.01,2.22,3.59,4.49,2.41,7.25
		C722.52,486.96,722.11,486.99,721.7,487.01z"/>
	<path class="st0" d="M848.71,252.85c0.53,1.01,1.16,1.98,1.51,3.05c0.07,0.21-1,0.77-1.54,1.18c-0.67-0.93-1.51-1.79-1.92-2.82
		c-0.19-0.48,0.46-1.29,0.73-1.95C847.88,252.49,848.3,252.67,848.71,252.85z"/>
	<path d="M246.27,317.03c0.39,2.33,0.98,3.7,0.78,4.94c-2.59,16.21-1.82,32.41-0.48,48.67c0.92,11.09,1.85,22.26,1.56,33.36
		c-0.36,13.71-7.58,24.26-18.46,32.15c-4.62,3.35-10.37,2.87-15.69,2.1c-12.23-1.76-21.98-8.05-29.79-17.5
		c-13.87-16.79-27.67-33.63-41.64-50.33c-2.28-2.73-5.29-4.83-7.81-7.38c-0.67-0.68-0.75-1.95-1.1-2.95
		c1.14-0.02,2.6-0.51,3.36,0.02c4.6,3.23,9.11,6.6,13.51,10.09c5.32,4.21,10.39,8.72,15.78,12.83c8.05,6.14,16.9,7.51,26.43,3.69
		c5.66-2.27,7.07-4.74,6.24-11.58c-0.38-0.13-0.85-0.45-1.3-0.41c-10.41,0.93-16.63-5.25-21.96-12.93c-0.29-0.42-0.51-0.89-0.83-1.3
		c-8.07-10.55-4.84-15.78,3.38-22.97c7.76-6.79,16.99-8.69,26.99-6.37c4.59,1.07,7.74,3.92,8.75,8.71
		c0.71,3.38,1.51,6.75,1.94,10.17c1.15,9.03-1.89,16.38-9.37,21.57c2.37,4.69,4.79,6.01,9.73,5.54c8.5-0.8,17.63-8.54,19.46-17.4
		c1.88-9.13,3-18.41,4.41-27.63C240.96,327.07,241.78,322.06,246.27,317.03z M234.09,387.78c0,2.29-0.31,4.6,0.06,6.8
		c1.44,8.56-1.66,15.41-7.04,21.87c-3.29,3.95-6.83,6.07-11.9,5.19c-2.1-0.36-4.14-1.05-6.21-1.58c-1.06-0.27-2.36-1.04-3.14-0.68
		c-4.59,2.1-7.4-0.48-9.85-3.62c-2.77-3.55-5.27-7.32-7.92-11.03c-2.8,9.64,1.55,18.56,11.38,23.27c10.3,4.93,20.55,4.93,29.81-2.01
		c8.75-6.55,13.8-15.43,12.86-26.83C241.62,393,238.65,388.96,234.09,387.78z M220.64,386.62c-1.93,3.1-3.97,6.02-5.64,9.14
		c-1.71,3.19-3.73,4.25-7.07,2.32c-1.65-0.95-3.49-1.86-5.33-2.08c-1.6-0.2-3.69,0.16-4.85,1.13c-0.6,0.5-0.19,3.36,0.68,4.27
		c2.26,2.35,4.78,4.71,7.66,6.16c5.35,2.69,13.04,0.79,15.75-4C225.35,397.34,226.49,392.81,220.64,386.62z M181.13,347.33
		c3.32-1.83,6.29-3.9,9.56-5.14c3.26-1.24,6.84-1.64,10.52-2.46C192.76,336.17,185.49,338.95,181.13,347.33z"/>
	<path d="M397.97,361.12c1.97,1.18,3.61,2.16,5.25,3.14c-0.22,0.43-0.44,0.86-0.66,1.29c-0.9-0.22-1.78-0.53-2.69-0.66
		c-5.66-0.79-5.8-0.83-4.08-6.04c0.34-1.03,2.17-1.87,3.46-2.15c0.68-0.15,1.67,1.07,2.52,1.67c-0.7,0.55-1.38,1.13-2.1,1.65
		C399.1,360.44,398.47,360.8,397.97,361.12z"/>
	<path d="M319.58,367.83c0.21,1.29,0.44,2.57,0.63,3.86c0.24,1.57,0.67,3.16,0.61,4.73c-0.04,1.1-0.75,2.18-1.16,3.28
		c-0.94-0.6-2.72-1.23-2.7-1.78c0.15-3.38,0.7-6.75,1.12-10.12C318.58,367.8,319.08,367.81,319.58,367.83z"/>
	<path d="M387.54,332.25c-1.53-4.85,0.62-6.38,5.29-7.25C390.8,327.78,389.33,329.81,387.54,332.25z"/>
	<path d="M364.33,332.31c1.34,0.73,2.68,1.47,4.02,2.2c-0.02,0.35-0.05,0.7-0.07,1.05c-1.18,0.21-2.54,0.85-3.5,0.48
		c-0.75-0.29-1.03-1.83-1.51-2.82C363.62,332.91,363.97,332.61,364.33,332.31z"/>
	<path d="M336.84,298.06c-0.9,1.1-1.8,2.2-2.71,3.3c-0.56-0.61-1.7-1.61-1.6-1.75c0.77-1.09,1.77-2.01,2.7-2.98
		C335.77,297.11,336.31,297.58,336.84,298.06z"/>
	<path d="M640.31,343.98c1.55,0.35,3.14,0.59,4.6,1.16c0.27,0.1,0.02,1.54,0,2.37c-1.71-0.46-3.42-0.91-5.13-1.37
		C639.96,345.42,640.14,344.7,640.31,343.98z"/>
	<path d="M506.24,292.76c3.8-0.56,6.25,0.81,7.1,4.67C508.63,297.5,506.84,296.36,506.24,292.76z"/>
	<path d="M437.41,308.11c-1.42-0.84-2.84-1.69-4.26-2.53c-0.03-0.41-0.06-0.81-0.09-1.22c1.3-0.13,2.86-0.76,3.81-0.24
		c0.88,0.47,1.09,2.17,1.6,3.33C438.12,307.67,437.76,307.89,437.41,308.11z"/>
	<path d="M482.18,397.91c-1.39,0-2.78,0-4.17,0c0.01-0.9,0.03-1.8,0.04-2.7c1.4,0.28,2.79,0.55,4.19,0.83
		C482.22,396.67,482.2,397.29,482.18,397.91z"/>
	<path d="M513.4,303.39c-1,1.62-2,3.23-3,4.85c-0.5-0.29-1.01-0.58-1.51-0.87c0.94-1.71,1.88-3.41,2.82-5.12
		C512.27,302.62,512.83,303.01,513.4,303.39z"/>
	<path d="M546.15,395c-3.69,1.52-4.94-1.86-7.06-3.48c0.23-0.46,0.46-0.91,0.69-1.37c2.34,1.19,4.67,2.39,7.01,3.58
		C546.58,394.15,546.36,394.57,546.15,395z"/>
	<path d="M561.12,352.26c-2.46-3.8-1.08-5.7,1.25-7.33c0.44,0.15,0.88,0.3,1.32,0.44C562.92,347.44,562.15,349.51,561.12,352.26z"/>
	<path d="M545.13,306.88c-0.86-2.77-1.52-4.92-2.48-8C546.88,301.51,547.42,303.53,545.13,306.88z"/>
	<path d="M547.16,343.78c0.45,1.58,0.9,3.16,1.35,4.75c-0.8,0.09-2.27,0.37-2.31,0.23c-0.44-1.48-0.65-3.03-0.92-4.56
		C545.91,344.05,546.53,343.92,547.16,343.78z"/>
	<path d="M767.53,369.52c0.07,1.82,0.19,3.65,0.13,5.47c-0.01,0.15-1.23,0.26-1.88,0.4c-0.15-1.91-0.3-3.81-0.45-5.72
		C766.06,369.62,766.8,369.57,767.53,369.52z"/>
	<path d="M757.62,333.41c-3.07-0.33-4.76-0.51-6.46-0.69c-0.13-0.43-0.25-0.85-0.38-1.28c1.51-0.56,2.99-1.39,4.54-1.53
		C755.82,329.86,756.49,331.62,757.62,333.41z"/>
	<path d="M734.04,323.18c2.14,0.41,3.24,0.62,4.55,0.87c-0.55,1.91-0.96,3.34-1.73,6.04C735.77,327.43,735.1,325.77,734.04,323.18z"
		/>
	<path d="M801.98,348.72c0.42-1.48,0.84-2.95,1.26-4.43c0.7,0.55,1.99,1.11,1.98,1.66c-0.01,1.17-0.69,2.34-1.1,3.5
		C803.41,349.22,802.7,348.97,801.98,348.72z"/>
	<path class="st0" d="M234.09,387.78c4.56,1.19,7.53,5.22,8.04,11.37c0.94,11.4-4.11,20.27-12.86,26.83
		c-9.26,6.94-19.51,6.95-29.81,2.01c-9.83-4.71-14.18-13.63-11.38-23.27c2.65,3.72,5.14,7.48,7.92,11.03
		c2.46,3.14,5.26,5.72,9.85,3.62c0.78-0.36,2.08,0.41,3.14,0.68c2.07,0.53,4.11,1.22,6.21,1.58c5.07,0.88,8.62-1.24,11.9-5.19
		c5.38-6.46,8.48-13.31,7.04-21.87C233.77,392.38,234.09,390.06,234.09,387.78z"/>
	<path class="st0" d="M220.64,386.62c5.85,6.19,4.72,10.71,1.19,16.94c-2.71,4.79-10.4,6.69-15.75,4c-2.87-1.45-5.39-3.81-7.66-6.16
		c-0.87-0.91-1.29-3.77-0.68-4.27c1.16-0.97,3.24-1.32,4.85-1.13c1.84,0.22,3.69,1.13,5.33,2.08c3.35,1.94,5.36,0.87,7.07-2.32
		C216.66,392.65,218.7,389.72,220.64,386.62z"/>
	<path class="st0" d="M181.13,347.33c4.36-8.37,11.63-11.16,20.09-7.6c-3.68,0.82-7.26,1.23-10.52,2.46
		C187.42,343.43,184.45,345.5,181.13,347.33z"/>
</g>
</svg>
