<?xml version="1.0" encoding="utf-8"?>
<!-- Generator: Adobe Illustrator 28.1.0, SVG Export Plug-In . SVG Version: 6.00 Build 0)  -->
<svg version="1.1" xmlns="http://www.w3.org/2000/svg" xmlns:xlink="http://www.w3.org/1999/xlink" x="0px" y="0px"
	 viewBox="0 0 595.28 595.28" style="enable-background:new 0 0 595.28 595.28;" xml:space="preserve">
<g id="Layer_1">
	<path d="M297.6,221.77c-39.97,0-79.95-0.08-119.92,0.02c-55.06,0.14-110.12,0.4-165.18,0.66c-4.1,0.02-7.64,0.14-7.55-5.7
		c0.07-4.39,1.34-5.99,5.99-5.97c20.36,0.08,40.71-0.27,61.07-0.37c5.5-0.03,10.03-1.6,14.17-5.55
		c12.72-12.14,25.83-23.89,38.67-35.91c4.1-3.84,7.68-5.81,12.95-1.37c4.23,3.57,9.1,2.54,13.43-0.94
		c16.25-13.07,32.49-26.14,48.89-39c1.43-1.12,4.62-1.72,6.02-0.9c8.42,4.92,16.7,10.11,24.71,15.66c3.26,2.26,4.85,1.19,6.58-1.41
		c6.64-9.96,13.28-19.91,19.89-29.89c5.4-8.16,10.27-16.73,16.33-24.36c3.22-4.05,8.27-6.81,12.85-9.57
		c7.28-4.38,14.79-8.41,22.36-12.27c1.59-0.81,4.56-1.11,5.74-0.18c18.82,14.78,37.57,29.66,56.01,44.91
		c3.31,2.74,5.66,7.01,7.6,10.99c5,10.26,9.43,20.8,14.31,31.12c0.77,1.64,2.52,3.05,4.15,4c3.59,2.08,7.5,3.6,11.08,5.7
		c5.55,3.26,10.32,3.67,15.44-1.32c3.57-3.48,8.43-5.61,12.46-8.68c3.33-2.54,5.84-2.38,9.09,0.36
		c21.23,17.88,42.71,35.46,63.85,53.45c3.93,3.35,7.87,4.71,12.78,4.66c20.36-0.2,40.72-0.17,61.07-0.54
		c5.09-0.09,6.55,1.62,6.54,6.59c0,5.39-3,5.11-6.72,5.12c-86.16,0.23-172.32,0.52-258.48,0.78c-8.72,0.03-17.44,0-26.17,0
		C297.6,221.83,297.6,221.8,297.6,221.77z M433.91,209.47c-1.9-2.68-2.67-4.12-3.76-5.24c-5.55-5.73-11.34-11.26-16.69-17.17
		c-1.29-1.42-2.34-4.65-1.6-6.02c2.42-4.46-0.03-6.29-3.23-8.1c-1.26-0.71-2.65-1.2-3.89-1.95c-8.87-5.44-18.12-9.84-22.21-21.08
		c-4.57-12.55-11.09-24.4-16.99-36.44c-3.78-7.72-11.41-10.64-18.64-14.16c10.66,22.31,24.48,42.93,31.17,66.96
		c-2.15-0.51-3.84-1.26-5.07-2.47c-8.02-7.88-15.71-16.12-23.99-23.7c-4.12-3.77-5.55-8.29-6.52-13.3
		c-2.1-10.85-4.12-21.72-6.37-32.54c-0.46-2.21-1.34-4.74-2.87-6.25c-5.3-5.22-10.85-10.21-16.62-14.89
		c-1.17-0.95-4.4-0.98-5.58-0.04c-6.8,5.39-13.22,11.27-19.89,16.83c-3.81,3.18-3.94,6.38-1.28,10.42
		c2.59,3.92,4.65,8.18,6.97,12.28c1.74,3.07,0.7,4.83-2.32,6.47c-13.38,7.26-26.78,14.5-39.9,22.21
		c-7.99,4.69-18.52,6.25-21.76,18.29c-2.77-4.22-4.26-7.7-6.78-10.08c-4.4-4.16-9.24-7.94-14.28-11.3
		c-3.35-2.23-6.11-0.92-7.47,3.17c-2.05,6.17-4.74,12.16-6.38,18.43c-0.6,2.29,0.22,5.79,1.73,7.64c5,6.11,10.62,11.72,16.41,17.95
		c-7.11,7.66-13.75,14.82-20.39,21.97c0.29,0.51,0.57,1.02,0.86,1.53c1.51,0.19,3.01,0.53,4.52,0.54
		c17.82,0.04,35.63-0.03,53.44,0.07c3.69,0.02,5.51-1.27,6.44-4.99c3.3-13.15,6.83-26.25,10.58-39.28c0.68-2.36,2.37-5.04,4.39-6.28
		c3.49-2.14,3.91-4.07,1.08-6.7c-2.7-2.5-2.3-4.37,0.4-6.61c4.47-3.69,8.73-7.65,13.05-11.52c3.95-3.54,7.46-9.01,13.5-1.88
		c0.81-2.58,1.3-4.16,2.31-7.38c3.13,4.46,8.11,8.56,7.41,11.16c-1.61,6.04,1.01,8.72,6.01,11.89c-10.37,6.99-8.1,17.21-8.01,26.8
		c0.03,2.64,0.15,5.68,1.41,7.84c4.41,7.49,9.43,14.61,14.03,21.99c2.25,3.61,5.11,4.98,9.44,4.96c28.72-0.15,57.45-0.03,86.17-0.01
		C425.93,209.48,429.13,209.47,433.91,209.47z M501.23,209.84c0.25-0.6,0.51-1.2,0.76-1.8c-20.4-16.14-40.81-32.28-62.11-49.12
		c-2.2,6.71-3.49,12.39-5.89,17.56c-4.95,10.66-4.31,19.87,4.45,28.44c2.77,2.71,4.96,4.6,9.08,4.62
		c15.98,0.06,31.96,0.53,47.94,0.79C497.39,210.35,499.31,210.01,501.23,209.84z M121.84,209.72c5.81-1.07,11.29,1.45,12.87-5.14
		c1.69-7.03,3.19-14.11,4.99-21.11c1.64-6.39-4.4-5.94-7.22-8.21c-2.78-2.23-4.59,0.14-6.09,2.31c-3.61,5.22-7.05,10.55-10.84,15.63
		c-3.34,4.47-3.63,9.55-1.2,13.79C115.55,209.07,120.17,209.18,121.84,209.72z"/>
	<path d="M299.18,405.99c85.45-0.63,170.9-1.27,256.35-1.88c9.99-0.07,20,0.34,29.97-0.09c5.55-0.24,4.4,3.21,4.73,6.32
		c0.4,3.7-0.48,6.03-4.78,5.98c-8.18-0.09-16.36-0.08-24.54-0.05c-32.72,0.09-65.44,0.2-98.16,0.3
		c-47.27,0.15-94.55,0.3-141.82,0.44c-91.44,0.27-182.88,0.53-274.32,0.8c-11.08,0.03-22.17-0.14-33.25,0.15
		c-5.01,0.13-4.88-2.78-5.09-6.29c-0.24-3.96,1.38-4.83,5.11-4.82c95.26,0.1,190.53,0.08,285.79,0.08
		C299.18,406.62,299.18,406.31,299.18,405.99z"/>
	<g>
		<path d="M71.73,355.43l-2.38-0.59h-5.82l-3.57,0.48l-4.75-0.48l-2.38,0.24l-3.68,0.12l-3.45-0.48l-2.26,0.24h-2.26l-2.38-1.07
			l-1.19-3.21l0.36-10.93l1.31-2.14l7.84-2.38l1.31-3.57l-0.36-36.49l-1.07-3.21l-2.26-1.43h-2.38l-2.62-1.31l-1.31-2.38l0.24-2.26
			l-0.36-8.79l1.19-2.85l2.38-1.19h2.73l2.26,0.36h9.75l2.38-0.48l2.14,0.24h14.38l2.14,1.31l1.43,2.26l-0.12,11.77l-1.19,1.9
			l-2.5,0.95l-2.38,0.36l-2.61,1.07l-0.83,2.73l-0.48,12l0.48,8.56l-0.24,2.62l0.12,13.07L69,332.73l1.43,2.73l2.85,0.95h2.5
			l2.62,1.31l1.43,2.26v11.77L78.63,354l-2.14,1.19L71.73,355.43z M66.62,347.23l2.5-0.48l2.14-0.59l0.12-1.19l-2.5-0.48l-2.5,0.36
			l-2.74-0.12l-2.26-1.31l-1.19-3.45l0.12-18.18l-0.24-2.38v-2.14l0.24-3.33v-16.04l-0.24-2.26l0.12-4.99l-0.12-1.9l0.24-2.5
			l0.83-2.38l2.38-1.19l2.38-0.24l2.14,0.24l2.38-0.83l-0.24-1.43l-2.02-0.36h-4.64l-2.62-0.48l-8.91,0.24l-4.64,0.71l-0.24,1.31
			l2.38,0.71h4.64l2.38,1.43l0.95,2.14l0.36,2.73l-0.24,2.26v6.89l-0.24,2.5l0.36,2.14l-0.24,12l0.36,3.8l-0.48,10.46l0.36,4.75
			l-0.36,4.87l0.36,2.5l-1.19,2.26l-2.73,1.07l-7.61,0.59l-0.24,1.19l2.38,0.95l2.38-0.24L66.62,347.23z"/>
		<path d="M125.93,355.91l-2.26-0.12l-2.14-0.48l-2.38-0.83l-2.14-0.48l-5.35-2.26l-5.11-2.73l-5.35-4.64l-4.87-5.23l-5.11-10.34
			l-1.66-6.77l-0.71-8.68l1.19-10.22l1.19-4.87l2.97-6.66l2.26-3.45l3.21-4.04l5.11-4.64l3.45-2.61l8.79-4.16l11.53-2.26l7.37,0.12
			l2.38,0.36l2.26,0.12l11.41,3.8l8.08,5.11l3.33,3.45l1.31,2.26l1.66,2.02l1.07,1.9l1.31,1.9l0.71,2.5l0.83,2.14l0.71,2.61
			l-0.83,2.38l-2.02,0.95l-3.57,0.36l-3.33-0.36l-2.38,0.12l-2.5-0.12l-2.14,0.24l-2.73-1.31l-2.26-2.26l-1.31-1.78l-3.45-3.45
			l-1.66-1.31l-2.14-0.83l-3.68-1.07l-5.11-0.24l-7.96,1.07l-3.21,1.78l-2.85,2.26L115,298.5l-1.19,2.26l-1.78,4.28l-0.83,4.75v7.25
			l0.36,2.61l0.59,2.14l0.83,1.66l0.83,2.38l2.62,4.16l3.45,3.09l4.16,2.14l4.28,1.55l3.45,0.36l6.3-0.36l4.16-2.26l1.78-0.71
			l1.9-1.66l2.73-3.09l1.19-2.26l1.9-1.9l2.73-1.43l2.38,0.12l2.38-0.12l2.38,0.36l6.66-0.48l2.38,1.55l0.71,2.14l-3.09,9.03
			l-2.5,4.28l-2.73,3.57l-3.33,3.33l-5.82,4.16l-2.02,0.95l-2.5,0.83l-2.14,1.19l-7.01,1.43l-8.32,0.59L125.93,355.91z
			 M135.8,347.94l9.39-2.02l5.35-2.85l2.85-2.14l4.87-5.11l1.42-2.14l0.36-2.26l-1.66,0.24l-3.57,4.16l-1.54,1.43l-1.66,2.02
			l-6.06,3.92l-2.26,0.59l-2.26,0.83l-6.18,0.71l-2.85-0.24l-3.68,0.36l-2.26-0.36l-8.68-3.33l-2.26-1.31l-5.47-4.28l-2.73-3.45
			l-3.57-6.54l-0.59-2.38l-0.24-2.14l-1.07-4.28l0.12-10.1l1.07-4.52l2.02-4.4l0.71-2.14l1.43-1.66l2.85-4.16l1.66-1.43l2.02-1.19
			l1.9-1.55l2.02-1.31l2.26-0.71l2.14-0.95l2.26-0.71l5.7-0.83l6.18-0.24l2.38,0.71l2.38,0.36l4.4,1.19l2.26,0.95l3.92,2.38
			l1.66,1.66l2.97,3.69l2.14,2.02h1.54l-0.48-2.02l-1.19-1.9L156,288.4l-3.33-3.09l-3.92-2.38l-2.02-0.59l-4.28-2.14l-2.02-0.71
			h-3.45l-4.99-0.48l-8.2,0.83l-2.26,1.07l-2.02,0.71l-2.38,0.48l-1.9,1.31l-4.04,2.26l-6.18,6.66l-1.43,2.14l-2.85,6.18l-0.71,2.38
			l-0.36,2.38l-0.59,2.14l-0.36,9.39l1.43,7.37l1.66,4.99l1.31,1.78l1.19,2.26l4.28,5.59l4.99,3.57l5.35,2.97l9.27,2.61l3.57-0.36
			L135.8,347.94z"/>
		<path d="M216.61,355.31l-2.38-0.24l-2.38,0.24l-2.73-0.12l-2.26-0.48l-4.87,0.36l-2.14-0.12l-2.62,0.24l-8.56-0.12l-3.56-1.55
			l-0.95-3.21l-0.24-2.62l0.36-8.2l-0.36-2.38l0.24-2.26l0.12-19.25l-0.36-2.14l0.12-9.75l0.24-2.26l-0.36-2.5l0.24-11.65
			l-0.36-2.62l0.36-4.87l-0.24-4.52l1.31-2.5l2.5-0.95l2.38,0.12l2.38-0.24l2.14,0.24l2.26-0.48l2.38,0.36l9.75-0.24l2.38,0.24
			l2.02-0.12l2.38,0.24l2.62-0.24l9.63-0.12l2.14,0.48h2.5l2.38,0.95l1.07,2.26l0.24,7.13l-0.12,2.38l0.12,2.38l-1.19,2.14
			l-2.5,1.43l-2.26,0.12l-16.99-0.24l-2.26,0.48l-2.26-0.12l-2.62,0.95l-1.07,2.26v3.69l0.95,3.68l2.5,1.07l6.89-0.24l4.99,0.36
			l2.5-0.24h7.01l2.73,1.54l1.19,3.33l-0.36,10.7l-0.83,2.38l-2.38,0.95l-2.73-0.12l-2.38,0.24l-4.87-0.12l-4.52,0.24l-3.8-0.36
			l-3.56,0.12l-2.14,1.31l-1.07,2.5v7.49l0.95,2.14l2.5,1.19l2.61-0.24l2.26,0.36l2.61-0.12l2.38,0.24l3.92-0.48l6.06,0.12
			l2.26,0.36l2.74-0.24l2.5,1.07l1.31,2.38v12l-1.31,2.5l-2.5,1.07L216.61,355.31z M220.06,347.11h6.3l2.38-0.95v-1.43l-4.75-0.48
			l-2.73,0.12l-2.5-0.24l-2.5,0.36l-4.87-0.24l-2.26,0.24l-4.75-0.36l-3.57,0.36l-3.57-1.55l-1.31-3.45l0.24-16.88l-0.24-3.69
			l0.24-2.38l1.19-2.02l2.14-1.19l4.64-0.12l2.14,0.24l7.37,0.12l2.14-0.36l5.71,0.36l3.68-0.71l0.12-1.43l-2.26-0.83l-2.85,0.24
			h-2.26l-2.26-0.48l-2.14,0.12l-2.62-0.24l-3.21,0.48l-5.82-0.36l-2.5,0.24l-2.38-1.31l-0.83-2.38l-0.36-2.26l0.24-2.14V285.9
			l0.95-2.14l3.57-1.07h8.32l2.26-0.36h14.26l2.5-0.24l-0.24-1.55l-3.68-0.59l-10.58,0.24l-4.75-0.48l-2.38,0.24l-2.26-0.24
			l-2.5,0.24l-4.64-0.12l-2.38,1.31l-1.19,2.38l0.12,58.48l1.07,3.33l2.38,1.55l7.37-0.12l2.38,0.24h2.62l2.14-0.36L220.06,347.11z"
			/>
		<path d="M252.27,351.27l-0.24-2.26l0.24-26.03l-0.36-3.57l0.48-22.7l-0.36-4.99l0.24-7.01l-0.12-2.14l0.12-2.5l-0.24-2.14v-2.62
			l1.19-2.5l2.61-1.19l14.38,0.24l2.14-0.48l4.64,0.59l2.14-0.48l12.24,0.36l4.64,1.07l2.02,0.71l2.26,1.07l2.02,1.19l1.66,1.31
			l1.78,1.19l1.78,1.66l3.92,5.47l0.83,2.5l0.95,4.28l0.24,3.68l-0.12,4.04l-1.42,4.28l-2.26,4.64l-0.83,2.26l1.19,2.73l1.9,1.66
			l1.54,1.78l2.14,4.87l1.31,4.28l-0.24,9.63l-0.95,2.26l-0.71,2.26l-1.19,2.38l-3.21,4.4l-4.75,3.8l-2.14,1.07l-6.66,1.9
			l-2.14,0.36l-12.24,0.59l-2.38-0.36l-17.23,0.24l-3.57-0.36l-3.92,0.36l-2.26-1.43L252.27,351.27z M264.99,346.75l2.38-0.12
			l5.7,0.36l3.57-0.24l2.38,0.24l10.58-0.12l5.82-0.83l4.28-2.26l2.02-1.54l2.97-3.57l1.43-2.14l0.59-2.38l0.83-1.9l-0.12-7.25
			l-0.59-2.5l-1.19-2.26l-1.07-1.66l-3.8-3.68l-2.26-0.83l-1.19-1.43l0.71-1.9l1.9-1.55l1.43-1.9l1.19-2.14l0.95-2.14l0.83-2.26
			l-0.12-6.89l-1.66-4.52l-1.19-2.14l-1.31-1.78l-5.82-3.92l-2.26-1.07l-5.71-0.71l-3.45-0.12l-4.52,0.48l-2.14-0.36l-2.14,0.36
			l-2.5-0.36h-5.47l-3.56,1.31l-1.07,2.5l0.12,2.38l-0.12,2.5l0.12,2.14l-0.24,2.38v4.87l0.24,2.38l-0.24,2.5v7.13l0.36,2.26
			l-0.24,31.26l1.31,2.26L264.99,346.75z M263.8,308.36l0.36-5.11l-0.24-4.75l0.24-2.5l0.12-3.57l-0.36-6.54l1.31-2.14l2.26-1.43
			l3.92,0.12l2.62,0.36l6.06-0.59l6.18,0.24l5.94,1.07l2.26,1.07l1.78,1.31l1.78,1.78l2.62,3.8l0.6,2.14l0.48,3.45l-0.36,3.33
			l-0.59,2.61l-2.26,3.45l-1.54,1.66l-2.02,1.78l-4.16,1.31l-3.21,0.48h-10.7l-3.33,0.36l-2.26-0.24l-3.57,0.12l-2.38-1.31
			L263.8,308.36z M264.15,341.05l0.12-4.75l-0.24-2.5l-0.12-4.16l0.36-2.5l-0.36-8.32l1.31-3.21l2.14-1.31l2.38-0.12l4.75,0.36
			l2.62-0.12l2.14,0.12l2.38-0.48l2.26,0.48l2.38-0.12l9.27,0.83l2.26,1.31l1.9,0.83l3.21,3.57l1.31,1.9l0.48,2.14l0.24,3.8
			l-0.12,3.45l-0.83,2.5l-2.26,3.92l-1.9,1.66l-4.28,2.73l-5.82,0.95l-5.7,0.36l-15.21-0.36l-3.56-1.19L264.15,341.05z
			 M276.28,335.94l9.15,0.24l6.54-0.59l2.02-1.31l1.31-1.66l0.6-3.45l-0.71-2.97l-1.19-2.14l-2.02-0.83l-11.17-1.07l-2.5,0.24
			l-2.26-0.36l-2.02,1.54l-1.07,2.02l-0.36,7.13l1.54,2.38L276.28,335.94z M276.63,304.21l9.15-0.36l3.45-1.19l1.78-1.43l0.83-3.45
			l-0.36-3.57l-0.95-1.9l-1.9-0.95l-12.24-0.83l-2.26,1.43l-1.42,3.45l0.12,4.04l1.31,3.33L276.63,304.21z"/>
		<path d="M363.16,355.31l-2.38-0.24l-2.38,0.24l-2.73-0.12l-2.26-0.48l-4.87,0.36l-2.14-0.12l-2.62,0.24l-8.56-0.12l-3.56-1.55
			l-0.95-3.21l-0.24-2.62l0.36-8.2l-0.36-2.38l0.24-2.26l0.12-19.25l-0.36-2.14l0.12-9.75l0.24-2.26l-0.36-2.5l0.24-11.65
			l-0.36-2.62l0.36-4.87l-0.24-4.52l1.31-2.5l2.5-0.95l2.38,0.12l2.38-0.24l2.14,0.24l2.26-0.48l2.38,0.36l9.75-0.24l2.38,0.24
			l2.02-0.12l2.38,0.24l2.62-0.24l9.63-0.12l2.14,0.48h2.5l2.38,0.95l1.07,2.26l0.24,7.13l-0.12,2.38l0.12,2.38l-1.19,2.14
			l-2.5,1.43l-2.26,0.12l-16.99-0.24l-2.26,0.48l-2.26-0.12l-2.62,0.95l-1.07,2.26v3.69l0.95,3.68l2.5,1.07l6.89-0.24l4.99,0.36
			l2.5-0.24h7.01l2.73,1.54l1.19,3.33l-0.36,10.7l-0.83,2.38l-2.38,0.95l-2.73-0.12l-2.38,0.24l-4.87-0.12l-4.52,0.24l-3.8-0.36
			l-3.56,0.12l-2.14,1.31l-1.07,2.5v7.49l0.95,2.14l2.5,1.19l2.61-0.24l2.26,0.36l2.61-0.12l2.38,0.24l3.92-0.48l6.06,0.12
			l2.26,0.36l2.74-0.24l2.5,1.07l1.31,2.38v12l-1.31,2.5l-2.5,1.07L363.16,355.31z M366.6,347.11h6.3l2.38-0.95v-1.43l-4.75-0.48
			l-2.73,0.12l-2.5-0.24l-2.5,0.36l-4.87-0.24l-2.26,0.24l-4.75-0.36l-3.57,0.36l-3.57-1.55l-1.31-3.45l0.24-16.88l-0.24-3.69
			l0.24-2.38l1.19-2.02l2.14-1.19l4.64-0.12l2.14,0.24l7.37,0.12l2.14-0.36l5.71,0.36l3.68-0.71l0.12-1.43l-2.26-0.83l-2.85,0.24
			h-2.26l-2.26-0.48l-2.14,0.12l-2.62-0.24l-3.21,0.48l-5.82-0.36l-2.5,0.24l-2.38-1.31l-0.83-2.38l-0.36-2.26l0.24-2.14V285.9
			l0.95-2.14l3.57-1.07h8.32l2.26-0.36h14.26l2.5-0.24l-0.24-1.55l-3.68-0.59l-10.58,0.24l-4.76-0.48l-2.38,0.24l-2.26-0.24
			l-2.5,0.24l-4.64-0.12l-2.38,1.31l-1.19,2.38l0.12,58.48l1.07,3.33l2.38,1.55l7.37-0.12l2.38,0.24h2.62l2.14-0.36L366.6,347.11z"
			/>
		<path d="M398.81,350.08v-17.59l-0.24-2.38l0.12-9.63l0.24-2.26l-0.24-2.26v-2.38l-0.12-2.61l0.36-4.75l-0.24-2.38l-0.12-27.22
			l1.42-3.33l2.14-1.19l7.01-0.59l2.62,0.12l2.38,0.48h2.38l2.14-0.59h2.38l2.38,0.48h7.13l3.45-0.24l3.8,0.12l6.77,1.54l4.52,1.55
			l4.16,2.26l6.77,7.13l1.31,1.9l0.95,2.02l2.14,6.77l0.36,2.38l0.24,7.49l-1.54,6.89l-4.64,8.32l-1.66,1.43l-1.66,1.78l-1.07,2.62
			l0.12,2.85l1.43,1.78l3.8,6.18l1.07,2.14l4.04,6.06l0.95,2.26l1.43,1.66l1.31,2.62l-0.71,2.61l-2.26,1.07l-3.92,0.12l-2.26-0.24
			l-9.39,0.12l-4.04-1.07l-2.61-2.14l-1.31-2.02l-0.95-2.38l-1.31-1.78l-2.26-4.28l-2.5-3.57l-0.95-2.14l-1.43-2.38l-2.38-2.02
			l-6.89-0.95l-2.26,1.31l-1.07,2.38l-0.24,7.61l0.36,2.5l-0.24,2.14v4.04l-1.07,3.45l-3.8,1.19h-3.56l-1.9,0.24l-3.8-0.36
			l-2.38,0.36l-3.45-1.55L398.81,350.08z M454.91,346.99l-0.71-2.26l-1.19-1.66l-3.57-5.94l-1.07-2.38l-6.3-10.58l-0.24-2.38
			l3.8-2.85l1.9-0.95l1.78-1.43l1.54-1.66l2.5-3.8l1.78-4.52l0.36-5.47l-0.24-3.45l-0.48-2.73l-0.83-2.02l-2.02-4.04l-1.78-2.02
			l-1.54-1.55l-2.02-1.55l-2.02-0.95l-2.02-1.07l-4.99-1.31l-3.45-0.36l-3.69,0.48l-18.9-0.24l-2.38,1.19l-1.07,2.14l-0.12,29.24
			l-0.24,2.38l0.24,7.13l-0.24,2.5v16.76l0.24,2.61l0.48,2.02l1.19,0.12l0.83-5.82l0.12-15.21l1.19-2.14l2.26-0.71l19.61-0.24
			l3.45,0.83l2.14,1.9l8.32,13.79l1.54,1.9l2.02,4.16l2.14,2.02L454.91,346.99z M410.7,315.02l-0.12-12.48l-0.24-2.5l0.36-13.67
			l0.83-2.62l2.38-1.19l2.5,0.36h9.51l2.26-0.36l2.38,0.36l3.33-0.12l3.92,0.36l2.26,0.83l2.38,0.71l2.26,1.07l1.9,1.31l3.45,3.57
			l1.19,2.02l1.66,4.87l0.12,3.33l-0.24,3.68l-1.54,4.99l-2.97,4.04l-1.43,1.66l-2.26,1.66l-2.02,1.07l-2.38,0.83l-6.06,0.71
			l-3.45-0.24l-2.26,0.36l-5.23,0.12l-2.02-0.36l-7.25,0.12l-2.14-0.95L410.7,315.02z M423.41,311.46l2.61-0.24l5.71,0.24l2.26-0.12
			l3.45-0.83l2.14-0.95l1.31-1.07l1.31-1.78l1.07-2.38l0.36-3.57l-0.48-3.09l-0.71-1.9l-2.97-3.68l-2.26-0.59l-3.09-0.24l-3.33-0.71
			l-4.75,0.48l-2.38-0.12l-2.5,0.95l-1.07,2.26l-0.24,4.99l0.24,2.02v7.13l0.95,1.9L423.41,311.46z"/>
		<path d="M512.79,356.14l-2.38-0.71l-6.77-1.19l-2.02-0.59l-8.2-4.75l-3.92-2.73l-4.75-4.99l-2.73-4.04l-2.14-4.04l-3.33-11.17
			l-0.59-8.32l0.12-3.8l2.14-11.77l4.4-8.91l1.31-1.78l1.78-1.78l1.54-1.9l5.23-4.64l6.54-4.04l9.15-3.33l2.26-0.12l2.02-0.71
			l2.38-0.12l11.05,0.48l5.59,1.55l2.5,0.48l8.32,4.4l1.78,1.43l1.9,1.78l2.62,2.14l4.75,6.89l1.07,2.14l1.66,4.87l-0.71,2.02
			l-2.97,1.31l-5.71-0.36l-3.56,0.48l-3.68-0.12l-2.85-0.83l-2.5-2.02l-1.55-2.02l-1.43-1.55l-2.26-1.54l-2.26-0.95l-4.4-1.19
			l-7.25,0.24l-2.02,0.95l-2.26,0.24l-2.02,1.07l-4.16,2.97l-3.68,5.59l-1.9,4.28l-0.83,4.64l0.12,6.89l0.6,3.8l0.95,3.45l2.26,4.28
			l1.31,1.66l3.57,3.33l6.42,2.62l6.06,0.71l3.09-0.12l4.64-1.07l3.92-1.55l1.66-1.31l1.78-2.02l1.19-2.02l-0.36-2.02l-1.78-0.83
			l-2.14-0.36l-5.94,0.48l-3.45-0.24l-2.14-1.31l-1.07-1.9v-11.29l1.07-2.26l2.38-1.19l4.52-0.36l7.13,0.48l16.05-0.36l2.5,0.36
			l2.5,0.12l2.26,1.19l1.19,2.02l0.24,4.52l-0.24,2.26v2.38l-0.48,2.14l-0.12,2.02l-0.95,4.52l-2.38,7.01l-1.43,1.66l-1.07,2.14
			l-1.19,2.02l-1.43,1.66l-1.78,1.43l-1.78,1.9l-3.69,2.85l-8.44,4.28l-8.91,2.14H512.79z M522.18,347.82l4.87-0.83l8.91-3.57
			l3.92-2.85l1.54-2.14l1.9-1.78l1.19-2.26l1.31-1.9l2.02-4.52l1.43-7.13v-2.73l-1.19-2.26l-6.66-0.71l-4.87,0.36l-7.01-0.36
			l-2.26,0.59v1.55l2.14,0.48l5.94,0.47l2.26-0.36h5.71l2.38,0.95l0.83,2.38l-0.36,2.5l-0.59,2.14l-0.95,1.9l-0.71,2.73l-2.14,3.45
			l-2.85,3.92l-1.78,1.55l-2.02,1.07l-2.02,1.55l-2.02,0.83l-2.14,0.95l-2.38,0.36l-2.26,0.48l-9.15,0.59l-2.5-0.36l-8.79-2.85
			l-3.92-2.62l-1.66-1.78l-1.66-1.31l-1.54-1.78l-2.5-4.04l-2.85-6.3l-0.36-2.26l-0.59-2.14l-0.36-6.18l0.24-5.94l0.48-2.14
			l3.33-9.03l1.31-1.55l1.31-2.14l3.21-3.21l3.68-3.09l6.18-2.85l4.87-1.31l9.27-0.24l2.14,0.24l6.77,2.14l2.38,1.07l3.8,2.5
			l1.66,1.43l1.43,1.9l2.26,2.02l1.31,0.12l-0.24-1.78l-1.43-2.02l-3.21-3.33l-1.9-1.55l-1.9-1.07l-2.14-0.95l-1.9-1.31l-2.14-0.59
			l-7.01-1.19l-11.77,0.59l-2.38,0.59l-4.4,2.02l-6.18,3.92l-3.33,3.21l-4.16,5.82l-2.74,6.66l-0.59,2.38l-0.71,4.75l-0.12,7.37
			l0.71,5.11l3.45,9.15l1.07,2.14l4.52,5.35l5.82,4.75l2.26,0.83l1.9,1.19l2.26,0.71l7.37,1.43l3.33,0.24L522.18,347.82z"/>
	</g>
	<g>
		<path d="M158.86,501.29v-47.71h34.86v8.07h-25.37v10.58h23.61v8.04h-23.61v12.98h26.27v8.04H158.86z"/>
		<path d="M202.77,501.29v-47.71h9.24l19.24,31.86v-31.86h8.82v47.71h-9.53l-18.95-31.11v31.11H202.77z"/>
		<path d="M250.11,501.29v-47.71h34.86v8.07H259.6v10.58h23.61v8.04H259.6v12.98h26.27v8.04H250.11z"/>
		<path d="M293.95,501.29v-47.71h19.98c5.02,0,8.68,0.43,10.95,1.29c2.28,0.86,4.1,2.38,5.47,4.57c1.37,2.19,2.05,4.7,2.05,7.52
			c0,3.58-1.04,6.54-3.11,8.87c-2.07,2.33-5.18,3.8-9.3,4.41c2.05,1.22,3.75,2.55,5.08,4c1.34,1.45,3.14,4.04,5.4,7.75l5.74,9.31
			h-11.35l-6.86-10.38c-2.44-3.71-4.11-6.05-5-7.01c-0.9-0.97-1.85-1.63-2.85-1.99c-1.01-0.36-2.6-0.54-4.78-0.54h-1.92v19.92
			H293.95z M303.45,473.76h7.02c4.55,0,7.4-0.2,8.53-0.59c1.13-0.39,2.02-1.06,2.66-2.02c0.64-0.95,0.96-2.15,0.96-3.58
			c0-1.61-0.42-2.9-1.27-3.89c-0.85-0.99-2.04-1.61-3.58-1.87c-0.77-0.11-3.08-0.16-6.93-0.16h-7.41V473.76z"/>
		<path d="M363.23,483.75v-8.04h20.46v19.01c-1.99,1.95-4.87,3.67-8.64,5.16c-3.77,1.49-7.6,2.23-11.47,2.23
			c-4.92,0-9.2-1.05-12.86-3.14c-3.66-2.09-6.4-5.09-8.24-8.98c-1.84-3.89-2.76-8.13-2.76-12.71c0-4.97,1.03-9.38,3.08-13.25
			c2.05-3.86,5.06-6.82,9.01-8.88c3.01-1.58,6.77-2.38,11.26-2.38c5.84,0,10.4,1.24,13.68,3.73c3.28,2.48,5.39,5.92,6.33,10.3
			l-9.43,1.79c-0.66-2.34-1.91-4.19-3.74-5.55c-1.83-1.36-4.11-2.03-6.85-2.03c-4.15,0-7.45,1.33-9.89,4
			c-2.45,2.67-3.67,6.63-3.67,11.88c0,5.66,1.24,9.91,3.72,12.74c2.48,2.83,5.73,4.25,9.75,4.25c1.99,0,3.98-0.4,5.98-1.19
			c2-0.79,3.72-1.75,5.15-2.88v-6.05H363.23z"/>
		<path d="M404.8,501.29v-20.08l-17.22-27.63h11.13l11.07,18.88l10.84-18.88h10.94l-17.29,27.69v20.01H404.8z"/>
	</g>
</g>
<g id="Layer_2">
</g>
</svg>
