<?xml version="1.0" encoding="utf-8"?>
<!-- Generator: Adobe Illustrator 28.1.0, SVG Export Plug-In . SVG Version: 6.00 Build 0)  -->
<svg version="1.1" xmlns="http://www.w3.org/2000/svg" xmlns:xlink="http://www.w3.org/1999/xlink" x="0px" y="0px"
	 viewBox="0 0 1162.2 595.28" style="enable-background:new 0 0 1162.2 595.28;" xml:space="preserve">
<g id="Layer_1">
	<path d="M17.08,199.14c3.47-14.06,11.3-22.4,26.86-22.94c21.98-0.77,31.67,7.7,31.7,29.63c0.08,49.59,0.03,99.17,0.03,148.76
		c0,21.67-5.82,30.84-21.13,33.4c-19.14,3.19-30.14-3.27-37.45-22C17.08,310.37,17.08,254.75,17.08,199.14z"/>
	<path d="M510.36,228.09c-37.73,0-73.6,0-110.46,0c0,11.43,0,22.68,0,35.67c17.37,0,35.01-0.19,52.65,0.06
		c15.87,0.23,25.36,8.39,26.86,22.42c1.73,16.24-7.1,27.76-23.4,28.81c-14.03,0.91-28.15,0.4-42.23,0.5c-4.39,0.03-8.77,0-14.87,0
		c0,14.63,0.05,28.18-0.01,41.73c-0.11,22.8-10.32,32.28-33.13,30.89c-14.68-0.9-24.26-9.13-24.37-23.51
		c-0.42-55.22-0.37-110.44,0.01-165.66c0.09-13.24,6.71-20.01,19.95-22.83c5.01-1.07,10.27-1.34,15.42-1.35
		c47.07-0.1,94.14-0.12,141.21,0.01c7.76,0.02,15.54,0.57,23.26,1.42c20.18,2.22,26.78,9.76,26.81,30.48
		c0.07,38.92,0.02,77.83,0.02,116.75c0,3.99,0,7.98,0,13.35c24.8,0,48.42,0.35,72-0.44c2.96-0.1,6.88-5.78,8.38-9.65
		c15.03-38.64,29.95-77.32,44.3-116.22c15.05-40.83,35.42-40.36,65.57-37.56c18.58,1.72,28.75,15.35,35.04,31.84
		c13.57,35.61,26.98,71.28,40.59,106.87c1.27,3.32,2.73,7.92,5.36,9.11c7.12,3.2,10.15-1.18,12.15-8
		c10.86-36.93,22.06-73.76,33.35-110.57c1.83-5.97,3.98-12.06,7.24-17.32c7.82-12.63,25.39-16.96,39.46-10.43
		c13.07,6.06,18.48,17.86,13.09,33.39c-17.72,51-35.8,101.89-54.43,152.57c-6.81,18.53-21.33,27.79-41.28,27.95
		c-6.3,0.05-12.65-0.46-18.89,0.13c-23.67,2.24-33.31-9.25-40.88-29.49c-7.58-20.26-7.24-20.38-28.48-20.38
		c-14.83,0-29.68,0.53-44.47-0.2c-8.32-0.41-12.28,2.57-13.79,10.4c-0.76,3.97-2.24,7.83-3.65,11.64
		c-7.84,21.14-17.43,27.85-39.76,27.95c-38.17,0.17-76.34,0.47-114.51,0.43c-27.59-0.03-34.11-6.76-34.11-34.05
		c0.01-37.43,0-74.87,0-112.3C510.36,238.1,510.36,233.73,510.36,228.09z M720.81,292.23c16.05,0,30.7,0,46.55,0
		c-5.65-17.87-10.89-35.04-16.68-52.02c-0.67-1.97-4.32-4.02-6.59-4.03c-2.17-0.01-5.62,2.17-6.31,4.15
		C731.92,257.28,726.56,274.41,720.81,292.23z"/>
	<path d="M175.48,287.32c-1.83-1.87-5-0.55-5,2.07c0,25.11,0.03,46.86-0.01,68.62c-0.04,25.43-23.12,39.63-45.14,26.62
		c-5.92-3.5-11.88-12.69-12-19.36c-0.96-55.2-0.6-110.43-0.5-165.65c0.02-9.32,4.43-16.71,12.98-20.34
		c11.42-4.86,23.53-5.44,33.79,2.29c6.96,5.24,12.83,12.27,18.16,19.27c16.37,21.54,53.96,67.64,63.52,77.51
		c1.03,1.07,2.69,1.2,3.87,0.29l0,0c0.73-0.55,1.15-1.41,1.15-2.32c0-10.5-0.01-21,0-31.5c0.01-14.82-0.4-29.66,0.18-44.47
		c0.63-16.18,11.37-24.62,29.56-24.28c17.69,0.33,27.76,8.72,27.85,24.75c0.29,54.11,0.13,108.22,0.1,162.32
		c0,10.15-4,18.38-13.57,22.3c-11.94,4.9-24.28,4.99-34.64-3.58c-6.75-5.59-12.56-12.57-17.89-19.6
		C222.93,342.51,189.21,301.41,175.48,287.32z"/>
	<path d="M1025.19,227.39c0,10.37,0,19.42,0,29.9c21.44,0,42.43-0.2,63.42,0.06c18.41,0.23,28.92,12.67,25.42,29.47
		c-2.4,11.52-11.84,18.13-26.9,18.27c-20.33,0.18-40.66,0.05-61.79,0.05c0,9.95,0,19.01,0,29.37c3.82,0.17,7.74,0.49,11.65,0.5
		c26.68,0.05,53.36-0.16,80.04,0.09c22.14,0.21,33.41,15.02,27.57,36.37c-2.81,10.29-10.23,16.68-21,16.75
		c-44.83,0.3-89.66,0.4-134.48-0.07c-12.97-0.13-21.98-9.91-22.05-23.19c-0.28-55.95-0.31-111.91,0.02-167.86
		c0.08-14.24,9.45-23.64,25.4-23.91c41.49-0.72,83.01-0.77,124.5,0c17.21,0.32,25.82,10.72,25.76,27.07
		c-0.05,16.34-8.61,26.06-26.12,26.67c-25.91,0.9-51.87,0.39-77.8,0.48C1034.5,227.4,1030.17,227.39,1025.19,227.39z"/>
</g>
<g id="Layer_2">
</g>
</svg>
