<?xml version="1.0" encoding="utf-8"?>
<!-- Generator: Adobe Illustrator 28.1.0, SVG Export Plug-In . SVG Version: 6.00 Build 0)  -->
<svg version="1.1" id="Layer_1" xmlns="http://www.w3.org/2000/svg" xmlns:xlink="http://www.w3.org/1999/xlink" x="0px" y="0px"
	 viewBox="0 0 595.28 595.28" style="enable-background:new 0 0 595.28 595.28;" xml:space="preserve">
<path d="M46.23,386.67c0,19.3,0,38.59,0,58.18c-10.2,0-19.99,0-30.17,0c0-1.59,0-2.94,0-4.29c0-42.12,0.06-84.25-0.08-126.37
	c-0.01-3.9,1.18-4.93,4.87-4.77c6.74,0.29,13.5,0.4,20.24,0.11c4.54-0.2,6.79,2,8.6,5.7c10.34,21.09,20.77,42.14,31.19,63.19
	c2.19,4.43,4.45,8.84,7.17,14.24c1.66-2.75,2.91-4.54,3.87-6.47c11.57-23.27,23.23-46.49,34.52-69.89c2.55-5.28,5.68-7.5,11.6-6.96
	c6.07,0.55,12.24,0.22,18.36,0.06c3.55-0.09,4.93,1.38,4.93,4.89c-0.06,42.25-0.08,84.5-0.05,126.74c0,3.19-1.31,4.55-4.47,4.52
	c-7.25-0.07-14.5,0.01-21.75-0.03c-4.24-0.02-5-0.76-5.01-5.1c-0.03-15.5,0.03-31,0.01-46.5c0-2.19-0.22-4.37-0.34-6.56
	c-0.32-0.08-0.65-0.16-0.97-0.25c-0.74,1.2-1.56,2.37-2.2,3.62c-8.54,16.54-17.12,33.06-25.51,49.68c-1.88,3.72-4.23,5.7-8.51,5.01
	c-1.2-0.19-2.5-0.01-3.72,0.18c-6.7,1.05-10.46-0.39-13.73-6.4c-4.65-8.56-8.84-17.36-13.27-26.04
	c-3.97-7.79-7.98-15.56-12.04-23.31c-0.67-1.27-1.64-2.39-2.47-3.57C46.95,386.42,46.59,386.54,46.23,386.67z"/>
<path d="M400.65,394.28c15.25,16.72,30.5,33.44,46.42,50.89c-2.15,0.16-3.31,0.32-4.47,0.32c-11.12-0.03-22.25,0.1-33.37-0.29
	c-2.57-0.09-5.78-1.34-7.51-3.18c-13.96-14.83-27.61-29.95-41.41-44.93c-2.55-2.77-2.81-5.62-1.28-8.93
	c3.25-7.03,6.51-14.06,9.53-21.19c1.43-3.38,3.68-4.7,7.23-4.68c9.5,0.04,19-0.1,28.5-0.13c5.61-0.02,10.02-1.94,12.14-7.54
	c2.6-6.86-2.08-14.2-10.07-14.42c-16.61-0.47-33.24-0.27-49.86-0.33c-2.45-0.01-3.64,1.37-3.75,3.75c-0.06,1.25-0.06,2.5-0.06,3.75
	c-0.01,31.12-0.07,62.25,0.06,93.37c0.01,3.43-0.91,4.53-4.37,4.42c-7.37-0.23-14.75-0.16-22.12,0c-2.84,0.06-3.92-0.69-3.92-3.76
	c0.09-42.5,0.08-84.99,0.01-127.49c0-2.92,0.7-4.4,3.91-4.39c27.74,0.11,55.5-0.39,83.23,0.38c21.34,0.59,35.08,14.47,38.38,36.56
	c2.67,17.88-8.55,36.99-26.22,43.51c-5.02,1.85-10.71,1.92-16.11,2.75c-1.41,0.22-2.86,0.24-4.29,0.36
	C401.05,393.47,400.85,393.87,400.65,394.28z"/>
<path d="M432.47,123.71c-0.49,1.58-0.69,2.52-1.07,3.4c-3.13,7.22-6.45,14.36-9.37,21.67c-1.47,3.68-3.65,5.09-7.62,5.07
	c-17.5-0.11-35-0.01-52.49,0.1c-4.37,0.03-8.79-0.07-13.09,0.58c-9.05,1.36-12.86,7.99-9.34,15.6c2.15,4.65,6.36,5.82,10.86,5.99
	c6.49,0.25,13,0.15,19.49,0.19c7.37,0.05,14.75,0.21,22.12,0.11c21.22-0.29,35.36,15.01,39.79,30.99
	c5.45,19.66-4.9,41.47-23.77,49.17c-4.18,1.71-8.94,2.73-13.44,2.78c-27.5,0.29-54.99,0.22-82.49,0.24c-1.33,0-2.66-0.17-4.49-0.29
	c0.87-3.56,1.63-6.67,2.38-9.79c1.11-4.61,2.31-9.21,3.29-13.85c1.12-5.29,2.33-6.36,7.85-6.36c21.25,0.01,42.5,0.04,63.74,0
	c2.74-0.01,5.5-0.23,8.21-0.63c5.42-0.8,8.99-4.59,9.36-9.66c0.39-5.27-2.68-9.7-8.02-11.17c-2.01-0.55-4.18-0.74-6.29-0.75
	c-12.75-0.07-25.5,0.07-38.25-0.09c-21.36-0.27-37.04-12.76-41.68-32.97c-5.89-25.69,13.65-50.31,39.97-50.33
	c26.5-0.02,53,0,79.49,0C429.09,123.71,430.54,123.71,432.47,123.71z"/>
<path d="M231.41,259.97c-36.43,0.04-67.27-31.19-67.28-68.13c-0.01-37.17,29.83-67.29,65.65-68.38
	c42.38-1.29,70.48,34.63,70.19,68.78C299.67,229.19,268.86,259.93,231.41,259.97z M231.76,229.01
	c21.52-0.27,37.69-16.71,37.38-38.02c-0.29-19.98-17.1-36.84-36.54-36.65c-21.21,0.21-37.92,16.88-37.62,37.53
	C195.28,212.59,211.79,229.26,231.76,229.01z"/>
<path d="M315.42,445.22c-1.63,0.11-2.71,0.25-3.78,0.26c-22.99,0.03-45.98,0.07-68.97,0.07c-5.91,0-6.71-0.61-8.94-6
	c-3.24-7.82-6.52-15.62-10.11-24.21c14.93,0,29.27,0,44.48,0c-8.19-18.59-15.98-36.29-23.78-53.99c-0.41-0.04-0.82-0.09-1.23-0.13
	c-1.05,1.87-2.25,3.67-3.11,5.62c-6.87,15.53-13.69,31.08-20.51,46.63c-4.01,9.15-7.85,18.37-12.1,27.41
	c-0.88,1.87-3.15,4.29-4.87,4.36c-10.07,0.41-20.17,0.2-30.99,0.2c0.71-1.99,1.14-3.48,1.75-4.89
	c9.57-22.11,19.14-44.23,28.77-66.32c8.59-19.69,17.24-39.34,25.92-58.99c2.5-5.66,3.35-6.03,9.41-5.77
	c3.74,0.16,7.5,0.17,11.24,0.05c7.3-0.24,7.9,0.06,10.75,6.61c9.02,20.72,18.02,41.46,27.07,62.17
	c9.05,20.71,18.16,41.39,27.22,62.1C314.26,441.82,314.72,443.33,315.42,445.22z"/>
<path d="M445.4,309.5c9.04,0,17.01-0.19,24.96,0.04c15.96,0.45,11.3-2.25,21.05,11.12c5.22,7.17,10.23,14.49,15.37,21.72
	c1.66,2.33,3.47,4.55,5.53,7.24c1.24-1.5,2.3-2.64,3.2-3.9c7.48-10.47,15.01-20.9,22.35-31.48c2.2-3.17,4.74-4.77,8.68-4.72
	c9.87,0.13,19.75-0.02,29.62-0.03c0.84,0,1.68,0.2,3.14,0.38c-0.93,1.47-1.58,2.6-2.33,3.66c-15.31,21.62-30.73,43.15-45.83,64.91
	c-1.92,2.77-3.05,6.66-3.11,10.06c-0.31,17.49-0.27,34.99-0.09,52.49c0.04,3.7-1.13,4.63-4.67,4.5c-7.24-0.27-14.5-0.18-21.74-0.05
	c-3.38,0.06-4.55-1.17-4.53-4.63c0.14-16.87-0.04-33.75,0.07-50.62c0.03-5.1-1.35-9.51-4.3-13.65c-14.93-20.96-29.78-41.99-44.65-63
	C447.42,312.57,446.77,311.55,445.4,309.5z"/>
<path d="M441.65,153.92c4.87-10.12,8.97-19.2,13.72-27.94c0.83-1.52,4.36-2.13,6.67-2.18c10.62-0.23,21.24-0.12,31.87-0.12
	c23.12-0.01,46.24-0.01,69.37-0.01c1.11,0,2.21,0,4.11,0c-4.31,9.76-8.26,19-12.57,28.08c-0.53,1.12-2.91,1.86-4.46,1.9
	c-7.74,0.22-15.49,0.16-23.24,0.17c-6.06,0.01-7.24,1.09-7.23,7.21c0.04,30.12,0.13,60.24,0.19,90.36c0,1.5-0.03,3-0.17,4.49
	c-0.24,2.52-1.67,3.78-4.23,3.78c-7.37-0.01-14.75-0.05-22.12,0.01c-3.07,0.02-4.26-1.56-4.27-4.41c-0.02-4.25-0.06-8.5-0.06-12.75
	c0.02-27.25,0.05-54.49,0.06-81.74c0-6.41-0.4-6.82-6.76-6.83c-10.75-0.02-21.5-0.01-32.25-0.02
	C447.82,153.92,445.34,153.92,441.65,153.92z"/>
<path d="M42.19,259.59c0-1.98,0-3.45,0-4.91c0-42.22,0.03-84.44-0.06-126.65c-0.01-3.06,0.79-4.19,3.97-4.1
	c7.24,0.2,14.49,0.22,21.73-0.01c3.28-0.1,4.43,0.96,4.39,4.21c-0.11,10.12,0.01,20.23,0.01,30.35c-0.01,20.73-0.06,41.47-0.08,62.2
	c-0.01,8.21,0.56,8.75,8.63,8.73c24.11-0.04,48.21-0.06,72.32-0.08c1.34,0,2.68,0,5.02,0c-2.62,9.44-4.87,18.21-7.65,26.82
	c-0.48,1.48-3.08,2.63-4.93,3.2c-1.84,0.56-3.96,0.23-5.96,0.23c-30.98,0.01-61.95,0.01-92.93,0.01
	C45.31,259.59,43.98,259.59,42.19,259.59z"/>
</svg>
