<?xml version="1.0" encoding="utf-8"?>
<!-- Generator: Adobe Illustrator 28.1.0, SVG Export Plug-In . SVG Version: 6.00 Build 0)  -->
<svg version="1.1" xmlns="http://www.w3.org/2000/svg" xmlns:xlink="http://www.w3.org/1999/xlink" x="0px" y="0px"
	 viewBox="0 0 1162.2 595.28" style="enable-background:new 0 0 1162.2 595.28;" xml:space="preserve">
<g id="Layer_1">
	<path d="M785.2,255.24c-17.35,0-34.18,0-51.43,0c0-5.74,0.1-11.28-0.04-16.82c-0.08-3.06-0.43-6.14-0.92-9.16
		c-0.58-3.66-2.42-6.24-6.53-6.55c-4.58-0.34-8.21,1.36-9.43,5.52c-4.47,15.2-2.38,28.97,13.13,37.96
		c6.73,3.9,13.41,7.9,19.92,12.17c5.52,3.62,10.67,7.8,16.11,11.54c14.68,10.1,21.21,24.88,23.07,41.79
		c1.07,9.71,0.26,19.62,0.58,29.44c0.07,2.08,0.76,4.71,2.15,6.08c23.8,23.37,47.72,46.62,71.7,69.81
		c6.47,6.25,6.87,9.42,0.69,15.79c-26.08,26.9-52.25,53.73-78.38,80.58c-14.45,14.85-28.89,29.71-43.38,44.52
		c-5.24,5.35-8.95,5.3-14.25,0.14c-47.14-45.96-94.29-91.9-141.44-137.85c-4.2-4.1-7.16-4.16-11.32,0.03
		c-45.63,45.83-91.22,91.69-136.83,137.55c-1.14,1.15-2.22,2.36-3.41,3.45c-4.16,3.79-8.41,3.77-12.4-0.19
		c-8.87-8.8-17.69-17.65-26.52-26.48c-32.53-32.54-65.05-65.08-97.57-97.62c-0.93-0.94-1.96-1.81-2.75-2.86
		c-2.42-3.25-3.94-6.52-0.12-9.94c1.52-1.36,2.67-3.11,4.12-4.56c43.03-43.04,86.06-86.09,129.19-129.03
		c2.73-2.72,3.45-5.51,3.85-9.2c0.84-7.73-2.1-12.95-7.61-18.25c-41.94-40.34-83.56-81.01-125.32-121.54
		c-10.76-10.44-10.76-11.8-0.36-22.49c39.36-40.44,78.65-80.94,117.96-121.41c5.33-5.49,9.22-5.62,14.61-0.35
		c35.94,35.13,71.87,70.27,107.81,105.41c11.03,10.79,22.08,21.56,33.11,32.35c4.65,4.54,7.28,4.57,11.88-0.07
		c46.17-46.53,92.34-93.07,138.49-139.62c5.36-5.4,9.25-5.52,14.61-0.17c35.98,35.94,71.94,71.91,107.92,107.85
		c5.41,5.4,10.91,10.7,16.3,16.12c5.25,5.28,5.2,8.99-0.09,14.29c-24.82,24.86-49.62,49.74-74.52,74.53
		c-2.19,2.18-2.86,4.26-2.7,7.33C785.44,241.86,785.2,248.44,785.2,255.24z M731.01,24.31c-1.25,1.18-2.33,2.14-3.35,3.17
		c-9.62,9.71-19.23,19.43-28.85,29.13c-35.29,35.59-70.59,71.16-105.85,106.78c-8.41,8.5-18.64,8.78-27.2,0.43
		c-35.34-34.5-70.63-69.05-105.95-103.57c-11.44-11.18-22.92-22.32-34.74-33.84c-40.14,41.37-80.06,82.52-120.14,123.82
		c42.61,41.44,84.85,82.51,127.08,123.59c0.34-0.22,0.67-0.44,1.01-0.66c0-28.74,0-57.48,0-86.25c19.25,0,38.13,0,57.07,0
		c0,73.85,0,147.39,0,221.05c-19.15,0-38.03,0-57.36,0c0-28.08,0-55.88,0-82.65c-41.32,41.29-82.92,82.87-124.74,124.67
		c40.18,39.71,80.91,79.96,122.08,120.65c0.54-0.66,1.47-2,2.61-3.14c44.55-44.83,89.12-89.63,133.69-134.44
		c9.35-9.4,19.31-9.88,28.2-1.22c38.2,37.23,76.37,74.5,114.56,111.74c8.6,8.38,17.24,16.72,26.13,25.34
		c40.2-41.29,80.15-82.31,120.3-123.55c-23.12-22.46-46.05-44.74-69.21-67.24c-4,10.99-11.39,18.06-21.21,22.6
		c-16.93,7.83-34.82,10.02-52.93,6.19c-9.04-1.91-17.93-5.62-26.18-9.9c-9.03-4.68-14.66-12.86-17.43-22.83
		c-4.23-15.2-4.02-30.66-3.39-46.18c17.25,0,34.08,0,51.22,0c0,9.09-0.11,17.88,0.05,26.67c0.07,3.64,0.42,7.33,1.22,10.87
		c1.22,5.4,4.55,7.44,10.02,6.81c4.49-0.52,7.59-3.16,8.52-8.76c2.64-15.95,1.73-30.75-13.57-41.03
		c-13.52-9.08-26.74-18.62-40.01-28.08c-8.88-6.32-14.16-15.15-16.87-25.57c-3.61-13.86-3.59-27.9-1.51-41.96
		c2.95-19.98,14.74-32.04,33.95-37.17c21.58-5.75,42.77-4.53,63.39,4.22c7.65,3.25,13.72,8.49,17.87,15.74
		c1.25,2.18,2,4.64,2.98,6.98c-0.25-0.43-0.49-0.86-0.74-1.29c23.58-23.26,47.17-46.53,70.67-69.72
		C812.23,105.53,771.81,65.11,731.01,24.31z"/>
	<path d="M173.87,286.37c4.22-33.09,8.45-66.19,12.7-99.5c25.06,0,49.84,0,74.96,0c0,73.53,0,147.06,0,220.98
		c-16.35,0-32.88,0-49.87,0c0-48.06,0-96.32,0-144.57c-0.3-0.02-0.6-0.04-0.9-0.06c-6.48,48.23-12.97,96.47-19.47,144.82
		c-12.15,0-23.86,0-35.96,0c-6.85-47.07-13.68-94-20.51-140.94c-0.32,0.04-0.64,0.07-0.96,0.11c0,46.83,0,93.66,0,140.76
		c-16.78,0-33.3,0-50.1,0c0-73.63,0-147.17,0-221.03c24.76,0,49.5,0,74.9,0c4.75,33.1,9.51,66.25,14.27,99.39
		C173.25,286.34,173.56,286.35,173.87,286.37z"/>
	<path d="M986.64,231.55c-11.77,0-22.73,0-33.98,0c0-14.87,0-29.34,0-44.09c41.89,0,83.71,0,125.77,0c0,14.61,0,29.08,0,43.95
		c-11.21,0-22.32,0-33.86,0c0,59.24,0,118.07,0,177.25c-19.44,0-38.45,0-57.93,0C986.64,349.9,986.64,291.07,986.64,231.55z"/>
</g>
<g id="Layer_2">
</g>
</svg>
