<?xml version="1.0" encoding="utf-8"?>
<!-- Generator: Adobe Illustrator 28.1.0, SVG Export Plug-In . SVG Version: 6.00 Build 0)  -->
<svg version="1.1" xmlns="http://www.w3.org/2000/svg" xmlns:xlink="http://www.w3.org/1999/xlink" x="0px" y="0px"
	 viewBox="0 0 1162.2 595.28" style="enable-background:new 0 0 1162.2 595.28;" xml:space="preserve">
<g id="Layer_1">
	<path d="M782.57,482.52c-3.57,0.51-6.68,0.85-9.73,1.45c-0.72,0.14-1.44,1.01-1.87,1.73c-6.13,10.03-12.97,19.45-22.56,26.53
		c-6.08,4.49-12.69,7.6-20.47,7.56c-11.6-0.07-20.6-7.96-22.15-19.45c-0.07-0.5-0.2-0.98-0.4-1.93c-1.96,1.84-3.63,3.45-5.35,5.02
		c-7.22,6.6-15,12.31-24.59,15.03c-4.77,1.35-9.62,1.89-14.5,0.79c-7.72-1.74-12.61-6.55-14.58-14.19
		c-0.66-2.55-0.89-5.22-1.38-8.19c-2.66,2.93-5.07,5.74-7.65,8.39c-5.8,5.95-11.96,11.43-20.27,13.61
		c-2.12,0.56-4.36,0.85-6.55,0.88c-8.87,0.12-13.89-6.21-11.84-14.85c1.47-6.21,4.82-11.56,8.32-16.73
		c6.12-9.04,12.49-17.91,18.74-26.85c0.83-1.19,1.58-2.42,2.54-3.9c-0.71-0.08-1.18-0.2-1.65-0.17c-0.68,0.04-1.37,0.14-2.04,0.27
		c-4.04,0.79-8.71,0.61-11.92,2.69c-3.13,2.03-4.69,6.43-7.07,9.69c-6.95,9.57-13.22,19.65-21.44,28.26
		c-7.93,8.31-16.68,15.48-27.65,19.48c-4.5,1.64-9.16,2.35-13.95,2.14c-11.7-0.51-19.84-8.44-20.66-20.13
		c-0.05-0.66-0.1-1.33-0.2-2.56c-0.85,0.91-1.39,1.47-1.9,2.06c-5.29,6.03-10.64,12.01-17.51,16.36c-3.2,2.03-6.59,3.58-10.47,3.61
		c-6.49,0.07-11.34-4.51-11.77-10.99c-0.27-4.08,0.76-7.87,2.33-11.57c0.52-1.23,1.08-2.46,1.17-3.95c-0.57,0.75-1.1,1.52-1.7,2.25
		c-4.76,5.76-9.2,11.82-14.39,17.16c-4.14,4.26-9.66,6.62-15.71,7.35c-7.34,0.88-13.74-3.28-15.69-10.43
		c-0.77-2.84-1.08-5.8-1.67-9.13c-0.69,0.69-1.26,1.21-1.77,1.78c-4.54,5.07-9.13,10.08-14.96,13.74
		c-5.37,3.37-11.06,5.11-17.44,3.62c-6.77-1.58-10.23-6.92-8.82-13.71c1.31-6.28,4.76-11.53,8.3-16.7
		c4.96-7.24,10.05-14.39,15.02-21.63c0.77-1.11,1.34-2.42,1.73-3.72c0.77-2.62-0.66-4.39-3.4-4.29c-4.26,0.15-7.99,1.88-11.5,4.13
		c-9.18,5.9-16.52,13.75-23.19,22.26c-6.52,8.32-12.05,17.28-16.71,26.77c-2.04,4.17-5.04,6.6-9.89,6.33
		c-4.41-0.25-6.49-2.69-5.94-7.09c0.07-0.57,0.15-1.13,0.24-1.77c-3.2,2.57-6.17,5.16-9.36,7.47c-4.3,3.11-9.14,4.96-14.52,4.92
		c-11.43-0.1-20.4-10.79-18.24-22.33c1.01-5.41,3.3-10.59,5.02-15.87c0.16-0.49,0.4-0.95,0.25-1.71c-0.49,0.57-1.01,1.12-1.48,1.71
		c-8.11,10.26-16.58,20.18-26.65,28.6c-4.42,3.69-9.11,7.01-14.61,8.86c-15.71,5.27-31.09-7.52-29.09-24.09
		c1.14-9.37,5.11-17.68,9.62-25.8c6.89-12.41,16.02-23.24,24.33-34.65c3.91-5.36,7.53-10.94,11.06-16.55
		c1.19-1.89,1.98-4.15,2.49-6.34c0.62-2.67-0.28-3.24-2.95-2.85c-8.22,1.21-14.98,5.48-21.51,10.2c-4.27,3.08-8.41,6.34-12.66,9.45
		c-1.91,1.39-3.93,2.96-6.46,1.4c-2.7-1.67-3.97-4.12-3.67-7.35c0.51-5.32,3.7-8.98,7.7-11.94c9.13-6.75,19.39-10.89,30.64-12.52
		c5.38-0.78,10.72-1.49,16.05,0.53c7.86,2.97,11.7,10.41,9.26,18.46c-2.27,7.46-6.36,14-10.52,20.51
		c-8.54,13.38-17.27,26.65-25.47,40.24c-3.08,5.1-5.07,10.9-7.2,16.52c-0.75,1.97-0.7,4.38-0.53,6.54c0.26,3.2,2.12,4.52,5.32,4.26
		c5.84-0.48,10.8-3.2,15.52-6.36c9.33-6.24,17.22-14.09,24.84-22.26c10.12-10.85,19.53-22.31,27.99-34.47
		c5.09-7.31,9.24-15.26,13.87-22.9c2.97-4.9,6.03-9.74,9.07-14.59c0.48-0.77,1.01-1.53,1.6-2.22c4.36-5.11,9-6.29,15.36-3.92
		c3.54,1.32,4.74,3.57,3.08,6.96c-2.88,5.89-5.88,11.74-9.21,17.39c-10.26,17.43-20.92,34.64-30.96,52.2
		c-4.3,7.52-7.5,15.67-11.09,23.58c-0.62,1.36-0.87,2.94-1.01,4.45c-0.43,4.9,1.51,6.66,6.04,4.92c3.29-1.26,6.48-3.12,9.3-5.25
		c8.15-6.16,15.13-13.6,21.33-21.64c4.16-5.4,7.38-11.52,10.92-17.39c2.13-3.53,4.04-7.19,6.09-10.77
		c2.68-4.67,8.63-6.57,13.53-4.38c2.79,1.25,3.74,4.39,1.99,7.63c-1.55,2.88-3.46,5.57-5.21,8.35c-1.31,2.09-2.61,4.2-3.91,6.29
		c0.15,0.1,0.31,0.2,0.46,0.31c1.19-1.53,2.33-3.09,3.57-4.58c7.07-8.5,15.29-15.58,25.47-20.13c3.97-1.77,8.13-2.53,12.51-1.56
		c6.63,1.47,10.69,8.1,9.02,14.66c-1.76,6.89-5.53,12.68-9.61,18.34c-4.59,6.38-9.1,12.82-13.58,19.29
		c-0.81,1.17-1.47,2.53-1.86,3.9c-0.72,2.5,0.6,4.16,3.08,3.51c2.52-0.66,5.07-1.75,7.2-3.24c6.63-4.62,12.1-10.53,17.1-16.8
		c3.36-4.21,6.07-8.94,9.29-13.28c6.97-9.38,15.41-17.12,25.92-22.42c6.82-3.44,14.11-4.91,21.71-4.82
		c5.87,0.07,10.42,2.61,13.38,8.41c2.24-3.83,4.25-7.31,6.28-10.76c8.73-14.79,17.45-29.59,26.21-44.36
		c0.81-1.37,1.81-2.64,2.85-3.86c3.45-4.05,9.4-5.51,14.37-3.61c2.73,1.05,4.02,3.99,2.53,7.31c-1.71,3.81-3.76,7.51-6.05,11.01
		c-10.74,16.33-21.78,32.46-32.4,48.88c-7.58,11.73-14.69,23.76-21.93,35.71c-1.02,1.68-1.88,3.56-2.28,5.46
		c-0.3,1.43-0.28,3.7,0.58,4.38c1,0.79,3.29,0.79,4.59,0.2c2.46-1.12,4.9-2.62,6.84-4.49c4.67-4.48,9.08-9.25,13.55-13.94
		c2.65-2.78,4.36-6.15,6.26-9.48c8.14-14.31,19.16-25.43,35.55-30.09c4.43-1.26,8.89-1.22,13.37-0.18
		c9.23,2.15,13.6,9.73,10.78,19.06c-2.58,8.51-9.1,13.13-16.88,16.22c-6.52,2.58-13.4,2.8-20.32,2.32
		c-0.84-0.06-1.67-0.15-2.51-0.21c-4.73-0.35-4.79-0.36-5.81,4.23c-0.51,2.3-0.91,4.66-1.1,7.01c-0.57,6.78,3.35,11.12,10.18,11.33
		c4.85,0.15,9.37-1.17,13.66-3.33c7.55-3.81,13.71-9.36,19.46-15.44c7.53-7.97,13.77-16.92,19.94-25.94
		c0.16-0.24,0.25-0.53,0.47-1.01c-2.87-1.12-4.94-2.87-4.87-6.19c0.08-3.84,1.69-6.92,4.67-9.29c2.37-1.88,4.95-3.31,8.07-3.48
		c4.75-0.26,7.38,2.26,7.23,6.99c-0.03,1.04-0.22,2.07-0.37,3.36c4.5-0.83,8.81-1.71,13.15-2.38c2.86-0.44,5.76-0.76,8.65-0.84
		c4.35-0.12,6.72,2.49,5.73,6.74c-0.61,2.59-1.93,5.14-3.45,7.35c-7.47,10.89-15.15,21.63-22.64,32.5c-1.42,2.05-2.47,4.4-3.38,6.73
		c-0.39,1-0.42,2.74,0.18,3.36c0.72,0.74,2.58,1.2,3.47,0.78c3.27-1.56,6.85-3,9.38-5.45c6.73-6.52,13.19-13.36,19.33-20.44
		c3.51-4.06,5.82-9.16,9.3-13.25c8.23-9.66,18.23-16.92,30.73-20.16c5.09-1.32,10.26-1.77,15.31,0.27
		c5.35,2.16,8.18,7.74,6.64,13.26c-1.4,5.01-4.13,9.23-8.57,12.04c-1.52,0.96-3.52,1.46-5.34,1.57c-2.62,0.16-3.79-1.5-2.98-4.05
		c0.57-1.79,1.55-3.47,2.47-5.13c1.21-2.2,2.7-4.26,3.78-6.53c1.06-2.23,0.04-3.86-2.38-3.44c-2.55,0.44-5.33,1.21-7.37,2.7
		c-12.66,9.28-22.07,21-26.01,36.52c-1.95,7.69,2.32,12.73,10.2,12.11c6.25-0.5,11.7-3.22,16.41-7.04
		c5.73-4.65,10.99-9.88,16.41-14.91c0.59-0.55,0.95-1.37,1.32-2.12c8.29-17.08,21.37-28.75,39.4-34.73
		c5.42-1.8,11.05-2.33,16.74-1.34c7.97,1.39,12.08,8.05,9.79,15.78c-0.18,0.62-0.41,1.49-0.13,1.95c2.02,3.31,1.49,6.75,0.74,10.23
		c-0.08,0.36-0.04,0.75-0.07,1.51c1.65-0.12,3.23-0.07,4.75-0.37c4.82-0.93,8.81-2.92,12.16-6.93c8.49-10.13,18.8-17.95,31.86-21.28
		c3.93-1,8.16-1.32,12.23-1.18c6.53,0.22,11.52,3,12.67,10.16c2.4-0.23,4.64-0.63,6.88-0.62c5.47,0.01,8.18,3.9,5.66,8.75
		c-2.35,4.51-5.52,8.58-8.34,12.83c-3.84,5.79-7.79,11.5-11.51,17.37c-1.29,2.04-2.27,4.35-2.97,6.66c-0.9,3.02,1.02,4.96,4.02,4.02
		c1.99-0.62,3.94-1.7,5.63-2.95c6.87-5.07,12.24-11.67,17.91-17.97c2.44-2.71,3.7-5.87,5.02-9.14
		c7.63-18.86,17.91-36.23,29.68-52.78c5.46-7.67,10.83-15.4,17.94-21.62c3.64-3.18,7.62-6.27,11.98-8.24
		c7.75-3.49,13.92-0.69,13.59,9.01c-0.23,6.6-2.61,12.53-5.54,18.26c-6.27,12.24-14.27,23.34-23.41,33.53
		c-8.45,9.43-17.47,18.34-26.21,27.52c-0.82,0.86-1.62,1.88-2.01,2.98c-1.45,4.01-2.82,8.06-4,12.15c-0.43,1.5-0.43,3.18-0.36,4.77
		c0.22,5.1,3.06,6.95,7.43,4.28c4.06-2.48,7.9-5.51,11.29-8.86c4.93-4.88,9.35-10.27,14.02-15.41c1.07-1.18,2.13-2.51,3.49-3.25
		c0.94-0.51,2.76-0.61,3.47-0.03c0.74,0.61,0.67,2.26,0.85,3.46c0.05,0.31-0.28,0.7-0.5,1.01c-7.13,10.02-14.25,20.06-23.13,28.66
		c-4.34,4.2-9.21,7.68-15.29,8.76c-10.46,1.86-17.97-2.15-19.51-13.17c-0.22-1.58-0.3-3.19-0.39-4.79
		c-0.05-0.91-0.01-1.82-0.01-3.34c-0.84,0.84-1.4,1.35-1.89,1.91c-5.41,6.15-10.94,12.18-18.16,16.27
		c-1.96,1.11-4.15,2.06-6.35,2.51c-8.78,1.79-15.66-4.39-14.51-13.29c0.48-3.72,2.07-7.29,3.18-10.93c0.21-0.69,0.56-1.35,0.5-2.23
		c-2.24,3.03-4.36,6.16-6.73,9.08c-4.12,5.09-7.85,10.7-13.87,13.76c-3.55,1.8-7.41,3.38-11.3,4.05
		c-7.66,1.32-13.98-3.22-16.02-10.74c-2.19-8.1-0.91-15.89,2.09-23.53C781.92,484.22,782.18,483.53,782.57,482.52z M763.07,483.55
		c-1.84-0.84-3.12-1.34-4.32-1.98c-4.52-2.38-6.1-6.35-3.98-10.93c2.38-5.12,6.19-8.65,12.12-9.24c1.95-0.19,2.35-0.86,1.61-2.65
		c-0.9-2.18-3.16-3.26-6.34-3.06c-3.97,0.24-7.61,1.54-11,3.55c-7.99,4.74-14.46,11.16-20.1,18.46c-4.33,5.61-7.15,11.86-7.8,19
		c-0.68,7.49,3.26,11.09,10.55,9.37c2.49-0.59,4.97-1.56,7.22-2.77c6.64-3.59,12.14-8.67,17.34-14.07
		C759.98,487.54,761.35,485.64,763.07,483.55z M494.77,456.2c-5.3,0.02-9.82,1.96-13.98,4.8c-10.1,6.91-18.15,15.8-24.63,26.11
		c-2.61,4.14-4.76,8.56-4.7,13.67c0.03,2.61,1.11,3.66,3.66,3.55c1.44-0.07,2.9-0.27,4.28-0.65c6.37-1.76,11.44-5.67,16.1-10.13
		c9.66-9.24,17.31-20.07,24.45-31.29c2.21-3.48,1.55-4.96-2.58-5.77C496.48,456.3,495.55,456.28,494.77,456.2z M837.7,455.97
		c-3.94,0.28-7.44,1.6-10.61,3.66c-12.33,8.02-21.89,18.69-29.1,31.43c-1.47,2.59-2.28,5.68-2.79,8.65
		c-0.61,3.54,1.06,4.99,4.59,4.59c1.36-0.16,2.71-0.46,4.02-0.87c5.75-1.82,10.42-5.38,14.73-9.43c9.81-9.21,17.54-20.09,24.84-31.3
		c1.47-2.26,1.06-4.22-1.36-5.45C840.7,456.59,839.15,456.38,837.7,455.97z M892.89,468.28c0.15,0.1,0.3,0.2,0.46,0.31
		c1.73-1.86,3.49-3.7,5.2-5.58c11.1-12.22,21.62-24.92,29.88-39.27c2.87-4.98,4.94-10.44,7.18-15.76c0.39-0.92-0.16-2.25-0.28-3.38
		c-1.19,0.33-2.46,0.51-3.55,1.04c-0.86,0.42-1.59,1.2-2.21,1.95c-2.1,2.52-4.27,4.99-6.15,7.67c-10.2,14.61-18.5,30.34-26.87,46.01
		C895.3,463.59,894.11,465.94,892.89,468.28z M546.11,476.74c0.47,0.34,0.64,0.57,0.83,0.58c7.16,0.51,14.24,0.2,20.71-3.34
		c4.54-2.48,8.64-5.57,10.09-10.95c0.61-2.25,0.87-4.7-0.95-6.48c-1.85-1.82-4.3-1.41-6.47-0.56
		C559.92,460.06,552.36,467.46,546.11,476.74z"/>
	<path d="M574.14,424.17c0-2.87-0.04-6.14,0.04-9.41c0.01-0.62,0.44-1.26,0.76-1.84c4.39-8.01,6.4-16.33,3.17-25.28
		c-0.62-1.71-1.34-3.46-2.39-4.92c-1.29-1.78-1.64-3.6-1.64-5.72c0.04-108.04,0.03-216.08,0.03-324.12c0-0.75,0-1.49,0-2.41
		c10.1,0,19.99,0,30.12,0c0,56.09,0,112.13,0,168.44c1.02,0.07,1.82,0.18,2.62,0.18c14.36,0.01,28.73-0.05,43.09,0.05
		c2.21,0.02,2.61-0.74,2.61-2.75c-0.05-66.47-0.03-132.95-0.03-199.42c0-3.16,0.01-3.15,3.04-3.15c7.95,0.01,15.89,0.01,23.84,0.01
		c3.27,0,3.28,0,3.28,3.17c0,40.95,0.01,81.91,0.01,122.86c0,94.36,0,188.73,0,283.09c0,3.98-0.12,3.69-3.86,5.22
		c-5.49,2.25-10.81,4.92-16.15,7.52c-1.11,0.54-1.74,0.7-2.74-0.26c-1.47-1.42-3.06-2.87-4.86-3.76c-2.15-1.05-2.6-2.47-2.6-4.68
		c0.05-63.19,0.04-126.38,0.04-189.57c0-3.24,0.01-3.24-3.2-3.25c-14.06-0.01-28.12,0.06-42.18-0.08c-2.43-0.02-2.87,0.74-2.87,2.98
		c0.06,60.44,0.04,120.88,0.09,181.31c0,2.28-0.51,3.34-2.84,4.22c-3.53,1.34-6.8,3.39-10.06,5.33c-1.18,0.7-2,0.81-3.32,0.38
		C583.62,426.84,579,425.59,574.14,424.17z"/>
	<path d="M791.9,439.51c-3.36-2.89-6.48-6.24-10.22-8.58c-2.88-1.81-3.67-3.65-3.66-6.88c0.11-52.64,0.08-105.29,0.08-157.93
		c0-3.2,0-3.21-3.23-3.21c-10.85,0-21.7,0-32.55,0c-0.9,0-1.8,0-3.02,0c0,1.18,0,2.07,0,2.96c0,53.03-0.02,106.05,0.06,159.08
		c0,2.54-0.67,3.67-3.11,4.57c-3.78,1.39-7.36,3.34-10.95,5.18c-1.07,0.55-1.62,0.38-2.6-0.25c-3.75-2.44-7.56-4.8-11.5-6.92
		c-1.29-0.7-1.81-1.31-1.75-2.72c0.1-2.21,0.03-4.43,0.03-6.65c0-103.23-0.01-206.45,0.01-309.68c0-7.21,0.72-14.34,2.89-21.26
		c3.2-10.19,9.52-17.23,20.08-20.09c16.61-4.49,33.29-5.23,50.05-1.01c13.93,3.51,21.71,12.69,23.95,26.66
		c0.78,4.88,1.34,9.87,1.34,14.8c0.07,106.36,0.04,212.72,0.13,319.08c0,2.95-0.85,4.34-3.52,5.62
		C799.96,434.4,795.83,437.19,791.9,439.51z M739.3,169.69c0,24.75,0.03,49.51-0.06,74.26c-0.01,2.37,0.69,2.93,2.97,2.91
		c10.92-0.11,21.85-0.05,32.78-0.05c3.12,0,3.12,0,3.12-3.1c0-45.84,0-91.68-0.01-137.52c0-1.99-0.01-3.98-0.13-5.96
		c-0.33-5.42-0.92-10.78-2.95-15.91c-1.8-4.54-5.04-7.37-9.76-8.02c-3.82-0.53-7.79-0.81-11.6-0.4c-7.6,0.83-11.55,4.54-12.93,12.06
		c-0.87,4.78-1.34,9.7-1.37,14.56C739.22,124.92,739.29,147.3,739.3,169.69z"/>
	<path d="M223.9,404.16c0-24.9,0-49.15,0-73.41c-0.11-0.02-0.22-0.05-0.33-0.07c-0.41,3.09-0.83,6.19-1.23,9.28
		c-3.64,27.95-7.3,55.89-10.87,83.84c-0.23,1.78-0.84,2.3-2.56,2.26c-4.43-0.11-8.86-0.12-13.29-0.03
		c-1.74,0.04-2.51-0.35-2.77-2.29c-4-30.13-8.09-60.25-12.16-90.37c-0.13-0.97-0.32-1.94-0.93-2.91c0,1.45-0.01,2.9,0,4.35
		c0.18,19.71,0.35,39.42,0.54,59.12c0.19,19.48,0.39,38.95,0.6,58.43c0.03,3.21,0.17,6.41,0.08,9.62c-0.02,0.63-0.85,1.77-1.32,1.78
		c-9.92,0.1-19.84,0.08-29.94,0.08c0-97.53,0-194.88,0-292.54c1.31,0,2.58,0,3.85,0c7.18,0,14.36,0.07,21.54-0.05
		c1.86-0.03,2.47,0.59,2.74,2.37c3.77,24.3,7.6,48.58,11.43,72.87c4.12,26.17,8.26,52.35,12.39,78.52c0.07,0.43,0.2,0.86,0.83,1.33
		c7.97-51.61,15.94-103.23,23.92-154.9c0.81-0.06,1.41-0.13,2-0.13c7.87-0.01,15.74,0.05,23.61-0.05c1.86-0.02,2.38,0.6,2.3,2.36
		c-0.13,2.74-0.06,5.5-0.06,8.25c0,65.25-0.06,130.49,0.13,195.74c0.01,4.71-1.07,6.95-5.62,8.77
		C239.3,390.15,230.76,395.66,223.9,404.16z"/>
	<path d="M493.12,424.7c-10.68-0.18-20.34,2.02-29.7,6.12c0-2.34,0.01-4.37,0-6.4c-0.08-28.8-0.13-57.6-0.28-86.4
		c-0.04-7.68-1.82-15.05-3.64-22.52c-4.56-18.69-14.28-34.98-22.83-51.83c-6.97-13.75-14.2-27.37-21.15-41.13
		c-4.54-8.98-9.21-17.93-13.09-27.19c-5.69-13.57-8.52-27.78-8.24-42.64c0.32-17.41-0.01-34.84,0.25-52.25
		c0.07-4.76,0.89-9.59,1.97-14.25c2.88-12.37,10.62-20.23,23.02-23.18c16.38-3.9,32.83-4.33,49.2,0.02
		c12.35,3.29,20.09,11.25,22.57,23.85c1.01,5.14,1.81,10.43,1.85,15.65c0.19,26.13,0.06,52.25,0.14,78.38
		c0.01,2.28-0.72,2.77-2.85,2.74c-8.63-0.11-17.25-0.05-26.3-0.05c0-1.08,0-2.03,0-2.98c0-26.74,0.02-53.48-0.02-80.22
		c-0.01-6.92-0.77-13.7-3.82-20.09c-1.77-3.71-4.51-6.12-8.44-7.12c-5.35-1.36-10.75-1.51-16.09-0.04
		c-6.6,1.81-9.78,6.85-10.55,13.09c-0.84,6.87-1,13.85-0.98,20.79c0.05,17.18,0.61,34.37,0.51,51.55
		c-0.08,14.06,4.43,26.74,10.64,38.93c11.27,22.1,22.92,44.01,34.2,66.1c6.28,12.31,12.37,24.72,16.57,37.96
		c4.41,13.92,7.17,28.08,7.12,42.75c-0.09,25.29-0.03,50.57-0.04,75.86C493.12,421.66,493.12,423.09,493.12,424.7z"/>
	<path d="M457.83,13.83c1.13,0,1.95,0,2.77,0c49.05,0,98.1,0.02,147.14-0.04c2.2,0,2.86,0.58,2.81,2.79
		c-0.13,6.26-0.1,12.53,0.03,18.79c0.04,2.02-0.58,2.58-2.59,2.57c-18.41-0.08-36.82-0.05-55.24-0.05c-1.05,0-2.11,0-3.47,0
		c0,110.66,0,221.07,0,331.6c-6.36,0.82-12.23,2.27-17.42,5.77c-5.17,3.49-8.81,8.36-12.84,13.33c0-0.85,0-1.69,0-2.54
		c0-45.76,0-91.52,0-137.29c0-69.29,0-138.59,0-207.88c0-3,0-2.99-3.01-2.99c-18.49,0-36.98-0.04-55.46,0.04
		c-2.18,0.01-2.84-0.56-2.78-2.79c0.17-6.11,0.06-12.22,0.06-18.33C457.83,15.92,457.83,15.02,457.83,13.83z"/>
	<path d="M1011.78,171.29c0,6.98,0,13.66,0,20.55c-0.89,0.04-1.7,0.11-2.51,0.11c-8.48,0.01-16.96,0.05-25.44-0.03
		c-1.81-0.02-2.54,0.39-2.54,2.39c0.06,34.3,0.06,68.6,0.01,102.9c0,1.93,0.6,2.49,2.48,2.47c7.79-0.08,15.58,0.02,23.37-0.07
		c1.82-0.02,2.56,0.38,2.5,2.38c-0.14,5.34-0.13,10.7-0.01,16.04c0.05,1.89-0.65,2.31-2.37,2.29c-7.87-0.07-15.74,0.01-23.6-0.07
		c-1.79-0.02-2.38,0.54-2.38,2.35c0.04,39.49,0.04,78.99,0.05,118.48c0,0.6,0.11,1.2,0.18,1.99c10.66,0,21.25,0,32.02,0
		c0,6.94,0,13.68,0,20.64c-0.93,0.05-1.82,0.13-2.7,0.13c-19.48,0.01-38.96-0.03-58.44,0.05c-2.27,0.01-3.08-0.53-3-2.91
		c0.18-5.11-0.02-10.24,0.11-15.35c0.03-1.28,0.47-2.7,1.15-3.8c6.01-9.71,11.6-19.62,14.04-30.92c2.22-10.3,1.51-20.21-4.69-29.2
		c-2.34-3.39-5.36-6.07-8.97-8.01c-1.19-0.64-1.68-1.37-1.59-2.68c0.08-1.29,0.01-2.6,0.01-3.89c0-64.17,0-128.34,0-192.5
		c0-3.32,0.01-3.33,3.35-3.33c18.79,0,37.58,0,56.38,0C1009.97,171.29,1010.73,171.29,1011.78,171.29z"/>
	<path d="M866.75,436.19c-1.8-0.48-3.47-0.77-5.01-1.37c-1.94-0.76-3.51-1.89-4-4.25c-4.65-22.42-9.7-44.76-13.97-67.25
		c-3.48-18.37-6.08-36.9-8.99-55.37c-0.33-2.09-0.15-4.27-0.15-6.4c-0.01-59.89-0.01-119.79,0.01-179.68c0-4.79-0.66-4.16,4.08-4.18
		c6.95-0.03,13.9-0.05,20.86,0c4.81,0.03,4.31-0.72,4.31,4.22c0.03,20.4,0.01,40.8,0.01,61.19c0,39.57-0.21,79.15,0.11,118.72
		c0.11,13.8,1.3,27.61,2.33,41.39c1.41,18.81,3.1,37.6,4.75,56.38c0.69,7.83,1.64,15.65,2.36,23.48c0.1,1.11-0.22,2.43-0.77,3.4
		C870.83,429.71,868.8,432.85,866.75,436.19z"/>
	<path d="M339.04,117.86c0.74-0.08,1.34-0.19,1.93-0.19c8.4-0.01,16.81,0.03,25.21-0.04c1.73-0.01,2.32,0.61,2.17,2.28
		c-0.11,1.21,0,2.44,0,3.66c0,83.74,0,167.47,0,251.21c0,1.12,0,2.24,0,3.68c-12.36-1.66-21.56,3.51-29.31,12.85
		C339.04,299.89,339.04,209.02,339.04,117.86z"/>
	<path d="M309.56,386.49c-9.01-6.58-18.56-9.09-29.23-8.35c-0.05-1.07-0.13-1.96-0.13-2.84c-0.01-84.8-0.01-169.59-0.01-254.39
		c0-3.24,0.01-3.24,3.24-3.24c7.79,0,15.59,0.08,23.38-0.06c2.21-0.04,2.82,0.58,2.82,2.8c-0.06,58.29-0.05,116.58-0.05,174.86
		c0,29.41,0,58.82,0,88.23C309.56,384.32,309.56,385.13,309.56,386.49z"/>
	<path d="M885.84,406.33c0.33-3.55,0.71-7.1,0.98-10.66c2.16-28.02,4.79-56.03,6.28-84.09c0.98-18.44,0.34-36.97,0.35-55.45
		c0.03-45.08,0.01-90.15,0.01-135.23c0-3.25,0.01-3.25,3.21-3.25c7.87,0,15.74,0.06,23.61-0.03c1.92-0.02,2.47,0.61,2.47,2.49
		c-0.04,61.89,0.12,123.77-0.22,185.66c-0.05,9.31-2.18,18.64-3.74,27.89c-2.45,14.53-5.25,29.01-7.85,43.52
		c-0.37,2.07-1.29,3.51-2.94,4.88C899.56,389.08,892.56,397.42,885.84,406.33z"/>
	<path d="M423.99,425.4c-5.77-0.52-11.15,0-16.33,1.8c-2.66,0.93-5.27,2.03-7.83,3.19c-2.97,1.35-5,0.39-5.18-2.77
		c-0.23-4.04-0.31-8.09-0.35-12.13c-0.01-0.96,0.33-1.94,0.64-2.87c1.7-5.11,1.6-10.19-0.07-15.3c-0.37-1.14-0.59-2.38-0.59-3.57
		c-0.04-20.17-0.01-40.34-0.07-60.51c-0.01-1.82,0.57-2.34,2.36-2.32c8.17,0.08,16.35,0.11,24.52-0.02
		c2.28-0.04,2.96,0.54,2.96,2.91c-0.09,28.95-0.06,57.91-0.05,86.86C423.99,422.12,423.99,423.56,423.99,425.4z"/>
	<path d="M812.14,582.15c0-14.02,0-27.81,0-41.72c0.36-0.09,0.71-0.26,1.06-0.26c5.65-0.01,11.3-0.15,16.94,0.04
		c7.98,0.28,12.86,8.55,9.3,15.71c-0.75,1.5-2.13,2.68-3.31,4.11c0.89,0.64,1.92,1.28,2.84,2.05c3.09,2.61,4.16,7.58,2.66,12.03
		c-1.51,4.48-5.32,7.91-9.33,7.99C825.66,582.25,819.02,582.15,812.14,582.15z M817.38,563.31c0,4.31-0.05,8.65,0.08,12.98
		c0.01,0.4,1.11,1.09,1.72,1.11c3.82,0.1,7.64,0.11,11.46,0.03c3.61-0.08,6.19-2.67,6.56-6.41c0.41-4.03-1.44-7.25-5.21-7.6
		C827.25,562.97,822.43,563.31,817.38,563.31z M824.02,558.24c0-0.01,0-0.03,0-0.04c1.83,0,3.67,0.14,5.48-0.03
		c4.8-0.46,7.58-5.54,4.88-9.36c-1.15-1.63-3.37-3.08-5.31-3.43c-3.4-0.62-6.96-0.39-10.46-0.36c-0.42,0-1.17,0.91-1.18,1.41
		c-0.11,3.42-0.02,6.85-0.08,10.27c-0.02,1.25,0.55,1.58,1.65,1.55C820.67,558.21,822.35,558.24,824.02,558.24z"/>
	<path d="M941.52,493.02c1.14-3.02,2.01-5.62,3.13-8.11c0.26-0.57,1.39-1.04,2.12-1.05c5.58-0.09,11.15-0.05,16.73-0.05
		c15.81,0,31.63,0,47.44,0c0.83,0,1.66,0,2.78,0c0,2.78,0.08,5.44-0.08,8.07c-0.03,0.42-1.12,1.07-1.74,1.1
		c-3.2,0.11-6.42,0.04-9.62,0.04c-19.33,0-38.66-0.01-57.99-0.01C943.41,493.02,942.52,493.02,941.52,493.02z"/>
	<path d="M149.67,483.94c23.04,0,45.84,0,68.75,0c-0.61,2.81-1.16,5.48-1.81,8.12c-0.09,0.38-0.68,0.75-1.12,0.89
		c-0.49,0.16-1.06,0.06-1.59,0.06c-20.62,0-41.24,0-61.87,0c-0.75,0-1.49-0.07-2.35-0.12C149.67,489.88,149.67,487.02,149.67,483.94
		z"/>
	<path d="M763.69,561.5c0.13-6.09,1.5-11.73,5.75-16.29c5.17-5.53,11.73-6.58,18.76-5.07c7.31,1.56,11.64,6.58,13.57,13.49
		c2.1,7.54,1.89,15.07-2.7,21.8c-4.94,7.25-12.18,9.01-20.4,7.52c-7.1-1.29-12.82-7.52-14.26-15.32
		C764.05,565.61,763.93,563.54,763.69,561.5z M798.16,561.87c-0.8-3.26-1.21-6.4-2.34-9.26c-2.18-5.49-6.99-8.38-12.78-8.23
		c-5.85,0.15-10.39,3.28-12.47,8.77c-2.14,5.65-2.17,11.39,0.14,16.98c2.2,5.34,6.27,8.33,12.16,8.52
		c5.64,0.18,10.07-2.11,12.46-7.23C796.71,568.44,797.24,565.07,798.16,561.87z"/>
	<path d="M1014.49,561.76c-0.23,7.3-2.32,13.67-8.34,18.13c-10.24,7.58-24.96,3.27-29.34-8.82c-2.87-7.94-2.61-16.04,2.04-23.37
		c4.43-6.99,11.3-8.98,19.15-7.85c8.1,1.16,12.84,6.27,15.1,13.82C1013.89,556.28,1014.05,559.06,1014.49,561.76z M1009.27,560.93
		c-0.61-2.52-0.98-5.42-2.02-8.07c-2.29-5.82-7.15-8.74-13.31-8.46c-5.87,0.27-10.46,3.81-12.37,9.57
		c-1.51,4.54-1.58,9.16-0.41,13.76c1.73,6.82,6.72,10.8,13.45,10.93c6.47,0.13,11.35-3.58,13.31-10.37
		C1008.59,566.05,1008.79,563.68,1009.27,560.93z"/>
	<path d="M580,561.81c-0.55,6.59-2.26,12.42-7.19,17c-7.77,7.22-26.16,7.57-31.2-9.03c-2.08-6.85-1.84-13.8,1.45-20.29
		c3.77-7.44,10.23-10.35,18.33-9.86c7.98,0.48,13.48,4.63,16.26,12.01C578.88,554.87,579.25,558.41,580,561.81z M574.56,561.33
		c-0.55-2.59-0.81-5.29-1.72-7.75c-1.98-5.37-5.78-8.74-11.7-9.13c-5.98-0.39-10.71,1.92-13.33,7.37
		c-3.16,6.56-3.15,13.4,0.25,19.85c4.41,8.34,16.01,9.59,22.1,2.55C573.32,570.57,574.22,566.1,574.56,561.33z"/>
	<path d="M533.74,561.44c-0.2,6.72-1.77,12.83-6.99,17.38c-5.84,5.09-12.7,5.84-19.78,3.41c-7.12-2.44-10.65-8.15-12.01-15.23
		c-1.17-6.07-0.69-12.06,2.21-17.63c3.77-7.22,10.92-10.73,19.37-9.67c7.97,1,13.99,6.24,15.93,14.08
		C533.09,556.29,533.33,558.88,533.74,561.44z M499.42,561.18c0.46,2.65,0.66,5.03,1.31,7.28c1.79,6.22,6.46,9.88,12.6,10.15
		c6.15,0.27,11.12-2.77,13.33-8.44c2.09-5.37,2.27-10.86,0.35-16.34c-2.02-5.76-6.62-9.27-12.23-9.42
		c-6.5-0.17-11.32,2.79-13.57,8.79C500.23,555.8,499.96,558.66,499.42,561.18z"/>
	<path d="M227.68,561.59c-0.16,4.96-1.08,9.62-3.93,13.74c-4.45,6.45-10.8,8.69-18.33,7.96c-7.4-0.72-12.43-4.85-15.14-11.62
		c-2.72-6.8-2.65-13.78,0.03-20.57c3.15-8.02,10.18-12.09,19.16-11.46c8.44,0.6,14.84,5.91,16.96,14.3
		C227.07,556.43,227.28,559.04,227.68,561.59z M222.52,561.52c-0.48-2.53-0.71-4.99-1.43-7.29c-1.98-6.31-7.05-9.96-13.31-9.85
		c-6.41,0.11-11.18,3.75-13.12,10.12c-1.29,4.25-1.29,8.58-0.29,12.89c1.56,6.73,6.36,10.87,12.94,11.25
		c6.43,0.36,11.39-3,13.65-9.6C221.78,566.63,222.02,564.02,222.52,561.52z"/>
	<path d="M393.49,582.18c0-14.13,0-27.98,0-41.66c6.45,0,12.78-0.25,19.07,0.1c3.56,0.2,6.3,2.64,8.45,5.41
		c6.72,8.63,5.77,24.43-1.83,32.24c-2.46,2.53-5.3,3.98-8.91,3.93C404.78,582.12,399.29,582.18,393.49,582.18z M398.54,561.22
		c0,4.58,0.1,9.16-0.04,13.74c-0.06,2.07,0.67,2.66,2.64,2.55c2.74-0.15,5.49-0.09,8.24-0.03c4.04,0.08,6.94-1.72,8.56-5.34
		c3.04-6.8,3.2-13.79,0.55-20.71c-1.63-4.25-5.02-6.4-9.61-6.48c-2.75-0.05-5.5,0.06-8.24-0.04c-1.6-0.06-2.14,0.52-2.12,2.11
		C398.59,551.75,398.54,556.48,398.54,561.22z"/>
	<path d="M290.9,539.39c1.87,0.39,4.47,0.69,6.9,1.51c4.42,1.48,6.7,4.87,7.23,9.4c0.08,0.67-0.67,2.07-0.87,2.04
		c-1.37-0.22-3.29,1.23-4.02-1.23c-1.98-6.67-9.84-9.37-15.83-5.49c-2.3,1.49-3.55,3.55-3.22,6.35c0.32,2.66,2.22,3.91,4.52,4.6
		c3.95,1.17,7.93,2.24,11.9,3.32c5.42,1.48,8.37,4.61,8.89,9.45c0.58,5.45-1.68,9.59-6.67,12.16c-6.34,3.27-16.35,2.33-20.96-1.96
		c-2.62-2.44-3.65-5.58-3.88-9.01c-0.03-0.53,0.81-1.61,1.2-1.58c1.2,0.08,2.88-0.95,3.52,1c2.48,7.55,7.21,10.36,14.96,8.38
		c1.98-0.51,4.1-1.9,5.36-3.51c2.6-3.33,1.25-7.7-2.7-9.2c-3.34-1.27-6.86-2.04-10.31-3.02c-0.81-0.23-1.62-0.44-2.42-0.68
		c-6.16-1.82-8.63-5.01-8.39-10.83c0.23-5.55,3.95-9.94,9.51-11.09C287.11,539.7,288.65,539.65,290.9,539.39z"/>
	<path d="M454.21,540.38c0.35-0.09,0.63-0.21,0.92-0.23c4.16-0.35,4.16-0.35,4.16,3.84c0,4.05,0.05,8.09-0.02,12.14
		c-0.03,1.57,0.5,2.16,2.11,2.14c5.49-0.07,10.99-0.08,16.49,0c1.74,0.03,2.23-0.63,2.2-2.28c-0.09-4.27-0.04-8.55-0.03-12.82
		c0-3.08,0.01-3.09,3.15-3.04c0.6,0.01,1.19,0.09,1.94,0.15c0.04,0.76,0.11,1.43,0.11,2.09c0.01,12.37,0.02,24.73,0.02,37.1
		c0,2.42-2.42,3.85-4.55,2.56c-0.45-0.27-0.63-1.29-0.64-1.97c-0.05-4.81-0.14-9.62,0.01-14.42c0.07-2.17-0.69-2.72-2.75-2.67
		c-5.26,0.13-10.53,0.1-15.8,0.01c-1.69-0.03-2.29,0.51-2.26,2.22c0.09,4.73,0.03,9.46,0.03,14.2c0,0.82,0,1.65,0,2.64
		c-1.81,0-3.36,0-5.09,0C454.21,568.18,454.21,554.39,454.21,540.38z"/>
	<path d="M673.82,540.32c0,5.25,0.07,10.28-0.04,15.31c-0.04,1.91,0.38,2.72,2.51,2.65c5.34-0.15,10.69-0.11,16.04-0.02
		c1.74,0.03,2.23-0.58,2.2-2.26c-0.1-4.28-0.04-8.55-0.03-12.83c0.01-3.11,0.01-3.11,3.18-3.02c0.59,0.02,1.18,0.12,1.86,0.19
		c0.03,0.72,0.08,1.32,0.08,1.91c0,12.53-0.04,25.06,0.05,37.58c0.01,1.98-0.63,2.46-2.47,2.41c-1.72-0.05-2.85-0.09-2.76-2.39
		c0.18-4.88,0-9.78,0.1-14.66c0.03-1.71-0.54-2.26-2.23-2.23c-5.42,0.09-10.85,0.1-16.27,0.01c-1.69-0.03-2.28,0.49-2.24,2.21
		c0.1,4.73,0.04,9.47,0.05,14.21c0,0.83,0,1.65,0,2.64c-1.79,0-3.36,0-5.28,0c0-1.01,0-1.97,0-2.94c0-11.76-0.02-23.53,0.01-35.29
		c0.01-4.16-0.45-3.63,3.67-3.63C672.68,540.17,673.13,540.25,673.82,540.32z"/>
	<path d="M382.44,582.09c-9.64,0-19.14,0-28.74,0c0-13.96,0-27.81,0-41.94c1.01,0,1.9,0,2.8,0c7.63,0,15.27,0.06,22.9-0.05
		c1.95-0.03,2.26,0.75,2.25,2.42c0,1.66-0.31,2.49-2.24,2.45c-6.11-0.11-12.22,0.03-18.32-0.08c-1.96-0.04-2.49,0.63-2.4,2.49
		c0.14,2.97,0.11,5.96,0,8.93c-0.06,1.55,0.53,1.98,1.99,1.96c5.95-0.06,11.91,0.03,17.86-0.06c1.76-0.03,2.4,0.46,2.39,2.31
		c-0.01,1.83-0.45,2.56-2.42,2.52c-5.8-0.12-11.6,0.03-17.4-0.08c-1.94-0.04-2.49,0.6-2.41,2.48c0.14,3.28,0.1,6.57-0.02,9.84
		c-0.07,1.74,0.56,2.24,2.24,2.21c5.95-0.07,11.91-0.02,17.86-0.02C383.04,577.47,383.04,577.47,382.44,582.09z"/>
	<path d="M625.12,582.19c1.38-4,2.63-7.66,3.9-11.31c3.32-9.51,6.7-19.01,9.95-28.54c0.56-1.65,1.34-2.29,3.1-2.22
		c4.94,0.19,3.8-0.69,5.34,3.78c3.97,11.55,7.87,23.13,11.78,34.7c0.36,1.07,0.66,2.16,1.08,3.57c-1.81,0-3.33,0.13-4.8-0.07
		c-0.52-0.07-1.14-0.9-1.36-1.51c-1.05-2.95-2.05-5.92-2.93-8.92c-0.43-1.47-1.15-2.1-2.75-2.06c-3.89,0.11-7.79,0.1-11.69,0.01
		c-1.42-0.03-2.05,0.57-2.45,1.82c-0.86,2.69-1.95,5.31-2.68,8.04c-0.57,2.15-1.64,3.09-3.87,2.73
		C627.03,582.09,626.27,582.19,625.12,582.19z M643.28,547.77c-0.23-0.01-0.46-0.01-0.69-0.02c-2.02,5.64-4.03,11.28-6.11,17.09
		c4.27,0,8.14,0,12.32,0C646.89,558.93,645.09,553.35,643.28,547.77z"/>
	<path d="M588.83,540.31c5.08-0.5,5.08-0.5,5.08,4.21c0,4.58,0,9.16,0.01,13.74c0,0.66,0.08,1.31,0.12,1.97
		c0.35,0.28,0.7,0.56,1.05,0.84c0.35-0.77,0.54-1.69,1.09-2.27c5.02-5.33,10.33-10.4,15.1-15.95c2.62-3.05,5.49-2.85,9.27-2.51
		c-3.07,3.17-5.84,6.04-8.62,8.91c-2.12,2.19-4.18,4.46-6.41,6.54c-1.25,1.16-1.06,2.01-0.2,3.29c4.55,6.69,9.01,13.43,13.5,20.16
		c0.54,0.81,1.03,1.65,1.56,2.51c-4.06,1.22-5.57,0.7-7.68-2.48c-3.66-5.54-7.34-11.06-11.02-16.59c-0.29-0.43-0.66-0.82-0.71-0.89
		c-2.25,1.96-4.5,3.85-6.63,5.87c-0.39,0.37-0.39,1.28-0.4,1.94c-0.04,3.36-0.13,6.72,0.03,10.08c0.1,2.01-0.5,2.84-2.55,2.56
		c-0.81-0.11-1.64-0.02-2.57-0.02C588.83,568.14,588.83,554.29,588.83,540.31z"/>
	<path d="M883.66,582.2c-1.59,0-2.83,0.18-3.99-0.06c-0.78-0.17-1.81-0.79-2.07-1.47c-1.16-2.98-2.16-6.03-3.07-9.1
		c-0.41-1.39-1.04-1.99-2.55-1.96c-3.97,0.09-7.93,0.07-11.9,0.01c-1.27-0.02-1.91,0.4-2.3,1.65c-0.86,2.76-2.08,5.43-2.79,8.23
		c-0.6,2.37-1.89,3.05-4.09,2.71c-0.66-0.1-1.34-0.09-2.3-0.15c0.4-1.27,0.72-2.34,1.08-3.39c4.26-12.16,8.56-24.31,12.75-36.49
		c0.55-1.61,1.37-2.11,2.97-2.05c4.59,0.15,3.88-0.76,5.47,3.94c4.03,11.92,8.08,23.82,12.12,35.74
		C883.2,580.44,883.35,581.1,883.66,582.2z M872.2,564.89c-1.92-5.96-3.76-11.64-5.59-17.33c-0.19,0-0.37-0.01-0.56-0.01
		c-2.03,5.68-4.06,11.37-6.19,17.34C864.14,564.89,868.02,564.89,872.2,564.89z"/>
	<path d="M268.4,582.17c-1.74,0-3.2,0.16-4.58-0.07c-0.6-0.1-1.31-0.93-1.55-1.58c-1.1-3.01-2.11-6.05-3.04-9.12
		c-0.4-1.32-1.09-1.81-2.46-1.78c-3.97,0.07-7.94,0.08-11.91,0.01c-1.42-0.03-2.03,0.58-2.42,1.85c-0.84,2.69-1.95,5.31-2.68,8.03
		c-0.58,2.13-1.66,3.07-3.87,2.7c-0.72-0.12-1.49-0.02-2.57-0.02c0.53-1.62,0.93-2.91,1.37-4.19c4.16-11.89,8.42-23.74,12.42-35.68
		c1.05-3.15,3.3-1.85,5.19-2.2c1.84-0.33,2.32,0.84,2.79,2.25c4.17,12.45,8.39,24.88,12.58,37.32
		C267.89,580.4,268.08,581.12,268.4,582.17z M251.44,547.81c-0.25-0.02-0.49-0.04-0.74-0.06c-2.01,5.65-4.01,11.3-6.09,17.15
		c4.31,0,8.13,0,12.32,0C255.03,559,253.23,553.4,251.44,547.81z"/>
	<path d="M924.61,567.08c-0.54,7.61-6.21,14.63-12.8,15.94c-8.41,1.67-15.78-1.61-19.18-9.26c-4.13-9.27-3.95-18.61,1.67-27.34
		c3.65-5.68,11.01-8.12,17.81-6.37c5.65,1.45,10.89,7.27,11.65,13.12c-1.31,0-2.64,0.22-3.84-0.08c-0.77-0.19-1.56-1.05-1.96-1.8
		c-2.01-3.8-4.74-6.53-9.27-6.9c-4.07-0.33-7.3,1.22-9.76,4.42c-4.78,6.24-4.84,18.8-0.13,25.12c5.08,6.82,14.38,6.28,18.61-1.08
		c0.49-0.85,0.88-1.78,1.24-2.7C920.09,566.39,920.1,566.37,924.61,567.08z"/>
	<path d="M967.45,567.13c-0.59,7.61-6.18,14.55-12.66,15.88c-8.31,1.7-15.59-1.4-19.14-8.96c-4.25-9.04-4.21-18.3,1.12-26.96
		c6.5-10.55,21.79-10.05,27.88,0.74c0.88,1.56,1.53,3.24,2.51,5.34c-1.56,0-2.53-0.08-3.48,0.02c-1.5,0.16-2.31-0.4-2.94-1.83
		c-1.67-3.77-4.41-6.44-8.71-6.93c-4.82-0.55-8.65,1.32-10.94,5.53c-3.89,7.16-4.12,14.64-0.64,22.02c2.39,5.05,6.7,7.19,11.97,6.54
		c2.64-0.32,4.86-1.49,6.4-3.6c1.07-1.46,1.95-3.11,2.63-4.79C962.95,566.44,963.09,566.3,967.45,567.13z"/>
	<path d="M744.68,582.07c-1.77,0-3.26,0-4.99,0c-0.05-1.01-0.12-1.9-0.12-2.79c-0.01-10.39,0-20.78-0.01-31.18
		c0-3.18,0-3.18-3.29-3.18c-2.83,0-5.65-0.03-8.48,0.01c-1.61,0.03-1.7-1.02-1.58-2.14c0.1-1-0.61-2.59,1.29-2.6
		c10.07-0.04,20.13-0.02,30.32-0.02c0,1.61,0,3.02,0,4.75c-3.69,0-7.26,0.09-10.82-0.04c-1.83-0.07-2.36,0.54-2.35,2.34
		c0.07,10.62,0.03,21.24,0.03,31.86C744.68,580.01,744.68,580.92,744.68,582.07z"/>
	<path d="M182.4,540.39c0,1.44,0,2.78,0,4.54c-3.26,0-6.43,0-9.6,0c-3.5,0-3.5,0.01-3.5,3.44c0,10.15,0,20.3,0,30.45
		c0,3.46,0.01,3.47-3.51,3.36c-0.45-0.01-0.89-0.08-1.67-0.15c0-0.86,0-1.67,0-2.47c0-10.61-0.05-21.22,0.05-31.83
		c0.02-2.12-0.43-3.01-2.74-2.85c-2.89,0.21-5.8-0.04-8.7,0.08c-2.04,0.08-1.91-1.15-1.91-2.52c0-1.3-0.08-2.36,1.82-2.35
		c9.46,0.07,18.93,0.03,28.39,0.04C181.46,540.14,181.9,540.29,182.4,540.39z"/>
	<path d="M331.62,581.9c-5.26,0.84-5.24,0.84-5.23-3.95c0.01-10.15-0.04-20.29,0.04-30.44c0.02-1.95-0.44-2.75-2.53-2.63
		c-3.04,0.17-6.1-0.03-9.15,0.06c-1.73,0.05-1.82-0.95-1.73-2.21c0.07-1.13-0.48-2.58,1.56-2.58c9.84,0.04,19.68,0.04,29.52,0.07
		c0.14,0,0.27,0.11,0.57,0.24c0,1.33,0,2.73,0,4.45c-2.22,0-4.33-0.05-6.44,0.01c-2.1,0.06-4.86-0.52-6.11,0.57
		c-1.06,0.94-0.47,3.85-0.48,5.88c-0.03,9.38-0.02,18.77-0.02,28.15C331.62,580.3,331.62,581.05,331.62,581.9z"/>
	<path d="M223.35,444.98c3.67,2.6,6.93,4.92,10.24,7.27c-1.97,3.38-3.91,6.93-6.13,10.29c-0.5,0.76-1.99,1.04-3.06,1.14
		c-0.28,0.03-1-1.45-1.01-2.25C223.3,456.05,223.35,450.65,223.35,444.98z"/>
</g>
<g id="Layer_2">
</g>
</svg>
