<?xml version="1.0" encoding="utf-8"?>
<!-- Generator: Adobe Illustrator 28.1.0, SVG Export Plug-In . SVG Version: 6.00 Build 0)  -->
<svg version="1.1" xmlns="http://www.w3.org/2000/svg" xmlns:xlink="http://www.w3.org/1999/xlink" x="0px" y="0px"
	 viewBox="0 0 1162.2 595.28" style="enable-background:new 0 0 1162.2 595.28;" xml:space="preserve">
<g id="Layer_1">
	<path d="M1046.31,364.33c15.05,0,30.13,0.63,45.14-0.15c22.06-1.15,36.49,10.96,49.03,26.6c4.95,6.17,4.2,12.81-1.18,18.78
		c-5.63,6.24-12.24,7.56-19.33,3.12c-3.66-2.29-7.12-5.28-9.83-8.64c-6.11-7.58-13.8-9.58-23.23-9.53
		c-31.34,0.18-62.74,0.71-94.03-0.77c-51.66-2.44-83.76-35.96-85.45-87.65c-0.44-13.47-0.49-26.98,0.12-40.44
		c2.23-49.21,31.76-80.77,80.72-85.08c17.7-1.56,35.77-1.54,53.47,0.02c47.76,4.2,77.38,34.79,80.21,82.56
		c1.26,21.25,0.65,42.63,0.5,63.94c-0.07,9.48-5.8,14.9-14.53,14.98c-9.01,0.07-14.38-5.58-14.55-15.79
		c-0.31-18.17,0.34-36.4-0.78-54.51c-2.59-42.28-18.44-58.81-60.25-61.56c-16.43-1.08-33.28-0.12-49.57,2.36
		c-23.59,3.58-39.16,18.54-41.82,42.13c-2.39,21.25-2.82,43.3,0.02,64.43c3.72,27.69,22.61,42.25,52.7,44.15
		c17.48,1.1,35.08,0.2,52.62,0.2C1046.31,363.77,1046.31,364.05,1046.31,364.33z"/>
	<path d="M526.82,396.78c-17.19-2.95-34.95-4.07-51.44-9.25c-29.86-9.39-48.12-31.79-51.92-62.16c-3.15-25.2-3.54-51.5-0.04-76.6
		c5.22-37.36,30.11-61.4,68.02-66.51c23.92-3.23,48.97-3.23,72.9-0.05c38.83,5.16,62.04,29.66,69.09,69.07
		c4.55,25.43,4.54,51.3-0.93,76.65c-8.3,38.46-37.41,62.55-78.1,65.73c-9.05,0.71-18.14,0.91-27.21,1.35
		C527.07,395.59,526.94,396.19,526.82,396.78z M527.68,364.23c10.03-0.84,19.76-1.13,29.33-2.55c26.17-3.88,42.06-17.45,45.63-43.8
		c2.75-20.23,3-41.36,0.44-61.6c-3.53-27.86-19.27-42.44-47.22-45.29c-19.14-1.95-38.84-1.73-57.98,0.38
		c-24.92,2.75-41.35,17.92-44.44,42.8c-2.63,21.18-2.63,43.23,0.06,64.4c3.17,24.96,19.61,38.95,44.54,42.92
		C507.9,363.07,517.96,363.37,527.68,364.23z"/>
	<path d="M21.35,322.89c0-19.44-1.19-38.97,0.23-58.3c3.77-51.14,32.22-80.23,83.7-84.15c21.36-1.63,43.43-0.92,64.54,2.55
		c36.42,5.99,59.79,31.14,64.45,67.66c1.87,14.68,1.51,30.26-1.2,44.8c-6.86,36.86-36.22,61.01-76.93,64.16
		c-19.34,1.5-38.85,1.08-58.28,1.02c-10.38-0.03-15.55-5.53-15.47-14.89c0.08-9.36,5.33-14.16,15.85-14.37
		c16.92-0.35,33.94,0.44,50.74-1.19c42.83-4.14,61.31-28.06,56.14-70.94c-3.19-26.43-16.18-42.69-42.77-46.36
		c-21.15-2.92-43.29-3.4-64.43-0.63c-31.28,4.1-46.53,25.49-46.91,60.44c-0.36,33.55-0.07,67.11-0.1,100.67
		c0,3.13,0.09,6.31-0.37,9.38c-1.31,8.74-6.93,13.3-15.55,12.98c-8.5-0.32-13.77-5.34-13.9-14.49c-0.28-19.44-0.09-38.89-0.09-58.33
		C21.12,322.89,21.23,322.89,21.35,322.89z"/>
	<path d="M878.89,322.97c0,18.19,0.04,36.37-0.02,54.56c-0.04,12.41-5.03,18.34-15.1,18.19c-9.72-0.15-14.39-5.85-14.41-17.85
		c-0.04-32.92,0.04-65.85-0.03-98.77c-0.1-48.74-20.7-69.36-69.36-69.35c-10.33,0-20.71,0.04-30.98,0.98
		c-33.35,3.07-52.41,21.64-53.77,55.24c-1.45,35.69-0.62,71.47-0.82,107.2c-0.02,3.44,0.08,6.93-0.46,10.31
		c-1.35,8.49-6.75,12.44-15.14,12.18c-8.5-0.26-13.96-4.77-13.97-13.31c-0.04-40.75-1.99-81.68,1.14-122.2
		c3.93-50.88,36.62-78.64,89.14-80.63c13.76-0.52,27.66-0.65,41.33,0.72c53.31,5.32,81.97,37.26,82.42,90.99
		C879.01,288.48,878.89,305.73,878.89,322.97z"/>
	<path d="M262.95,253.32c0-19.44-0.09-38.87,0.03-58.3c0.07-11.11,5.09-16.88,14.37-17.05c9.5-0.18,14.83,5.97,14.85,17.48
		c0.06,31.66-0.1,63.32,0.1,94.98c0.05,8.12,0.56,16.32,1.76,24.35c4.44,29.73,22.59,46.23,54.37,48.55
		c16.53,1.21,33.19,0.74,49.79,1c11.95,0.19,17.47,4.74,17.71,14.63c0.23,9.86-5.49,15.76-16.88,15.59
		c-21.27-0.33-42.85,0.63-63.73-2.6c-43.37-6.71-69.18-36.45-71.64-80.35c-1.08-19.37-0.18-38.84-0.18-58.27
		C263.31,253.32,263.13,253.32,262.95,253.32z"/>
</g>
<g id="Layer_2">
</g>
</svg>
