<?xml version="1.0" encoding="utf-8"?>
<!-- Generator: Adobe Illustrator 28.1.0, SVG Export Plug-In . SVG Version: 6.00 Build 0)  -->
<svg version="1.1" id="Layer_1" xmlns="http://www.w3.org/2000/svg" xmlns:xlink="http://www.w3.org/1999/xlink" x="0px" y="0px"
	 viewBox="0 0 1162.2 595.28" style="enable-background:new 0 0 1162.2 595.28;" xml:space="preserve">
<path d="M116.88,117.3c19.07,0.17,37.98,1.62,56.71,5.09c17.09,3.17,33.69,8.06,49.92,14.31c15.64,6.02,30.21,14.04,44.34,22.95
	c14.31,9.02,27.23,19.8,39.26,31.6c5.72,5.61,11.01,11.73,16.02,18c5.7,7.14,11.07,14.57,16.21,22.12
	c3.17,4.66,5.75,9.74,8.41,14.73c2.5,4.7,5.01,9.42,7.07,14.32c1.82,4.31,3.11,8.85,4.49,13.33c1.46,4.71,3.38,9.39,3.99,14.22
	c1.23,9.77,2.43,19.6,0.51,29.49c-0.8,4.13-2.24,7.94-3.87,11.77c-1.11,2.62-1.84,5.42-2.55,8.19c-1.25,4.88-2.57,9.76-3.45,14.71
	c-0.51,2.85-0.12,5.85-0.28,8.78c-0.25,4.6-0.36,9.23-0.98,13.78c-1.14,8.36-5.7,14.3-13.43,17.86
	c-12.88,5.93-25.65,12.1-38.59,17.9c-15.96,7.15-32.43,12.82-49.64,16.2c-18.72,3.68-37.54,4.26-56.46,1.84
	c-14.73-1.89-28.91-5.9-42.84-10.89c-3.09-1.11-6.39-1.9-9.17,0.49c-1.48,1.27-2.8,3.11-3.38,4.95c-1.15,3.67-1.48,7.59-2.61,11.27
	c-1.77,5.79-1.7,11.69-1.63,17.59c0.04,3.69,0.36,7.4,0.84,11.07c0.59,4.54,1.45,9.05,2.24,13.57c0.24,1.4,0.83,2.75,0.93,4.15
	c0.16,2.33-0.66,3.12-3.11,2.89c-3.22-0.3-6.45-0.69-9.62-1.34c-13.02-2.65-24.07-9.22-34.29-17.41
	c-5.65-4.53-10.74-9.62-15.08-15.41c-2.94-3.92-5.72-7.96-8.44-12.04c-1.98-2.97-3.86-6.03-5.52-9.18
	c-1.18-2.24-1.88-4.73-2.89-7.07c-0.94-2.19-2.01-4.33-2.98-6.5c-0.38-0.84-0.71-1.71-0.95-2.6c-0.81-3.06-1.58-6.13-2.34-9.21
	c-1.21-4.94-2.52-9.85-3.52-14.83c-0.51-2.55-0.25-5.25-0.71-7.82c-1.76-10.02-1.63-20.1-0.93-30.18c0.41-5.82,1.1-11.62,1.87-17.4
	c0.56-4.23,1.36-8.44,2.23-12.63c0.83-3.99,1.94-7.92,2.8-11.91c0.57-2.62,0.78-5.33,1.4-7.94c0.83-3.52,2-6.95,2.86-10.46
	c1.03-4.21,1.75-8.49,2.84-12.68c1.03-3.94,2.45-7.78,3.55-11.7c1.04-3.72,1.81-7.52,2.86-11.24c0.92-3.25,2.13-6.42,3.1-9.65
	c1.04-3.49,1.91-7.02,2.92-10.52c0.37-1.29,1.02-2.51,1.4-3.8c1.12-3.78,2.08-7.61,3.26-11.37c0.92-2.93,2.17-5.76,3.12-8.68
	c1.7-5.24,3.24-10.54,4.95-15.79c0.65-2,1.49-3.95,2.39-5.86c1.34-2.84,0.47-6.57-1.51-9.03c-6.05-7.57-14.56-11.41-22.89-15.58
	c-14.33-7.18-29.76-10.49-45.42-13.12c-4.25-0.71-8.46-1.69-12.64-2.74c-2.88-0.73-3.06-1.67-0.99-3.78
	c7.12-7.24,15.79-11.9,25.28-15.21c16.2-5.65,32.97-8.47,50-9.75C93.58,118.24,105.24,117.88,116.88,117.3z M240.05,339.2
	c6.85,0.67,14.14-1.62,21.56-3.02c4.96-0.93,8.3-3.93,9.49-8.72c0.84-3.39,1.22-7.01,1.09-10.51c-0.22-6.15-1.6-12.07-3.81-17.91
	c-2.12-5.6-4.3-11.12-7.4-16.22c-1.98-3.26-4.11-6.47-6.55-9.39c-2.48-2.97-5.49-5.48-9.3-6.68c-2.15-0.68-4.28-0.62-6.03,1.1
	c-1.62,1.59-2.34,3.59-1.67,5.71c1.03,3.27,2.28,6.48,3.63,9.63c1.85,4.31,1.28,9.48-2.76,12.62c-5.03,3.92-10.59,4.18-16.07,1.25
	c-5.26-2.81-8.74-7.35-8.41-13.48c0.2-3.59,1.9-7.12,3.07-10.63c0.63-1.9,1.62-3.67,2.32-5.55c1.2-3.24,2.57-6.46,3.33-9.82
	c0.65-2.83,1.4-6.1,0.59-8.7c-1.51-4.84-4.39-9.31-8.62-12.28c-7.15-5.01-14.44-9.88-22.01-14.21c-7.59-4.34-15.46-8.28-24.07-10.33
	c-0.74-0.18-1.64,0.28-2.46,0.45c0.42,0.83,0.63,1.92,1.3,2.45c4.22,3.38,8.87,6.3,12.75,10.02c6.76,6.48,9.24,6.21,4.29,17.75
	c-2.04,4.76-3.69,9.71-5.21,14.67c-1.25,4.05-1.72,8.36-3.13,12.34c-1.61,4.54-1.62,9.12-0.93,13.64c0.71,4.61,2.12,9.13,3.38,13.64
	c0.79,2.82,1.61,5.68,2.85,8.32c4.21,8.9,10.37,16.22,18.46,21.87C211.57,335.5,225.01,338.59,240.05,339.2z"/>
<path d="M677.27,338.32c2.24-1.7,4.42-2.98,6.13-4.72c3.69-3.76,7.24-7.68,10.66-11.68c3.35-3.92,6.49-8.01,9.67-12.06
	c2.12-2.7,4.26-5.4,6.2-8.23c1.17-1.72,1.92-3.73,2.96-5.54c1.05-1.83,2.23-3.59,3.34-5.38c1.46-2.34,2.91-4.69,4.36-7.03
	c2.13-3.44,4.38-6.81,6.36-10.33c3.54-6.27,6.97-12.6,10.35-18.96c2.72-5.11,5.32-10.27,7.95-15.43c1.87-3.67,3.78-7.31,5.5-11.05
	c0.94-2.05,2.52-2.53,4.35-2.05c4.56,1.19,9.11,2.93,11.67,7.03c2.62,4.19,4.53,8.86,1.66,13.97c-2.13,3.8-3.95,7.76-6.02,11.59
	c-2.86,5.28-5.97,10.42-8.7,15.76c-2.34,4.58-4.42,9.31-6.37,14.08c-5.16,12.57-10.43,25.11-15.16,37.85
	c-1.77,4.76-2.14,10.03-3.15,15.07c0.38,0.25,0.76,0.49,1.14,0.74c0.41-0.71,0.77-1.45,1.24-2.12c4.92-6.9,9.87-13.78,14.78-20.69
	c2.91-4.1,5.84-8.2,8.57-12.42c2.12-3.27,3.89-6.76,5.95-10.07c1.74-2.8,3.75-5.43,5.5-8.21c1.48-2.35,2.72-4.85,4.17-7.23
	c1.08-1.78,2.42-3.41,3.45-5.21c1.41-2.46,2.67-5.01,3.93-7.56c1.26-2.55,2.47-5.12,3.62-7.72c1.16-2.62,2.13-5.32,3.33-7.91
	c1.2-2.57,2.6-5.05,3.88-7.59c1.16-2.29,2.33-4.57,3.41-6.9c1.1-2.38,2.01-4.86,3.18-7.2c1.13-2.27,2.69-4.34,3.71-6.65
	c4.19-9.46,10.45-17.59,16.41-25.91c2.91-4.06,5.97-8.09,9.44-11.66c6.79-6.97,14.11-13.45,23.87-15.92
	c10.67-2.7,20.71-2.08,28.72,6.86c2.43,2.71,4.13,5.67,4.79,9.29c0.32,1.75,1.17,3.41,1.07,4.56c2.79-2.42,5.7-4.71,8.35-7.28
	c7.32-7.12,15.37-12.92,25.76-14.47c5.43-0.81,10.81-0.31,15.95,1.73c5.45,2.17,8.99,6.29,11.43,11.49
	c3.83,8.18,3.41,16.44,0.65,24.79c-2.79,8.46-7.2,15.97-13.37,22.37c-5.19,5.38-10.45,10.73-16.04,15.68
	c-6.58,5.83-13.26,11.63-20.43,16.7c-7.02,4.96-14.7,8.98-22.09,13.4c-1.25,0.75-2.52,1.47-4.18,2.43c2.34,0,4.26,0.08,6.18-0.01
	c11.57-0.54,22.3-4.09,32.5-9.35c3.85-1.99,7.53-4.32,11.28-6.5c0.31-0.18,0.76-0.37,0.86-0.66c1-2.77,1.89-5.58,2.9-8.35
	c1.37-3.77,2.81-7.52,4.24-11.26c0.86-2.24,1.85-4.44,2.6-6.71c0.96-2.91,3.23-3.81,5.88-3.9c1.58-0.05,3.29,0.19,4.75,0.79
	c5.93,2.41,10.97,6.18,14.92,11.16c2.06,2.6,3.43,5.5,1.16,9.18c-1.75,2.83-2.3,6.38-3.63,9.5c-3.74,8.76-7.65,17.45-11.39,26.22
	c-1.57,3.67-2.8,7.48-4.32,11.17c-0.83,1.99-1.95,3.86-2.95,5.79c0.22,0.11,0.43,0.23,0.65,0.34c1.1-1.77,2.18-3.54,3.31-5.29
	c4.22-6.56,8.37-13.16,12.69-19.64c2.91-4.37,6.12-8.54,9.11-12.86c2-2.89,3.75-5.95,5.78-8.82c1.99-2.8,4.23-5.43,6.31-8.17
	c1.9-2.5,3.53-5.23,5.64-7.53c3.23-3.52,6.68-6.87,10.26-10.04c0.77-0.68,2.52-0.45,3.8-0.36c9.47,0.7,20.03,10.74,22.15,18.68
	c0.42,1.58,0.07,3.55-0.48,5.16c-2.78,8.17-5.74,16.28-8.65,24.41c-1.8,5.04-3.54,10.11-5.44,15.11c-1.12,2.94-2.56,5.76-3.79,8.66
	c-1.91,4.52-3.77,9.06-5.62,13.61c-0.19,0.47-0.17,1.03,0.22,1.78c1.6-2.48,3.21-4.96,4.8-7.45c2.22-3.47,4.56-6.87,6.62-10.44
	c2.4-4.15,4.43-8.52,6.86-12.65c5.27-8.99,10.59-17.95,16.1-26.79c2.94-4.72,6.34-9.14,9.49-13.73c1.99-2.9,3.76-5.97,5.9-8.76
	c1.64-2.13,3.42-4.4,5.65-5.75c1.52-0.92,4.08-0.86,5.93-0.34c6.86,1.92,12.26,6.28,16.83,11.54c2.87,3.3,3.93,7.41,2.47,11.75
	c-0.93,2.76-2.24,5.4-3.29,8.13c-1.28,3.32-2.38,6.71-3.71,10c-1.07,2.63-2.47,5.13-3.53,7.76c-1.22,3-2.19,6.1-3.35,9.13
	c-0.46,1.19-1.23,2.25-1.68,3.44c-1.18,3.11-2.24,6.26-3.4,9.38c-1.23,3.32-2.56,6.6-3.78,9.93c-0.44,1.2-0.6,2.51-1.03,3.72
	c-1.27,3.55-2.89,6.99-3.85,10.62c-0.98,3.7-1.37,7.56-1.93,11.36c-0.08,0.52,0.34,1.11,0.7,2.19c1.76-1.32,3.44-2.23,4.65-3.55
	c2.01-2.19,3.75-4.64,5.56-7.01c2.22-2.91,4.46-5.8,6.55-8.8c1.15-1.65,1.99-3.51,3.01-5.25c1.98-3.38,3.98-6.75,6-10.11
	c1.03-1.71,2.15-3.37,3.15-5.1c2.34-4.04,4.69-8.08,6.95-12.16c2.56-4.63,5.29-9.19,7.45-14c4.68-10.41,8.94-20.99,13.58-31.42
	c1.68-3.78,3.81-7.38,5.98-10.92c1.87-3.06,4.77-3.85,8.44-2.76c5.4,1.61,10.24,4.3,14.62,7.79c3.72,2.96,4.05,6.69,1.57,10.81
	c-1.42,2.37-2.25,5.09-3.4,7.62c-1.09,2.4-2.23,4.78-3.39,7.16c-1.17,2.4-2.36,4.78-3.61,7.14c-1.4,2.65-2.87,5.26-4.29,7.9
	c-0.93,1.72-1.89,3.41-2.71,5.18c-1.01,2.18-1.82,4.44-2.82,6.62c-1.35,2.95-2.83,5.83-4.17,8.78c-0.93,2.06-1.82,4.14-2.54,6.28
	c-3.4,10.03-7.16,19.96-8.67,30.53c-0.14,0.99-0.2,1.98-0.33,3.3c0.61-0.35,1.05-0.48,1.29-0.77c4.38-5.42,9.12-10.55,12.36-16.85
	c1.66-3.23,4.09-6.06,6.05-9.14c2.09-3.29,3.98-6.7,6.06-9.99c1.32-2.08,2.84-4.04,4.3-6.03c0.16-0.22,0.58-0.54,0.7-0.48
	c2.13,1.2,4.59,2.12,6.23,3.81c1.14,1.18,0.42,3.16-0.91,4.69c-1.32,1.51-2.15,3.43-3.24,5.15c-2.23,3.53-4.52,7.02-6.74,10.56
	c-1.07,1.71-1.96,3.54-3.07,5.22c-1.31,2-2.79,3.9-4.16,5.87c-1.03,1.48-2.08,2.95-2.97,4.51c-3.29,5.74-7.41,10.72-13.19,14.06
	c-6.06,3.51-17.26,1.71-21.77-3.54c-2.02-2.35-3.72-4.94-3.69-8.39c0.03-2.95-0.69-5.9-0.75-8.86c-0.04-1.79,0.56-3.6,0.81-5.41
	c0.08-0.58-0.05-1.19-0.13-2.53c-0.92,1.21-1.49,1.93-2.03,2.67c-2.08,2.83-4.12,5.69-6.23,8.49c-1.8,2.39-3.51,4.88-5.58,7.02
	c-3.59,3.71-6.77,8.61-12.22,9.21c-4.29,0.48-8.88-0.54-13.18-1.56c-5.64-1.34-10.45-4.38-14.35-8.79
	c-2.69-3.05-3.95-6.33-2.74-10.4c3.8-12.78,7.48-25.59,11.33-38.35c1.46-4.85,3.2-9.61,4.87-14.4c0.34-0.97,0.97-1.84,1.79-3.37
	c-0.98,0.57-1.51,0.7-1.73,1.04c-3.8,5.89-7.55,11.8-11.33,17.7c-4.74,7.41-9.53,14.8-14.24,22.23c-2.81,4.44-5.42,9.01-8.31,13.39
	c-2.8,4.25-5.87,8.31-8.76,12.5c-1.95,2.83-3.68,5.82-5.69,8.6c-1.53,2.12-3.18,4.23-5.1,5.99c-1.71,1.58-4.1,1.44-6.17,0.72
	c-6.93-2.41-12.31-7.07-16.87-12.61c-1-1.22-1.3-3.54-1-5.19c0.78-4.33,1.97-8.6,3.2-12.83c1.07-3.7,2.52-7.28,3.62-10.97
	c1.24-4.14,2.15-8.38,3.42-12.52c1.22-3.97,2.8-7.83,4.05-11.8c1.23-3.9,2.14-7.91,3.38-11.81c0.97-3.04,2.24-5.98,3.11-9.15
	c-0.9,0.99-1.9,1.9-2.68,2.98c-1.09,1.51-1.99,3.16-3.03,4.71c-1.34,1.99-2.75,3.95-4.12,5.92c-0.98,1.41-2.01,2.78-2.92,4.23
	c-6.75,10.78-13.46,21.58-20.22,32.35c-3.7,5.9-7.32,11.87-11.25,17.62c-2.75,4.01-6.02,7.66-8.94,11.56
	c-1.49,1.98-3.23,1.89-5.07,0.93c-3.98-2.07-7.51-4.76-10.23-8.37c-2.11-2.79-4.53-5.46-6.03-8.56c-0.85-1.77-0.33-4.33-0.03-6.49
	c0.29-2.08,1.05-4.09,1.67-6.12c0.47-1.51,1.11-2.98,1.55-4.5c0.38-1.31,0.45-2.72,0.89-4.01c1.27-3.71,2.72-7.36,3.98-11.07
	c0.49-1.44,0.57-3.02,1.06-4.46c1.27-3.7,2.76-7.34,4-11.05c0.65-1.93,0.95-3.98,1.49-6.29c-8.99,4.8-18.4,7.47-28.16,8.71
	c-6.19,0.78-12.46,0.98-18.7,1.22c-1.81,0.07-2.72,0.46-3.32,2.27c-2.51,7.57-5.21,15.07-7.82,22.6c-1.4,4.06-2.83,8.11-4.11,12.21
	c-1.25,3.98-2.22,8.05-3.51,12.02c-1.24,3.8-2.84,7.49-4.07,11.3c-1.21,3.75-2.06,7.62-3.26,11.38c-1.05,3.29-2.37,6.49-3.56,9.73
	c-0.13,0.36-0.27,0.72-0.37,1.09c-1.02,3.73-1.92,7.49-3.08,11.18c-1.2,3.82-2.67,7.55-3.98,11.34c-0.4,1.16-0.6,2.38-0.95,3.56
	c-0.82,2.75-1.53,5.55-2.6,8.2c-0.33,0.81-1.62,1.52-2.59,1.72c-7.39,1.52-14.76,3.32-22.23,4.2c-7.05,0.83-8.49-1.34-6.6-8.16
	c0.79-2.85,1.59-5.7,2.47-8.52c1.48-4.76,2.95-9.53,4.55-14.24c5.68-16.66,11.45-33.3,17.12-49.97c1.17-3.44,1.94-7.01,3.1-10.45
	c1.01-2.98,2.37-5.84,3.45-8.8c0.55-1.5,0.68-3.16,1.26-4.65c1.22-3.15,2.68-6.21,3.89-9.36c1.33-3.44,2.49-6.94,3.79-10.62
	c-4.98,0.76-9.57,1.72-14.2,2.1c-5.83,0.48-11.71,0.63-17.56,0.62c-2.07,0-3.08,0.48-3.62,2.49c-0.84,3.13-1.83,6.24-2.91,9.3
	c-1.09,3.12-2.49,6.14-3.53,9.27c-1.36,4.11-2.42,8.32-3.77,12.43c-1.03,3.13-2.32,6.18-3.49,9.27c-0.16,0.43-0.34,0.86-0.47,1.31
	c-1.01,3.57-1.9,7.18-3.05,10.71c-1.21,3.73-2.7,7.36-3.98,11.07c-0.4,1.15-0.37,2.44-0.76,3.59c-1.41,4.14-3.01,8.23-4.35,12.39
	c-1.09,3.38-1.92,6.85-2.87,10.28c-0.21,0.74-0.43,1.48-0.66,2.21c-0.6,1.94-1.18,3.89-1.83,5.82c-1.42,4.15-3.62,8.2-4.13,12.46
	c-0.6,5.03-4,5.52-7.46,6.24c-6.11,1.27-12.23,2.64-18.42,3.29c-6.56,0.69-8.16-1.26-6.35-7.64c2.88-10.16,6.18-20.19,9.36-30.27
	c1.48-4.7,3.07-9.37,4.63-14.05c2.5-7.47,5.04-14.94,7.54-22.41c1.03-3.07,2.02-6.16,2.61-9.52c-0.9,1.19-1.79,2.37-2.69,3.56
	c-5.45,7.18-11.16,14.13-17.99,20.08c-4.36,3.8-9.15,6.32-15.19,5.06c-3.86-0.8-6.94-2.73-9.25-6.05
	c-5.02-7.23-5.16-15.43-5.03-23.71c0.01-0.59,0-1.18,0-2.39c-1.52,1.62-2.72,2.78-3.79,4.05c-1.93,2.29-3.66,4.76-5.7,6.94
	c-2.78,2.96-5.63,5.88-8.71,8.53c-2.34,2.01-4.94,3.8-7.66,5.25c-6.79,3.62-13.21,2.36-18.93-2.38c-4.73-3.92-8.26-8.8-9.57-14.93
	c-0.99-4.61-0.63-9.14,1.53-13.47c0.49-0.98,0.37-2.26,0.74-3.32c7.28-20.95,14.56-41.9,24.88-61.63c2.02-3.87,3.84-7.85,5.96-11.66
	c0.85-1.52,2.06-3.1,3.51-3.96c3.2-1.89,5.84,0.35,8.09,2.16c2.55,2.05,4.73,4.59,6.9,7.08c3.48,4,3.78,8.67,1.33,13.46
	c-1.33,2.61-2.21,5.44-3.49,8.07c-1.11,2.28-2.56,4.4-3.72,6.65c-1.1,2.12-2.02,4.34-3.04,6.51c-1.25,2.68-2.56,5.33-3.78,8.02
	c-1.27,2.78-2.5,5.58-3.7,8.4c-1.45,3.41-2.91,6.81-4.23,10.27c-0.57,1.48-0.69,3.13-1.19,4.64c-2.29,6.97-3.36,14.15-3.94,21.43
	c-0.04,0.54-0.05,1.08,0,1.62C676.92,336.53,677.06,337.13,677.27,338.32z M874.24,265.55c0.2,0.14,0.41,0.28,0.61,0.42
	c2.39-1.62,4.84-3.17,7.17-4.89c4.55-3.36,9.13-6.7,13.51-10.29c2.89-2.37,5.5-5.09,8.12-7.76c2.04-2.09,3.92-4.34,5.85-6.55
	c1.96-2.25,4.02-4.42,5.8-6.81c2.97-3.97,5.6-8.19,8.64-12.09c4.53-5.82,7.88-12.22,10.27-19.15c1.47-4.25,1.79-8.61,0.72-12.99
	c-1.09-4.48-5.19-6.69-8.86-4.68c-1.97,1.08-3.95,2.44-5.4,4.12c-3.28,3.79-6.29,7.82-9.28,11.85c-1.24,1.67-2.07,3.63-3.21,5.39
	c-1.17,1.81-2.54,3.5-3.72,5.31c-1.16,1.76-2.24,3.57-3.26,5.41c-1.13,2.03-2.09,4.15-3.22,6.18c-2.01,3.58-4.11,7.11-6.13,10.69
	c-0.99,1.76-1.92,3.57-2.79,5.4c-1.29,2.72-2.49,5.49-3.77,8.22c-1.07,2.28-2.22,4.53-3.3,6.81c-1.27,2.67-2.45,5.38-3.78,8.02
	C876.95,260.66,875.56,263.09,874.24,265.55z M810.41,266.16c0.71-0.31,0.94-0.36,1.11-0.48c3.62-2.7,7.29-5.33,10.82-8.14
	c5.11-4.08,10.41-7.99,15.07-12.54c4.86-4.74,9.24-10,13.51-15.3c3.81-4.74,7.2-9.82,10.73-14.78c4.03-5.66,7.13-11.8,8.97-18.52
	c1.01-3.71,1.14-7.49,0.08-11.2c-1.35-4.74-5.6-6.67-9.62-3.97c-2.86,1.92-5.3,4.56-7.59,7.18c-2.06,2.36-3.65,5.12-5.46,7.7
	c-1.47,2.08-3.06,4.09-4.41,6.24c-1.83,2.91-3.46,5.94-5.24,8.88c-2.05,3.38-4.25,6.67-6.23,10.1c-1.27,2.2-2.19,4.6-3.38,6.85
	c-2.06,3.9-4.3,7.7-6.28,11.64c-1.56,3.1-2.81,6.35-4.25,9.51C815.71,254.79,813.17,260.22,810.41,266.16z M804.45,279
	c0.49,0.37,0.6,0.52,0.71,0.52c12.1,0.37,23.72-1.66,34.72-6.84c0.44-0.21,0.97-0.56,1.12-0.97c0.95-2.53,1.72-5.14,2.72-7.65
	c1.06-2.67,2.26-5.29,3.49-7.89c1.19-2.5,2.51-4.93,3.72-7.42c0.16-0.32-0.05-0.82-0.14-1.82
	C836.68,259.98,821.11,270.15,804.45,279z"/>
<path d="M560.14,316.68c5.58-0.74,10.47-2.45,15.22-4.64c10.13-4.67,19.03-11.16,26.89-18.97c4.54-4.51,8.67-9.47,12.71-14.44
	c3.11-3.82,6.06-7.83,8.58-12.05c2.33-3.91,4.03-8.19,5.91-12.36c1.29-2.87,2.71-5.74,3.49-8.77c0.94-3.63,1.3-7.41,1.86-11.14
	c0.81-5.38,0.03-10.74-1.11-15.93c-0.61-2.81-2.71-5.29-4.12-7.94c-1.73-3.25-4.42-5.57-7.19-7.92c-4.19-3.57-9.09-5.79-13.93-8.21
	c-9.41-4.7-19.43-4.46-29.46-3.67c-9.74,0.77-19.17,2.94-28.03,7.29c-8.59,4.22-16.09,9.81-22.24,17.13
	c-3.4,4.05-6.91,8.1-9.69,12.57c-2.82,4.54-4.87,9.57-7.14,14.44c-1.49,3.2-3.01,6.43-4.09,9.78c-1.34,4.14-2.33,8.4-3.31,12.64
	c-0.83,3.62-1.59,7.27-2.07,10.95c-0.2,1.52,0.4,3.14,0.64,4.72c0.31,2.03,0.62,4.06,0.97,6.32c-2.83,0.24-5.53-0.76-8.21-1.8
	c-10.56-4.06-15.7-12.4-17.19-23.02c-2.39-17,2.42-32.31,12.54-45.9c5.99-8.04,13.11-15.16,21.39-20.89
	c16.68-11.54,34.98-19.23,55.08-22.49c16.96-2.75,33.69-2.05,50.16,2.96c8.57,2.61,16.69,6.24,24.16,11.26
	c9.42,6.34,17.71,13.75,23.26,23.84c7.08,12.85,8.13,26.29,4.13,40.31c-2.93,10.26-7.27,19.85-13.42,28.55
	c-2.85,4.04-6.12,7.81-9.44,11.48c-3.41,3.78-6.83,7.63-10.75,10.85c-5,4.1-10.42,7.7-15.81,11.3
	c-9.87,6.58-20.73,10.98-32.17,13.99c-10.22,2.69-20.63,3.82-31.2,3.35c-1.26-0.06-1.8,0.31-2.19,1.44
	c-1.45,4.24-2.9,8.49-4.49,12.68c-1.27,3.36-2.79,6.63-4.08,9.98c-1.04,2.71-1.86,5.5-2.84,8.24c-1.01,2.85-2.15,5.65-3.12,8.51
	c-1.05,3.11-1.93,6.27-2.93,9.39c-0.85,2.66-1.63,5.36-2.7,7.94c-1.69,4.09-1.6,8.37-1.59,12.63c0.01,2.61,0.31,5.23,0.65,7.83
	c0.28,2.14-0.72,2.77-2.62,2.7c-5.83-0.21-11.09-2.21-16.07-5.08c-5.58-3.22-9.61-7.99-12.19-13.71c-1.77-3.94-1.92-8.35-0.45-12.65
	c0.96-2.82,1.57-5.75,2.54-8.56c1.52-4.38,3.24-8.68,4.82-13.04c0.92-2.55,1.67-5.15,2.6-7.69c1.01-2.76,2.18-5.45,3.2-8.2
	c1.15-3.1,2.14-6.26,3.36-9.33c1.91-4.82,4.04-9.54,5.9-14.37c1.84-4.78,3.37-9.68,5.22-14.45c1.62-4.19,3.61-8.23,5.23-12.42
	c1.66-4.3,2.97-8.73,4.58-13.05c1.26-3.37,2.84-6.63,4.14-9.99c1.44-3.72,2.69-7.52,4.11-11.26c1-2.62,2.18-5.18,3.21-7.79
	c0.78-1.98,1.37-4.03,2.14-6.02c4.03-10.35,8.05-20.69,12.15-31.01c1.14-2.88,2.52-5.67,3.8-8.49c0.99-2.18,2.94-2.45,4.64-1.55
	c2.58,1.36,5.3,2.87,7.22,4.99c3.61,3.98,6.85,8.34,9.93,12.75c2.12,3.03,2.63,6.73,1.52,10.23c-2.56,8.07-5.32,16.08-8.23,24.03
	c-1.85,5.06-4.2,9.93-6.17,14.95c-1.49,3.79-2.63,7.71-4.1,11.51c-2.18,5.64-4.56,11.19-6.75,16.82
	C564.74,304.23,562.54,310.26,560.14,316.68z"/>
<path d="M1135.38,187.64c5.24,0.25,9.05,2.45,12.49,5.35c2.63,2.22,4.66,4.9,5.65,8.31c0.88,3.02-0.08,5.49-1.85,7.86
	c-3.01,4.04-5.94,8.15-8.98,12.17c-1.45,1.92-2.92,3.88-4.69,5.49c-1.72,1.57-3.94,1.19-5.83,0.14c-4.64-2.57-9.44-5.2-12.22-9.81
	c-1.05-1.75-0.18-4.71-0.02-7.1c0.05-0.78,0.61-1.54,0.95-2.3c1.87-4.17,3.42-8.52,5.73-12.43c1.58-2.68,3.18-5.73,6.5-6.94
	C1134.02,188.04,1134.96,187.78,1135.38,187.64z"/>
</svg>
