<?xml version="1.0" encoding="utf-8"?>
<!-- Generator: Adobe Illustrator 28.1.0, SVG Export Plug-In . SVG Version: 6.00 Build 0)  -->
<svg version="1.1" xmlns="http://www.w3.org/2000/svg" xmlns:xlink="http://www.w3.org/1999/xlink" x="0px" y="0px"
	 viewBox="0 0 1162.2 595.28" style="enable-background:new 0 0 1162.2 595.28;" xml:space="preserve">
<g id="Layer_1">
	<path d="M10.56,180.65c1.42-0.55,2.85-1.57,4.27-1.57c40.28-0.09,80.56-0.07,120.83-0.07c32.44,0,64.88,0,97.32,0
		c15.8,0,28.46,12.6,28.47,28.42c0.03,28.47,0.03,56.94,0,85.4c-0.02,15.62-12.65,28.27-28.32,28.34
		c-12.03,0.06-24.06,0.01-36.09,0.01c-0.99,0-1.99,0-3.76,0c1.15,1.21,1.83,1.97,2.55,2.68c25.84,25.79,51.68,51.58,77.51,77.37
		c2.38,2.38,2.4,3.06,0.23,5.36c-22.42,0-44.84,0-67.26,0c-9.76-1.53-16.41-7.81-23.02-14.48c-22.93-23.12-46.07-46.04-69.08-69.09
		c-1.33-1.33-2.66-1.89-4.53-1.88c-12.93,0.07-25.86,0.03-38.79,0.04c-0.97,0-1.94,0.08-3.2,0.14c0,1.31,0,2.38,0,3.45
		c0,17.81,0.02,35.63-0.01,53.44c-0.02,12.45-8.05,23.28-19.97,26.99c-1.62,0.5-3.27,0.93-4.9,1.39c-10.73,0-21.47,0-32.26,0
		c0-39.11,0-78.23,0-117.34c0.15-0.31,0.39-0.61,0.45-0.95c2.94-14.96,14.01-24.07,29.26-24.07c53.49,0,106.98,0,160.46,0
		c1.15,0,2.3,0,3.47,0c0-9.62,0-18.85,0-28.38c-1.35,0-2.51,0-3.68,0c-53.76,0-107.52,0.04-161.28-0.03
		c-11.98-0.02-20.64-5.76-25.88-16.43c-1.33-2.72-1.9-5.81-2.81-8.74C10.56,200.66,10.56,190.65,10.56,180.65z"/>
	<path d="M849.94,406.6c-2.37-2.27-2.35-2.9,0.26-5.51c35.38-35.31,70.75-70.62,106.15-105.92c0.77-0.76,1.71-1.35,3.18-2.5
		c-1.4-1.03-2.39-1.58-3.16-2.35c-35.27-35.17-70.51-70.35-105.76-105.53c-0.64-0.64-1.36-1.25-1.85-1.99
		c-1.11-1.69-0.2-3.54,1.81-3.77c0.72-0.08,1.46-0.02,2.19-0.02c19.68,0,39.37-0.03,59.05,0.01c9.18,0.02,17.1,3.33,23.58,9.77
		c20.54,20.41,41,40.89,61.48,61.36c0.7,0.7,1.18,1.61,1.86,2.56c1.22-1.15,1.96-1.8,2.65-2.49c20.37-20.32,40.73-40.64,61.09-60.97
		c6.84-6.83,15.06-10.26,24.77-10.24c19.59,0.04,39.19-0.01,58.78,0.07c1.26,0.01,2.51,0.87,3.77,1.33
		c-0.54,1.31-0.73,2.97-1.66,3.9c-35.32,35.37-70.71,70.67-106.1,105.97c-0.77,0.77-1.71,1.36-3.3,2.61
		c1.43,0.99,2.44,1.49,3.19,2.24c35.4,35.29,70.77,70.6,106.15,105.91c2.58,2.58,2.62,3.13,0.44,5.57c-21.87,0-43.75,0-65.62,0
		c-0.21-0.15-0.4-0.4-0.63-0.43c-8.28-1.14-15.02-5.07-20.87-10.93c-19.92-20-39.93-39.9-59.91-59.84
		c-0.75-0.75-1.53-1.47-2.64-2.53c-0.88,1.07-1.5,1.99-2.27,2.76c-20.16,20.14-40.34,40.27-60.49,60.41
		c-4.41,4.4-9.55,7.53-15.55,9.22c-1.82,0.51-3.68,0.9-5.51,1.35C893.33,406.6,871.64,406.6,849.94,406.6z"/>
	<path d="M650.9,406.6c-3.15-1.07-6.49-1.78-9.41-3.29c-10.1-5.21-15.56-13.74-15.58-25.03c-0.14-65.13-0.07-130.25-0.06-195.38
		c0-3.4,0.52-3.9,3.97-3.9c8.38-0.01,16.77-0.01,25.15,0c15.28,0.02,27.91,12.69,27.92,28.08c0.02,46.12,0.01,92.23,0.01,138.35
		c0,1.25,0,2.5,0,4.13c1.55,0,2.79,0,4.03,0c46.48,0,92.95,0,139.43,0c4.49,0,4.74,0.24,4.72,4.82c-0.03,8.55,0.3,17.12-0.23,25.64
		c-0.83,13.47-10.22,23.56-23.49,26.07c-0.41,0.08-0.78,0.34-1.17,0.51C754.43,406.6,702.66,406.6,650.9,406.6z"/>
	<path d="M343.58,406.6c-3.17-1.04-6.54-1.69-9.48-3.19c-10.2-5.21-15.54-13.7-15.74-25.17c-0.14-8.27-0.03-16.55-0.03-24.83
		c0-3.43,0.38-3.84,3.7-3.84c73.07-0.01,146.14-0.03,219.22,0.02c14.96,0.01,27.54,12.56,27.7,27.44
		c0.09,8.64,0.09,17.28-0.06,25.92c-0.02,1.23-1.08,2.44-1.65,3.66C492.68,406.6,418.13,406.6,343.58,406.6z"/>
	<path d="M455.12,179.01c36.54,0,73.08,0,109.62,0c3.98,0,4.21,0.23,4.21,4.14c0,8.19,0.02,16.37,0,24.56
		c-0.05,15.56-12.57,28.14-28.12,28.14c-72.81,0.02-145.62,0.01-218.43,0.01c-3.83,0-4.07-0.24-4.08-4.01
		c-0.01-8.28-0.03-16.55,0-24.83c0.07-15.5,12.69-28,28.26-28.01C382.77,179.01,418.95,179.01,455.12,179.01z"/>
	<path d="M429.42,264.24c35.53,0,71.07,0,106.6,0c4.25,0,4.5,0.25,4.5,4.47c0,16.1,0,32.19,0,48.29c0,3.79-0.4,4.19-4.25,4.19
		c-71.25,0-142.5,0-213.75,0c-3.86,0-4.2-0.34-4.2-4.21c0-16.28-0.01-32.56,0-48.83c0-3.54,0.37-3.9,3.94-3.9
		C357.99,264.24,393.71,264.24,429.42,264.24z"/>
</g>
<g id="Layer_2">
</g>
</svg>
