<svg width="350" height="289" viewBox="0 0 350 289" fill="none" xmlns="http://www.w3.org/2000/svg">
<path d="M131 211L60.0998 128C59.3998 126.9 58.7998 125.9 58.2998 125C47.1998 131.8 44.4998 137.1 50.5998 151.5L124.1 238.5C144.1 253.9 156.3 259.7 183.6 256L288.6 230.5C298.7 223.6 301 217.9 296.6 203.3C295.8 203.7 295 204.1 294.1 204.5L204.1 225.5C172.6 232.8 154 237 131 211Z" fill="#D9D9D9"/>
<path d="M131 211L60.0998 128C59.3998 126.9 58.7998 125.9 58.2998 125C47.1998 131.8 44.4998 137.1 50.5998 151.5L124.1 238.5C144.1 253.9 156.3 259.7 183.6 256L288.6 230.5C298.7 223.6 301 217.9 296.6 203.3C295.8 203.7 295 204.1 294.1 204.5L204.1 225.5C172.6 232.8 154 237 131 211Z" fill="black" fill-opacity="0.2"/>
<path d="M138 194.5L65.9999 111C61.4999 106.3 59.1999 99.4 60.0999 93L55.4999 111.5C55.3999 117.3 55.5999 120.3 58.1999 125C58.6999 125.9 59.2999 126.9 59.9999 128L130.9 211C153.9 237 172.5 232.8 203.9 225.5L293.9 204.5C294.8 204.1 295.6 203.7 296.4 203.3C300.5 201.2 303.8 198.5 305.9 194C307.8 189.8 308.7 183.9 309.8 176.4L309.9 176C310.1 174.9 310.2 173.8 310.4 172.6C308.4 179.7 302 185.2 292.5 188.6L203 208.6C175 213.9 159.5 215.5 138 194.5Z" fill="black"/>
<path d="M138 194.5L65.9999 111C61.4999 106.3 59.1999 99.4 60.0999 93L55.4999 111.5C55.3999 117.3 55.5999 120.3 58.1999 125C58.6999 125.9 59.2999 126.9 59.9999 128L130.9 211C153.9 237 172.5 232.8 203.9 225.5L293.9 204.5C294.8 204.1 295.6 203.7 296.4 203.3C300.5 201.2 303.8 198.5 305.9 194C307.8 189.8 308.7 183.9 309.8 176.4L309.9 176C310.1 174.9 310.2 173.8 310.4 172.6C308.4 179.7 302 185.2 292.5 188.6L203 208.6C175 213.9 159.5 215.5 138 194.5Z" fill="black" fill-opacity="0.2"/>
<path d="M73.6 78.2L179.1 52.7C202.6 49.3 219.6 58.7 230.1 68.7L304.1 150.7C310.5 159.2 312.3 166.8 310.5 173.2C308.5 180.3 302.1 185.8 292.6 189.2L203.1 209.2C175.1 214.6 159.6 216.2 138.1 195.2L66.1 111.7C61.6 107 59.3 100.1 60.2 93.7C61 87.1 65.1 81 73.6 78.2Z" stroke="black"/>
<path fill-rule="evenodd" clip-rule="evenodd" d="M193.8 99.9999C188.5 96.3999 184.3 93.7999 180.9 91.7999C175.4 88.4999 169.8 86.6999 165.2 85.5999C160.1 84.2999 148.2 83.7999 144.3 86.4999C140.3 89.1999 138.8 92.0999 139.1 92.8999C139.4 93.6999 140.9 94.6999 143.1 96.2999C145.2 97.8999 155.9 105.9 157.9 107.2C160 108.5 161.5 109.3 164 108.5C166.5 107.6 173.1 106.1 175.1 105.6C177.1 105.1 178.7 105.6 180.8 107.2C183 108.8 190.3 113.2 197.4 121.6C202.9 128.1 205.4 134.7 206.1 136.7C206.8 138.7 205 139 203.4 139.3C201.9 139.6 199.9 140.1 198.2 140.5C196.5 140.9 195.7 141.4 194.3 142C192.9 142.7 192.9 143.7 193.1 144.6C193.3 145.6 194.6 154.5 195.1 158.2C195.6 161.8 197.9 162.1 199.5 162.7C201 163.3 202.7 163.9 204.4 164.5C206.1 165.1 209.1 165.7 212.2 165.1C215.3 164.5 223.8 163.3 227.7 156.1C231.6 148.9 226.2 138.8 225.4 137.4C224.7 135.9 215.9 115.3 193.8 99.9999Z" fill="#000001"/>
</svg>
