<svg xmlns="http://www.w3.org/2000/svg" width="350" height="289" viewBox="0 0 350 289" fill="none">
	<path d="M131 211L60.0611 128C59.351 126.91 58.749 125.921 58.2391 125C47.1831 131.774 44.4697 137.125 50.5 151.5L124 238.5C143.956 253.885 156.228 259.686 183.5 256L288.5 230.5C298.612 223.57 300.855 217.874 296.5 203.306C295.699 203.719 294.865 204.114 294 204.5L204 225.5C172.642 232.774 154 237 131 211Z" fill="#D9D9D9"/>
	<path d="M131 211L60.0611 128C59.351 126.91 58.749 125.921 58.2391 125C47.1831 131.774 44.4697 137.125 50.5 151.5L124 238.5C143.956 253.885 156.228 259.686 183.5 256L288.5 230.5C298.612 223.57 300.855 217.874 296.5 203.306C295.699 203.719 294.865 204.114 294 204.5L204 225.5C172.642 232.774 154 237 131 211Z" fill="black" fill-opacity="0.2"/>
	<path d="M138 194.5L66 111C61.5472 106.3 59.2328 99.4265 60.0611 93L55.5 111.5C55.4316 117.335 55.6282 120.284 58.2391 125C58.749 125.921 59.351 126.91 60.0611 128L131 211C154 237 172.642 232.774 204 225.5L294 204.5C294.865 204.114 295.699 203.719 296.5 203.306C300.641 201.167 303.904 198.522 306 194C307.942 189.81 308.788 183.942 309.874 176.404L309.875 176.394L309.879 176.368L309.883 176.342L309.947 175.899C310.105 174.801 310.269 173.668 310.443 172.5C308.474 179.585 302.046 185.095 292.5 188.5L203 208.5C174.98 213.927 159.5 215.5 138 194.5Z" fill="black"/>
	<path d="M138 194.5L66 111C61.5472 106.3 59.2328 99.4265 60.0611 93L55.5 111.5C55.4316 117.335 55.6282 120.284 58.2391 125C58.749 125.921 59.351 126.91 60.0611 128L131 211C154 237 172.642 232.774 204 225.5L294 204.5C294.865 204.114 295.699 203.719 296.5 203.306C300.641 201.167 303.904 198.522 306 194C307.942 189.81 308.788 183.942 309.874 176.404L309.875 176.394L309.879 176.368L309.883 176.342L309.947 175.899C310.105 174.801 310.269 173.668 310.443 172.5C308.474 179.585 302.046 185.095 292.5 188.5L203 208.5C174.98 213.927 159.5 215.5 138 194.5Z" fill="black" fill-opacity="0.2"/>
	<g xmlns="http://www.w3.org/2000/svg">
	<path d="M134.526 120.573L171.94 160.104C172.899 161.117 174.316 161.558 175.68 161.267L248.882 145.66C251.946 145.007 253.104 141.244 250.937 138.982L212.92 99.2725C211.981 98.2925 210.61 97.8549 209.278 98.1102L132.823 112.76C131.381 113.036 130.97 114.904 132.164 115.759V115.759C132.385 115.917 132.641 116.019 132.91 116.056L195.315 124.631C196.936 124.854 198.53 124.066 199.338 122.643L208.5 106.5" stroke="black" stroke-width="5" stroke-linecap="round"/>
	</g>
	<path d="M73.605 78.2071L179.105 52.7071C202.618 49.3132 219.605 58.7071 230.105 68.7071L304.105 150.707C310.49 159.221 312.315 166.848 310.548 173.207C308.579 180.292 302.151 185.802 292.605 189.207L203.105 209.207C175.085 214.634 159.605 216.207 138.105 195.207L66.105 111.707C61.6522 107.007 59.3378 100.134 60.1661 93.7071C61.012 87.1445 65.1351 81.0478 73.605 78.2071Z" stroke="black"/>
	<defs>
	
	</defs>
	</svg>